<svg width="80" height="80" viewBox="0 0 80 80" fill="none" xmlns="http://www.w3.org/2000/svg">
<g clip-path="url(#clip0_28097_42500)">
<path d="M58.2772 10.8003H26.0952C21.4955 10.8003 17.7666 14.5537 17.7666 19.1838V82.0515C17.7666 86.6816 21.4955 90.435 26.0952 90.435H58.2772C62.8769 90.435 66.6058 86.6816 66.6058 82.0515V19.1838C66.6058 14.5537 62.8769 10.8003 58.2772 10.8003Z" fill="#2A2A2A"/>
<path d="M66.0682 61.7028L66.1684 59.9676C66.2152 65.5331 66.115 68.1292 66.1951 72.8909L66.1718 72.6286C66.1484 73.3213 66.3756 73.7148 66.0983 81.3719H66.0882C66.0882 81.6342 66.115 81.6477 66.0782 82.1554C66.1116 81.7351 66.1217 81.2777 66.145 80.8406C66.1617 81.234 66.1751 81.6073 66.1918 82.0142C66.1818 82.3908 66.2085 82.8011 66.1183 83.2853C66.0749 83.4905 66.0448 83.5577 66.0281 83.5745C65.8677 84.3581 65.5971 85.1147 65.2196 85.8209C65.0693 86.0193 64.9357 86.2211 64.7787 86.4094C64.5749 86.7087 64.5548 86.8196 64.4178 87.0382C64.2642 87.2366 64.0337 87.5965 63.2452 88.185C63.9 87.815 62.4969 88.8239 62.7074 88.6995C62.6138 88.7465 62.4134 88.8441 62.2497 88.9248C61.7318 89.2005 60.9635 89.5704 60.2051 89.7352C60.0213 89.7957 59.8309 89.8092 59.6572 89.8462C59.4801 89.8731 59.3164 89.9202 59.1661 89.9235C58.8621 89.9471 58.6182 89.9706 58.4812 89.9908C58.4812 89.9908 58.7719 89.9908 59.2296 89.9874C59.4568 89.9773 59.724 89.937 60.0213 89.9101C60.312 89.8563 60.6327 89.7957 60.9534 89.7117C61.2708 89.6074 61.6082 89.5233 61.9156 89.3754C62.0726 89.3081 62.2296 89.2476 62.38 89.1736C62.5269 89.0929 62.6673 89.0156 62.8076 88.9416C63.3555 88.6322 63.7931 88.3027 64.0437 88.0975C63.88 88.2421 63.7564 88.3598 63.6528 88.4405C63.5492 88.5179 63.4757 88.5717 63.4256 88.6087C63.3321 88.6793 63.3388 88.6793 63.3989 88.6389C63.459 88.5986 63.576 88.5212 63.6929 88.4439C63.8031 88.3565 63.9134 88.2657 63.9835 88.2119L64.0537 88.1143C64.8121 87.398 64.8421 87.4115 65.1729 87.0012C65.1695 87.0012 65.1562 87.008 65.1395 87.0147L65.106 87.0752C65.0693 87.1088 65.0793 87.0819 65.106 87.0315C65.0893 87.0315 65.106 86.9878 65.2831 86.7625L65.2564 86.8096C65.3867 86.6313 65.527 86.3657 65.6807 86.1235C65.8277 85.8781 65.9312 85.6258 66.0114 85.4779L66.0615 85.4913C66.0949 85.4005 66.1551 85.2526 66.2152 85.0643C66.2753 84.8726 66.3822 84.6506 66.4491 84.385C66.6027 83.8604 66.7664 83.2046 66.8165 82.522C66.8533 82.1823 66.87 81.8393 66.8767 81.5098C66.89 81.1802 66.9001 80.8608 66.9134 80.5682C66.9335 79.9831 66.9502 79.5022 66.9502 79.2399C67.0136 78.1772 66.9335 76.8556 66.9669 75.5307C66.9836 73.4155 67.0404 74.4714 67.0838 73.4088C67.1139 72.0805 67.0237 73.6778 67.0203 73.1465L67.0905 71.5559C67.0972 72.4806 67.1272 71.9796 67.1473 71.8081C67.1573 70.4327 67.2475 68.267 67.1473 67.8433C67.194 65.9904 67.2341 65.9837 67.2408 65.1901C67.2241 65.4557 67.2074 65.9837 67.184 65.9904C67.2275 65.2472 67.174 65.6339 67.164 65.94C67.1206 64.8067 67.3477 60.0618 67.2375 59.823H67.2575C67.174 59.5607 67.0938 59.9811 67.0504 59.1908L67.0871 58.6628L67.0504 57.8692C67.0771 57.3345 67.1005 57.5968 67.1105 57.5968C67.0738 56.3021 67.1172 54.4963 67.1272 52.9259L66.9034 54.5871C66.9569 53.2622 67.0604 50.8779 66.9869 50.6123L67.0638 49.8187C67.2074 47.1654 67.0003 47.9657 67.0437 46.9065L67.1272 45.5748V46.8997C67.1673 45.5748 67.194 45.0435 67.2475 43.9875V43.9775C67.2442 44.0514 67.2408 44.0985 67.2341 44.1086V43.9236C67.1907 43.7622 67.164 43.0729 67.1673 42.138C67.1773 40.8097 67.1172 39.7739 67.2041 37.6554L67.1206 37.1274L67.1707 35.5368H67.2375C67.2442 37.0938 67.2542 40.0262 67.2609 42.0304L67.2909 42.0674C67.2843 40.8803 67.2742 39.5285 67.2675 38.7449C67.2809 38.3616 67.3511 37.383 67.3945 38.0925L67.3277 37.3594C67.321 33.3947 67.3177 33.3712 67.3912 29.2315L67.3577 29.5914C67.3377 28.7708 67.3177 27.9537 67.3745 27.725C67.3845 25.2399 67.4279 22.6673 67.5114 21.0565L67.4312 20.7034C67.4312 20.1755 67.5582 19.3953 67.4413 19.133C67.4012 18.7328 67.4012 18.3293 67.311 17.9359C67.2809 17.7475 67.2542 17.576 67.2275 17.4113C67.1907 17.2498 67.1439 17.0985 67.1005 16.9405C67.0537 16.7858 67.0237 16.6244 66.9669 16.4529C66.9067 16.2847 66.8466 16.0998 66.7831 15.8913V15.8879C66.7664 15.8375 66.7497 15.7837 66.7364 15.7299C66.7364 15.7299 66.7364 15.7366 66.7364 15.7399C66.3856 14.943 66.3655 14.9564 66.3421 14.9396C66.3288 14.9295 66.3121 14.9161 66.2386 14.795C66.1551 14.6773 66.0415 14.4385 65.7675 14.0283C65.6005 13.7559 65.4769 13.6281 65.3199 13.4768C65.1495 13.3389 64.9624 13.1607 64.6317 12.8143L64.3143 12.4478L64.1539 12.2628L63.9769 12.0947C63.8031 11.9568 63.6495 11.8357 63.5091 11.7214C63.3588 11.6205 63.2152 11.5364 63.0815 11.4524C62.8176 11.2809 62.557 11.1632 62.2764 11.0421C61.7185 10.8 61.0436 10.5444 59.7975 10.3393C59.6505 10.309 59.5102 10.2821 59.3799 10.2586C59.2496 10.2451 59.1327 10.2317 59.0258 10.2182C58.812 10.1913 58.6516 10.1644 58.5514 10.1409C58.3576 10.0938 58.4044 10.0467 58.8153 10.0232C58.675 10.0299 58.5614 10.0366 58.4679 10.04C58.381 10.0501 58.3142 10.0568 58.2574 10.0635C58.1405 10.0736 58.0703 10.0803 57.9935 10.0871C57.8298 10.0938 57.6327 10.1005 56.9478 10.124C56.7373 10.0803 56.8843 10.0736 57.185 10.0333C55.969 9.98281 56.4333 10.0702 55.5179 10.0702C55.2507 10.151 54.9433 10.2787 54.646 10.2855L55.0001 10.309C54.0279 10.3527 52.9689 10.3729 51.8397 10.3325L51.8831 10.2922L50.6805 10.3124L50.6036 10.2619L48.8865 10.2787L49.1203 10.2922C48.7161 10.2989 47.3931 10.3157 46.6381 10.2922L46.6648 10.2619C44.53 10.1711 42.7694 10.2888 40.2705 10.2989L40.5979 10.2384C39.746 10.1812 40.3641 10.3292 39.3485 10.2989L39.2983 10.2283C38.4064 10.3225 38.1424 10.2081 37.5277 10.1711L37.815 10.2653L36.6558 10.2451C35.3796 10.2148 35.874 10.124 36.0578 10.077L35.1892 10.151L35.0188 10.0669C34.384 10.1644 34.384 10.0501 33.2715 10.1039C33.1813 10.0736 33.462 10.0534 33.0845 10.04L31.2504 10.1577L32.3562 10.1039L32.2225 10.2249C31.0699 10.3191 30.659 10.2115 29.8372 10.2451L30.4051 10.2081C29.0621 10.2384 28.9886 10.1846 28.2303 10.1577C28.4641 10.1812 28.8249 10.2148 28.2804 10.2317C27.8795 10.2384 28.0632 10.1879 27.6857 10.1745C27.6389 10.2148 27.3784 10.2451 27.0142 10.2619C26.8338 10.2687 26.6267 10.2754 26.4129 10.2754C26.1991 10.2754 25.9518 10.2888 25.7213 10.2888C25.7313 10.2754 25.7514 10.2653 25.8115 10.2552C25.5743 10.2821 25.4541 10.2956 25.0431 10.3426L25.2737 10.2148L24.4952 10.4233C24.2347 10.4771 23.9206 10.5679 23.6768 10.6386C23.4396 10.726 23.2759 10.7899 23.2992 10.7495L23.5799 10.6285C22.2937 11.0387 21.1043 11.7483 20.1188 12.6764L20.0286 12.663C19.9685 12.7437 19.8449 12.8916 19.6979 13.0631C19.5509 13.2346 19.3638 13.4162 19.2201 13.618C19.0698 13.8131 18.9328 13.9946 18.846 14.1258C18.7658 14.2637 18.7357 14.3477 18.7791 14.3376C18.6689 14.4957 18.5018 14.7277 18.3615 15.0068C18.2312 15.2927 18.0642 15.592 17.9707 15.8778C17.8671 16.1603 17.7769 16.4058 17.7201 16.5605C17.67 16.7118 17.6366 16.7622 17.6332 16.6412C17.4462 17.2902 17.3526 17.8854 17.3159 18.4537C17.3092 18.7328 17.2925 19.022 17.2958 19.281C17.3025 19.5366 17.3092 19.7888 17.3159 20.0443C17.3393 21.0734 17.356 22.1696 17.3225 23.6863C17.2056 24.7657 17.2424 27.7284 17.229 29.6754C17.2791 33.4821 17.3092 35.9437 17.3593 39.8345C17.1956 42.175 17.4161 45.6723 17.3225 48.1911L17.3894 48.8804C17.2858 50.5551 17.4127 53.1108 17.3125 55.4581C17.3426 56.0331 17.3493 56.3358 17.3526 56.4703C17.3526 56.3627 17.3693 56.2013 17.4094 56.1508C17.3793 56.82 17.4161 58.1786 17.3326 58.0811L17.3225 57.9096C17.239 57.8121 17.3626 59.9441 17.2891 60.694L17.3793 60.2837L17.3626 61.5549L17.3459 61.2152C17.543 66.7336 17.2624 69.2254 17.4428 74.4075C17.3459 73.7215 17.4929 75.4298 17.386 75.4971C17.2524 76.8052 17.4161 77.9183 17.4495 78.991C17.4562 78.991 17.4595 79.0045 17.4695 79.065L17.4562 80.9381C17.3225 79.8183 17.5664 82.2866 17.4562 81.2609C17.4562 81.5703 17.4361 81.8696 17.4462 82.2025C17.4528 82.3707 17.4595 82.5388 17.4662 82.7103L17.4762 82.9659L17.513 83.2214C17.5597 83.5645 17.6032 83.9175 17.7034 84.2606C17.7502 84.4321 17.7836 84.6103 17.8404 84.7818C17.9005 84.9533 17.964 85.1248 18.0241 85.2963C18.5252 86.675 19.4573 87.9395 20.6299 88.9416C21.8293 89.9101 23.2859 90.623 24.826 90.855L25.4006 90.9425L25.9786 90.9727C26.3761 90.9996 26.7169 90.9828 27.081 90.9895C27.8026 90.9929 28.5142 90.9963 29.2158 90.9996L28.9686 90.966C30.3918 90.9727 32.1657 90.929 33.2448 90.9862C34.3272 91.04 35.6101 90.8987 36.0277 90.892C37.2137 90.8315 38.2894 90.9525 37.7816 90.9458C39.0478 90.929 40.2405 90.8046 41.9977 90.8584C42.5991 90.9727 46.7918 90.7474 46.8452 90.8752L46.8653 90.8651C49.117 90.9559 51.2384 90.8012 53.6638 90.8853C53.6638 90.8853 53.617 90.8954 53.5368 90.9021L58.4712 90.5087L57.0647 90.0782L52.7885 89.7285L41.1993 89.8058L31.9486 89.668L26.3193 89.678C24.6088 89.668 22.9084 89.1097 21.5754 88.0269C20.2457 86.9542 19.2602 85.4308 18.8927 83.7494C18.7023 82.902 18.6889 82.0747 18.6956 81.0961L18.6889 78.2647L18.5921 76.6471C18.7624 72.1948 18.5653 66.4847 18.6889 61.686L18.6054 61.5851C18.6021 60.2333 18.6522 60.3241 18.6655 59.9912C18.6455 47.4109 18.5353 34.4607 18.6422 23.1415C18.6689 22.5967 18.6756 21.4937 18.6823 20.421C18.6823 20.1519 18.6856 19.8863 18.6856 19.6307C18.6856 19.3718 18.6856 19.1297 18.7056 18.9312C18.7223 18.7261 18.729 18.5412 18.7457 18.3831C18.7758 18.2284 18.8025 18.1006 18.8226 17.9997C18.9295 17.1725 19.1667 16.3419 19.5609 15.5785C19.9551 14.8152 20.4863 14.1157 21.121 13.5238C21.7525 12.932 22.4841 12.4444 23.2759 12.1047C24.0676 11.7685 24.9095 11.5768 25.7481 11.5163L25.6211 11.5331C25.8884 11.5196 26.1389 11.4961 26.4229 11.4893L27.2848 11.4826C27.3583 11.4893 27.3683 11.4994 27.3115 11.5062C29.2559 11.4322 32.3161 11.5062 34.6947 11.5364L34.5544 11.5465C41.4933 11.5297 48.1849 11.5129 54.8631 11.4961L57.3654 11.4893C57.7763 11.4893 58.2106 11.4793 58.6048 11.4927L59.1828 11.5196C59.3732 11.5331 59.5637 11.5734 59.7541 11.6003C61.2741 11.8424 62.704 12.589 63.8165 13.6718C64.3644 14.22 64.8388 14.8488 65.2163 15.5314C65.5771 16.2242 65.8343 16.9707 65.988 17.7408L66.0749 18.3226C66.1016 18.5176 66.0983 18.716 66.1116 18.9111L66.125 19.207V19.5298L66.1183 20.1755C66.1116 21.0364 66.1049 21.8972 66.0983 22.7649C65.9613 29.208 66.1484 36.7037 66.0381 44.0952C65.9546 45.4504 66.0181 60.4048 66.0548 61.7264L66.0682 61.7028Z" fill="#2A2A2A"/>
<path d="M55.6304 10.8003H23.4485C18.8487 10.8003 15.1199 14.5537 15.1199 19.1838V82.0515C15.1199 86.6816 18.8487 90.435 23.4485 90.435H55.6304C60.2302 90.435 63.9591 86.6816 63.9591 82.0515V19.1838C63.9591 14.5537 60.2302 10.8003 55.6304 10.8003Z" fill="white"/>
<g clip-path="url(#clip1_28097_42500)">
<path d="M27.134 28.1036C28.2147 28.1036 29.0908 27.2436 29.0908 26.1828C29.0908 25.1219 28.2147 24.262 27.134 24.262C26.0533 24.262 25.1772 25.1219 25.1772 26.1828C25.1772 27.2436 26.0533 28.1036 27.134 28.1036Z" fill="#ED6D21"/>
<path d="M35.9571 29.6167H31.8183C31.7303 29.6167 31.6599 29.5476 31.6599 29.4613V22.8593C31.6599 22.773 31.7303 22.7039 31.8183 22.7039H32.8811C32.9691 22.7039 33.0395 22.773 33.0395 22.8593V28.2556C33.0395 28.3419 33.1099 28.411 33.1979 28.411H35.9606C36.0486 28.411 36.119 28.4801 36.119 28.5665V29.4613C36.119 29.5476 36.0486 29.6167 35.9606 29.6167H35.9571Z" fill="#ED6D21"/>
<path d="M37.935 22.7039H38.9978C39.0858 22.7039 39.1562 22.773 39.1562 22.8593V29.4613C39.1562 29.5476 39.0858 29.6167 38.9978 29.6167H37.935C37.847 29.6167 37.7766 29.5476 37.7766 29.4613V22.8593C37.7766 22.773 37.847 22.7039 37.935 22.7039Z" fill="#ED6D21"/>
<path d="M46.7688 22.9111L44.27 29.5614C44.2454 29.6236 44.1891 29.6616 44.1222 29.6616H43.355C43.2881 29.6616 43.2283 29.6202 43.2071 29.5614L40.6908 22.9146C40.6521 22.8144 40.7295 22.7073 40.8386 22.7073H42.0985C42.1654 22.7073 42.2252 22.7488 42.2464 22.811L43.6858 26.9566C43.7351 27.0982 43.9392 27.0948 43.9849 26.9566L45.3645 22.811C45.3857 22.7488 45.4455 22.7039 45.5159 22.7039H46.6245C46.7336 22.7039 46.811 22.811 46.7723 22.9111H46.7688Z" fill="#ED6D21"/>
<path d="M48.3242 22.7039H52.1815C52.2695 22.7039 52.3399 22.773 52.3399 22.8593V23.7541C52.3399 23.8405 52.2695 23.9095 52.1815 23.9095H49.7003C49.6124 23.9095 49.542 23.9786 49.542 24.065V25.364C49.542 25.4503 49.6124 25.5194 49.7003 25.5194H51.9281C52.0161 25.5194 52.0865 25.5885 52.0865 25.6749V26.5697C52.0865 26.656 52.0161 26.7251 51.9281 26.7251H49.7003C49.6124 26.7251 49.542 26.7942 49.542 26.8806V28.259C49.542 28.3454 49.6124 28.4145 49.7003 28.4145H52.2308C52.3188 28.4145 52.3892 28.4836 52.3892 28.5699V29.4647C52.3892 29.5511 52.3188 29.6202 52.2308 29.6202H48.3207C48.2327 29.6202 48.1624 29.5511 48.1624 29.4647V22.8593C48.1624 22.773 48.2327 22.7039 48.3207 22.7039H48.3242Z" fill="#ED6D21"/>
</g>
<path d="M52.8013 10.0606C52.8313 10.0606 52.848 10.0606 52.8781 10.0606C52.9349 10.0437 52.9884 10.0303 53.0385 10.0168L52.8013 10.0606Z" fill="#2A2A2A"/>
<path d="M64.0764 15.636C64.0898 15.6663 64.0965 15.6864 64.1031 15.7167C64.1098 15.7066 64.1299 15.7167 64.0764 15.636Z" fill="#2A2A2A"/>
<path d="M23.4122 10.2288C23.2952 10.2321 23.2284 10.2422 23.1816 10.2489C23.2485 10.2422 23.3186 10.2355 23.4122 10.2288Z" fill="#2A2A2A"/>
<path d="M24.6782 11.4897C24.6147 11.4897 24.5446 11.4931 24.4878 11.4965C24.588 11.4965 24.6415 11.4965 24.6782 11.4897Z" fill="#2A2A2A"/>
<path d="M53.0383 10.0168L53.1319 10C53.1018 10.0034 53.0717 10.0101 53.0383 10.0168Z" fill="#2A2A2A"/>
<path d="M64.7713 27.6514C64.7713 27.6514 64.7479 27.6816 64.7412 27.7153C64.7412 27.7287 64.7412 27.7422 64.7412 27.7489L64.7713 27.6514Z" fill="#2A2A2A"/>
<path d="M64.5943 43.9172C64.5943 43.9172 64.6043 43.971 64.6076 43.9744C64.621 43.6953 64.6243 42.9622 64.6243 42.024L64.5742 41.9668L64.5943 43.9172Z" fill="#2A2A2A"/>
<path d="M63.4215 61.7033L63.5217 59.9681C63.5685 65.5336 63.4682 68.1296 63.5484 72.8914L63.525 72.6291C63.5017 73.3218 63.7288 73.7153 63.4515 81.3724H63.4415C63.4415 81.6347 63.4682 81.6481 63.4315 82.1559C63.4649 81.7356 63.4749 81.2782 63.4983 80.8411C63.515 81.2345 63.5284 81.6078 63.5451 82.0147C63.5351 82.3913 63.5618 82.8016 63.4716 83.2858C63.4282 83.491 63.3981 83.5582 63.3814 83.575C63.221 84.3586 62.9504 85.1152 62.5729 85.8214C62.4226 86.0198 62.2889 86.2216 62.1319 86.4099C61.9281 86.7092 61.9081 86.8201 61.7711 87.0387C61.6174 87.2371 61.3869 87.5969 60.5985 88.1854C61.2533 87.8155 59.8502 88.8244 60.0606 88.7C59.9671 88.747 59.7666 88.8446 59.6029 88.9253C59.0851 89.201 58.3167 89.5709 57.5584 89.7357C57.3746 89.7962 57.1842 89.8097 57.0105 89.8467C56.8334 89.8736 56.6697 89.9206 56.5194 89.924C56.2154 89.9475 55.9715 89.9711 55.8345 89.9913C55.8345 89.9913 56.1252 89.9913 56.5828 89.9879C56.81 89.9778 57.0773 89.9375 57.3746 89.9106C57.6653 89.8568 57.986 89.7962 58.3067 89.7122C58.6241 89.6079 58.9615 89.5238 59.2689 89.3759C59.4259 89.3086 59.5829 89.2481 59.7332 89.1741C59.8802 89.0934 60.0205 89.0161 60.1608 88.9421C60.7087 88.6327 61.1464 88.3031 61.3969 88.098C61.2332 88.2426 61.1096 88.3603 61.0061 88.441C60.9025 88.5184 60.829 88.5722 60.7789 88.6092C60.6854 88.6798 60.692 88.6798 60.7522 88.6394C60.8123 88.5991 60.9292 88.5217 61.0462 88.4444C61.1564 88.3569 61.2667 88.2661 61.3368 88.2123L61.407 88.1148C62.1653 87.3985 62.1954 87.412 62.5261 87.0017C62.5228 87.0017 62.5094 87.0085 62.4927 87.0152L62.4593 87.0757C62.4226 87.1093 62.4326 87.0824 62.4593 87.032C62.4426 87.032 62.4593 86.9883 62.6364 86.763L62.6097 86.8101C62.7399 86.6318 62.8803 86.3662 63.0339 86.124C63.1809 85.8785 63.2845 85.6263 63.3647 85.4784L63.4148 85.4918C63.4482 85.401 63.5083 85.2531 63.5685 85.0648C63.6286 84.8731 63.7355 84.6511 63.8023 84.3855C63.956 83.8609 64.1197 83.2051 64.1698 82.5225C64.2066 82.1828 64.2233 81.8398 64.2299 81.5103C64.2433 81.1807 64.2533 80.8612 64.2667 80.5687C64.2867 79.9836 64.3034 79.5027 64.3034 79.2404C64.3669 78.1777 64.2867 76.8561 64.3201 75.5312C64.3369 73.416 64.3936 74.4719 64.4371 73.4093C64.4671 72.0809 64.3769 73.6783 64.3736 73.147L64.4438 71.5563C64.4504 72.4811 64.4805 71.9801 64.5005 71.8086C64.5106 70.4332 64.6008 68.2675 64.5005 67.8438C64.5473 65.9909 64.5874 65.9842 64.5941 65.1905C64.5774 65.4562 64.5607 65.9842 64.5373 65.9909C64.5807 65.2477 64.5273 65.6344 64.5173 65.9405C64.4738 64.8072 64.701 60.0623 64.5908 59.8235H64.6108C64.5273 59.5612 64.4471 59.9816 64.4037 59.1913L64.4404 58.6633L64.4037 57.8697C64.4304 57.335 64.4538 57.5973 64.4638 57.5973C64.4271 56.3026 64.4705 54.4968 64.4805 52.9264L64.2567 54.5876C64.3101 53.2627 64.4137 50.8784 64.3402 50.6128L64.417 49.8191C64.5607 47.1659 64.3536 47.9662 64.397 46.907L64.4805 45.5753V46.9002C64.5206 45.5753 64.5473 45.044 64.6008 43.988V43.9779C64.5974 44.0519 64.5941 44.099 64.5874 44.1091V43.9241C64.544 43.7627 64.5173 43.0733 64.5206 42.1385C64.5306 40.8102 64.4705 39.7744 64.5573 37.6559L64.4738 37.1279L64.5239 35.5373H64.5908C64.5974 37.0943 64.6075 40.0266 64.6141 42.0309L64.6442 42.0679C64.6375 40.8808 64.6275 39.5289 64.6208 38.7454C64.6342 38.3621 64.7043 37.3835 64.7478 38.093L64.681 37.3599C64.6743 33.3952 64.6709 33.3716 64.7444 29.232L64.711 29.5918C64.691 28.7713 64.6709 27.9542 64.7277 27.7255C64.7378 25.2404 64.7812 22.6678 64.8647 21.057L64.7845 20.7039C64.7845 20.176 64.9115 19.3958 64.7945 19.1335C64.7545 18.7333 64.7545 18.3298 64.6642 17.9363C64.6342 17.748 64.6075 17.5765 64.5807 17.4117C64.544 17.2503 64.4972 17.099 64.4538 16.941C64.407 16.7863 64.3769 16.6248 64.3201 16.4533C64.26 16.2852 64.1999 16.1003 64.1364 15.8918V15.8884C64.1197 15.838 64.103 15.7841 64.0896 15.7303C64.0896 15.7303 64.0896 15.7371 64.0896 15.7404C63.7388 14.9434 63.7188 14.9569 63.6954 14.9401C63.6821 14.93 63.6653 14.9165 63.5919 14.7955C63.5083 14.6778 63.3947 14.439 63.1208 14.0288C62.9538 13.7564 62.8301 13.6286 62.6731 13.4773C62.5028 13.3394 62.3157 13.1612 61.9849 12.8148L61.6675 12.4482L61.5072 12.2633L61.3301 12.0951C61.1564 11.9573 61.0027 11.8362 60.8624 11.7219C60.7121 11.621 60.5684 11.5369 60.4348 11.4528C60.1709 11.2813 59.9103 11.1636 59.6297 11.0426C59.0717 10.8005 58.3969 10.5449 57.1508 10.3398C57.0038 10.3095 56.8635 10.2826 56.7332 10.2591C56.6029 10.2456 56.486 10.2321 56.3791 10.2187C56.1652 10.1918 56.0049 10.1649 55.9047 10.1414C55.7109 10.0943 55.7577 10.0472 56.1686 10.0237C56.0283 10.0304 55.9147 10.0371 55.8211 10.0405C55.7343 10.0506 55.6675 10.0573 55.6107 10.064C55.4937 10.0741 55.4236 10.0808 55.3467 10.0875C55.1831 10.0943 54.9859 10.101 54.3011 10.1245C54.0906 10.0808 54.2376 10.0741 54.5383 10.0337C53.3222 9.9833 53.7866 10.0707 52.8712 10.0707C52.604 10.1514 52.2966 10.2792 51.9993 10.286L52.3534 10.3095C51.3812 10.3532 50.3222 10.3734 49.193 10.333L49.2364 10.2927L48.0337 10.3129L47.9569 10.2624L46.2397 10.2792L46.4736 10.2927C46.0693 10.2994 44.7464 10.3162 43.9914 10.2927L44.0181 10.2624C41.8833 10.1716 40.1227 10.2893 37.6238 10.2994L37.9512 10.2389C37.0993 10.1817 37.7173 10.3297 36.7017 10.2994L36.6516 10.2288C35.7596 10.3229 35.4957 10.2086 34.881 10.1716L35.1683 10.2658L34.009 10.2456C32.7329 10.2153 33.2273 10.1245 33.411 10.0775L32.5424 10.1514L32.372 10.0674C31.7373 10.1649 31.7373 10.0506 30.6248 10.1044C30.5346 10.0741 30.8152 10.0539 30.4377 10.0405L28.6036 10.1582L29.7094 10.1044L29.5758 10.2254C28.4232 10.3196 28.0123 10.212 27.1905 10.2456L27.7584 10.2086C26.4154 10.2389 26.3419 10.1851 25.5835 10.1582C25.8174 10.1817 26.1782 10.2153 25.6337 10.2321C25.2328 10.2389 25.4165 10.1884 25.039 10.175C24.9922 10.2153 24.7316 10.2456 24.3675 10.2624C24.1871 10.2691 23.98 10.2759 23.7661 10.2759C23.5523 10.2759 23.3051 10.2893 23.0746 10.2893C23.0846 10.2759 23.1047 10.2658 23.1648 10.2557C22.9276 10.2826 22.8073 10.296 22.3964 10.3431L22.6269 10.2153L21.8485 10.4238C21.5879 10.4776 21.2739 10.5684 21.03 10.639C20.7928 10.7265 20.6291 10.7904 20.6525 10.75L20.9331 10.629C19.6469 11.0392 18.4576 11.7488 17.4721 12.6769L17.3819 12.6635C17.3217 12.7442 17.1981 12.8921 17.0511 13.0636C16.9041 13.2351 16.717 13.4167 16.5734 13.6185C16.4231 13.8135 16.2861 13.9951 16.1992 14.1263C16.119 14.2642 16.089 14.3482 16.1324 14.3381C16.0222 14.4962 15.8551 14.7282 15.7148 15.0073C15.5845 15.2932 15.4175 15.5925 15.3239 15.8783C15.2204 16.1608 15.1302 16.4063 15.0734 16.561C15.0233 16.7123 14.9899 16.7627 14.9865 16.6417C14.7994 17.2907 14.7059 17.8859 14.6691 18.4542C14.6625 18.7333 14.6458 19.0225 14.6491 19.2815C14.6558 19.537 14.6625 19.7893 14.6691 20.0448C14.6925 21.0738 14.7092 22.1701 14.6758 23.6867C14.5589 24.7662 14.5956 27.7288 14.5823 29.6759C14.6324 33.4826 14.6625 35.9442 14.7126 39.835C14.5489 42.1755 14.7694 45.6728 14.6758 48.1915L14.7426 48.8809C14.6391 50.5556 14.766 53.1113 14.6658 55.4586C14.6959 56.0336 14.7025 56.3363 14.7059 56.4708C14.7059 56.3632 14.7226 56.2018 14.7627 56.1513C14.7326 56.8205 14.7694 58.1791 14.6858 58.0816L14.6758 57.9101C14.5923 57.8125 14.7159 59.9446 14.6424 60.6945L14.7326 60.2842L14.7159 61.5553L14.6992 61.2157C14.8963 66.7341 14.6157 69.2259 14.7961 74.408C14.6992 73.722 14.8462 75.4303 14.7393 75.4976C14.6057 76.8057 14.7694 77.9188 14.8028 78.9915C14.8094 78.9915 14.8128 79.005 14.8228 79.0655L14.8094 80.9386C14.6758 79.8188 14.9197 82.2871 14.8094 81.2614C14.8094 81.5708 14.7894 81.8701 14.7994 82.203C14.8061 82.3711 14.8128 82.5393 14.8195 82.7108L14.8295 82.9664L14.8662 83.2219C14.913 83.5649 14.9564 83.918 15.0567 84.261C15.1034 84.4325 15.1368 84.6108 15.1936 84.7823C15.2538 84.9538 15.3173 85.1253 15.3774 85.2968C15.8785 86.6755 16.8106 87.94 17.9832 88.9421C19.1826 89.9106 20.6392 90.6235 22.1793 90.8555L22.7539 90.9429L23.3318 90.9732C23.7294 91.0001 24.0702 90.9833 24.4343 90.99C25.1559 90.9934 25.8675 90.9967 26.5691 91.0001L26.3219 90.9665C27.745 90.9732 29.519 90.9295 30.5981 90.9867C31.6805 91.0405 32.9634 90.8992 33.381 90.8925C34.567 90.832 35.6427 90.953 35.1349 90.9463C36.4011 90.9295 37.5937 90.8051 39.351 90.8589C39.9523 90.9732 44.145 90.7479 44.1985 90.8757L44.2185 90.8656C46.4702 90.9564 48.5916 90.8017 51.0171 90.8858C51.0171 90.8858 50.9703 90.8959 50.8901 90.9026L55.8245 90.5091L54.418 90.0787L50.1418 89.729L38.5525 89.8063L29.3019 89.6684L23.6726 89.6785C21.9621 89.6684 20.2616 89.1102 18.9287 88.0274C17.599 86.9547 16.6135 85.4313 16.246 83.7499C16.0556 82.9025 16.0422 82.0752 16.0489 81.0966L16.0422 78.2652L15.9453 76.6476C16.1157 72.1953 15.9186 66.4852 16.0422 61.6865L15.9587 61.5856C15.9553 60.2338 16.0055 60.3246 16.0188 59.9916C15.9988 47.4114 15.8885 34.4612 15.9954 23.142C16.0222 22.5972 16.0288 21.4942 16.0355 20.4215C16.0355 20.1524 16.0389 19.8868 16.0389 19.6312C16.0389 19.3723 16.0389 19.1301 16.0589 18.9317C16.0756 18.7266 16.0823 18.5416 16.099 18.3836C16.1291 18.2289 16.1558 18.1011 16.1758 18.0002C16.2827 17.173 16.5199 16.3424 16.9142 15.579C17.3084 14.8157 17.8396 14.1162 18.4743 13.5243C19.1057 12.9325 19.8374 12.4449 20.6291 12.1052C21.4209 11.769 22.2628 11.5773 23.1013 11.5167L22.9744 11.5336C23.2416 11.5201 23.4922 11.4966 23.7762 11.4898L24.6381 11.4831C24.7116 11.4898 24.7216 11.4999 24.6648 11.5067C26.6092 11.4327 29.6693 11.5067 32.048 11.5369L31.9077 11.547C38.8465 11.5302 45.5382 11.5134 52.2164 11.4966L54.7187 11.4898C55.1296 11.4898 55.5639 11.4797 55.9581 11.4932L56.5361 11.5201C56.7265 11.5336 56.9169 11.5739 57.1074 11.6008C58.6274 11.8429 60.0573 12.5895 61.1698 13.6723C61.7177 14.2204 62.1921 14.8493 62.5696 15.5319C62.9304 16.2247 63.1876 16.9712 63.3413 17.7413L63.4282 18.3231C63.4549 18.5181 63.4515 18.7165 63.4649 18.9116L63.4783 19.2075V19.5303L63.4716 20.176C63.4649 21.0369 63.4582 21.8977 63.4515 22.7653C63.3146 29.2085 63.5017 36.7042 63.3914 44.0956C63.3079 45.4509 63.3714 60.4053 63.4081 61.7269L63.4215 61.7033Z" fill="#2A2A2A"/>
<path d="M64.4907 52.8254C64.4907 52.859 64.4907 52.8927 64.4907 52.9229L64.5408 52.5564L64.4907 52.8254Z" fill="#2A2A2A"/>
<path d="M64.5205 72.612C64.5305 71.7242 64.5205 71.6805 64.5105 71.8083C64.5105 72.1311 64.5105 72.4102 64.5205 72.612Z" fill="#2A2A2A"/>
<path d="M51.9334 39.2664H46.5049V44.7306H51.9334V39.2664Z" fill="#1C1C1C"/>
<path d="M41.7019 35.937H37.4146V40.2526H41.7019V35.937Z" fill="#1C1C1C"/>
<path d="M41.7019 43.7458H37.4146V48.0614H41.7019V43.7458Z" fill="#1C1C1C"/>
<path d="M27.8667 49.9128H23.5793V54.2284H27.8667V49.9128Z" fill="#1C1C1C"/>
<path d="M35.624 49.9128H31.3367V54.2284H35.624V49.9128Z" fill="#1C1C1C"/>
<path d="M55.248 49.9128H50.9607V54.2284H55.248V49.9128Z" fill="#1C1C1C"/>
<path d="M50.9614 54.2283H46.6741V58.5439H50.9614V54.2283Z" fill="#1C1C1C"/>
<path d="M46.6704 58.5439H42.3831V62.8595H46.6704V58.5439Z" fill="#1C1C1C"/>
<path d="M55.248 63.6782H50.9607V67.9938H55.248V63.6782Z" fill="#1C1C1C"/>
<path d="M53.4473 37.7488V46.2531H44.9986V37.7488H53.4473ZM55.2472 35.937H43.1987V48.0649H55.2472V35.937Z" fill="#1C1C1C"/>
<path d="M33.7528 37.7488V46.2531H25.3041V37.7488H33.7528ZM35.5527 35.937H23.5078V48.0649H35.5563V35.937H35.5527Z" fill="#1C1C1C"/>
<path d="M32.3184 59.2002H26.8899V64.6644H32.3184V59.2002Z" fill="#1C1C1C"/>
<path d="M33.8233 57.6811V66.1855H25.3746V57.6811H33.8233ZM35.6232 55.8694H23.5747V67.9972H35.6232V55.8694Z" fill="#1C1C1C"/>
<rect x="33" y="14" width="11" height="3" rx="1.5" fill="#2A2A2A"/>
</g>
<defs>
<clipPath id="clip0_28097_42500">
<rect width="63.75" height="64.3" fill="white" transform="translate(8 8)"/>
</clipPath>
<clipPath id="clip1_28097_42500">
<rect width="27.2121" height="6.96122" fill="white" transform="translate(25.1772 22.7039)"/>
</clipPath>
</defs>
</svg>
