<svg width="80" height="80" viewBox="0 0 80 80" fill="none" xmlns="http://www.w3.org/2000/svg">
<path d="M49.4741 62.7031C49.5329 62.8153 49.5863 62.9329 49.6558 63.0451C49.6718 63.0237 49.6291 62.9329 49.4741 62.7031Z" fill="#1B1B1B"/>
<path d="M15.3652 22.6602C15.3545 22.687 15.3437 22.7192 15.3384 22.746C15.3598 22.687 15.3652 22.6655 15.3652 22.6602Z" fill="#1B1B1B"/>
<path d="M63.2605 62.2358C63.2605 62.2358 63.2498 62.2518 63.2498 62.2572C63.2337 62.2999 63.2231 62.3427 63.207 62.3801L63.2605 62.2305V62.2358Z" fill="#1B1B1B"/>
<path d="M35.4992 20.4997C35.8992 22.4997 38.9992 27.6664 40.4992 29.9997C44.8992 35.5995 51.6662 41.3332 54.9995 43.5C68.4995 46.5 66.9995 50 68.4995 51C70.8995 55.4 65.8328 59.5 62.9995 61C62.5995 62.2 58.4995 65.8333 56.4995 67.5C51.2995 69.1 47.9995 62.8333 46.9995 59.5C46.9995 55.5 43.3328 50.8333 41.4995 49C40.2995 45.8 33.9995 40 30.9995 37.5L19.9992 33L15.9992 29.9997C10.7992 23.9995 16.4992 19.1663 19.9992 17.4997C21.1992 12.2997 25.1659 11.3331 26.9992 11.4997L31.9992 13.4997C32.9992 14.9997 35.0992 18.4997 35.4992 20.4997Z" fill="white"/>
<path d="M46.0138 58.6518C46.3557 59.9661 46.5908 61.1897 47.045 62.2743C47.4884 63.3589 48.0922 64.2565 48.7975 65.0206C49.5081 65.7793 50.3042 66.4364 51.3941 67.0188C51.9391 67.302 52.5535 67.5638 53.2642 67.7294C53.9748 67.9004 54.7816 68.0019 55.6685 67.9325C57.3729 67.8577 59.0345 67.0829 60.2955 66.0357C61.5297 65.0206 62.5983 63.7436 63.2448 62.2636C63.2875 62.13 63.3249 61.9911 63.3677 61.8415C63.389 61.7667 63.4104 61.6866 63.4318 61.6064C63.4318 61.5904 63.4318 61.5797 63.4318 61.569C63.4318 61.5423 63.4318 61.5102 63.4318 61.4782L63.5066 61.4515C63.5974 61.4194 63.6936 61.382 63.7898 61.35C63.9447 61.2858 64.105 61.2217 64.2599 61.1469C64.5698 61.008 64.8637 60.8424 65.1469 60.6714C65.7079 60.3188 66.1887 59.9127 66.5521 59.512C66.7391 59.3891 66.9314 59.2715 67.1131 59.138C67.4817 58.6678 67.8771 58.1388 68.2832 57.6687V57.7221C68.748 56.9367 69.2022 56.0017 69.3037 55.5475L69.3251 55.5956C69.4266 55.2323 69.5281 54.8743 69.5815 54.5003L69.5922 54.7033C69.7097 53.8966 69.7097 53.0631 69.6029 52.2723C69.496 51.4815 69.277 50.7389 69.0098 50.071L68.919 50.2366C68.4007 48.8101 67.7008 48.03 67.0383 47.3354C66.349 46.6462 65.601 46.0317 64.4202 45.3478L64.4683 45.3318C62.828 44.7708 61.6366 44.5304 60.5145 44.1243C59.3551 43.7396 58.2705 43.3496 56.8012 42.9435C57.1699 43.0397 56.6783 42.8153 56.721 42.7939C55.4174 42.3077 54.1083 41.5811 53.9481 41.8268C53.0558 41.3086 53.2695 41.3246 53.2107 41.1643C53.1466 41.2872 52.3612 40.8491 51.6826 40.411L52.0192 40.5712C51.688 40.3736 51.3781 40.1492 51.0575 39.9301C50.7369 39.7164 50.4217 39.4973 50.1118 39.2622L50.3309 39.7324C49.3959 38.9203 50.2561 39.3103 49.289 38.6317L49.1768 38.7974C47.8838 37.6754 47.3228 36.7938 46.2435 35.5435C45.0253 34.3467 43.8178 33.0858 42.6744 31.7661C41.531 30.4517 40.4464 29.0732 39.5061 27.6253C38.5657 26.1774 37.775 24.6546 37.1819 23.0945C36.5942 21.5343 36.2309 19.9314 35.8889 18.3179L35.953 17.992C36.0385 17.9011 35.8355 17.463 35.579 17.0142C35.3332 16.5654 35.0233 16.1273 35.0501 15.9563C34.8898 15.7212 34.7241 15.4915 34.5425 15.2724C34.457 15.048 34.1845 14.6206 34.473 14.9358C34.2486 14.6099 34.115 14.4549 33.9922 14.3374C33.8693 14.2145 33.7571 14.1183 33.538 13.942C33.3831 13.7016 33.2067 13.4932 33.0358 13.2688C31.9298 12.2323 30.6208 11.5056 29.1728 11.1904C27.7302 10.8591 26.1487 10.95 24.6099 11.543C24.1024 11.6926 23.5681 11.9544 23.0284 12.2803C22.4941 12.6276 21.9812 13.023 21.4843 13.5039C20.9874 13.9848 20.5119 14.5404 20.1005 15.1655C19.8921 15.4754 19.7105 15.812 19.5395 16.1593C19.4593 16.3357 19.3792 16.512 19.3097 16.699C19.2723 16.7898 19.2403 16.886 19.2082 16.9768L19.1869 17.0409V17.0463V17.0783C19.1708 17.1211 19.1601 17.1638 19.1601 17.2119C19.1174 17.2226 19.08 17.2386 19.0373 17.2546C19.0266 17.2546 18.9945 17.2707 18.9998 17.2707L18.7968 17.3508C18.6632 17.4096 18.5243 17.463 18.3961 17.5271C18.1343 17.65 17.8885 17.7889 17.6481 17.9332C17.1726 18.2217 16.7451 18.553 16.3604 18.8949C15.5911 19.5842 14.998 20.3054 14.5385 21C13.7477 22.2236 13.1867 23.7143 13.1493 25.2958C13.1012 26.8773 13.5768 28.4802 14.4049 29.8373C14.8217 30.5158 15.2972 31.141 15.8689 31.718C16.4352 32.2897 17.1031 32.7919 17.8137 33.1713C18.5297 33.5506 19.2723 33.8071 19.983 33.9994C20.7042 34.1918 21.3507 34.32 22.0133 34.4589C22.1789 34.5337 22.6277 34.5871 22.6331 34.5658C24.1878 35.0092 25.6785 35.5702 27.1051 36.2862C27.1051 36.2862 28.4195 36.9113 30.0384 37.9372C31.668 38.9523 33.5701 40.4003 34.9966 41.5597C35.7233 42.126 36.3217 42.6336 36.7491 42.9275C37.1766 43.2213 37.4223 43.3229 37.3956 43.1252C37.3689 42.9275 37.0697 42.4413 36.3965 41.5543C35.6966 40.6941 34.6386 39.4225 32.9022 37.8517L33.0304 37.8891C30.8719 36.1419 29.3064 35.239 27.4738 34.6139C27.399 34.4108 26.8754 34.1704 26.293 33.946C25.7106 33.7269 25.0748 33.5399 24.7756 33.3903H24.8397C23.9955 33.2193 23.162 32.9308 22.3606 32.6637C21.5377 32.3805 20.7363 32.1454 20.0043 32.0118C20.0684 32.0118 20.1165 31.9424 20.4531 32.0386C19.9135 31.905 19.3151 31.718 18.8716 31.4989C18.4228 31.2852 18.1343 31.0555 18.1503 30.9646C17.1405 30.3449 16.0986 29.1534 15.5002 27.9512C14.8804 26.7384 14.7522 25.5202 14.7148 24.7348L14.7522 24.847C14.7202 24.6226 14.7308 24.4356 14.7522 24.2699C14.7629 24.1043 14.8056 23.96 14.8537 23.8158C14.8965 23.6715 14.9446 23.5219 15.014 23.3563C15.0728 23.1853 15.1476 22.993 15.2438 22.7579C15.2865 22.7151 15.3292 22.6563 15.3346 22.6724C15.4895 22.1915 15.9009 21.5717 16.4032 21.0268C16.9001 20.4818 17.4451 20.0437 17.7603 19.7765L17.8671 19.8353C18.1396 19.6376 18.4175 19.4559 18.706 19.301C18.8502 19.2208 18.9998 19.1514 19.1441 19.0819L19.3685 18.9857L19.4807 18.943L19.5341 18.9216L19.6463 18.8842L19.4219 18.9537C19.3632 18.9697 19.3097 18.9964 19.251 19.0125C19.1334 19.0499 19.0212 19.1033 18.909 19.1514C18.9304 19.0659 19.0159 18.9911 19.1495 18.9323C19.2136 18.9056 19.2937 18.8682 19.3792 18.8468C19.4273 18.8361 19.4807 18.8201 19.5341 18.8041C19.6143 18.7827 19.6998 18.7667 19.7853 18.7507C19.9723 18.6385 20.1646 18.5316 20.3463 18.4354C20.4424 18.2912 20.576 18.1202 20.7417 17.9172C20.8485 17.5538 20.9126 17.4577 20.9821 17.26C21.0569 17.073 21.1317 16.886 21.2118 16.6829C21.5484 16.1006 21.8423 15.4487 22.243 14.8129C22.6437 14.1878 23.1513 13.5733 23.8299 13.2261C24.3642 12.7345 23.4185 13.7497 24.268 13.1085C24.3749 13.2314 23.9047 13.4505 24.1985 13.4237C25.0481 12.8574 25.7266 12.8307 26.8914 12.6116L26.9448 12.7345C27.7142 12.5742 28.4729 12.7452 29.098 12.991C29.7285 13.2421 30.2521 13.5573 30.7543 13.755C31.4756 14.1718 31.6306 14.4496 31.7962 14.69C31.9458 14.9465 32.1435 15.1495 32.7579 15.7319C32.8381 15.9403 32.9236 16.1486 32.9823 16.357C33.3029 16.9715 33.4311 16.6883 33.6769 17.463C33.5701 17.447 33.9387 18.4675 33.6876 18.0454C33.7945 18.4942 33.912 18.959 34.0563 19.4613C34.1952 19.9635 34.3662 20.4871 34.5318 21.0107C34.8737 22.0847 35.2691 23.2494 35.6698 24.5798C36.0919 25.0553 36.5675 26.359 36.9254 26.6743C36.9041 26.7223 37.2193 27.3421 37.4544 27.7696C37.6895 28.197 37.807 28.4588 37.3262 27.8444C37.246 27.7375 37.1285 27.5345 37.1659 27.5291L36.9682 27.4223C37.5399 28.9183 38.5604 29.8052 39.4313 31.0662C39.2015 30.6708 38.8382 30.1792 39.1428 30.4624C39.4099 30.8578 39.6877 31.2425 39.9816 31.6218L39.7198 31.4508C40.1312 32.0332 40.5586 32.5996 41.0021 33.1552L40.9113 32.8453C41.5204 33.6895 41.6059 34.1063 42.5302 34.8543C42.9576 35.1802 42.0012 34.0048 42.7653 34.7902C43.6469 35.8534 44.9986 37.4349 46.3183 38.6317C46.2916 38.4127 46.6389 38.7386 47.0289 39.0378L46.9915 39.1714C48.557 40.2346 47.3281 39.8499 48.9043 40.8918L48.7173 40.8598L49.2676 40.9559C50.0263 41.3567 50.1759 41.533 50.3523 41.7253C50.5232 41.9177 50.7369 42.11 51.6185 42.4787C50.9827 42.0886 51.4689 42.0673 52.2169 42.5855L51.9551 42.5695C52.4039 42.8099 52.5749 42.8473 52.8528 43.045C52.5642 42.9435 52.6177 43.1305 53.2909 43.4671C53.1199 43.4297 52.9436 43.3977 52.7726 43.3549C53.2268 43.5206 53.6756 43.6808 54.1297 43.8304C55.0434 44.4609 56.7264 44.9631 57.095 45.2677C57.095 45.2677 57.6454 45.4921 58.2758 45.6844C58.9063 45.8768 59.6062 46.0424 59.8734 46.0211C59.3979 46.0104 60.6054 46.3844 60.2207 46.4271C60.5359 46.4485 61.1236 46.534 61.6793 46.6569C62.235 46.7798 62.7532 46.9721 63.0097 47.1538L62.8975 47.1217C63.918 47.5972 64.666 48.0888 65.3499 48.7299C66.0231 49.3764 66.6162 50.1244 66.9154 51.0701C67.0383 50.9259 67.2947 51.941 67.3909 51.6418C67.5833 52.128 67.6474 52.6303 67.6527 53.0898C67.6367 53.5493 67.5672 53.9714 67.4604 54.34C67.2627 55.0827 66.9848 55.6063 67.0596 56.0872C66.5788 56.9527 66.2849 56.9687 65.943 57.3534L66.0712 57.1504C65.4835 57.8824 65.0293 58.2778 64.6072 58.6037C64.1798 58.9243 63.7791 59.1807 63.17 59.4372C63.0738 59.4853 62.9937 59.5387 62.9189 59.5814L62.8654 59.6189L62.7639 59.6669L62.5716 59.7524C62.4059 59.9287 62.2563 60.073 62.0907 60.1959C62.0319 60.3401 61.9358 60.5218 61.7915 60.7516C61.7755 60.8103 61.7594 60.8744 61.7434 60.9439C61.7274 60.9973 61.706 61.0508 61.69 61.1095C61.6579 61.2004 61.6152 61.2965 61.5671 61.4034C61.6152 60.9973 61.4656 61.4675 61.2412 61.8736C61.3641 61.6011 61.3694 61.5156 61.0221 62.0018C61.0061 62.0873 60.958 62.2155 60.9099 62.3277C60.8992 62.3277 60.8832 62.3437 60.8779 62.3277C60.4771 62.9849 60.5626 62.8887 60.7924 62.6056C60.7924 62.6323 60.8298 62.6162 60.9153 62.5414C60.6321 62.8406 60.2901 63.2841 59.9482 63.6261C59.6116 63.968 59.3124 64.2191 59.2109 64.1817C58.7674 64.5878 58.3453 64.887 57.9179 65.1702C57.4797 65.4159 57.0577 65.651 56.6142 65.7899C55.7379 66.1052 54.8136 66.1693 53.8465 66.009C53.6542 65.8647 54.1137 65.9075 54.6587 65.9128C54.2152 65.8968 53.7717 65.806 53.3336 65.6831C53.3817 65.5709 54.0977 65.8167 54.5091 65.8274C53.745 65.635 52.965 65.432 52.1689 65.074C51.3834 64.7214 50.582 64.1657 50.005 63.4017C49.8821 63.3322 49.7806 63.2521 49.663 63.1719L49.6042 63.0704C49.5615 63.1131 49.2356 62.8139 49.0699 62.5788C49.0325 62.2796 49.2837 62.4666 48.8509 61.6331C48.744 61.2752 48.5357 60.789 48.338 60.2333C48.1349 59.683 47.9266 59.0739 47.7502 58.5503C47.8838 59.1273 47.7716 58.9563 47.6648 58.7266C47.5258 58.219 47.5579 57.9091 47.4029 57.5244L47.5419 57.4336C47.4617 57.674 46.9969 56.1513 46.8633 55.991C46.8793 55.6651 47.2159 56.739 47.3335 56.8459C47.0183 55.8307 46.9114 55.5796 46.8206 55.3285C46.7297 55.0773 46.6442 54.8209 46.2168 53.8431C45.6451 52.8493 46.1634 54.0942 45.8161 53.6508C45.378 52.7532 44.8437 51.941 44.3414 50.9152L44.4002 51.2945C43.3744 49.7451 42.7386 48.8475 42.1081 47.7575C39.7732 45.1876 38.2291 44.0602 37.4651 43.5419C36.6903 43.0343 36.6155 43.2 36.8773 43.6381C37.1231 44.0816 37.7002 44.7868 38.1864 45.4013C38.6672 46.021 39.084 46.5286 39.084 46.5286C40.6708 48.6231 41.8249 50.2099 42.9469 51.9624C44.0583 53.7309 45.1055 55.633 45.955 58.6838" fill="#1B1B1B"/>
<path d="M31.8649 48.6773C36.3904 53.2028 36.3904 60.5333 31.8649 65.0588C27.3395 69.5843 20.0089 69.5843 15.4835 65.0588C10.958 60.5333 10.958 53.2028 15.4835 48.6773C20.0089 44.1518 27.3395 44.1518 31.8649 48.6773Z" fill="#FE6F0F"/>
<path d="M35.9102 58.2227L35.8247 58.4097C35.8514 58.4097 35.8835 58.3616 35.9102 58.2227Z" fill="#1B1B1B"/>
<path d="M17.5728 46.1548C17.5728 46.1548 17.5996 46.1333 17.6049 46.1172C17.5781 46.1387 17.5728 46.1494 17.5728 46.1548Z" fill="#1B1B1B"/>
<path d="M31.314 63.8081L31.3193 63.8027L31.3354 63.7598L31.314 63.8081Z" fill="#1B1B1B"/>
<path d="M34.1241 55.969C34.1241 56.2521 34.1241 56.5086 34.1241 56.749C34.1241 56.9841 34.076 57.2032 34.0547 57.4062C34.0173 57.8123 33.9158 58.1596 33.8356 58.5122C33.6593 59.2068 33.4563 59.896 33.0662 60.97C32.6281 61.9691 32.0244 62.9843 31.3137 63.8017C31.2657 63.93 31.1855 64.0635 31.084 64.2024C30.9771 64.3307 30.8329 64.4482 30.6993 64.5711C30.5604 64.694 30.4215 64.8169 30.2932 64.9451C30.1597 65.0627 30.0314 65.1749 29.9353 65.3031L29.6735 65.3458C29.6093 65.4313 29.5292 65.5221 29.4437 65.5969C29.3529 65.6664 29.246 65.7198 29.1392 65.7412V65.7038C28.9041 65.9389 28.5835 66.0885 28.4553 66.19V66.1526L28.108 66.3289L28.1454 66.2541C27.7019 66.5961 27.1516 66.7724 26.6654 66.9006L26.7455 67.0289C25.6663 67.1411 25.3243 67.5204 24.3252 67.3975L24.3359 67.3601C23.7321 67.6059 23.2245 67.499 22.7437 67.4082C22.5032 67.3548 22.2628 67.2746 22.001 67.2372C21.7392 67.2105 21.4614 67.1678 21.1301 67.1785C21.2957 67.1731 21.082 67.0876 21.1034 67.0556C20.9591 67.0342 20.8149 67.0075 20.6706 66.9861C20.5317 66.9541 20.4035 66.922 20.2859 66.906C20.0562 66.8739 19.8745 66.8953 19.8211 67.0289C19.4043 66.8846 19.5272 66.8098 19.5165 66.6923C19.4684 66.8098 19.1051 66.6976 18.7899 66.564L18.9555 66.5854C18.6456 66.4732 18.3678 66.3076 18.0793 66.158L18.1274 66.4625C17.7053 66.1366 18.1648 66.1473 17.6999 65.9389L17.5984 66.1099C17.0267 65.645 16.8557 65.1642 16.471 64.5925C15.4719 63.604 14.5262 62.4767 13.8744 61.1677C13.2225 59.8747 12.8859 58.4107 13.0409 57.0856L13.1851 56.9681C13.3828 56.9254 12.8966 56.2415 13.0943 56.1453L13.0088 55.83C13.0622 55.7446 13.1264 55.5736 13.1531 55.7285C13.2012 55.4507 13.1691 55.44 13.1317 55.2263L13.308 54.9485C13.6286 53.8959 13.682 52.9128 14.2698 51.8763C14.7453 51.3313 15.2529 50.4711 15.9474 49.707L16.1932 49.4078L16.4604 49.1353C16.6367 48.9483 16.813 48.7667 16.9786 48.5904C17.3526 48.2858 17.6732 47.9385 17.9991 47.7302C18.8326 46.9928 20.0294 46.6509 21.1942 46.5119C22.375 46.3677 23.5184 46.4104 24.6244 46.3196C24.6938 46.3463 24.8808 46.3196 24.8862 46.2876C25.5541 46.3784 26.2112 46.528 26.8524 46.7364C26.8524 46.7364 26.9966 46.7844 27.2371 46.8699C27.3546 46.9073 27.4989 46.9608 27.6592 47.0142C27.8141 47.0836 27.9851 47.1585 28.1721 47.2386C28.9201 47.5325 29.7643 48.0561 30.4428 48.4461C31.084 48.8735 31.6023 49.1353 31.6771 48.8735C31.7145 48.74 31.6343 48.4782 31.3832 48.0187C31.3191 47.9065 31.2496 47.7782 31.1588 47.6393C31.0573 47.5111 30.9504 47.3722 30.8275 47.2226C30.6993 47.0676 30.5604 46.902 30.4108 46.7257C30.2452 46.56 30.0582 46.3891 29.8551 46.2021L29.9299 46.1914C29.417 45.796 28.9308 45.5716 28.498 45.3739C28.0546 45.1976 27.6218 45.1228 27.173 45.0907C27.1142 44.7808 26.1578 44.7969 25.8853 44.6633L25.9174 44.6419C25.506 44.7007 25.1213 44.5831 24.7259 44.4977C24.3305 44.4335 23.9245 44.3427 23.5451 44.4496C23.5718 44.4282 23.5878 44.3374 23.7642 44.3374C23.2032 44.3855 22.4551 44.4923 22.3964 44.332C22.0651 44.3855 21.7018 44.4442 21.3331 44.503C20.9645 44.5832 20.5905 44.6847 20.2378 44.7808C19.5379 45.0213 18.9074 45.2884 18.5869 45.6037L18.6189 45.5342C18.2663 45.9135 18.0526 45.796 17.6412 46.1593C17.6037 46.1593 17.5663 46.1593 17.5663 46.154C17.39 46.373 17.0534 46.544 16.7596 46.7631C16.4604 46.9714 16.1665 47.1691 16.0222 47.3241L15.9314 47.2546C15.6696 47.4844 15.4238 47.7301 15.1727 47.9652L15.4773 47.7248C15.5307 47.8851 15.3544 47.9759 15.1139 48.1148C14.8682 48.2537 14.5903 48.4782 14.4087 48.8148C14.1469 49.0552 14.0667 49.4506 13.9812 49.8192C13.9385 50.0062 13.8904 50.1826 13.8209 50.3482C13.7622 50.5192 13.6927 50.6794 13.5698 50.8077C13.5217 51.171 13.5164 50.4337 13.3561 50.9199C13.2065 50.8558 13.3882 50.6634 13.2118 50.7115C13.121 50.9519 12.9661 51.1015 12.8378 51.2832C12.7096 51.4649 12.5814 51.6679 12.4959 51.9778L12.3677 51.9511C12.2608 52.7846 11.6571 53.3563 11.7532 53.9547C11.6517 54.7935 11.2563 54.4409 11.3632 55.3652L11.1495 55.6911C11.1014 56.0758 11.3418 55.9797 11.2403 56.4017C11.1334 56.3697 11.1281 56.936 11.0373 56.6849C10.9464 57.1711 11.0373 57.668 11.1228 58.1916C11.2456 58.7152 11.3311 59.2656 11.3685 59.9227C11.5021 60.0349 11.5769 60.2487 11.6464 60.4624C11.7319 60.6654 11.812 60.8631 11.9189 60.9379C11.8815 60.97 11.983 61.2692 12.0417 61.4936C12.1059 61.7073 12.1379 61.8462 11.9082 61.547C11.8708 61.4936 11.8387 61.3867 11.8761 61.3814L11.7319 61.344C11.7319 61.7393 11.9242 62.0332 12.1112 62.311C12.2982 62.5942 12.5173 62.856 12.6936 63.1713C12.6188 62.9629 12.4638 62.7278 12.6348 62.8507L12.9607 63.4331L12.8004 63.3689C12.95 63.6682 13.105 63.9674 13.2973 64.2452L13.3187 64.0582C13.5591 64.4803 13.4683 64.7848 13.9759 65.084C14.2217 65.2016 13.7996 64.6299 14.1736 64.9825C14.3606 65.2443 14.5796 65.6023 14.8575 65.9336C15.146 66.2541 15.4452 66.6121 15.7658 66.8793C15.7925 66.719 15.9688 66.8579 16.1772 66.9701L16.1238 67.0876C16.9466 67.4616 16.2146 67.5364 17.0588 67.8784L16.9466 67.9105L17.2832 67.8036C18.0846 67.9852 17.5343 68.2631 18.4853 68.3326C18.1594 68.2043 18.4533 68.012 18.8113 68.2364L18.667 68.3005C18.8914 68.3753 18.9769 68.3646 19.1158 68.4394C18.9609 68.4554 18.9822 68.5783 19.3188 68.6745L19.041 68.7386L19.7409 68.7493C19.9546 68.9042 20.2752 68.9844 20.5637 69.0432C20.8469 69.1073 21.0927 69.1714 21.1782 69.2782C21.1782 69.2782 21.2423 69.2996 21.3492 69.321C21.456 69.3424 21.5949 69.3691 21.7499 69.3851C22.0544 69.4225 22.391 69.4546 22.5246 69.3637C22.2949 69.4706 22.8986 69.5454 22.7116 69.6736C23.0162 69.5614 23.8497 69.4973 24.1916 69.5935L24.1275 69.6149C24.4427 69.6309 24.7366 69.6362 25.0144 69.5935C25.2922 69.5454 25.5487 69.4866 25.7998 69.4225C26.3074 69.305 26.7776 69.1179 27.3439 69.0699C27.2531 68.947 27.8355 68.8294 27.6378 68.7012C27.8889 68.5623 28.1507 68.4768 28.3912 68.402C28.6316 68.3112 28.8613 68.2471 29.0644 68.1723C29.4811 68.044 29.775 67.857 29.807 67.5044C30.2291 67.2159 30.4108 67.3227 30.6405 67.1838L30.555 67.28C31.3137 66.6709 31.5435 66.5053 32.0724 66.019C32.2969 65.7305 32.1686 65.5222 32.6281 65.0947C32.5693 65.3191 32.7296 65.1108 32.8899 64.9398C32.7991 65.0627 32.7991 65.1268 33.0609 64.9398C33.0609 64.8863 33.0983 64.8222 33.125 64.7634C33.1357 64.7634 33.1464 64.7635 33.1517 64.7741C33.3815 64.4482 33.296 64.4696 33.1838 64.6138C33.1784 64.5978 33.1517 64.5978 33.0876 64.6138C33.4509 64.3788 33.7608 63.6895 33.9425 63.7536C34.5516 62.7118 34.776 61.8622 35.0217 60.9165C35.1446 60.8417 35.15 61.0875 35.0859 61.376L35.2889 60.6975C35.4171 60.7456 35.2301 61.1089 35.182 61.3226C35.6843 60.5906 35.5293 59.6129 35.8552 58.6832L35.7751 58.4641L35.8018 58.4107C35.743 58.4107 35.7003 58.1809 35.7003 58.0367C35.8285 57.9085 35.9728 58.0741 35.9888 57.5825C36.0529 57.3902 36.0583 57.1124 36.0262 56.8238C35.9728 56.5407 35.9087 56.2308 35.8606 55.985C35.8552 56.2575 35.7858 56.172 35.7377 56.0598C35.7217 55.8194 35.8339 55.6698 35.7537 55.4881L35.9087 55.4454C35.7751 55.5576 35.6576 54.8363 35.5828 54.7615C35.6789 54.6065 35.7377 55.1141 35.8339 55.1622C35.6789 54.1951 35.7644 54.676 35.524 53.7303C35.2836 53.2601 35.4011 53.8585 35.2088 53.6555C35.0698 53.228 34.7973 52.8647 34.7225 52.3411L34.6477 52.5441C34.2203 51.8228 34.0333 51.3794 33.857 50.8291C33.7288 50.6848 33.6059 50.5459 33.4883 50.4123C33.3601 50.2894 33.2372 50.1826 33.1197 50.081C32.8846 49.878 32.6869 49.7017 32.4999 49.5735C32.1045 49.3223 31.8213 49.1727 31.6236 49.0979C31.2122 48.9537 31.1054 49.0873 31.1802 49.333C31.2283 49.5735 31.4099 49.9101 31.5809 50.1772C31.6717 50.3108 31.7358 50.4444 31.7893 50.5352C31.8427 50.626 31.8748 50.6848 31.8748 50.6848C32.4037 51.6145 32.7403 52.3144 33.1624 53.0624C33.5257 53.8264 33.9318 54.676 34.1135 55.9583" fill="#1B1B1B"/>
<path d="M24.0605 47.9707L23.9907 48.0083C23.9907 48.0083 24.0444 48.0083 24.0605 47.9707Z" fill="#1B1B1B"/>
<path d="M16.0352 56.9219C16.0352 56.9219 16.0298 56.9326 16.0298 56.938C16.0352 56.9326 16.0352 56.9272 16.0352 56.9219Z" fill="#1B1B1B"/>
<path d="M21.6494 49.0786C21.6494 49.0786 21.644 49.0679 21.6387 49.0625L21.6494 49.0786Z" fill="#1B1B1B"/>
<path d="M22.3827 47.0617C22.2063 47.6067 21.9071 47.6815 21.8537 48.2586C21.7522 48.515 21.7148 48.8089 21.6453 49.0707C21.8003 49.2737 21.5064 49.3966 21.6133 49.6103H21.4797C21.5118 49.6851 21.5225 49.7599 21.437 49.7813L21.4049 49.7653C21.453 49.8775 21.3622 49.9309 21.3889 49.9843L21.3568 49.963L21.3301 50.0538L21.2927 50.0164C21.3194 50.182 21.25 50.3102 21.1538 50.3957L21.2874 50.4598C21.0202 50.6148 21.2179 50.8499 20.924 50.9567L20.8973 50.9354C21.0469 51.4109 20.4165 51.1865 20.5233 51.6513C20.5126 51.5926 20.4539 51.6193 20.4271 51.5925C20.3737 51.7315 20.2936 51.8704 20.518 52.0521C20.4485 52.1375 20.3897 52.0627 20.2989 52.004C20.3951 52.0841 20.3737 52.191 20.3256 52.2604L20.3149 52.2017L20.1867 52.4154L20.4004 52.5383C20.2615 52.5917 20.16 52.3726 20.1226 52.5009L20.2722 52.6344C20.1173 52.7413 19.8234 52.6131 19.6043 52.6344C19.07 53.0672 18.7869 53.9541 18.0282 54.045L17.9213 53.9381C17.7931 53.7671 17.948 54.3068 17.8144 54.1518L17.8038 54.2747C17.7664 54.2533 17.7022 54.2427 17.7129 54.1839C17.6488 54.2159 17.6648 54.2426 17.6595 54.3281L17.5259 54.2533C17.2374 54.3014 17.1626 54.6487 16.8741 54.7342C16.4413 54.6541 15.9551 55.1296 15.6292 55.4021C15.4208 55.6425 15.0949 55.6104 14.7797 55.5517C14.4644 55.5036 14.1599 55.4448 13.9248 55.6692C13.9034 55.6425 13.866 55.7173 13.8714 55.744C13.7057 55.7654 13.5347 55.7814 13.3691 55.7868C13.3691 55.7868 12.7654 55.8402 12.3914 56.0432C12.0334 56.2516 11.7983 56.7004 12.9043 57.5499L12.8936 57.598C13.2195 57.6942 13.4332 57.6942 13.6202 57.4271C13.695 57.7102 13.8874 57.427 13.9729 57.5072V57.5339C14.1225 57.2774 14.4003 57.6514 14.5499 57.4164C14.5499 57.4431 14.5606 57.5179 14.5178 57.5339C14.6461 57.4698 14.8171 57.3629 14.8651 57.5286C15.1804 57.4164 15.6559 57.3629 15.7734 57.037V57.0851C15.8322 56.8714 15.9124 57.0103 16.0139 56.8821C16.0299 56.8981 16.0406 56.9088 16.0406 56.9195C16.1047 56.7111 16.3879 56.7645 16.4573 56.6577L16.5054 56.7592L16.7352 56.6416L16.6337 56.6523C16.5482 56.3585 16.8901 56.7592 16.9863 56.4974C17.168 56.4653 17.0397 55.7707 17.2588 55.8295C17.2695 55.6639 17.2962 56.0753 17.3603 55.9203C17.4351 56.0646 17.3496 56.0379 17.4404 56.1394C17.5152 56.0165 17.7022 56.1982 17.7877 56.0272L17.8518 56.1341C17.9213 55.8348 18.2739 56.0913 18.2846 55.8295C18.4129 55.6318 18.5999 56.0753 18.6586 55.7494L18.8243 55.8455C18.9204 55.8188 18.7708 55.6318 18.9044 55.6478C18.9578 55.744 19.0647 55.6478 19.07 55.7654C19.3639 55.76 19.3425 55.3005 19.7593 55.3273C19.6898 55.1189 19.8875 55.1189 19.8341 54.9639C19.8982 55.0334 20.0905 54.7716 20.0799 55.0441C20.0799 55.0655 20.0531 55.0815 20.0318 55.0548L20.0905 55.1616C20.3791 55.2257 20.2615 54.8464 20.4218 54.7556C20.3523 54.7556 20.3096 54.8143 20.2882 54.7182L20.4271 54.622L20.4699 54.7235C20.55 54.6861 20.6195 54.6434 20.6943 54.6006L20.5821 54.5312C20.7157 54.4991 20.8973 54.6273 20.8706 54.3976C20.8439 54.2801 20.6676 54.3495 20.7317 54.2373C20.9134 54.1946 21.1752 54.1091 21.3461 53.9808C21.2286 53.8954 21.2713 53.858 21.2874 53.7938L21.3835 53.874C21.4049 53.5962 21.6453 54.0022 21.6881 53.7404L21.7415 53.8152L21.5812 53.5962C21.5225 53.2809 21.8484 53.687 21.7362 53.297C21.6934 53.3771 21.4957 53.1474 21.6079 53.1046L21.6827 53.2008C21.6988 53.142 21.6774 53.0939 21.7201 53.0779C21.7469 53.1473 21.843 53.2061 21.8804 53.1206L21.9606 53.2649L21.8858 52.9924C22.0674 52.971 22.0621 52.7146 22.2277 52.7733C22.2277 52.7733 22.4575 52.597 22.3399 52.4367C22.404 52.5489 22.5269 52.4528 22.6124 52.565C22.543 52.4314 22.575 52.2016 22.7406 52.207V52.2284C23.0345 52.036 22.8689 51.678 23.152 51.5178C23.0185 51.459 23.1574 51.3681 22.9757 51.3094C22.9544 50.9781 23.5581 51.0209 23.0879 50.6736C23.1147 50.5453 23.2749 50.5934 23.3337 50.5507L23.3497 50.5934C23.4085 50.353 23.4299 50.2835 23.5154 50.1286C23.4993 50.0217 23.2589 49.9095 23.3765 49.7866C23.4566 49.8721 23.4619 49.808 23.4833 49.7492C23.4833 49.792 23.5207 49.8187 23.6115 49.7706C23.5848 49.7492 23.5688 49.7225 23.5635 49.7065C23.5741 49.7065 23.5795 49.7065 23.5902 49.7118C23.5902 49.605 23.5528 49.6103 23.5207 49.6477C23.5047 49.637 23.4833 49.637 23.4513 49.637C23.6169 49.5889 23.5421 49.3645 23.7184 49.418C23.7772 49.1188 23.6596 48.857 23.6596 48.6058C23.7558 48.6058 23.8253 48.686 23.8359 48.7608L23.852 48.5791C23.9802 48.6165 23.9001 48.6967 23.9107 48.7608C24.1779 48.6165 23.8146 48.2853 24.0657 48.0983L23.9695 48.0235L23.9909 48.0128C23.9375 48.0021 23.8733 47.9326 23.8627 47.8899C23.9855 47.8792 24.1298 47.9487 24.1458 47.8311C24.2794 47.7617 24.1458 47.5479 24.1031 47.4144C24.071 47.4785 24.0123 47.4464 23.9749 47.409C23.9802 47.3503 24.1031 47.3342 24.0604 47.2808L24.2206 47.3022C24.071 47.3022 24.0871 47.1205 24.0283 47.0885C24.1512 47.0724 24.1138 47.1953 24.1993 47.2274C24.2206 46.9816 24.2153 47.1045 24.2313 46.864C24.1298 46.7198 24.0764 46.864 23.9481 46.7892C23.9321 46.6717 23.8306 46.5542 23.9481 46.4366L23.8039 46.4633C23.7184 46.2443 23.7344 46.1267 23.8894 45.9985C23.3497 45.2024 22.9437 45.1543 22.6979 45.2558C22.4468 45.3573 22.3346 45.6191 22.3346 45.6191C21.998 46.1267 22.3934 46.4206 22.3934 47.0778" fill="#1B1B1B"/>
<path d="M32.8979 57.9194L32.8442 57.8711C32.8442 57.8711 32.8657 57.9194 32.8979 57.9194Z" fill="#1B1B1B"/>
<path d="M25.0596 64.9941C25.0596 64.9941 25.0596 65.0049 25.0703 65.0102C25.0703 64.9995 25.0649 64.9995 25.0596 64.9941Z" fill="#1B1B1B"/>
<path d="M30.5439 56.5742C30.5439 56.5742 30.5439 56.5635 30.5493 56.5527L30.5386 56.5742H30.5439Z" fill="#1B1B1B"/>
<path d="M33.1014 56.016C32.4229 56.0695 32.1718 55.8504 31.5092 56.1603C31.1726 56.2404 30.8467 56.4221 30.5475 56.577C30.4834 56.8335 30.1468 56.7534 30.0453 56.9884L29.9277 56.9083C29.8957 56.9938 29.8476 57.0632 29.7621 57.0312L29.7514 56.9991C29.7033 57.122 29.5858 57.122 29.5644 57.1861L29.5537 57.1541L29.4575 57.2182V57.1648C29.3453 57.325 29.2064 57.4212 29.0515 57.4533L29.137 57.5762C28.7736 57.5869 28.8378 57.9181 28.4851 57.9021L28.4691 57.87C28.3836 58.3936 27.8333 57.9769 27.7478 58.5058C27.7585 58.4417 27.689 58.4578 27.6677 58.4257C27.5554 58.5646 27.4219 58.6982 27.6035 58.9226C27.502 58.9974 27.47 58.9173 27.3845 58.8425C27.4646 58.9386 27.4165 59.0508 27.3471 59.1203V59.0562L27.1654 59.2699L27.3631 59.4142C27.2082 59.4569 27.144 59.2218 27.0746 59.3554L27.2082 59.4996C27.0372 59.6065 26.7487 59.4676 26.4975 59.4996C25.8243 60.0393 25.6534 61.0331 24.9481 61.4605L24.8038 61.4071C24.6115 61.3002 24.9481 61.7597 24.7664 61.6796L24.8038 61.8078C24.7557 61.8078 24.6916 61.8292 24.6756 61.765C24.6222 61.8292 24.6542 61.8505 24.6756 61.936H24.5153C24.2535 62.1711 24.339 62.5451 24.1413 62.8283C23.6925 63.0741 23.6177 63.9182 23.6124 64.3831C23.6658 64.7304 23.436 65.0029 23.2277 65.3074C23.0139 65.6066 22.8163 65.9272 22.9445 66.2852C22.9124 66.3012 22.9712 66.3653 22.9926 66.3707C22.9445 66.563 22.9071 66.7553 22.875 66.953C22.875 66.953 22.7682 67.6743 22.9659 68.1178C23.1635 68.5826 23.575 68.6628 24.5153 67.7545L24.5634 67.7705C24.697 67.498 24.7397 67.3377 24.5313 67.1133C24.8252 67.1187 24.5848 66.8889 24.697 66.8355L24.7183 66.8462C24.526 66.6432 24.9588 66.5363 24.7931 66.3386C24.8145 66.3493 24.8893 66.3707 24.8893 66.4081C24.8786 66.2852 24.8519 66.1142 25.0175 66.1409C25.0336 65.8577 25.2152 65.5051 25.0175 65.2486L25.0603 65.2754C24.916 65.1204 25.0763 65.1364 25.0229 64.9975C25.0443 64.9975 25.0603 64.9975 25.0656 64.9975C24.9267 64.8265 25.1565 64.6716 25.1137 64.5594L25.2206 64.5968L25.2794 64.3724L25.2259 64.4419C24.9481 64.2976 25.4717 64.3564 25.3542 64.1266C25.4503 64.0037 24.8947 63.5656 25.1137 63.4801C25.0175 63.3412 25.2954 63.6458 25.2473 63.4908C25.3916 63.5603 25.3114 63.587 25.445 63.6137C25.429 63.4748 25.6747 63.5229 25.6427 63.3466L25.7549 63.4C25.6427 63.1328 26.0648 63.1863 25.9312 62.9726C25.9419 62.7588 26.3159 63.058 26.209 62.7695L26.3907 62.7962C26.4548 62.7428 26.2464 62.6359 26.364 62.6039C26.4495 62.668 26.5029 62.5558 26.5563 62.6573C26.8128 62.5932 26.5937 62.1765 26.9891 62.1337C26.8609 61.9627 27.0425 61.9307 26.9464 61.7971C27.0212 61.8452 27.128 61.5941 27.1868 61.8345C27.1868 61.8559 27.1761 61.8719 27.1494 61.8452L27.2349 61.936C27.5074 61.9681 27.315 61.6475 27.4379 61.5567C27.3791 61.562 27.3471 61.6154 27.3097 61.53L27.4165 61.4338L27.4753 61.5246C27.5341 61.4819 27.5982 61.4498 27.6623 61.4124L27.5448 61.3483C27.6676 61.3162 27.8493 61.4445 27.7959 61.2361C27.7585 61.1292 27.6035 61.188 27.6516 61.0811C27.8066 61.0384 28.047 60.9957 28.2019 60.9048C28.0897 60.8086 28.1271 60.7819 28.1432 60.7285L28.234 60.8193C28.25 60.5629 28.4691 60.9743 28.5118 60.7552L28.5599 60.83L28.421 60.6003C28.3836 60.3011 28.6561 60.7445 28.576 60.3598C28.5332 60.424 28.3729 60.1675 28.4744 60.1515L28.5332 60.2583C28.5546 60.2049 28.5332 60.1515 28.576 60.1515C28.592 60.2209 28.6721 60.3011 28.7202 60.237L28.779 60.3866L28.7469 60.1301C28.9126 60.1675 28.9446 59.9324 29.0835 60.0446C29.0835 60.0446 29.3186 59.9805 29.2545 59.7988C29.2812 59.9217 29.4094 59.8843 29.4629 60.0179C29.4362 59.879 29.5163 59.6813 29.6552 59.7668V59.7881C29.9437 59.7775 29.917 59.3821 30.2109 59.4248C30.1307 59.3019 30.275 59.3126 30.1575 59.163C30.2857 58.8745 30.7185 59.2966 30.5422 58.7409C30.6276 58.6608 30.7185 58.805 30.7826 58.805L30.7719 58.8425C30.9375 58.7089 30.9963 58.6875 31.1406 58.6341C31.1887 58.5539 31.0978 58.2975 31.2528 58.3028C31.2528 58.415 31.2955 58.3776 31.3436 58.3616C31.3169 58.3883 31.3222 58.431 31.4131 58.4684C31.4131 58.4364 31.4131 58.4097 31.4237 58.3883C31.4237 58.399 31.4291 58.399 31.4344 58.415C31.5039 58.3509 31.4772 58.3242 31.4344 58.3242C31.4344 58.3082 31.4184 58.2921 31.397 58.2654C31.5306 58.3616 31.6321 58.1692 31.7069 58.3349C31.9367 58.212 32.0595 57.9715 32.2572 57.838C32.3053 57.9235 32.2786 58.0143 32.2305 58.0677L32.3694 57.9929C32.4068 58.1212 32.3053 58.0891 32.2679 58.1318C32.503 58.2975 32.5778 57.8166 32.8396 57.9609L32.861 57.8487L32.877 57.8647C32.861 57.8113 32.893 57.7258 32.9251 57.6991C32.9785 57.8059 32.9839 57.9662 33.0854 57.9341C33.1923 58.025 33.3045 57.8273 33.406 57.7472C33.3419 57.7365 33.3525 57.6723 33.3686 57.6243C33.422 57.6136 33.4754 57.7204 33.5075 57.667L33.5395 57.8219C33.4915 57.6777 33.6517 57.6403 33.6624 57.5708C33.7105 57.683 33.593 57.6884 33.5983 57.7739C33.8067 57.7258 33.6998 57.7471 33.9136 57.7044C34.0151 57.5708 33.8708 57.5548 33.9136 57.4105C34.0097 57.3678 34.1006 57.2449 34.2341 57.3251L34.1807 57.1915C34.3677 57.0633 34.4959 57.0739 34.6348 57.2075C35.3508 56.5984 35.463 56.2137 35.3455 55.9626C35.2279 55.7168 34.8913 55.6153 34.8913 55.6153C34.2074 55.3375 33.8815 55.7703 33.1442 56.0107" fill="#1B1B1B"/>
</svg>
