<svg width="80" height="80" viewBox="0 0 80 80" fill="none" xmlns="http://www.w3.org/2000/svg">
<g clip-path="url(#clip0_28097_42715)">
<path d="M14.9601 46.28C14.9601 32.34 26.2601 21.04 40.2001 21.04C54.1401 21.04 65.4401 32.34 65.4401 46.28C65.4401 48.72 65.0901 51.08 64.4401 53.32H69.6801C70.2201 51.06 70.5101 48.71 70.5101 46.28C70.5101 29.54 56.9401 15.97 40.2001 15.97C23.4601 15.97 9.89014 29.54 9.89014 46.28C9.89014 48.7 10.1801 51.06 10.7201 53.32H15.9601C15.3101 51.09 14.9601 48.73 14.9601 46.28Z" fill="white"/>
<path d="M60.7 30.12C60.61 30.01 60.65 30.04 60.7 30.12V30.12Z" fill="#1B1B1B"/>
<path d="M53.1397 20.07C53.1397 20.07 53.0997 20.05 53.0797 20.04C53.0297 20.04 52.9797 20.04 52.9297 20.04L53.1397 20.07Z" fill="#1B1B1B"/>
<path d="M42.7501 17C42.7501 17 42.7101 17 42.6801 17C42.6801 17.01 42.6701 17.03 42.7501 17Z" fill="#1B1B1B"/>
<path d="M68.6899 38.8301C68.7099 38.9201 68.7299 38.9701 68.7499 39.0101C68.7299 38.9501 68.7099 38.9001 68.6899 38.8301Z" fill="#1B1B1B"/>
<path d="M42.4201 20.3899C42.4201 20.3899 42.4501 20.3899 42.4701 20.3899C42.4301 20.3899 42.3901 20.3799 42.3501 20.3699L42.4201 20.3899Z" fill="#1B1B1B"/>
<path d="M42.6597 20.3601C42.9097 20.3901 42.5897 20.3901 42.4697 20.3901C42.8297 20.4401 43.0297 20.4601 43.3097 20.5001C43.3097 20.4701 42.7797 20.3801 42.6497 20.3601H42.6597Z" fill="#1B1B1B"/>
<path d="M70.1699 37.26L70.2199 37.43C70.1999 37.34 70.1799 37.29 70.1699 37.26Z" fill="#1B1B1B"/>
<path d="M16.4597 36.05L16.4297 35.97C16.4297 36.03 16.4297 36.05 16.4597 36.05Z" fill="#1B1B1B"/>
<path d="M32.7399 17.83C32.7399 17.83 32.7099 17.81 32.6799 17.8C32.6699 17.8 32.6599 17.8 32.6499 17.8L32.7399 17.82V17.83Z" fill="#1B1B1B"/>
<path d="M15.9599 53.0901C15.9599 53.0901 15.9399 53.0901 15.9399 53.1001L16.0499 53.3501C16.0099 53.2301 15.9799 53.1501 15.9599 53.0901Z" fill="#1B1B1B"/>
<path d="M20.4697 24.13C20.4697 24.13 20.4497 24.17 20.4497 24.18C20.6497 24.05 21.0797 23.58 21.7297 23.11V23.02C21.2697 23.34 20.8797 23.75 20.4697 24.13Z" fill="#1B1B1B"/>
<path d="M10.5099 36.18L11.1899 34.75C10.2999 37.1 9.84991 38.9 9.49991 40.62C9.36991 41.49 9.20991 42.33 9.10991 43.23C9.06991 44.13 9.02991 45.09 9.00991 46.16L8.98991 45.92C8.95991 46.23 9.01991 46.48 9.07991 47.51C9.11991 48.03 9.16991 48.72 9.23991 49.74C9.27991 50.25 9.33991 50.83 9.41991 51.5C9.46991 51.83 9.51991 52.19 9.56991 52.57C9.62991 52.9 9.69991 53.24 9.76991 53.6C9.80991 53.78 9.83991 53.97 9.87991 54.16L9.90991 54.3C9.90991 54.3 9.99991 54.31 10.0399 54.32H10.3299V54.35C10.7799 54.35 10.7699 54.32 11.6499 54.36L10.5699 54.31L10.0499 54.28C9.92991 54.31 9.94991 54.18 9.92991 54.1L9.87991 53.83C9.92991 53.97 9.93991 54.16 10.0199 54.24H10.4899C10.7999 54.22 11.1099 54.2 11.4199 54.19C11.6399 54.18 11.8599 54.17 12.0899 54.16C12.2999 54.16 12.5099 54.15 12.7299 54.14C12.9299 54.16 12.9899 54.19 13.0099 54.21L15.8999 54.19L17.2499 54.28C17.0599 53.64 16.9199 53.42 16.7599 53C16.6099 52.63 16.3399 51.69 16.2599 50.96C16.2599 51.65 16.0099 50.1 15.9899 50.33C15.9899 50.22 15.9899 50.03 15.9899 49.86C15.7899 48.8 15.6499 46.78 15.5999 46.28C15.5999 46.28 15.5199 47.34 15.5399 48.55C15.5499 49.76 15.6999 51.12 15.7599 51.7C15.4899 50.18 15.6599 51.3 15.6799 51.61L15.7399 51.7C15.9399 52.7 15.8499 52.68 15.9499 53.11H15.9699L15.9399 53.04C15.9399 53.04 15.9699 53.04 15.9899 53.1C16.0099 53.1 16.0399 53.16 16.1099 53.41L16.0899 53.37C16.0899 53.37 16.0899 53.39 16.0999 53.41C15.7299 53.45 14.9899 53.41 14.6999 53.41L14.6799 53.34C14.3299 53.41 13.1699 53.36 11.9799 53.29C11.6999 53.27 11.4199 53.25 11.1399 53.24H10.9499C10.8799 53.23 10.8199 53.23 10.8299 53.14C10.8099 53.02 10.7899 52.89 10.7699 52.78C10.6999 52.28 10.6399 51.89 10.6099 51.69C10.5299 50.76 10.2599 49.64 10.2199 48.48C10.1399 46.64 10.2799 47.55 10.3099 46.63C10.3699 45.48 10.2199 46.86 10.2199 46.4L10.3799 45.02C10.3499 45.82 10.4099 45.39 10.4499 45.24C10.4999 44.66 10.5599 43.88 10.6099 43.23C10.7299 42.58 10.8099 42.03 10.7599 41.84C11.0599 40.27 11.1199 40.28 11.3099 39.62C11.2299 39.84 11.0899 40.27 11.0599 40.27C11.2799 39.66 11.1199 39.97 11.0399 40.22C11.1299 39.74 11.5099 38.52 11.8599 37.41C12.3099 36.33 12.7199 35.34 12.6799 35.22H12.7099C12.6799 34.97 12.4399 35.27 12.6199 34.61L12.8699 34.22L13.1199 33.58C13.3599 33.18 13.2799 33.4 13.2999 33.4C13.5399 32.89 13.7699 32.26 14.1599 31.67C14.5299 31.08 14.9299 30.46 15.2899 29.89L14.2699 30.95C14.6099 30.48 15.0499 29.8 15.4799 29.26C15.9199 28.73 16.2799 28.27 16.2999 28.15L16.7999 27.66C18.4299 26.03 17.7899 26.4 18.4399 25.74C18.7399 25.49 18.9999 25.21 19.3199 24.99C19.0199 25.23 18.7899 25.54 18.5299 25.82C19.3199 24.99 19.7499 24.77 20.4499 24.2C20.4499 24.2 20.3699 24.25 20.3599 24.25L20.4799 24.14C20.5499 24.02 20.9299 23.54 21.5799 23.06C22.0399 22.71 22.4399 22.4 22.9199 22.04C23.3799 21.66 23.9699 21.31 24.7899 20.9L25.1199 20.56C25.5299 20.35 25.9099 20.1 26.3499 19.94L26.3899 20.02C25.7799 20.3 24.9899 20.86 24.1199 21.38C23.2499 21.9 22.4599 22.61 21.7499 23.11V23.16C22.5799 22.57 23.4499 21.78 24.0399 21.46C24.3299 21.3 25.0999 20.96 24.6199 21.33L25.1099 20.92C25.4699 20.7 25.7899 20.5 26.0699 20.33C26.3599 20.17 26.6299 20.05 26.8699 19.94C27.3499 19.71 27.7399 19.53 28.1399 19.34C28.3399 19.25 28.5399 19.16 28.7499 19.06C28.9699 18.99 29.2099 18.91 29.4699 18.82C29.9899 18.65 30.6199 18.44 31.4599 18.16L31.1599 18.22C31.8099 17.96 32.4999 17.8 32.6999 17.82C33.2099 17.69 33.7299 17.57 34.2399 17.44C34.7599 17.37 35.2699 17.31 35.7599 17.24C36.2399 17.19 36.6999 17.14 37.1399 17.09C37.5699 17.08 37.9699 17.09 38.3099 17.1L38.5999 16.97C39.0499 16.95 39.7199 17.09 39.9299 16.92C40.2499 16.87 40.5699 16.9 40.8799 16.89C41.4899 16.93 41.8699 16.89 42.5599 16.98C42.5599 16.98 42.6399 16.99 42.6899 17C44.0599 17.14 42.6899 16.86 44.2499 17.14C44.7399 17.3 44.8299 17.08 45.5899 17.23C45.8299 17.33 46.0899 17.39 46.3199 17.52C46.9899 17.74 47.3799 17.82 47.8599 17.92C48.3399 18.02 48.9099 18.08 49.8599 18.46C50.7599 18.85 51.1399 19.14 50.4999 19.03C51.3699 19.21 50.9299 19.03 52.0199 19.45C52.1599 19.58 52.0399 19.54 51.7899 19.48C52.6899 20 52.3899 19.71 53.0899 20.05C53.3499 20.05 53.6699 20 53.8999 20.1L53.6399 19.94C54.4399 20.21 55.2099 20.73 56.0199 21.26L55.9599 21.29C56.2599 21.47 56.5699 21.62 56.8599 21.81V21.91L58.0699 22.78L57.9199 22.64C58.1999 22.85 59.1499 23.48 59.5899 23.98L59.5499 24C60.8499 25.3 62.0199 26.27 63.3899 27.93L63.1599 27.76C63.5299 28.4 63.3799 27.84 63.8699 28.57L63.8099 28.67C64.3799 29.21 64.3899 29.48 64.6499 29.94C64.6499 29.84 64.6299 29.75 64.6199 29.66C64.8099 29.93 64.9599 30.23 65.1299 30.52C65.6599 31.48 65.3299 31.18 65.1899 31.08L65.6699 31.66L65.6399 31.84C66.0499 32.23 65.9099 32.31 66.3799 33.13C66.3799 33.22 66.2499 33.02 66.3699 33.32L67.1999 34.66L66.7199 33.84L66.9299 33.87C67.1999 34.29 67.3499 34.59 67.4599 34.87C67.5499 35.16 67.6199 35.42 67.7599 35.74L67.5399 35.3C67.9799 36.37 67.9299 36.45 68.1099 37.08C68.0699 36.88 68.0099 36.57 68.1899 37.01C68.3199 37.33 68.1899 37.2 68.2899 37.51C68.4299 37.55 68.6899 38.34 68.8199 39.08C68.7999 39.08 68.7799 39.06 68.7599 39.02C68.8299 39.2 68.8799 39.29 68.9399 39.62L68.7699 39.46L69.0499 40.05C69.1399 40.47 69.2799 41.08 69.1999 41.03L69.1399 40.79L69.3699 42.39C69.4599 42.92 69.5199 43.46 69.5299 44L69.4299 44.05C69.5899 44.36 69.4599 45.81 69.6399 45.7C69.6199 46.31 69.6799 48.11 69.4999 47.74C69.4399 48.8 69.3899 49.61 69.2999 50.48C69.2499 50.92 69.1899 51.36 69.0999 51.86C69.0799 51.98 69.0499 52.1 69.0299 52.22L69.0099 52.31L68.9799 52.4C68.9799 52.4 68.9099 52.4 68.8799 52.4L68.7999 52.35C68.7999 52.35 68.7299 52.34 68.6399 52.33L68.3799 52.31C68.0199 52.29 67.5999 52.28 67.1599 52.27C66.7199 52.27 66.2399 52.27 65.8299 52.26V52.22L65.8399 52.17C65.8399 52.15 65.8299 52.19 65.8799 51.92C65.9599 51.53 66.0199 51.15 66.0799 50.77C66.1899 50.02 66.2699 49.31 66.3199 48.59C66.3699 47.87 66.3899 47.15 66.3799 46.39C66.3299 45.63 66.2799 44.83 66.2199 43.95C66.2499 41.8 65.3099 38.72 64.5099 36.58C64.3999 36.4 64.3199 36.21 64.1999 36.03C63.9299 35.32 63.5399 34.44 63.0299 33.54C62.4699 32.67 61.9399 31.68 61.3199 30.81C60.9699 30.41 60.7999 30.2 60.7199 30.11C60.7699 30.19 60.8499 30.32 60.8299 30.39C60.5299 29.85 59.6499 28.98 59.7999 28.97L59.9099 29.08C60.0399 29.08 58.6599 27.71 58.1899 27.22L58.3799 27.56L57.5399 26.77L57.7899 26.96C55.8599 25.36 54.3199 24.4 52.8099 23.46C52.0399 23.03 51.2399 22.65 50.3799 22.23C49.4799 21.93 48.5299 21.52 47.3799 21.29C48.0199 21.31 46.4699 21.13 46.4499 20.97C45.3499 20.44 44.2799 20.6 43.3299 20.49C43.3299 20.49 43.3199 20.5 43.2599 20.51C42.7099 20.4 42.1399 20.42 41.5799 20.37C42.5999 20.23 40.3599 20.47 41.2899 20.35C36.8899 19.92 31.0299 21.33 26.6899 24.05L26.9099 23.98C25.7599 24.6 24.5399 25.65 23.6999 26.17C22.9099 26.77 22.1899 27.71 21.9199 27.97C21.2599 28.82 20.4799 29.43 20.7899 29.09C20.5999 29.31 20.4199 29.53 20.2399 29.75C20.0799 29.99 19.9199 30.24 19.7499 30.49C19.4299 31.01 18.9999 31.53 18.5599 32.19C18.3599 32.38 17.7899 33.31 17.3499 34.23C16.9399 35.17 16.5599 36.04 16.4599 36.03V36.05C16.0399 36.97 15.6999 37.91 15.4299 38.88C15.2299 39.87 14.8999 40.85 14.7299 41.93C14.7299 41.93 14.7299 41.89 14.7299 41.81C14.7299 42.56 14.6499 43.3 14.7099 44.05L14.8799 46.26L15.5599 45.05C15.7299 43.82 16.1399 42.64 16.4799 41.48C17.0799 38.26 18.3599 35.16 20.2099 32.44C21.7399 30.3 23.6699 28.48 25.7799 26.96C30.8199 23.11 37.4399 21.43 43.7299 22.35L45.0999 22.42C46.8999 22.99 48.9699 23.53 50.9199 24.54C51.9299 24.96 52.8299 25.6 53.7699 26.14C54.1999 26.47 54.6199 26.79 55.0399 27.11L55.6499 27.59L56.1999 28.13L56.3399 28.1C57.1899 28.86 57.0799 28.86 57.2799 29.07C60.3699 32.17 62.7299 36.11 63.7699 40.37C64.0999 41.42 64.1899 42.51 64.3799 43.58C64.4599 44.66 64.5399 45.74 64.5399 46.81C64.5199 47.88 64.4199 48.94 64.2599 49.98C64.1799 50.5 64.0799 51.02 63.9699 51.53L63.8299 52.1L63.6399 52.81L63.2399 54.23C64.5499 54.23 65.8399 54.25 67.1199 54.25C67.5599 54.25 67.9999 54.25 68.4399 54.26H69.3599L69.9599 54.27H70.2599H70.4099H70.4799C70.4799 54.27 70.4899 54.22 70.4999 54.2C70.5599 53.97 70.6299 53.71 70.6999 53.42C70.7699 53.13 70.8399 52.81 70.9199 52.47C71.0099 52.05 71.1099 51.56 71.1899 51.08C71.3499 50.12 71.4499 49.18 71.5199 48.79C71.6699 45.45 71.3099 41.91 70.5299 38.67L70.5699 38.79L70.1599 37.28C70.1599 37.21 70.1599 37.2 70.1899 37.25C69.8899 36.42 69.4599 35.36 69.0799 34.23C68.5899 33.15 68.1099 32 67.6099 31.04L67.6899 31.14C66.1499 28.36 64.1899 25.91 61.9899 23.75C59.7899 21.59 57.2199 19.88 54.5299 18.47L52.4699 17.49L50.3299 16.71C49.6199 16.42 48.8799 16.25 48.1399 16.06C47.3999 15.89 46.6699 15.63 45.9099 15.55C45.1499 15.43 44.3999 15.32 43.6399 15.2C42.8799 15.12 42.0999 15.1 41.3299 15.05C40.9399 15.03 40.5599 15 40.1699 14.99L39.0099 15.04C38.2299 15.09 37.4499 15.07 36.6699 15.17C33.7499 15.4 30.6599 16.24 27.6499 17.54C24.6399 18.85 21.8199 20.77 19.2699 22.94C18.7499 23.28 16.0099 25.84 13.9899 28.96C11.8699 32.04 10.7399 35.61 10.5599 36.17L10.5099 36.18Z" fill="#1B1B1B"/>
<path d="M12.9899 54.22H12.9399C12.9399 54.27 13.0199 54.25 12.9899 54.22Z" fill="#1B1B1B"/>
<path d="M15.3298 29.7999L15.2798 29.8699L15.5098 29.6399L15.3298 29.7999Z" fill="#1B1B1B"/>
<path d="M10.4199 45.92C10.4699 45.15 10.4599 45.12 10.4399 45.23C10.4199 45.51 10.4099 45.75 10.4199 45.92Z" fill="#1B1B1B"/>
<path d="M16.0297 49.8699C15.9797 49.4799 15.9697 49.6299 15.9697 49.8699C16.0397 50.2699 16.0897 50.5499 16.0897 50.5499C16.0697 50.3399 16.0497 50.0899 16.0297 49.8799V49.8699Z" fill="#1B1B1B"/>
<path d="M15.6598 51.6L15.5898 51.48C15.6498 51.71 15.6598 51.7 15.6598 51.6Z" fill="#1B1B1B"/>
<path d="M40.2 21.0298C26.26 21.0298 14.96 32.3298 14.96 46.2698C14.96 48.7098 15.31 51.0698 15.96 53.3098H21.95C21.11 51.1198 20.62 48.7598 20.62 46.2698C20.62 35.4598 29.39 26.6898 40.2 26.6898C51.01 26.6898 59.78 35.4598 59.78 46.2698C59.78 48.7498 59.3 51.1198 58.45 53.3098H64.44C65.09 51.0798 65.44 48.7198 65.44 46.2698C65.44 32.3298 54.14 21.0298 40.2 21.0298Z" fill="#F2782B"/>
<path d="M58.7402 37.2598C58.7402 37.2598 58.7602 37.2898 58.7702 37.3198C58.8102 37.3498 58.8502 37.3798 58.8802 37.4098L58.7402 37.2698V37.2598Z" fill="#1B1B1B"/>
<path d="M60.6699 47.0298C60.6699 47.0298 60.6699 47.0698 60.6699 47.0898C60.6799 47.0898 60.6999 47.0898 60.6699 47.0298Z" fill="#1B1B1B"/>
<path d="M40.0201 25.8799C39.9301 25.8799 39.8901 25.8899 39.8501 25.8999C39.9101 25.8999 39.9601 25.8899 40.0201 25.8799Z" fill="#1B1B1B"/>
<path d="M16.0601 42.31C16.0601 42.31 16.0601 42.33 16.0601 42.35C16.0601 42.32 16.0801 42.29 16.0901 42.25L16.0601 42.31Z" fill="#1B1B1B"/>
<path d="M16.0702 42.4999C16.0202 42.6999 16.0502 42.4399 16.0502 42.3499C15.9802 42.5699 15.9502 42.7899 15.9302 43.0199C15.9702 43.0199 16.0302 42.5899 16.0702 42.4999Z" fill="#1B1B1B"/>
<path d="M31.8601 23.1299L31.8301 23.1999C31.8301 23.1999 31.8701 23.1399 31.8601 23.1299Z" fill="#1B1B1B"/>
<path d="M58.8799 37.4099L58.9299 37.4699C58.9299 37.4699 58.8999 37.4299 58.8799 37.4099Z" fill="#1B1B1B"/>
<path d="M60.8101 52.4499C60.8101 52.4499 60.8301 52.4799 60.8601 52.4899C60.8701 52.4899 60.8801 52.4899 60.8801 52.4899L60.8101 52.4399V52.4499Z" fill="#1B1B1B"/>
<path d="M45.98 21.6599C45.98 21.6599 45.98 21.6799 46 21.6899H46.18C46.09 21.6699 46.02 21.6599 45.98 21.6599Z" fill="#1B1B1B"/>
<path d="M64.7602 44.9399C64.7602 44.9399 64.7502 44.8999 64.7402 44.8999C64.7302 45.0999 64.7602 45.6399 64.7902 46.3199L64.8602 46.3599L64.7602 44.9399Z" fill="#1B1B1B"/>
<path d="M62.2 31.8599L62.77 33.0899C62.48 32.6299 62.22 32.2099 61.97 31.8099C61.71 31.4099 61.43 31.0699 61.18 30.7199C60.93 30.3799 60.69 30.0499 60.45 29.7399C60.21 29.4299 59.94 29.1599 59.7 28.8799C59.2 28.3299 58.73 27.7599 58.14 27.2599C57.55 26.7599 56.98 26.1599 56.21 25.6599L56.39 25.7599C56.19 25.5899 55.97 25.5199 55.25 25.0099C54.9 24.7399 54.38 24.4299 53.65 23.9599C53.28 23.7399 52.88 23.4199 52.38 23.1499C51.89 22.8799 51.32 22.5599 50.65 22.1899C50.46 22.0899 50.46 22.1099 50.08 21.9399C50.4 22.0699 50.69 22.2599 50.98 22.4299C50.42 22.1799 49.88 22.0699 49.12 21.7999C48.96 21.7299 48.92 21.6799 48.91 21.6499L47.96 21.3199L46.99 21.0799L46.42 20.8399C46.12 20.7899 46.02 20.8299 45.81 20.8199C45.6 20.7999 45.26 20.7599 44.46 20.5899C45.04 20.8199 43.65 20.5499 43.84 20.6499C43.74 20.6199 43.58 20.5699 43.43 20.5199C42.47 20.3699 40.64 20.3999 40.2 20.4199C40.2 20.4199 41.12 20.5399 42.2 20.6799C42.73 20.7299 43.28 20.8699 43.76 20.9999C44.24 21.1199 44.65 21.2299 44.89 21.2999C43.58 21.0599 44.54 21.2599 44.79 21.3499L44.88 21.3299C45.67 21.4699 45.63 21.6199 46.02 21.7199C46.02 21.7199 46.02 21.6999 46 21.6899H45.95C45.95 21.6899 45.95 21.6599 45.98 21.6599C45.98 21.6399 46.01 21.6299 46.22 21.6899H46.18C46.51 21.7599 47.06 21.9199 47.3 21.9799L47.28 22.0499C47.59 22.0199 48.5 22.4399 49.43 22.8499C50.36 23.2399 51.22 23.8499 51.58 23.9999C52.27 24.3799 53.11 24.8699 53.94 25.3899C55.21 26.2999 54.51 25.9299 55.11 26.4399C55.86 27.0599 55 26.2499 55.32 26.4899C55.61 26.7599 55.92 26.9899 56.18 27.2899C55.66 26.8599 55.91 27.1299 55.99 27.2299C56.72 27.9199 57.82 29.0599 58.1 29.2199C58.96 30.2799 58.93 30.2999 59.29 30.7499C59.2 30.5699 58.95 30.2799 58.97 30.2599C59.29 30.6999 59.16 30.4399 59.02 30.2599C59.35 30.5199 59.9 31.4599 60.46 32.2699C60.97 33.1199 61.37 33.9299 61.5 33.9599H61.48C61.68 34.0799 61.62 33.7599 61.98 34.2199C62.03 34.3399 62.08 34.4599 62.12 34.5799L62.42 35.0799C62.56 35.4499 62.44 35.2899 62.43 35.2999C62.65 35.7199 62.92 36.2199 63.14 36.7799C63.33 37.3399 63.53 37.9299 63.72 38.4699L63.6 37.2099C63.74 37.6899 63.93 38.3699 64.08 38.9099C64.19 39.4899 64.3 39.9599 64.38 40.0499L64.42 40.6399C64.59 41.5999 64.58 41.9499 64.67 42.1299C64.74 42.3099 64.8 42.3499 64.83 42.7399L64.86 43.7199L64.71 42.7599C64.82 43.7299 64.78 44.1199 64.74 44.8899C64.74 44.8899 64.74 44.8099 64.75 44.7999V44.9299C64.82 45.0399 64.89 45.5499 64.92 46.2299C64.9 47.1999 64.97 47.9699 64.66 49.4899L64.73 49.8899C64.65 50.2699 64.56 50.6499 64.46 51.0199L64.37 50.9999C64.62 49.8899 64.82 47.7599 64.79 46.2999L64.75 46.2699C64.75 47.1299 64.73 48.1099 64.66 48.6799C64.62 48.9599 64.43 49.6499 64.43 49.1299L64.46 49.6699C64.36 50.3799 64.26 50.9099 64.17 51.3499C64.12 51.5699 64.07 51.7699 64.03 51.9599C64.01 52.0499 63.98 52.1499 63.96 52.2399L63.93 52.3399C63.91 52.3999 63.89 52.4599 63.87 52.5199C63.82 52.5399 63.73 52.5199 63.66 52.5199C63.66 52.5199 63.32 52.4999 63.03 52.4899C62.73 52.4799 62.39 52.4699 62 52.4499L62.27 52.4999C61.66 52.5299 61.05 52.5599 60.88 52.4799C59.79 52.4799 59.91 52.4599 59.69 52.4299C59.76 52.2999 59.81 52.1999 59.86 52.1199C59.86 52.1099 59.87 52.1099 59.88 52.0899L59.94 51.9399L60.04 51.6399C60.1 51.4599 60.17 51.2799 60.23 51.0999L60.18 50.7999C60.28 50.4099 60.56 49.8299 60.44 49.5999C60.47 49.3099 60.5 49.0199 60.52 48.7299C60.59 48.1699 60.56 47.8299 60.66 47.1999C60.66 47.1999 60.67 47.1199 60.68 47.0799C60.74 45.8199 60.62 47.0999 60.63 45.6499C60.69 45.1799 60.46 45.1399 60.45 44.4399C60.5 44.1999 60.51 43.9599 60.53 43.7199C60.48 43.0799 60.41 42.7099 60.31 42.2799C60.2 41.8499 60.01 41.3599 59.79 40.4599C59.59 39.5999 59.54 39.1499 59.87 39.6699C59.45 38.9499 59.65 39.3499 59.21 38.3599C59.21 38.1799 59.26 38.2799 59.39 38.4899C59.09 37.5699 59.1 37.9699 58.8 37.3099C58.6 37.1699 58.34 37.0399 58.23 36.8299L58.32 37.0999C57.97 36.4299 57.45 35.7799 57.06 34.9899H57.13C56.95 34.7299 56.74 34.4899 56.55 34.2499L56.57 34.1599C56.29 33.8099 56.04 33.4399 55.73 33.1199L55.84 33.2699C55.62 33.0499 54.92 32.2899 54.53 31.8399H54.57C53.43 30.5999 52.28 29.7999 50.6 28.8299L50.86 28.8899C50.33 28.4699 50.64 28.9099 49.98 28.4599L50 28.3499C49.31 28.1599 49.2 27.9299 48.79 27.6699L48.94 27.8899L48.13 27.4799C47.21 27.0899 47.61 27.1099 47.78 27.0899L47.1 26.9499L47.01 26.7899C46.49 26.7599 46.55 26.5699 45.68 26.4299C45.62 26.3699 45.84 26.3999 45.56 26.3099C45.07 26.2499 44.6 26.1499 44.11 26.1399C44.4 26.1399 44.69 26.2199 44.98 26.2599L44.84 26.3999C43.94 26.2999 43.64 26.1699 43 26.0999L43.45 26.1199C42.4 25.9999 42.36 25.9099 41.76 25.8499C41.94 25.8899 42.22 25.9499 41.79 25.9599C41.48 25.9599 41.63 25.8899 41.33 25.8599C41.25 25.9899 40.5 25.9599 39.82 25.9499C39.82 25.9299 39.84 25.9199 39.89 25.8999C39.72 25.9299 39.63 25.9599 39.32 25.9499L39.49 25.8099L38.91 25.9599C38.52 25.9399 37.96 26.0699 38 25.9899C38.07 25.9699 38.14 25.9499 38.22 25.9399C37.25 26.0799 36.25 26.1499 35.3 26.4299L35.24 26.3399C34.99 26.5399 33.66 26.6999 33.81 26.8699C33.25 26.9599 31.77 27.6999 32.01 27.4099C31.13 27.8399 30.45 28.1599 29.79 28.6399C29.44 28.8699 29.1 29.0899 28.72 29.3399C28.35 29.6199 27.94 29.9199 27.45 30.2599C27.05 30.4299 26.47 30.9699 25.8 31.5499C25.19 32.1799 24.52 32.8799 24.05 33.4899C23.15 34.6899 22.54 35.7599 21.99 36.8599C21.46 37.9699 21 39.1299 20.6 40.5899C20.43 41.0099 20.28 41.5099 20.14 42.0399C20.03 42.5699 19.97 43.1499 19.9 43.7199C19.8 44.2899 19.85 44.8799 19.81 45.4399C19.78 45.9999 19.76 46.5399 19.75 47.0299L19.87 47.5599C19.84 48.2199 19.93 49.0399 20.1 49.9099C20.18 50.3499 20.29 50.7999 20.4 51.2499C20.45 51.4699 20.51 51.6899 20.57 51.9299L20.61 52.0899V52.1299C20.61 52.1299 20.61 52.1699 20.61 52.1899C20.68 52.2699 20.72 52.3399 20.73 52.3599C20.73 52.3499 20.74 52.3299 20.81 52.3599C20.81 52.3999 20.82 52.4399 20.84 52.4899C20.71 52.4899 20.56 52.4899 20.53 52.4099H20.55C20.51 52.3399 20.47 52.3499 20.39 52.3699C20 52.3899 19.41 52.3999 19.15 52.3499L19.46 52.4799L18.51 52.4599L18.76 52.4399C17.78 52.5099 16.61 52.5399 16.61 52.5399C16.58 52.4999 16.57 52.4199 16.55 52.3599L16.47 52.0299C16.39 51.6699 16.32 51.3199 16.26 50.9699C16.03 49.5699 15.89 48.1999 15.74 46.3299C15.87 46.8299 15.69 45.5899 15.86 45.5399C16.11 44.6099 15.86 43.7899 15.97 43.0199C15.97 43.0199 15.96 43.0099 15.95 42.9599L16.17 41.6199C16.22 42.4499 16.18 40.6299 16.21 41.3899C17.01 37.9599 18.81 33.5999 21.55 30.5199L21.39 30.6199C22.11 29.8699 22.89 28.8299 23.56 28.3899C24.19 27.9199 24.75 27.1299 25.01 26.9599C25.65 26.3699 26.39 26.0399 26.08 26.2499C26.43 25.9499 26.79 25.6799 27.2 25.3899C27.61 25.1099 28.05 24.7799 28.63 24.5099C28.87 24.4899 29.64 24.0699 30.37 23.6799C31.11 23.3099 31.85 23.0399 31.89 23.1099V23.0899C32.3 22.9899 32.68 22.8299 33.07 22.7199C33.45 22.6099 33.84 22.4999 34.24 22.3899C34.63 22.2799 35.03 22.1399 35.44 22.0699C35.86 21.9999 36.28 21.9499 36.73 21.9099C36.73 21.9099 36.7 21.9299 36.64 21.9499C37.8 21.5299 39.01 21.3699 40.23 21.0999L39.15 20.5399C38.6 20.4899 38.05 20.4199 37.49 20.3799H35.81C32.84 20.9299 29.97 21.9799 27.37 23.4799C25.23 24.5899 23.31 26.0599 21.52 27.6899C17.4 31.8899 14.74 37.4799 14.11 43.3199C14.09 43.7399 14.15 44.1599 14.16 44.5799C13.9 46.2899 13.96 48.2799 14.29 50.2599C14.37 50.7499 14.47 51.2499 14.58 51.7399L14.75 52.4699L15.05 53.6099L15.23 54.2499C15.41 54.2999 15.66 54.2699 15.86 54.2799H17.03C17.48 54.3099 17.94 54.3199 18.4 54.3399L18.47 54.2199C19.48 54.2199 19.41 54.2899 19.66 54.3099C20.91 54.3099 22.16 54.3099 23.42 54.2999C23.07 53.3699 22.64 52.2699 22.4 51.4599C22.25 50.9699 22.12 50.4699 22.02 49.9699C21.8 48.9699 21.67 47.9399 21.63 46.9199C21.6 44.8699 21.78 42.8099 22.38 40.8799C23.55 37.0099 25.97 33.6499 28.96 31.4999C29.59 31.0599 31.57 29.7799 32.18 29.6499C34.44 28.3799 37.21 27.6999 39.82 27.6699L39.72 27.6899C40.13 27.6399 40.54 27.6599 40.95 27.6799C41 27.6899 41.01 27.7099 40.97 27.7099C42.37 27.5699 44.53 28.1199 46.12 28.6799L46.02 28.6599C50.71 30.2099 54.58 33.5499 56.78 37.7699C57.89 39.8799 58.57 42.2099 58.79 44.5999C58.81 45.1999 58.86 45.7999 58.87 46.3999C58.87 46.9999 58.82 47.6099 58.76 48.2099C58.69 48.8099 58.59 49.4099 58.46 50.0099C58.39 50.3099 58.32 50.5999 58.24 50.8999L58.11 51.3399L57.89 52.0099C57.59 52.7899 57.29 53.5699 56.99 54.3499C58.62 54.3599 60.26 54.3699 61.95 54.3899C62.59 54.3899 63.24 54.3899 63.89 54.3899H64.77L65.21 54.3799C65.24 54.3799 65.3 54.3999 65.31 54.3599L65.34 54.2499L65.4 54.0399L65.63 53.1899L65.74 52.7599L65.8 52.4999C66.38 49.9999 66.65 47.3499 66.51 44.7299C66.6 44.1999 66.31 40.9999 65.29 37.9799C65.01 37.2399 64.76 36.4799 64.45 35.7999C64.12 35.1299 63.8 34.4899 63.53 33.9299C62.91 32.8399 62.39 32.0799 62.25 31.8699L62.2 31.8599Z" fill="#1B1B1B"/>
<path d="M48.91 21.6398H48.95C48.95 21.6398 48.9 21.5998 48.91 21.6398Z" fill="#1B1B1B"/>
<path d="M63.73 38.54L63.71 38.47L63.73 38.75V38.54Z" fill="#1B1B1B"/>
<path d="M55.5098 26.8799C56.0298 27.2799 56.0398 27.2999 55.9898 27.2199C55.8098 27.0699 55.6398 26.9499 55.5098 26.8799Z" fill="#1B1B1B"/>
<path d="M43.4499 20.4399C43.0899 20.3799 43.2299 20.4399 43.4299 20.4999C43.7899 20.5499 44.0399 20.5799 44.0399 20.5799C43.8599 20.5399 43.6299 20.4799 43.4399 20.4399H43.4499Z" fill="#1B1B1B"/>
<path d="M44.7802 21.3398L44.6602 21.3598C44.8702 21.3798 44.8602 21.3598 44.7802 21.3398Z" fill="#1B1B1B"/>
<path d="M58.4496 53.32C59.2896 51.1299 59.7796 48.77 59.7796 46.28C59.7796 35.47 51.0096 26.7 40.1996 26.7C29.3896 26.7 20.6196 35.47 20.6196 46.28C20.6196 48.76 21.0996 51.1299 21.9496 53.32H29.7596C28.3996 51.3099 27.6096 48.89 27.6096 46.28C27.6096 39.33 33.2496 33.69 40.1996 33.69C47.1496 33.69 52.7896 39.33 52.7896 46.28C52.7896 48.89 51.9996 51.3099 50.6396 53.32H58.4496Z" fill="white"/>
<path d="M35.6997 28.1499C35.7597 28.1399 35.7797 28.1199 35.6997 28.1499V28.1499Z" fill="#1B1B1B"/>
<path d="M26.5698 46.89C26.5698 46.89 26.5698 46.86 26.5698 46.84C26.5398 46.8 26.5198 46.77 26.5098 46.74L26.5798 46.89H26.5698Z" fill="#1B1B1B"/>
<path d="M28.8296 39.04C28.8296 39.04 28.8496 39.01 28.8596 39C28.8496 39 28.8396 38.98 28.8296 39.04Z" fill="#1B1B1B"/>
<path d="M21.8896 50.2299C21.8796 50.1699 21.8596 50.1299 21.8496 50.1099C21.8596 50.1499 21.8696 50.1899 21.8896 50.2299Z" fill="#1B1B1B"/>
<path d="M48.8498 29.5698C48.8498 29.5698 48.8298 29.5698 48.8198 29.5598C48.8398 29.5798 48.8598 29.5898 48.8798 29.6098L48.8498 29.5698Z" fill="#1B1B1B"/>
<path d="M48.6996 29.5398C48.5596 29.4498 48.7596 29.5298 48.8196 29.5598C48.6696 29.4498 48.5096 29.3698 48.3396 29.3098C48.3296 29.3398 48.6396 29.4898 48.6996 29.5498V29.5398Z" fill="#1B1B1B"/>
<path d="M20.2895 51.39L20.2495 51.27C20.2595 51.33 20.2795 51.36 20.2895 51.39Z" fill="#1B1B1B"/>
<path d="M59.1596 46.4499L59.0996 46.4099C59.0996 46.4099 59.1396 46.4599 59.1596 46.4499Z" fill="#1B1B1B"/>
<path d="M26.4995 46.7399L26.4795 46.6799C26.4795 46.6799 26.4895 46.7199 26.4995 46.7399Z" fill="#1B1B1B"/>
<path d="M34.4995 34.0999C34.4995 34.0999 34.5295 34.1199 34.5595 34.1199C34.5595 34.1199 34.5695 34.1199 34.5795 34.1199H34.5095L34.4995 34.0999Z" fill="#1B1B1B"/>
<path d="M53.7699 53.3799C53.7699 53.3799 53.7699 53.3599 53.7499 53.3599L53.6099 53.3999C53.6899 53.3999 53.7399 53.3899 53.7699 53.3799Z" fill="#1B1B1B"/>
<path d="M44.5696 33.83H44.6096C44.4496 33.74 44.0196 33.58 43.4396 33.45L43.3896 33.51C43.7896 33.6 44.1896 33.69 44.5696 33.83Z" fill="#1B1B1B"/>
<path d="M50.8697 41.9599C50.8097 41.6399 50.6897 41.3499 50.5997 41.0299C51.3197 42.3999 51.5997 43.5299 51.7197 44.5999C51.8597 45.6699 51.8997 46.6999 51.7597 48.0199V47.8699C51.6997 48.0599 51.7597 48.2199 51.6597 48.8499C51.5997 49.1599 51.4997 49.5999 51.2697 50.1799C51.1497 50.4699 50.9997 50.7999 50.7997 51.1699C50.7697 51.2199 50.6597 51.4299 50.5497 51.6199C50.4297 51.8099 50.3297 52.0099 50.1897 52.2199C49.8897 52.6499 49.5697 53.1199 49.2197 53.6199H49.1997C49.0397 53.8899 49.0797 53.8699 48.7397 54.3399C48.7597 54.3399 48.7897 54.3399 48.8197 54.3499H48.7397L49.6797 53.0399C49.4797 53.3999 49.2497 53.7899 49.0297 54.1799C49.4197 54.1799 49.9297 54.1499 50.4397 54.1499C50.6597 54.1699 50.7097 54.1999 50.7097 54.2199L53.1097 54.1999L53.5897 54.2899C54.0697 54.2399 53.8497 54.0399 55.1197 54.1499C54.6397 54.0099 55.7497 54.0699 55.5897 53.9999C55.6697 54.0199 55.7997 54.0399 55.9197 54.0699C56.6797 54.0499 58.0997 54.0199 58.4597 53.9499C58.4597 53.9499 55.4997 53.6599 54.6997 53.5099C55.7697 53.5499 54.9797 53.4899 54.7697 53.4499L54.6997 53.4799C54.0597 53.4499 54.0597 53.3599 53.7397 53.3399C53.7397 53.3399 53.7397 53.3599 53.7597 53.3599H53.7997C53.7997 53.3599 53.8097 53.3699 53.7797 53.3799C53.7797 53.3999 53.7597 53.4099 53.5797 53.4099H53.6097C53.3397 53.4099 52.8797 53.3999 52.6797 53.3899V53.3199C52.5497 53.3599 52.2197 53.3599 51.8397 53.3399C51.6697 53.3299 51.4697 53.3099 51.2497 53.2999C51.1597 53.2999 51.0597 53.2799 50.9597 53.2699H50.8197L50.7497 53.2499C50.7497 53.2499 50.7797 53.1999 50.7897 53.1799C51.2797 52.5399 51.6097 52.0399 51.7097 51.8399C52.0597 51.3399 52.2697 50.5099 52.5297 49.7499C52.8697 48.4999 52.7897 49.1499 52.9797 48.5099C53.1597 47.7099 52.8697 48.6599 52.9197 48.3299C52.9997 48.0099 53.0797 47.6899 53.1397 47.3699C53.0897 47.9399 53.1697 47.6399 53.2097 47.5299C53.3397 46.6799 53.3697 45.3099 53.2097 45.0599C53.1197 43.9099 53.1897 43.8899 53.0897 43.3999C53.1197 43.5699 53.1297 43.8999 53.1097 43.9099C53.1097 43.4399 53.0597 43.6899 53.0797 43.8799C53.0397 43.6699 52.9797 43.4099 52.8997 43.0199C52.8297 42.6399 52.7397 42.2099 52.6097 41.7999C52.3997 40.9699 52.0297 40.2599 51.9497 40.2199H51.9797C51.7997 40.1099 51.8197 40.3999 51.5397 39.9999L51.4197 39.6899L51.1197 39.2999C50.9797 38.9999 51.0897 39.1199 51.0997 39.1099C50.8597 38.7899 50.5597 38.4099 50.2697 37.9999C49.9397 37.6199 49.6197 37.1999 49.2697 36.8699C49.4597 37.1699 49.5897 37.5199 49.7397 37.8299C49.2897 37.1599 48.2697 36.0799 48.0597 36.0899L47.7297 35.7099C46.4697 34.6399 46.7197 35.1599 46.1897 34.7899L45.4997 34.3299L46.2397 34.6899C45.5297 34.2699 45.2397 34.0899 44.6397 33.8099C44.6397 33.8099 44.7097 33.8499 44.7097 33.8599L44.5997 33.8199C44.4897 33.8399 44.0697 33.7199 43.4997 33.5899C43.0997 33.4699 42.7397 33.3999 42.3097 33.3599C42.0997 33.3299 41.8797 33.2899 41.6097 33.2499C41.3797 33.2199 41.0997 33.1899 40.7297 33.1399L40.3997 33.2399C40.0697 33.1999 39.7397 33.2099 39.4097 33.1999V33.0999C40.3797 32.9799 42.2397 33.1099 43.4697 33.4399L43.4997 33.3999C42.7797 33.1799 41.9097 33.1399 41.4297 33.0699C41.1897 33.0399 40.5697 32.9099 41.0297 32.8699L40.5597 32.9399C39.2997 32.9399 38.6697 33.0199 38.0297 33.1199C37.7097 33.1499 37.3797 33.2099 36.9797 33.3099C36.5697 33.3899 36.0897 33.4999 35.4597 33.7199L35.6897 33.6899C35.1997 33.8799 34.7397 34.1199 34.5797 34.1199C33.1297 34.7699 31.7497 35.6999 30.9297 36.3499L30.8397 36.5899C30.5797 36.8099 30.1297 37.0899 30.1297 37.3099C29.9797 37.4999 29.8197 37.6799 29.6997 37.8899C29.4197 38.2599 29.2897 38.5099 28.9497 38.9099C28.9497 38.9099 28.9097 38.9599 28.8897 38.9899H28.8997C28.3197 39.8599 28.9797 39.0199 28.3297 40.0299C28.0897 40.3399 28.2697 40.4699 27.9997 40.9799C27.8597 41.1299 27.7597 41.2999 27.6397 41.4599C27.4197 41.9399 27.3097 42.2299 27.2597 42.5999C27.2097 42.9699 27.0897 43.3799 26.9997 44.1299C26.8297 44.8399 26.6497 45.1899 26.5897 44.6899C26.6697 45.3799 26.6597 45.0099 26.6797 45.8999C26.6097 46.0399 26.5997 45.9399 26.5597 45.7399C26.4497 46.5399 26.5897 46.2299 26.5997 46.8299C26.7297 46.9999 26.9197 47.1899 26.9397 47.3699L26.9597 47.1399C27.0597 47.7599 27.1797 48.4199 27.2797 49.1299H27.2197C27.2797 49.3599 27.3597 49.6099 27.4297 49.8499L27.3697 49.9199C27.4797 50.2699 27.5997 50.6199 27.7397 50.9599L27.7097 50.8099C27.7597 50.9299 27.8697 51.1899 27.9897 51.4599L28.1797 51.8799L28.2297 51.9999L28.2497 52.0599H28.2097C28.2297 52.2199 28.2797 52.3099 28.3897 52.4399C28.3797 52.4899 28.2497 52.4799 28.1497 52.5099L27.9597 52.5399H27.8497L27.5497 52.5499L27.7497 52.4699C27.2397 52.3899 27.6097 52.5999 26.9997 52.5599L26.9697 52.4599C26.4297 52.5999 26.2697 52.4299 25.8997 52.3799L26.0697 52.5199L25.3697 52.4899C24.5997 52.4499 24.8997 52.3199 25.0097 52.2499L24.4797 52.3599L24.3797 52.2399C23.9997 52.3799 23.9997 52.2199 23.3197 52.2899C23.2597 52.2399 23.4297 52.2199 23.2097 52.1999L22.9297 52.2399C22.9297 52.2399 22.8197 52.2499 22.8097 52.2599L22.7897 52.2799C22.7897 52.2799 22.7297 52.3399 22.6697 52.3599C22.7297 52.3399 22.7697 52.3099 22.7997 52.2899C22.7997 52.3499 22.7797 52.4099 22.7697 52.4599C22.6697 52.5099 22.5397 52.5499 22.5297 52.4699C22.5197 52.3899 22.5297 52.3299 22.4697 52.2499C22.4997 52.2799 22.5297 52.3199 22.5597 52.3399C22.5297 52.2799 22.5097 52.2399 22.4897 52.1799C22.4497 52.0699 22.4297 51.9799 22.4197 51.8999C22.3997 51.7499 22.3697 51.5899 22.3397 51.3999C22.3397 51.5399 22.3597 51.7499 22.2497 51.4599C22.1797 51.2399 22.2697 51.3199 22.2297 51.1099C22.0997 51.0899 21.8997 50.5599 21.8497 50.0499C21.8697 50.0499 21.8897 50.0599 21.8997 50.0899C21.8597 49.9699 21.8097 49.9099 21.7997 49.6799L21.9497 49.7899L21.7497 49.3899C21.7397 49.0999 21.5797 48.6999 21.6797 48.7199L21.7297 48.8799C21.6397 48.1599 21.5897 47.4299 21.5797 46.7099L21.6797 46.6799C21.5197 46.4699 21.7697 45.4999 21.5897 45.5699C21.6997 45.1699 21.6097 43.9499 21.8097 44.2099C21.9297 43.5099 21.9497 42.9599 22.0297 42.3799C22.1597 41.8099 22.2397 41.1799 22.5797 40.3699C22.7697 40.1099 22.9797 39.5799 23.2197 38.9899C23.5097 38.4299 23.7797 37.7799 24.0597 37.2999C24.3197 36.8299 24.5697 36.3999 24.7997 35.9899C25.0497 35.5899 25.3197 35.2299 25.5697 34.8599C25.8097 34.4799 26.1097 34.1399 26.4197 33.7699C26.7297 33.4099 27.0497 33.0099 27.4697 32.6399C28.5597 31.8499 30.0297 30.4799 31.3597 29.8699L31.6697 29.6099C32.5797 29.2999 33.8697 28.5499 35.2097 28.3399C35.5197 28.2199 35.6797 28.1599 35.7597 28.1399C35.6997 28.1499 35.6097 28.1599 35.5597 28.1099C35.9397 28.0499 36.6897 27.8099 36.6597 27.9599L36.5697 27.9899C36.5397 28.1199 37.7097 27.7599 38.1497 27.7999L37.8997 27.7099C38.1397 27.6799 38.3797 27.6399 38.6297 27.6499L38.4397 27.6799C39.2197 27.5799 39.9097 27.4799 40.5397 27.4999C41.1697 27.5299 41.7397 27.5599 42.2997 27.6299C42.8597 27.7299 43.3997 27.8299 43.9997 27.9199C44.5797 28.0599 45.2197 28.1999 45.9597 28.3299C45.5497 28.3299 46.5397 28.4599 46.5197 28.6199C46.8397 28.8399 47.1697 28.9499 47.4897 29.0199C47.8097 29.1099 48.1197 29.1999 48.4097 29.2999C48.4097 29.2999 48.4197 29.2899 48.4597 29.2999C48.7797 29.4699 49.1097 29.6099 49.4197 29.7999C48.7697 29.6299 50.1597 30.0699 49.5797 29.8999C50.1597 30.2999 50.8197 30.6799 51.4297 31.1899C52.0797 31.6499 52.6897 32.1999 53.3097 32.7699C54.4997 33.9399 55.6497 35.2699 56.4197 36.7099L56.3897 36.5599C56.8497 37.2499 57.3097 38.1799 57.5197 38.7699C57.6997 39.3699 58.1197 40.0099 58.2197 40.2399C58.5597 40.8599 58.4897 41.5399 58.4397 41.2399C58.5397 41.5899 58.6797 41.9299 58.8197 42.2999C58.9497 42.6799 59.0097 43.1099 59.0597 43.6199C59.0297 43.9699 59.4297 46.4099 59.2397 46.4499H59.2597C59.1097 47.7699 59.1997 49.0299 58.7697 50.3999C58.7697 50.3999 58.7697 50.3699 58.7697 50.3199C58.7497 51.2999 58.6397 52.2899 58.4597 53.2799C58.7497 53.0899 59.0397 52.8899 59.3297 52.6799C59.7697 51.8999 60.1697 51.0699 60.5097 50.2199C60.9697 47.7999 60.9297 45.3099 60.4897 42.9099C60.4397 42.4199 60.3697 41.9399 60.2497 41.4699C60.1397 40.9899 60.0497 40.5099 59.9197 40.0399C59.6097 39.1099 59.3397 38.1599 58.8997 37.2799C56.7997 32.9799 53.1797 29.4299 48.7897 27.5099C48.4697 27.3999 48.1397 27.2999 47.7997 27.2399C47.1597 26.9499 46.4797 26.6199 45.7197 26.4499C45.3397 26.3499 44.9597 26.2499 44.5697 26.1499C44.1797 26.0699 43.7697 26.0299 43.3697 25.9599C41.7597 25.6999 40.0997 25.7399 38.5797 25.7499L38.5297 25.8699C37.6897 25.9399 37.7397 25.8999 37.5197 25.8999C33.5797 26.4199 29.7897 28.2199 26.8597 30.8099C23.8997 33.3899 21.8497 36.7399 20.6897 40.0999C20.5497 40.4199 20.3797 41.0899 20.1997 41.7499C20.0097 42.3999 19.9597 43.0599 19.8597 43.3199C19.8297 43.6199 19.8097 43.9099 19.7797 44.1999C19.7797 44.4999 19.7797 44.7999 19.7697 45.0899C19.7697 45.6799 19.7297 46.2799 19.7697 46.8799C19.8197 48.0699 19.9597 49.2599 20.1897 50.3999L20.1597 50.3199C20.2397 50.6799 20.3297 51.0299 20.4297 51.3799C20.4297 51.4299 20.4197 51.4399 20.3997 51.3999C20.5097 51.7399 20.6197 52.0499 20.7297 52.3899C20.7997 52.5999 20.8697 52.8199 20.9497 53.0399C21.0597 53.3599 21.1797 53.6799 21.2997 54.0199L21.3897 54.2799C21.4697 54.2799 21.5697 54.2799 21.6597 54.2799H22.1997L23.0997 54.3099C23.4997 54.3199 23.8797 54.3399 24.2397 54.3499H24.1597C26.7297 54.3499 29.2597 54.3499 31.7597 54.3399L30.4597 52.3399C30.2397 52.0099 30.0897 51.6799 29.8997 51.3599L29.7597 51.0599L29.6497 50.8199C29.3697 50.1599 29.1397 49.4899 28.9797 48.7899C28.6497 47.3999 28.6197 45.9499 28.8197 44.5299C29.2197 41.6999 30.7597 39.0199 33.0997 37.2399C34.5597 36.2299 36.2797 35.3199 38.2397 34.9699C40.1797 34.6099 42.3197 34.6999 44.1897 35.4899C44.2697 35.5399 44.4597 35.6199 44.7397 35.7299C45.0097 35.8599 45.3497 36.0299 45.7397 36.2299C46.4897 36.6799 47.4397 37.2699 48.2297 38.0599C49.8897 39.5799 50.8297 41.6599 50.9797 41.9799L50.8697 41.9599Z" fill="#1B1B1B"/>
<path d="M50.6997 54.22H50.6397C50.5897 54.27 50.7097 54.25 50.6997 54.22Z" fill="#1B1B1B"/>
<path d="M49.2096 36.8499L49.2596 36.8899L49.1396 36.6799L49.2096 36.8499Z" fill="#1B1B1B"/>
<path d="M53.1797 48.0498C53.2697 47.4998 53.2397 47.4698 53.2197 47.5498C53.1997 47.7498 53.1797 47.9198 53.1797 48.0498Z" fill="#1B1B1B"/>
<path d="M55.9097 54.1298C56.1897 54.1298 56.0797 54.0998 55.9097 54.0698C55.6197 54.0698 55.4297 54.0698 55.4297 54.0698C55.5697 54.0798 55.7597 54.1098 55.9097 54.1198V54.1298Z" fill="#1B1B1B"/>
<path d="M54.7595 53.4399L54.8495 53.3999C54.6795 53.3999 54.6895 53.4199 54.7595 53.4399Z" fill="#1B1B1B"/>
<path d="M33.1 56.3C33.1 52.65 30.46 49.96 26.45 49.71C26.08 49.69 25.53 49.4 25.46 48.71C24.53 45.37 22.16 43.75 18.39 43.75C15 43.75 12.15 45.87 11.35 48.73C11.19 49.29 10.73 49.7 10.15 49.79C6.69004 50.29 4.04004 53.02 4.04004 56.31C4.04004 59.6 6.81004 62.44 10.38 62.86L26.4 62.89C30.15 62.63 33.1 59.79 33.1 56.31V56.3Z" fill="white"/>
<path d="M7.78027 60.8598H7.80027C7.80027 60.8598 7.85027 60.8598 7.87027 60.8398L7.78027 60.8598Z" fill="#1B1B1B"/>
<path d="M11.1504 61.9399C11.1504 61.9399 11.1704 61.9399 11.1804 61.9399C11.1804 61.9299 11.1804 61.9099 11.1504 61.9399Z" fill="#1B1B1B"/>
<path d="M5.47021 53.8701C5.47021 53.8701 5.49021 53.8201 5.49021 53.8101C5.49021 53.8301 5.49021 53.8501 5.47021 53.8701Z" fill="#1B1B1B"/>
<path d="M23.3201 46.25C23.3201 46.25 23.3201 46.25 23.3101 46.24C23.3101 46.25 23.3101 46.26 23.3201 46.28V46.25Z" fill="#1B1B1B"/>
<path d="M23.2404 46.22C23.2004 46.15 23.2804 46.22 23.3104 46.24C23.2804 46.15 23.2104 46.09 23.1404 46.04C23.1204 46.07 23.2404 46.18 23.2504 46.22H23.2404Z" fill="#1B1B1B"/>
<path d="M32.2803 54.8598L32.2603 54.8298C32.2603 54.8298 32.2803 54.8498 32.2803 54.8598Z" fill="#1B1B1B"/>
<path d="M3.65039 53.4599C3.65039 53.4599 3.66039 53.4199 3.67039 53.3899C3.65039 53.4199 3.65039 53.4399 3.65039 53.4599Z" fill="#1B1B1B"/>
<path d="M31.5703 53.0601H31.5103C31.5103 53.0601 31.5603 53.0701 31.5703 53.0601Z" fill="#1B1B1B"/>
<path d="M14.9702 61.99C14.9702 61.99 14.9802 62.02 14.9902 62.03H15.0002L14.9702 61.99Z" fill="#1B1B1B"/>
<path d="M32.6504 58.77H32.6304V58.86C32.6304 58.86 32.6604 58.79 32.6504 58.77Z" fill="#1B1B1B"/>
<path d="M20.2101 62.25C20.2101 62.25 20.2301 62.24 20.2301 62.23C20.1401 62.21 19.9001 62.21 19.6001 62.21L19.5801 62.28L20.2101 62.25Z" fill="#1B1B1B"/>
<path d="M25.9302 63.95L25.3702 63.7999C25.6002 63.7999 25.8102 63.79 26.0002 63.79C26.1002 63.79 26.1902 63.79 26.2902 63.79C26.3102 63.79 26.4402 63.79 26.4902 63.79L26.6502 63.77C27.0402 63.74 27.4002 63.6899 27.7402 63.6199C28.4202 63.4799 29.0702 63.29 29.8102 62.84L29.7402 62.91C29.8602 62.86 29.9202 62.7799 30.2602 62.5299C30.6002 62.2899 31.2202 61.9599 32.3302 61.0499H32.3402C32.4102 60.99 32.3802 60.96 32.5302 60.83C32.4102 60.94 32.2802 61.0499 32.1402 61.1399C32.3202 60.91 32.4102 60.6499 32.6402 60.3499C32.7002 60.2899 32.7402 60.28 32.7602 60.29C32.9202 60.02 33.1002 59.75 33.2202 59.4599L33.4402 59.24C33.5102 58.95 33.2902 59 33.6402 58.31C33.4302 58.55 33.6602 57.92 33.5702 57.99C33.6002 57.95 33.6402 57.88 33.6802 57.82C33.7202 57.5999 33.7602 57.27 33.7802 56.97C33.7802 56.67 33.7602 56.4099 33.7302 56.2999C33.7302 56.2999 33.7102 56.41 33.6702 56.58C33.6302 56.75 33.5902 56.9799 33.5002 57.2099C33.3502 57.6799 33.0902 58.16 32.9502 58.34C33.1602 57.79 32.9902 58.1899 32.9002 58.2799L32.9202 58.33C32.7602 58.65 32.6802 58.6099 32.6002 58.7599C32.6002 58.7599 32.6202 58.7599 32.6302 58.7599V58.7299C32.6302 58.7299 32.6502 58.7299 32.6502 58.75C32.6702 58.75 32.6802 58.78 32.6302 58.86V58.84C32.5802 58.9799 32.4502 59.19 32.4002 59.29L32.3402 59.2599C32.3402 59.3999 32.0802 59.7599 31.7502 60.0499C31.4402 60.3599 31.0602 60.5999 30.9402 60.7099C30.6402 60.8699 30.3902 61.2099 30.0202 61.41C29.4402 61.7299 29.6902 61.4999 29.3702 61.5999C28.9902 61.7399 29.4802 61.6399 29.3402 61.7099L28.8602 61.84C29.1102 61.71 28.9502 61.74 28.9002 61.7299C28.5102 61.9 27.8602 61.97 27.7802 62.13C27.2202 62.19 27.2102 62.1299 26.9802 62.16C27.0602 62.18 27.2202 62.1599 27.2302 62.1899C27.0002 62.1699 27.1302 62.23 27.2302 62.22C27.0802 62.29 26.5902 62.29 26.2402 62.24C25.8002 62.19 25.4002 62.14 25.3602 62.22V62.1899C25.2802 62.3099 25.4102 62.42 25.1602 62.49L24.9902 62.4399L24.7302 62.49C24.5602 62.45 24.6402 62.42 24.6402 62.41C24.2202 62.4599 23.6402 62.4 23.1402 62.38L23.6702 62.7C23.2402 62.62 22.4802 62.47 22.3902 62.58L22.1302 62.47C21.2802 62.26 21.5302 62.5599 21.1902 62.5L20.7602 62.38H21.1902C20.7602 62.32 20.5902 62.2799 20.2502 62.2099C20.2502 62.2099 20.2902 62.2199 20.2902 62.2299H20.2302C20.1802 62.2899 19.9602 62.33 19.6502 62.33C19.2202 62.31 18.8902 62.4 18.2102 62.27L18.0402 62.3899L17.5302 62.32V62.22C18.0302 62.22 18.9802 62.1999 19.6202 62.1899V62.15C19.2502 62.15 18.8102 62.19 18.5602 62.18C18.4402 62.16 18.1202 62.0599 18.3502 62L18.1102 62.09C16.8302 62.09 16.8202 62.1 15.4902 61.99L15.6102 62.04C15.3502 62.07 15.0802 62.09 15.0102 62.02C14.2102 62 13.3802 61.94 12.8602 61.82L12.7502 61.93C12.5802 61.93 12.3302 61.75 12.2502 61.91L11.8902 61.9599C11.6602 61.9599 11.5202 62.02 11.2502 61.95C11.2502 61.95 11.2202 61.9499 11.2002 61.9399C10.6802 61.8999 11.2002 62.0499 10.6102 61.9799C10.5602 61.9599 10.5202 61.96 10.4902 61.97C10.4802 61.97 10.4702 62 10.4602 62.02C10.4302 62.06 10.3502 62.09 10.2202 62.06L9.99021 61.86C9.56021 61.66 9.44021 61.82 8.79021 61.59C8.51021 61.4 8.43021 61.2199 8.67021 61.1899C8.35021 61.2099 8.50021 61.24 8.14021 61.1199C8.12021 61.0399 8.16021 61.05 8.26021 61.04C8.00021 60.81 8.05021 61 7.83021 60.86C7.71021 60.92 7.54021 61.02 7.46021 60.9799L7.53021 61.07C7.25021 60.9699 6.99021 60.8 6.77021 60.54L6.82021 60.5L6.55021 60.2799L6.59021 60.2099C6.46021 60.1099 6.35021 59.9799 6.24021 59.8699L6.27021 59.93C6.18021 59.86 5.92021 59.57 5.83021 59.3699L5.87021 59.3499C5.64021 58.7799 5.26021 58.42 5.04021 57.74L5.14021 57.81C5.16021 57.56 5.00021 57.78 4.97021 57.49L5.07021 57.45C4.87021 57.23 5.04021 57.12 5.07021 56.95L4.95021 57.0499C4.95021 56.9399 4.93021 56.83 4.94021 56.72C4.97021 56.36 5.10021 56.5 5.17021 56.54L5.05021 56.31L5.17021 56.2599C5.04021 56.0899 5.20021 56.09 5.14021 55.79C5.19021 55.77 5.21021 55.85 5.23021 55.75L5.14021 55.2299L5.17021 55.54L5.00021 55.4799C4.91021 55.1299 5.11021 55.0599 5.11021 54.82V54.99C5.17021 54.61 5.27021 54.6199 5.37021 54.4399C5.32021 54.4899 5.24021 54.5699 5.27021 54.4199C5.30021 54.3099 5.35021 54.38 5.40021 54.29C5.30021 54.23 5.36021 53.95 5.52021 53.75C5.53021 53.76 5.54021 53.77 5.55021 53.79C5.57021 53.73 5.55021 53.6799 5.64021 53.5999L5.72021 53.72V53.4799C5.82021 53.37 5.87021 53.16 5.93021 53.22L5.90021 53.2999C6.11021 53.0099 6.34021 52.75 6.60021 52.5L6.68021 52.56C6.65021 52.38 7.13021 52.2099 7.00021 52.0999C7.21021 52.0399 7.60021 51.57 7.62021 51.7999C8.20021 51.4499 8.47021 51.08 9.32021 50.9C9.49021 50.95 9.77021 50.88 10.0802 50.84L10.3102 50.7999C10.3102 50.7999 10.5902 50.7499 10.7202 50.7099C11.0202 50.6199 11.3002 50.47 11.5202 50.31C11.9402 49.98 12.1902 49.55 12.3302 49.13C12.3702 48.99 12.4002 48.86 12.4402 48.72C12.4702 48.62 12.4802 48.51 12.5302 48.41C12.6602 48 12.8502 47.5999 13.1402 47.1399C13.6902 46.7699 14.2002 45.87 14.9002 45.61L15.0202 45.43C15.4902 45.32 16.1002 44.85 16.8002 44.84C16.9502 44.76 17.0302 44.7399 17.0702 44.7299C17.0402 44.7299 16.9902 44.73 16.9602 44.67C17.1602 44.67 17.5402 44.55 17.5202 44.68L17.4702 44.7C17.4602 44.82 18.0402 44.57 18.2602 44.68L18.1402 44.5599H18.5102C18.5102 44.5599 18.4402 44.58 18.4102 44.6C19.2402 44.46 19.8402 44.56 20.3902 44.7C20.9502 44.84 21.4502 45.04 22.1502 45.26C21.9102 45.29 22.4402 45.3299 22.3702 45.4799C22.5702 45.8199 22.9302 45.82 23.1902 46C23.1902 46 23.2002 46 23.2202 46C23.3502 46.12 23.4602 46.2599 23.5702 46.4C23.2202 46.29 23.9402 46.5799 23.6302 46.4699C24.0202 47.0399 24.3902 47.7499 24.6602 48.57L24.7602 48.86L24.7902 49.02C24.8102 49.11 24.8402 49.2099 24.8802 49.2999C25.0302 49.6699 25.3202 50.0099 25.6602 50.2099C25.8302 50.3099 26.0202 50.39 26.2202 50.43C26.4702 50.48 26.5602 50.47 26.6602 50.49C26.8702 50.52 27.0902 50.53 27.2902 50.58L27.2302 50.52C27.6402 50.59 28.1702 50.66 28.4502 50.84C28.7202 51.02 29.1402 50.97 29.2502 51.02C29.6102 51.08 29.7902 51.41 29.6702 51.33C29.9902 51.49 30.4002 51.54 30.7302 51.95C30.7502 52.06 31.0202 52.2799 31.2602 52.5099C31.4902 52.7499 31.7102 52.98 31.6302 53.04H31.6502C31.8902 53.64 32.3302 54.1399 32.3802 54.8699C32.3802 54.8699 32.3602 54.86 32.3502 54.84C32.6502 55.26 32.8702 55.7499 33.0802 56.2799C33.2802 56.1299 33.4802 55.97 33.6702 55.79C33.8102 55.29 33.8902 54.7499 33.9102 54.1899C33.5002 52.7999 32.6502 51.53 31.5202 50.6399C30.6802 49.8499 29.6602 49.2799 28.5802 48.9199C28.2502 48.8199 27.9102 48.7699 27.5702 48.7099C27.4002 48.6699 27.2302 48.67 27.0602 48.65L26.8102 48.63H26.6802L26.6202 48.61H26.6002C26.5602 49.19 26.5902 48.77 26.5802 48.9V48.8499C26.6002 48.7199 26.6202 48.6499 26.6302 48.6199C26.6302 48.6099 26.6002 48.65 26.6102 48.6399C26.6402 48.6199 26.6402 48.63 26.6302 48.61C26.6302 48.66 26.5902 48.36 26.5602 48.31L26.4802 48.07C26.0802 46.78 25.3402 45.4899 24.2302 44.5499C24.0502 44.4499 23.8502 44.37 23.6602 44.28C23.0502 43.69 22.1502 43.28 21.2402 43.07C20.3202 42.85 19.4002 42.79 18.5702 42.7L18.5302 42.82C18.0502 42.84 18.0802 42.77 17.9602 42.75C15.6802 42.87 13.4302 43.98 11.9802 45.75C11.6202 46.19 11.3002 46.67 11.0502 47.18C10.9202 47.43 10.8102 47.69 10.7102 47.95C10.6302 48.2 10.5102 48.5599 10.5002 48.57C10.4202 48.74 10.2602 48.84 10.0902 48.86C9.58021 48.93 9.06021 49.03 8.57021 49.18C8.16021 49.21 7.08021 49.77 6.77021 49.88C5.69021 50.7 4.67021 51.73 4.00021 52.93V52.88C3.91021 53.07 3.84021 53.27 3.75021 53.47C3.73021 53.49 3.72021 53.49 3.72021 53.47C3.51021 54.17 3.12021 55.2499 3.08021 56.1699V56.1199C3.02021 57.4399 3.38021 58.74 4.02021 59.84C4.67021 60.93 5.56021 61.84 6.60021 62.49C7.63021 63.15 8.80021 63.5699 10.0002 63.7599L10.2302 63.7999C10.3002 63.82 10.4802 63.83 10.5502 63.82H10.9602C11.2302 63.82 11.5102 63.83 11.7802 63.84C12.3202 63.86 12.8702 63.8699 13.4402 63.8899C15.5102 64.09 17.9302 63.83 20.3102 63.99C20.7502 64.11 25.5602 64.0299 25.9902 63.9799L25.9302 63.95Z" fill="#1B1B1B"/>
<path d="M32.7603 60.29V60.31C32.7603 60.31 32.7903 60.31 32.7603 60.29Z" fill="#1B1B1B"/>
<path d="M23.0802 62.3998L23.1102 62.4098L22.9902 62.3298L23.0802 62.3998Z" fill="#1B1B1B"/>
<path d="M29.1002 61.6299C28.8502 61.7299 28.8502 61.7499 28.8902 61.7499C28.9802 61.7099 29.0502 61.6699 29.1002 61.6299Z" fill="#1B1B1B"/>
<path d="M33.7404 57.8299C33.7904 57.6699 33.7404 57.7199 33.6804 57.8099C33.6404 57.9799 33.6104 58.0899 33.6104 58.0899C33.6404 58.0199 33.7004 57.8999 33.7304 57.8199L33.7404 57.8299Z" fill="#1B1B1B"/>
<path d="M32.9004 58.28L32.8804 58.22C32.8604 58.31 32.8804 58.31 32.9004 58.28Z" fill="#1B1B1B"/>
<path d="M75.4301 56.3C75.4301 52.65 72.7901 49.96 68.7801 49.71C68.4101 49.69 67.8601 49.4 67.7901 48.71C66.8601 45.37 64.4901 43.75 60.7201 43.75C57.3301 43.75 54.4801 45.87 53.6801 48.73C53.5201 49.29 53.0601 49.7 52.4801 49.79C49.0201 50.29 46.3701 53.02 46.3701 56.31C46.3701 59.6 49.1401 62.44 52.7101 62.86L68.7301 62.89C72.4801 62.63 75.4301 59.79 75.4301 56.31V56.3Z" fill="white"/>
<path d="M50.1099 60.8598H50.1299C50.1299 60.8598 50.1799 60.8598 50.1999 60.8398L50.1099 60.8598Z" fill="#1B1B1B"/>
<path d="M53.48 61.9399C53.48 61.9399 53.5 61.9399 53.51 61.9399C53.51 61.9299 53.51 61.9099 53.48 61.9399Z" fill="#1B1B1B"/>
<path d="M47.8003 53.8701C47.8003 53.8701 47.8203 53.8201 47.8203 53.8101C47.8203 53.8301 47.8203 53.8501 47.8003 53.8701Z" fill="#1B1B1B"/>
<path d="M65.6501 46.25C65.6501 46.25 65.6501 46.25 65.6401 46.24C65.6401 46.25 65.6401 46.26 65.6501 46.28V46.25Z" fill="#1B1B1B"/>
<path d="M65.5703 46.22C65.5303 46.15 65.6103 46.22 65.6403 46.24C65.6103 46.15 65.5403 46.09 65.4703 46.04C65.4403 46.07 65.5703 46.18 65.5803 46.22H65.5703Z" fill="#1B1B1B"/>
<path d="M74.6098 54.8598L74.5898 54.8298C74.5898 54.8298 74.6098 54.8498 74.6098 54.8598Z" fill="#1B1B1B"/>
<path d="M45.98 53.4599C45.98 53.4599 45.99 53.4199 46 53.3899C45.98 53.4199 45.98 53.4399 45.98 53.4599Z" fill="#1B1B1B"/>
<path d="M73.8998 53.0601H73.8398C73.8398 53.0601 73.8898 53.0701 73.8998 53.0601Z" fill="#1B1B1B"/>
<path d="M57.3003 61.99C57.3003 61.99 57.3103 62.02 57.3203 62.03H57.3303L57.3003 61.99Z" fill="#1B1B1B"/>
<path d="M74.98 58.77H74.96V58.86C74.96 58.86 74.99 58.79 74.98 58.77Z" fill="#1B1B1B"/>
<path d="M62.5402 62.25C62.5402 62.25 62.5602 62.24 62.5602 62.23C62.4702 62.21 62.2302 62.21 61.9302 62.21L61.9102 62.28L62.5402 62.25Z" fill="#1B1B1B"/>
<path d="M68.2601 63.95L67.7001 63.7999C67.9301 63.7999 68.1401 63.79 68.3301 63.79C68.4301 63.79 68.5201 63.79 68.6201 63.79C68.6401 63.79 68.7701 63.79 68.8201 63.79L68.9801 63.77C69.3701 63.74 69.7301 63.6899 70.0701 63.6199C70.7501 63.4799 71.4001 63.29 72.1401 62.84L72.0701 62.91C72.1901 62.86 72.2501 62.7799 72.5901 62.5299C72.9301 62.2899 73.5501 61.9599 74.6601 61.0499H74.6701C74.7401 60.99 74.7101 60.96 74.8601 60.83C74.7401 60.94 74.6101 61.0499 74.4701 61.1399C74.6501 60.91 74.7401 60.6499 74.9701 60.3499C75.0301 60.2899 75.0701 60.28 75.0901 60.29C75.2501 60.02 75.4301 59.75 75.5501 59.4599L75.7701 59.24C75.8401 58.95 75.6201 59 75.9701 58.31C75.7601 58.55 75.9901 57.92 75.9001 57.99C75.9301 57.95 75.9701 57.88 76.0101 57.82C76.0501 57.5999 76.0901 57.27 76.1101 56.97C76.1101 56.67 76.0901 56.4099 76.0601 56.2999C76.0601 56.2999 76.0401 56.41 76.0001 56.58C75.9601 56.75 75.9201 56.9799 75.8301 57.2099C75.6801 57.6799 75.4201 58.16 75.2801 58.34C75.4901 57.79 75.3201 58.1899 75.2301 58.2799L75.2501 58.33C75.0901 58.65 75.0101 58.6099 74.9301 58.7599C74.9301 58.7599 74.9501 58.7599 74.9601 58.7599V58.7299C74.9601 58.7299 74.9801 58.7299 74.9801 58.75C75.0001 58.75 75.0101 58.78 74.9601 58.86V58.84C74.9101 58.9799 74.7801 59.19 74.7301 59.29L74.6701 59.2599C74.6701 59.3999 74.4101 59.7599 74.0801 60.0499C73.7701 60.3599 73.3901 60.5999 73.2701 60.7099C72.9701 60.8699 72.7201 61.2099 72.3501 61.41C71.7701 61.7299 72.0201 61.4999 71.7001 61.5999C71.3201 61.7399 71.8101 61.6399 71.6701 61.7099L71.1901 61.84C71.4401 61.71 71.2801 61.74 71.2301 61.7299C70.8401 61.9 70.1901 61.97 70.1101 62.13C69.5501 62.19 69.5401 62.1299 69.3101 62.16C69.3901 62.18 69.5501 62.1599 69.5601 62.1899C69.3301 62.1699 69.4601 62.23 69.5601 62.22C69.4101 62.29 68.9201 62.29 68.5701 62.24C68.1301 62.19 67.7301 62.14 67.6901 62.22V62.1899C67.6101 62.3099 67.7401 62.42 67.4901 62.49L67.3201 62.4399L67.0601 62.49C66.8901 62.45 66.9701 62.42 66.9701 62.41C66.5501 62.4599 65.9701 62.4 65.4701 62.38L66.0001 62.7C65.5701 62.62 64.8101 62.47 64.7201 62.58L64.4601 62.47C63.6101 62.26 63.8601 62.5599 63.5201 62.5L63.0901 62.38H63.5201C63.0901 62.32 62.9201 62.2799 62.5801 62.2099C62.5801 62.2099 62.6201 62.2199 62.6201 62.2299H62.5601C62.5101 62.2899 62.2901 62.33 61.9801 62.33C61.5501 62.31 61.2201 62.4 60.5401 62.27L60.3701 62.3899L59.8601 62.32V62.22C60.3601 62.22 61.3101 62.1999 61.9501 62.1899V62.15C61.5801 62.15 61.1401 62.19 60.8901 62.18C60.7701 62.16 60.4501 62.0599 60.6801 62L60.4401 62.09C59.1601 62.09 59.1501 62.1 57.8201 61.99L57.9401 62.04C57.6801 62.07 57.4101 62.09 57.3401 62.02C56.5401 62 55.7101 61.94 55.1901 61.82L55.0801 61.93C54.9101 61.93 54.6601 61.75 54.5801 61.91L54.2201 61.9599C53.9901 61.9599 53.8501 62.02 53.5801 61.95C53.5801 61.95 53.5501 61.9499 53.5301 61.9399C53.0101 61.8999 53.5301 62.0499 52.9401 61.9799C52.8901 61.9599 52.8501 61.96 52.8201 61.97C52.8101 61.97 52.8001 62 52.7901 62.02C52.7601 62.06 52.6801 62.09 52.5501 62.06L52.3201 61.86C51.8901 61.66 51.7701 61.82 51.1201 61.59C50.8401 61.4 50.7601 61.2199 51.0001 61.1899C50.6801 61.2099 50.8301 61.24 50.4701 61.1199C50.4501 61.0399 50.4901 61.05 50.5901 61.04C50.3301 60.81 50.3801 61 50.1601 60.86C50.0401 60.92 49.8701 61.02 49.7901 60.9799L49.8601 61.07C49.5801 60.9699 49.3201 60.8 49.1001 60.54L49.1501 60.5L48.8801 60.2799L48.9201 60.2099C48.7901 60.1099 48.6801 59.9799 48.5701 59.8699L48.6001 59.93C48.5101 59.86 48.2501 59.57 48.1601 59.3699L48.2001 59.3499C47.9701 58.7799 47.5901 58.42 47.3701 57.74L47.4701 57.81C47.4901 57.56 47.3301 57.78 47.3001 57.49L47.4001 57.45C47.2001 57.23 47.3701 57.12 47.4001 56.95L47.2801 57.0499C47.2801 56.9399 47.2601 56.83 47.2701 56.72C47.3001 56.36 47.4301 56.5 47.5001 56.54L47.3801 56.31L47.5001 56.2599C47.3701 56.0899 47.5301 56.09 47.4701 55.79C47.5201 55.77 47.5401 55.85 47.5601 55.75L47.4701 55.2299L47.5001 55.54L47.3301 55.4799C47.2401 55.1299 47.4401 55.0599 47.4401 54.82V54.99C47.4901 54.61 47.6001 54.6199 47.7001 54.4399C47.6501 54.4899 47.5701 54.5699 47.6001 54.4199C47.6301 54.3099 47.6801 54.38 47.7301 54.29C47.6301 54.23 47.6901 53.95 47.8501 53.75C47.8601 53.76 47.8701 53.77 47.8801 53.79C47.9001 53.73 47.8801 53.6799 47.9701 53.5999L48.0501 53.72V53.4799C48.1501 53.37 48.2001 53.16 48.2601 53.22L48.2301 53.2999C48.4401 53.0099 48.6701 52.75 48.9301 52.5L49.0101 52.56C48.9801 52.38 49.4601 52.2099 49.3301 52.0999C49.5401 52.0399 49.9301 51.57 49.9501 51.7999C50.5301 51.4499 50.8001 51.08 51.6501 50.9C51.8201 50.95 52.1001 50.88 52.4101 50.84L52.6501 50.7999C52.6501 50.7999 52.9301 50.7499 53.0601 50.7099C53.3601 50.6199 53.6401 50.47 53.8601 50.31C54.2801 49.98 54.5301 49.55 54.6701 49.13C54.7101 48.99 54.7401 48.86 54.7801 48.72C54.8101 48.62 54.8201 48.51 54.8701 48.41C55.0001 48 55.1901 47.5999 55.4801 47.1399C56.0301 46.7699 56.5401 45.87 57.2401 45.61L57.3601 45.43C57.8301 45.32 58.4401 44.85 59.1401 44.84C59.2901 44.76 59.3701 44.7399 59.4101 44.7299C59.3801 44.7299 59.3301 44.73 59.3001 44.67C59.5001 44.67 59.8801 44.55 59.8601 44.68L59.8101 44.7C59.8001 44.82 60.3801 44.57 60.6001 44.68L60.4801 44.5599H60.8501C60.8501 44.5599 60.7801 44.58 60.7501 44.6C61.5801 44.46 62.1801 44.56 62.7301 44.7C63.2901 44.84 63.7901 45.04 64.4901 45.26C64.2501 45.29 64.7801 45.3299 64.7101 45.4799C64.9101 45.8199 65.2701 45.82 65.5301 46C65.5301 46 65.5401 46 65.5601 46C65.6901 46.12 65.8001 46.2599 65.9101 46.4C65.5601 46.29 66.2801 46.5799 65.9701 46.4699C66.3601 47.0399 66.7301 47.7499 67.0001 48.57L67.1001 48.86L67.1301 49.02C67.1501 49.11 67.1801 49.2099 67.2201 49.2999C67.3701 49.6699 67.6601 50.0099 68.0001 50.2099C68.1701 50.3099 68.3601 50.39 68.5601 50.43C68.8101 50.48 68.9001 50.47 69.0001 50.49C69.2101 50.52 69.4301 50.53 69.6301 50.58L69.5701 50.52C69.9801 50.59 70.5101 50.66 70.7901 50.84C71.0601 51.02 71.4801 50.97 71.5901 51.02C71.9501 51.08 72.1301 51.41 72.0101 51.33C72.3301 51.49 72.7401 51.54 73.0701 51.95C73.0901 52.06 73.3601 52.2799 73.6001 52.5099C73.8301 52.7499 74.0501 52.98 73.9701 53.04H73.9901C74.2301 53.64 74.6701 54.1399 74.7201 54.8699C74.7201 54.8699 74.7001 54.86 74.6901 54.84C74.9901 55.26 75.2101 55.7499 75.4201 56.2799C75.6201 56.1299 75.8201 55.97 76.0101 55.79C76.1501 55.29 76.2301 54.7499 76.2501 54.1899C75.8401 52.7999 74.9901 51.53 73.8601 50.6399C73.0201 49.8499 72.0001 49.2799 70.9201 48.9199C70.5901 48.8199 70.2501 48.7699 69.9101 48.7099C69.7401 48.6699 69.5701 48.67 69.4001 48.65L69.1501 48.63H69.0201L68.9601 48.61H68.9401C68.9001 49.19 68.9301 48.77 68.9201 48.9V48.8499C68.9401 48.7199 68.9601 48.6499 68.9701 48.6199C68.9701 48.6099 68.9401 48.65 68.9501 48.6399C68.9801 48.6199 68.9801 48.63 68.9701 48.61C68.9701 48.66 68.9301 48.36 68.9001 48.31L68.8201 48.07C68.4201 46.78 67.6801 45.4899 66.5701 44.5499C66.3901 44.4499 66.1901 44.37 66.0001 44.28C65.3901 43.69 64.4901 43.28 63.5801 43.07C62.6601 42.85 61.7401 42.79 60.9101 42.7L60.8701 42.82C60.3901 42.84 60.4201 42.77 60.3001 42.75C58.0201 42.87 55.7701 43.98 54.3201 45.75C53.9601 46.19 53.6401 46.67 53.3901 47.18C53.2601 47.43 53.1501 47.69 53.0501 47.95C52.9701 48.2 52.8501 48.5599 52.8401 48.57C52.7601 48.74 52.6001 48.84 52.4301 48.86C51.9201 48.93 51.4001 49.03 50.9101 49.18C50.5001 49.21 49.4201 49.77 49.1101 49.88C48.0301 50.7 47.0101 51.73 46.3401 52.93V52.88C46.2501 53.07 46.1801 53.27 46.0901 53.47C46.0701 53.49 46.0501 53.49 46.0601 53.47C45.8501 54.17 45.4601 55.2499 45.4201 56.1699V56.1199C45.3601 57.4399 45.7201 58.74 46.3601 59.84C47.0101 60.93 47.9001 61.84 48.9401 62.49C49.9701 63.15 51.1401 63.5699 52.3401 63.7599L52.5701 63.7999C52.6401 63.82 52.8201 63.83 52.8901 63.82H53.3001C53.5701 63.82 53.8501 63.83 54.1201 63.84C54.6601 63.86 55.2101 63.8699 55.7801 63.8899C57.8501 64.09 60.2701 63.83 62.6501 63.99C63.0901 64.11 67.9001 64.0299 68.3301 63.9799L68.2601 63.95Z" fill="#1B1B1B"/>
<path d="M75.0898 60.29V60.31C75.0898 60.31 75.1198 60.31 75.0898 60.29Z" fill="#1B1B1B"/>
<path d="M65.4098 62.3998L65.4398 62.4098L65.3198 62.3298L65.4098 62.3998Z" fill="#1B1B1B"/>
<path d="M71.4303 61.6299C71.1803 61.7299 71.1803 61.7499 71.2203 61.7499C71.3103 61.7099 71.3803 61.6699 71.4303 61.6299Z" fill="#1B1B1B"/>
<path d="M76.0699 57.8299C76.1199 57.6699 76.0699 57.7199 76.0099 57.8099C75.9699 57.9799 75.9399 58.0899 75.9399 58.0899C75.9699 58.0199 76.0299 57.8999 76.0599 57.8199L76.0699 57.8299Z" fill="#1B1B1B"/>
<path d="M75.2299 58.28L75.2099 58.22C75.1899 58.31 75.2099 58.31 75.2299 58.28Z" fill="#1B1B1B"/>
</g>
<defs>
<clipPath id="clip0_28097_42715">
<rect width="73.18" height="49.02" fill="white" transform="translate(3 15)"/>
</clipPath>
</defs>
</svg>
