<svg width="80" height="80" viewBox="0 0 80 80" fill="none" xmlns="http://www.w3.org/2000/svg">
<path d="M34.9882 23.5L37.4882 52.5L39.4882 53L42.9882 55.5C43.6549 57.3333 44.9882 61.2 44.9882 62C44.9882 62.8 43.6549 65 42.9882 66C41.3214 66.8334 37.8882 68.6 37.4882 69C37.0875 69.3996 33.988 68.4999 32.4882 68L28.9882 64L24.9882 68C22.8213 69.6666 17.5881 71.0998 13.9882 63.5C10.3882 55.9 17.4882 53.3333 21.4882 53L21.9882 43L24.4882 19.5L28.9882 9L34.9882 23.5ZM20.9999 58C19.3432 58.0002 17.9999 59.3433 17.9999 61C17.9999 62.6567 19.3432 63.9998 20.9999 64C22.6568 64 23.9999 62.6569 23.9999 61C23.9999 59.3431 22.6568 58 20.9999 58ZM36.9999 58C35.3432 58.0002 33.9999 59.3433 33.9999 61C33.9999 62.6567 35.3432 63.9998 36.9999 64C38.6568 64 39.9999 62.6569 39.9999 61C39.9999 59.3431 38.6568 58 36.9999 58Z" fill="white"/>
<path d="M23.6997 64.668H23.6062C23.6062 64.668 23.653 64.7044 23.6997 64.668Z" fill="#1B1B1B"/>
<path d="M22.7488 62.7907C22.5996 62.9086 22.4187 62.9792 22.2293 62.9936C22.061 63.01 21.9016 63.0772 21.7721 63.1861C21.5747 63.2434 21.3721 63.3526 21.1591 63.3994C21.0552 63.6439 20.8734 63.3994 20.728 63.5763V63.4358C20.6708 63.5035 20.6085 63.5347 20.5825 63.4358V63.3994C20.4942 63.4775 20.437 63.3994 20.3903 63.4411V63.4046H20.3124L20.3436 63.3578C20.2887 63.3878 20.2248 63.3969 20.1637 63.3835C20.1027 63.3701 20.0485 63.3352 20.0111 63.285L19.9435 63.4306C19.8396 63.1601 19.5695 63.389 19.5383 63.0769L19.5695 63.0456C19.3202 63.1185 19.289 62.9728 19.2786 62.8479C19.2682 62.7231 19.2786 62.5982 19.0293 62.5826C19.0916 62.5826 19.0968 62.5254 19.128 62.5098C19.0712 62.4423 18.9917 62.3981 18.9045 62.3856C18.8173 62.3732 18.7286 62.3933 18.6552 62.4421C18.6085 62.3433 18.7124 62.3225 18.8215 62.2653C18.7997 62.2768 18.7759 62.2837 18.7514 62.2857C18.727 62.2878 18.7023 62.2848 18.679 62.277C18.6557 62.2692 18.6342 62.2568 18.6159 62.2405C18.5975 62.2241 18.5826 62.2042 18.5721 62.182H18.6344C18.591 62.1166 18.5545 62.0469 18.5254 61.9739L18.2812 62.0832C18.3176 61.9323 18.5825 61.9739 18.489 61.8699L18.276 61.9167C18.276 61.719 18.5981 61.5733 18.7591 61.3964C18.7955 61.0947 18.7279 60.7721 18.7591 60.4287C18.7644 60.2593 18.8216 60.0955 18.9228 59.9596C19.0241 59.8238 19.1646 59.7224 19.3254 59.6692L19.4604 59.768C19.6267 59.9293 19.3306 59.4038 19.4968 59.5495V59.4142C19.5436 59.4142 19.6007 59.4507 19.6111 59.5131C19.663 59.4819 19.6422 59.4506 19.6111 59.3674L19.7513 59.4455C20.0007 59.4455 20.0526 59.0708 20.3332 59.0396C20.5295 59.1206 20.7498 59.1206 20.9461 59.0396C21.1643 58.9772 21.4085 58.894 21.6059 58.8576C21.902 58.7327 22.1254 59.0032 22.2864 59.2633C22.4474 59.5235 22.5098 59.7836 22.8059 59.8148C22.8059 59.846 22.8734 59.8148 22.8942 59.8148C22.9779 59.9421 23.0509 60.0761 23.1124 60.2154C23.1124 60.2154 23.1799 60.3351 23.2526 60.4964C23.3438 60.6782 23.4498 60.8522 23.5695 61.0166C23.6304 61.1122 23.7164 61.1891 23.8182 61.2386C23.92 61.2882 24.0335 61.3086 24.1461 61.2976C24.3955 61.2508 24.8215 61.0426 25.1332 60.1998H25.1903C25.1903 59.7316 25.0812 59.4246 24.7176 59.279C24.9721 59.0813 24.5617 58.946 24.5877 58.8107H24.6137C24.2604 58.7379 24.4215 58.2228 24.063 58.1812C24.089 58.1812 24.1565 58.1084 24.2033 58.15C24.0319 58.0407 23.7877 57.9211 23.8916 57.765C23.502 57.4892 22.9202 57.0939 22.5305 57.2811L22.5669 57.2395C22.3435 57.3748 22.3591 57.1823 22.1461 57.2395C22.1461 57.2135 22.1461 57.1979 22.1461 57.1875C21.928 57.328 21.6267 57.1095 21.476 57.1875V57.0626C21.3565 57.0626 21.2371 57.0626 21.1228 57.0626L21.2526 57.0991C21.1955 57.4372 20.9877 56.865 20.7332 57.0991C20.6137 57.0991 20.5098 57.276 20.4215 57.4528C20.3331 57.6297 20.2656 57.791 20.141 57.739C20.0786 57.9211 20.1409 57.4633 20.0422 57.6245C19.9903 57.4529 20.089 57.4944 20.0111 57.3696C19.876 57.4892 19.689 57.2708 19.528 57.4581L19.4708 57.3332C19.315 57.6662 18.8994 57.3904 18.8526 57.7078C18.676 57.9471 18.4526 57.4685 18.3332 57.8743L18.1202 57.8014C17.9955 57.8742 18.1929 58.0459 18.0267 58.0772C17.9539 57.9835 17.8189 58.1396 17.8085 57.9939C17.6163 58.0511 17.5384 58.2384 17.4552 58.4153C17.4199 58.5196 17.3639 58.6157 17.2908 58.698C17.2176 58.7802 17.1287 58.8468 17.0293 58.894C17.1747 59.0969 16.9461 59.2321 17.0708 59.3778C16.9721 59.3414 16.8682 59.7836 16.7747 59.461C16.7747 59.461 16.7747 59.3986 16.8215 59.4194L16.7072 59.331C16.3591 59.4871 16.6501 59.8512 16.5462 60.0802C16.6137 60.0177 16.6293 59.9137 16.702 60.0073L16.6189 60.2362L16.5202 60.1582C16.4659 60.2712 16.419 60.3876 16.3799 60.5068H16.5306C16.4319 60.6681 16.1721 60.7097 16.3591 60.9334C16.4682 61.0322 16.5617 60.7825 16.5929 60.9698C16.44 61.2453 16.3479 61.5505 16.3228 61.8646C16.4786 61.8178 16.4838 61.9011 16.5306 61.9791L16.3955 62.0103C16.6396 62.2965 16.0994 62.1872 16.3332 62.4838H16.2292H16.5358C16.8734 62.6867 16.2968 62.7335 16.7643 62.9156C16.6968 62.8011 17.0345 62.7543 17.0241 62.9156H16.889C16.9409 62.9832 17.0033 62.9884 17.0033 63.0456C16.915 63.0456 16.8111 63.0977 16.8838 63.2069H16.6968C16.8076 63.2485 16.9167 63.285 17.0241 63.3162C16.9669 63.5555 17.289 63.7012 17.1643 63.8728C17.1643 63.8728 17.3306 64.2579 17.5487 64.1902C17.3929 64.2162 17.502 64.4139 17.3461 64.466C17.5332 64.466 17.8189 64.5908 17.8085 64.7833C18.0526 65.2359 18.5513 65.1059 18.8007 65.4701C18.863 65.3192 19.0137 65.4701 19.0552 65.2828C19.2786 65.2828 19.4033 65.444 19.5383 65.5429C19.6734 65.6417 19.7877 65.6782 19.9383 65.3868C20.115 65.3868 20.1098 65.5845 20.1981 65.6313H20.1462C20.4942 65.6313 20.5877 65.6313 20.8422 65.6678C20.9721 65.6105 20.9929 65.3244 21.2007 65.3816C21.1383 65.5013 21.2007 65.4753 21.3046 65.4753C21.2578 65.4753 21.2422 65.5377 21.3565 65.6105C21.3663 65.5802 21.3843 65.5532 21.4085 65.5325C21.4117 65.5409 21.4117 65.5501 21.4085 65.5585C21.5435 65.5065 21.5124 65.4701 21.4501 65.4597C21.4483 65.435 21.4392 65.4115 21.4241 65.392C21.5799 65.5273 21.8033 65.3244 21.8552 65.5221C22.1842 65.3691 22.4792 65.1514 22.7228 64.8822C22.7586 64.9191 22.7787 64.9685 22.7787 65.02C22.7787 65.0715 22.7586 65.121 22.7228 65.1579L22.9254 65.0174C22.9877 65.1527 22.8371 65.1579 22.7799 65.2151C23.1643 65.3036 23.2007 64.7365 23.5851 64.6949V64.5596C23.5711 64.5267 23.5639 64.4913 23.5639 64.4556C23.5639 64.4198 23.5711 64.3844 23.5851 64.3515C23.7046 64.4243 23.7773 64.5908 23.8968 64.466C24.089 64.466 24.1357 64.159 24.1877 63.9821C24.1098 64.0393 24.0786 63.9821 24.0682 63.9093C24.0578 63.8364 24.25 63.9093 24.2448 63.8104L24.3851 63.9145C24.2396 63.8312 24.3851 63.6283 24.3332 63.5659C24.4682 63.6023 24.3331 63.7324 24.4163 63.8104C24.5109 63.6725 24.596 63.5282 24.6708 63.3786C24.6708 63.1601 24.5098 63.3214 24.4215 63.1705C24.4682 63.03 24.4215 62.8479 24.5773 62.7439H24.4111C24.3957 62.6433 24.4102 62.5404 24.4527 62.4479C24.4951 62.3554 24.5638 62.2774 24.65 62.2236C24.6005 62.0365 24.5137 61.8612 24.395 61.7084C24.2763 61.5555 24.1281 61.4282 23.9591 61.334C23.8808 61.2894 23.7934 61.263 23.7035 61.2567C23.6136 61.2504 23.5234 61.2644 23.4396 61.2976C23.3245 61.334 23.2183 61.3943 23.128 61.4745L23.0241 61.5785C22.9472 61.6292 22.8875 61.7022 22.8532 61.7877C22.8188 61.8732 22.8114 61.9672 22.8319 62.0571C22.8716 62.282 22.8445 62.5135 22.7539 62.7231" fill="#1B1B1B"/>
<path d="M34.3438 30.6167V30.1953C34.3126 30.1953 34.3023 30.3098 34.3438 30.6167Z" fill="#1B1B1B"/>
<path d="M30.375 64.1055C30.3875 64.1316 30.4032 64.1561 30.4217 64.1783L30.375 64.1055Z" fill="#1B1B1B"/>
<path d="M36.8895 35.5437C36.7856 34.1182 36.7025 32.9424 36.6245 31.9019C36.5882 31.3816 36.557 30.8926 36.5258 30.4191C36.4947 29.9457 36.4375 29.4879 36.3908 29.0301C36.2973 28.1092 36.2194 27.1831 36.0583 26.1218C35.8973 25.0604 35.6843 23.8587 35.3466 22.3967C34.7765 19.5043 33.9059 16.6796 32.7492 13.9685C32.5882 13.698 32.4012 13.3754 32.2298 13.0164C32.0583 12.6574 31.8557 12.262 31.6116 11.8614L31.4349 11.5649C31.3622 11.44 31.2635 11.2579 31.1544 11.1071C30.9259 10.8053 30.6869 10.514 30.4583 10.2226C30.2513 9.95611 30.0083 9.71972 29.7362 9.52026C29.5066 9.33427 29.2673 9.16061 29.0193 9C28.8323 9.15608 28.6921 9.29655 28.5362 9.43702L27.7934 9.90525C27.5128 10.3163 27.2167 10.7273 26.9154 11.1331C26.733 11.4556 26.5336 11.7682 26.3181 12.0695V12.0175C26.1362 12.4129 25.9752 12.8239 25.7986 13.1829C25.6485 13.4595 25.5267 13.7506 25.4349 14.0517V14.0049L25.0661 14.9414V14.7593L23.8245 18.7705L24.0064 18.7133C23.6494 19.727 23.3885 20.7721 23.2271 21.8348C23.1388 22.2771 23.0557 22.7089 22.9622 23.1823C22.8687 23.6558 22.7648 24.1656 22.6038 24.7431L22.5726 24.7015C22.539 25.411 22.4644 26.118 22.3492 26.8189C22.2609 27.4693 22.1362 28.0728 22.0167 28.6763C21.8973 29.2798 21.7726 29.8937 21.6791 30.5544C21.5954 31.2761 21.5642 32.0029 21.5856 32.7291C21.5856 32.3285 21.4869 32.8852 21.4505 32.854C21.3414 34.3159 21.2167 35.8767 21.5492 35.9235C21.4713 36.964 21.3882 36.782 21.2583 36.912C21.3986 36.912 21.3934 37.8433 21.3466 38.6757L21.3155 38.2907L21.2012 40.6683L21.4973 40.2157C21.3466 41.4695 21.1544 40.5174 21.1648 41.7296H21.3882C21.2739 43.4725 20.905 44.4818 20.6765 46.1674C20.6193 47.3693 20.6245 48.5867 20.6193 49.8093C20.6193 50.4232 20.6193 51.0371 20.6193 51.651C20.6193 52.0568 20.6193 52.0308 20.6193 52.14C20.627 52.2353 20.627 52.3309 20.6193 52.4262C20.5277 52.4192 20.4357 52.4192 20.344 52.4262H20.1882L19.7207 52.5042C19.3934 52.5565 19.0704 52.633 18.7544 52.7331C18.4365 52.8237 18.1242 52.9331 17.8193 53.0609C16.6135 53.56 15.5331 54.3204 14.6557 55.2876C12.9488 57.1534 12.0519 59.6218 12.1622 62.1499C12.113 62.2596 12.0713 62.3726 12.0375 62.488C11.9388 62.5713 12.0375 63.0915 12.3025 63.5806C12.5674 64.0696 12.822 64.5379 12.7492 64.7148C12.8791 64.9697 13.0557 65.2038 13.2063 65.4431C13.2635 65.6824 13.5076 66.1299 13.2063 65.7969C13.42 66.2109 13.7109 66.5801 14.0635 66.8843C14.1882 67.1444 14.3596 67.3733 14.5102 67.623C15.5298 68.7506 16.8487 69.5644 18.3128 69.9694C19.8003 70.363 21.3566 70.4199 22.8687 70.1359C23.7756 70.0031 24.6537 69.7182 25.4661 69.2931C26.4366 68.7731 27.2946 68.0658 27.9908 67.212C28.7354 66.3183 29.2921 65.2831 29.6271 64.1685C29.9417 63.1027 30.0596 61.9885 29.9752 60.8804L29.5856 61.7284L27.9648 60.8856C27.9508 61.8477 28.0947 62.8056 28.3908 63.7211C28.8789 65.1693 29.6787 66.4924 30.7336 67.597C31.2899 68.1622 31.9106 68.6598 32.583 69.0797C33.2742 69.4998 34.0185 69.8253 34.796 70.0474C36.3838 70.5105 38.0705 70.5105 39.6583 70.0474C41.2075 69.5802 42.5775 68.651 43.5856 67.3837C43.7645 67.221 43.9017 67.0176 43.9856 66.7906C45.1459 65.2999 45.801 63.4773 45.8557 61.588C45.8612 61.4875 45.8612 61.3867 45.8557 61.2862C45.8557 61.0885 45.8297 60.8076 45.8141 60.4538C45.7069 59.5181 45.4582 58.6041 45.0765 57.7433C44.5789 56.6491 43.8588 55.671 42.9622 54.8714C42.0967 54.0944 41.077 53.5093 39.97 53.1546C39.5212 53.0125 39.0604 52.9115 38.5934 52.8528C38.2478 52.821 37.9 52.821 37.5544 52.8528C36.9882 52.9152 36.744 53.0193 36.8999 53.1598C37.4697 53.428 38.0562 53.6591 38.6557 53.8517C39.2679 54.1093 39.8498 54.4338 40.3908 54.8194C41.1285 55.3583 41.7667 56.0221 42.2765 56.7808L42.1622 56.734C42.7985 57.5339 43.2715 58.4514 43.5544 59.4341C43.8002 60.2413 43.9535 61.0739 44.0116 61.9158C43.912 62.0345 43.8472 62.1786 43.8245 62.332C43.7674 62.5297 43.7518 62.7898 43.6843 63.0447C43.6531 63.1748 43.6271 63.3101 43.6012 63.4401C43.5752 63.5702 43.5233 63.6899 43.4869 63.8043C43.4505 63.9188 43.4089 64.0332 43.3726 64.1269C43.3326 64.2044 43.2875 64.2791 43.2375 64.3506V64.2777C43.0179 65.0031 42.5919 65.6485 42.0115 66.1351C41.4557 66.6553 40.8583 67.0507 40.2921 67.4877C40.3435 67.3506 40.4459 67.2388 40.5778 67.1756C40.3609 67.3328 40.1316 67.472 39.8921 67.5918C39.6627 67.7216 39.4207 67.8279 39.17 67.9091C38.7129 68.0756 38.344 68.1068 38.2921 68.034C37.661 68.17 37.0139 68.2156 36.37 68.1693C35.6945 68.1191 35.0297 67.972 34.396 67.7323C33.3545 67.304 32.3909 66.7063 31.544 65.9634L31.6583 66.0102C31.496 65.8984 31.3492 65.7654 31.222 65.6148C31.1141 65.4983 31.0183 65.371 30.9362 65.235L30.6869 64.8032C30.5986 64.6471 30.5051 64.4598 30.37 64.2413C30.37 64.1789 30.37 64.1113 30.37 64.1165C30.2441 63.9094 30.1364 63.6918 30.0479 63.4661C29.9556 63.1981 29.8843 62.9233 29.8349 62.6441C29.7801 62.3577 29.7506 62.0669 29.7466 61.7753C29.7466 61.6348 29.7466 61.4995 29.7466 61.3695C29.7466 61.2394 29.7466 61.1146 29.7466 60.9949L29.7882 59.3717L28.5414 60.3654L28.2453 60.6047V60.9949C28.2453 61.1926 28.2453 61.3591 28.2453 61.5152L28.1154 61.5672C28.1086 62.2274 28.0125 62.8837 27.8297 63.5181L28.0427 62.8054C28.0724 62.8652 28.0879 62.9311 28.0879 62.9979C28.0879 63.0647 28.0724 63.1306 28.0427 63.1904C27.9862 63.4073 27.9006 63.6156 27.7882 63.8095C27.5596 64.2985 27.1752 64.85 26.8635 65.4952C26.4687 66.0414 26.1155 66.6449 25.6583 67.238C25.2091 67.8496 24.5781 68.3031 23.8557 68.5335C23.2375 68.9341 24.3492 68.0756 23.3986 68.5335C23.3103 68.3774 23.8142 68.2629 23.5181 68.2213C23.3121 68.3268 23.0914 68.4004 22.8635 68.4398C22.6502 68.4883 22.4328 68.5162 22.2142 68.5231C21.996 68.5231 21.7726 68.5595 21.5232 68.5543C21.2739 68.5491 21.0038 68.5855 20.7025 68.5907L20.6557 68.445C19.914 68.5125 19.1683 68.3682 18.5051 68.0288C18.1882 67.904 17.9233 67.7115 17.6479 67.5866C17.4068 67.4367 17.155 67.3045 16.8947 67.1912C16.7232 67.0819 16.583 66.9831 16.4687 66.8947C16.3544 66.8062 16.2817 66.7022 16.2142 66.6241C16.1057 66.4984 16.0181 66.3561 15.9544 66.2027C15.8868 66.053 15.7995 65.913 15.6947 65.7865C15.5117 65.5453 15.3158 65.3143 15.1077 65.0946C15.0446 64.881 14.9943 64.6638 14.957 64.4442C14.6869 63.8095 14.5258 64.08 14.3596 63.3101C14.4219 63.3101 14.3856 63.0707 14.3596 62.8782C14.3336 62.6857 14.3596 62.5401 14.4323 62.7482C14.3165 61.8613 14.3026 60.9641 14.3908 60.074C14.5126 59.0332 14.9747 58.0619 15.705 57.3114C15.8219 56.9709 16.0219 56.6651 16.2869 56.4218L16.6869 56.0212C16.7964 55.9328 16.8911 55.8274 16.9674 55.7091C17.0142 55.7091 17.4869 55.3969 17.8817 55.2252C18.2765 55.0535 18.4843 54.9911 17.9544 55.3709C17.8609 55.4281 17.6999 55.5321 17.6895 55.4905L17.6271 55.6882C17.9232 55.5634 18.2141 55.4749 18.4739 55.3397C18.7336 55.2044 18.9934 55.1003 19.2687 55.0067L19.6739 54.8506C19.8141 54.8038 19.9544 54.7726 20.0999 54.7361L20.318 54.6789C20.3836 54.6717 20.4498 54.6717 20.5154 54.6789H20.7544H21.7518C20.9206 54.6373 19.8973 54.6789 20.5726 54.5541H21.6116C21.9648 54.5541 22.3284 54.5853 22.6869 54.6009C22.6953 54.5074 22.6953 54.4134 22.6869 54.3199C22.6869 54.4344 22.7388 54.5697 22.744 54.6737L22.5726 54.7153H22.796C22.796 54.1587 22.796 53.55 22.8427 52.9621L22.8895 51.5365L22.744 51.8227C22.8323 50.7822 23.0765 50.4544 22.8895 49.3046C22.7804 48.7843 22.6869 50.2619 22.6557 49.1902C22.7076 48.5138 22.7752 47.6658 22.8479 46.7709C22.9206 45.8761 23.0194 44.9448 23.0713 44.0812C22.9051 44.2373 22.931 43.769 22.9154 43.2904L23.0557 43.2384C22.9362 41.3967 23.3882 42.5829 23.305 40.7515L23.3986 40.918L23.1336 40.3977C22.9726 38.7433 23.4869 39.5341 23.2323 37.6872C23.2323 38.4104 22.9051 38.0045 23.0245 37.1201L23.144 37.3542C23.1194 37.0269 23.1194 36.6982 23.144 36.3709C23.196 36.6675 23.3258 36.5374 23.3518 35.8142L23.4869 36.3345C23.4349 35.8715 23.383 35.4137 23.3518 34.9506C23.6012 33.9101 23.5908 32.2349 23.8245 31.8291C23.8245 31.8291 23.8921 31.2672 23.97 30.6377C24.0637 30.123 24.0916 29.5986 24.0531 29.0769C24.1206 29.5399 24.3388 28.3173 24.4375 28.6867C24.4109 28.1957 24.423 27.7034 24.4739 27.2143C24.5115 26.7012 24.6181 26.1954 24.7908 25.7108V25.8408C25.0973 24.6026 25.2064 23.5153 25.409 22.48C25.5539 21.4156 25.8098 20.3693 26.1726 19.3584C25.9908 19.4156 26.3908 18.2867 26.1155 18.5104C26.225 17.9637 26.3868 17.4288 26.5986 16.9132C26.7633 16.462 26.9541 16.0207 27.17 15.5917C27.3429 15.2564 27.4905 14.9086 27.6116 14.5512C27.7251 14.2858 27.7628 13.994 27.7206 13.7084C27.8529 13.3747 28.0448 13.0679 28.2869 12.8031C28.3376 12.7395 28.3971 12.6834 28.4635 12.6366C28.504 12.6123 28.5422 12.5845 28.5778 12.5534L28.5466 12.6522C28.6529 12.4623 28.784 12.2874 28.9362 12.132C29.0475 12.2197 29.1455 12.3231 29.2271 12.4389L29.3518 12.6106C29.3934 12.673 29.4089 12.7199 29.5388 12.9384C29.6687 13.1569 29.9284 13.3598 30.1155 13.5835C30.3965 13.9188 30.6131 14.3034 30.7544 14.7177C30.4843 14.3691 30.7077 14.8633 30.8947 15.3212C30.7544 15.035 30.6817 14.9622 30.8479 15.5917C30.9314 15.6848 31.003 15.7879 31.0609 15.8987C31.0609 15.8987 31.0609 15.9351 31.0609 15.8987C31.3882 16.6582 31.357 16.5178 31.2583 16.1432C31.2583 16.1432 31.2947 16.1172 31.2583 15.9923C31.3934 16.8663 32.0531 18.271 31.8609 18.4427C32.2245 19.6393 32.583 20.659 32.8531 21.6579C32.9986 22.1782 33.144 22.636 33.2843 23.1199C33.4245 23.6037 33.5284 24.1032 33.6427 24.6182C33.5856 24.8732 33.4038 24.4049 33.2583 23.8118L33.5596 25.2738C33.409 25.2738 33.3258 24.4465 33.2115 23.9991C33.284 24.9184 33.4476 25.8281 33.6999 26.7149C33.9329 27.6883 34.0772 28.6809 34.131 29.6804L34.3077 30.0914V30.2214C34.3648 30.2214 34.5206 30.6585 34.5726 30.9654C34.4739 31.2776 34.2713 30.9654 34.3856 32.0059C34.4521 33.1406 34.6102 34.2681 34.8583 35.3772C34.822 34.7998 34.9155 34.9766 34.9882 35.2212C35.0401 35.7414 34.9207 36.0484 34.9882 36.4438L34.8116 36.5062C34.9674 36.2877 35.0869 37.8485 35.17 38.0306C35.0609 38.3375 35.0037 37.2346 34.8947 37.1149C35.0557 39.1959 34.9726 38.1554 35.1336 40.2365C35.3414 41.3394 35.2843 40.0284 35.4765 40.5486C35.6124 41.5642 35.6714 42.5885 35.6531 43.613L35.7934 43.2488C35.9871 44.64 36.0168 46.0492 35.8817 47.4473C36.0544 49.4709 36.3354 51.4837 36.7232 53.4771L36.2349 53.0193C37.0193 52.8216 37.2739 52.7071 37.1908 52.5823C37.1106 52.498 37.0045 52.443 36.8895 52.4262C36.657 52.3733 36.4208 52.3385 36.183 52.3221L37.4246 53.4771C37.6064 52.2753 37.6635 50.3243 37.6635 50.3243C37.731 48.9612 37.7518 47.7595 37.7414 46.6305C37.731 45.5015 37.6323 44.4298 37.5492 43.3268C37.4661 42.2239 37.383 41.1001 37.2323 39.8411C37.0817 38.5821 36.9466 37.193 36.8012 35.5749" fill="#1B1B1B"/>
<path d="M39.5544 64.668H39.4609C39.4668 64.6746 39.474 64.6799 39.482 64.6836C39.4901 64.6872 39.4988 64.6891 39.5077 64.6891C39.5165 64.6891 39.5253 64.6872 39.5333 64.6836C39.5414 64.6799 39.5486 64.6746 39.5544 64.668Z" fill="#1B1B1B"/>
<path d="M38.6094 62.7907C38.4593 62.907 38.2789 62.9774 38.0899 62.9936C37.9221 63.0119 37.7632 63.0788 37.6328 63.1861C37.4354 63.2434 37.2328 63.3526 37.0198 63.3994C36.9159 63.6439 36.7341 63.3994 36.5886 63.5763V63.4358C36.5367 63.5035 36.4743 63.5347 36.4484 63.4358V63.3994C36.36 63.4775 36.3029 63.3994 36.2613 63.4411V63.4046H36.1834L36.2146 63.3578C36.1597 63.3878 36.0959 63.3969 36.0348 63.3835C35.9737 63.3701 35.9195 63.3352 35.8821 63.285L35.8146 63.4306C35.7107 63.1601 35.4406 63.389 35.4094 63.0769L35.4406 63.0456C35.1912 63.1185 35.1652 62.9728 35.1497 62.8479C35.1341 62.7231 35.1496 62.5982 34.9055 62.5826C34.9626 62.5826 34.9678 62.5254 35.0042 62.5098C34.9466 62.4419 34.8661 62.3976 34.7781 62.3851C34.69 62.3726 34.6004 62.3929 34.5263 62.4421C34.4847 62.3433 34.5834 62.3225 34.6925 62.2653C34.6708 62.2768 34.647 62.2837 34.6225 62.2857C34.598 62.2878 34.5734 62.2848 34.5501 62.277C34.5268 62.2692 34.5053 62.2568 34.4869 62.2405C34.4685 62.2241 34.4536 62.2042 34.4431 62.182H34.5055C34.4639 62.1155 34.4275 62.0459 34.3964 61.9739L34.1522 62.0832C34.1938 61.9323 34.4587 61.9739 34.36 61.8699L34.147 61.9167C34.147 61.719 34.4691 61.5733 34.6302 61.3964C34.6665 61.0947 34.599 60.7721 34.6302 60.4287C34.6355 60.2593 34.6926 60.0955 34.7939 59.9596C34.8952 59.8238 35.0357 59.7224 35.1964 59.6692L35.3315 59.768C35.4977 59.9293 35.2016 59.4038 35.3678 59.5495V59.4142C35.4146 59.4142 35.4769 59.4507 35.4821 59.5131C35.5392 59.4819 35.5133 59.4506 35.4821 59.3674L35.6224 59.4455C35.8717 59.4455 35.9237 59.0708 36.2042 59.0396C36.4005 59.1206 36.6208 59.1206 36.8172 59.0396C37.0354 58.9772 37.2795 58.894 37.4769 58.8576C37.773 58.7327 37.9964 59.0032 38.1574 59.2633C38.3185 59.5235 38.386 59.7836 38.6769 59.8148C38.6769 59.846 38.7444 59.8148 38.7652 59.8148C38.8509 59.9409 38.924 60.0751 38.9834 60.2154C38.9834 60.2154 39.0509 60.3351 39.1237 60.4964C39.2167 60.6772 39.3226 60.851 39.4405 61.0166C39.5014 61.1122 39.5875 61.1891 39.6892 61.2386C39.791 61.2882 39.9045 61.3086 40.0172 61.2976C40.2665 61.2508 40.6977 61.0426 41.0042 60.1998H41.0613C41.0613 59.7316 40.9574 59.4246 40.5886 59.279C40.8432 59.0813 40.4328 58.946 40.4587 58.8107H40.5263C40.1782 58.7379 40.3341 58.2228 39.9756 58.1812C40.0016 58.1812 40.0691 58.1084 40.1159 58.15C39.9445 58.0407 39.7003 57.9211 39.8042 57.765C39.4198 57.4892 38.8328 57.0939 38.4431 57.2811L38.4847 57.2395C38.2561 57.3748 38.2717 57.1823 38.0587 57.2395C38.0587 57.2135 38.0587 57.1979 38.0587 57.1875C37.8406 57.328 37.5393 57.1095 37.3886 57.1875V57.0626C37.2691 57.0626 37.1497 57.0626 37.0302 57.0626L37.16 57.0991C37.1081 57.4372 36.8951 56.865 36.6406 57.0991C36.5211 57.0991 36.4172 57.276 36.3289 57.4528C36.2405 57.6297 36.173 57.791 36.0483 57.739C35.986 57.9211 36.0483 57.4633 35.9496 57.6245C35.8977 57.4529 35.9964 57.4944 35.9185 57.3696C35.7834 57.4892 35.5964 57.2708 35.4354 57.4581L35.3782 57.3332C35.2276 57.6662 34.8068 57.3904 34.76 57.7078C34.5834 57.9471 34.36 57.4685 34.2406 57.8743L34.0276 57.8014C33.9029 57.8742 34.1055 58.0459 33.9341 58.0772C33.8613 57.9835 33.7263 58.1396 33.7159 57.9939C33.5237 58.0511 33.4458 58.2384 33.3626 58.4153C33.3284 58.5194 33.2735 58.6155 33.2012 58.6978C33.1288 58.78 33.0406 58.8468 32.9419 58.894C33.0821 59.0969 32.8535 59.2321 32.9834 59.3778C32.8795 59.3414 32.7808 59.7836 32.6821 59.461C32.6821 59.461 32.6821 59.3986 32.7289 59.4194L32.6198 59.331C32.2665 59.4871 32.5574 59.8512 32.4587 60.0802C32.5211 60.0177 32.5367 59.9137 32.6094 60.0073L32.5315 60.2362L32.4328 60.1582C32.3768 60.2711 32.3282 60.3875 32.2873 60.5068H32.438C32.3393 60.6681 32.0795 60.7097 32.2665 60.9334C32.3756 61.0322 32.4691 60.7825 32.5003 60.9698C32.3493 61.2458 32.2589 61.5509 32.2353 61.8646C32.3912 61.8178 32.3964 61.9011 32.438 61.9791L32.3029 62.0103C32.547 62.2965 32.012 62.1872 32.2405 62.4838H32.1418H32.4432C32.7808 62.6867 32.2042 62.7335 32.6717 62.9156C32.6042 62.8011 32.9419 62.7543 32.9315 62.9156H32.7964C32.8535 62.9832 32.9107 62.9884 32.9107 63.0456C32.8224 63.0456 32.7185 63.0977 32.7964 63.2069H32.6042C32.715 63.2485 32.8241 63.285 32.9315 63.3162C32.8795 63.5555 33.1964 63.7012 33.0717 63.8728C33.0717 63.8728 33.238 64.2579 33.4561 64.1902C33.3003 64.2162 33.4146 64.4139 33.2587 64.466C33.4406 64.466 33.7263 64.5908 33.7211 64.7833H33.6899C33.9341 65.2359 34.4328 65.1059 34.6821 65.4701C34.7445 65.3192 34.8951 65.4701 34.9419 65.2828C35.1652 65.2828 35.2847 65.444 35.4198 65.5429C35.5548 65.6417 35.6743 65.6782 35.825 65.3868C36.0016 65.3868 35.9912 65.5845 36.0795 65.6313H36.0276C36.3808 65.6313 36.4743 65.6313 36.7237 65.6678C36.8535 65.6105 36.8743 65.3244 37.0873 65.3816C37.0198 65.5013 37.0873 65.4753 37.186 65.4753C37.1393 65.4753 37.1237 65.5377 37.2379 65.6105C37.2497 65.5812 37.2674 65.5546 37.2899 65.5325C37.2927 65.5409 37.2927 65.5501 37.2899 65.5585C37.4198 65.5065 37.3886 65.4701 37.3263 65.4597C37.3325 65.4376 37.3325 65.4141 37.3263 65.392C37.4821 65.5273 37.7055 65.3244 37.7574 65.5221C38.0872 65.3704 38.3825 65.1526 38.625 64.8822C38.6576 64.9224 38.6731 64.9738 38.6683 65.0254C38.6634 65.0769 38.6385 65.1245 38.599 65.1579L38.8016 65.0174C38.8691 65.1527 38.7133 65.1579 38.6562 65.2151C39.0406 65.3036 39.0769 64.7365 39.4613 64.6949V64.5596H39.4873C39.472 64.527 39.4641 64.4915 39.4641 64.4556C39.4641 64.4196 39.472 64.3841 39.4873 64.3515C39.6016 64.4243 39.6743 64.5908 39.7938 64.466C39.986 64.466 40.0327 64.159 40.0899 63.9821C40.0068 64.0393 39.9756 63.9821 39.9652 63.9093C39.9548 63.8364 40.1471 63.9093 40.1419 63.8104L40.2821 63.9145C40.1367 63.8312 40.2821 63.6283 40.2302 63.5659C40.3652 63.6023 40.2302 63.7324 40.3133 63.8104C40.4097 63.6727 40.4965 63.5284 40.573 63.3786C40.573 63.1601 40.412 63.3214 40.3185 63.1705C40.3652 63.03 40.3185 62.8479 40.4743 62.7439H40.3081C40.2932 62.6427 40.3085 62.5395 40.3519 62.4469C40.3953 62.3544 40.465 62.2767 40.5522 62.2236C40.501 62.0365 40.413 61.8614 40.2935 61.7087C40.174 61.556 40.0253 61.4286 39.8562 61.334C39.7778 61.2894 39.6904 61.263 39.6005 61.2567C39.5106 61.2504 39.4205 61.2644 39.3367 61.2976C39.2216 61.334 39.1153 61.3943 39.025 61.4745C38.9626 61.5317 38.9211 61.5785 38.9211 61.5785C38.8442 61.6292 38.7846 61.7022 38.7502 61.7877C38.7159 61.8732 38.7084 61.9672 38.7289 62.0571C38.7681 62.2815 38.7429 62.5125 38.6562 62.7231" fill="#1B1B1B"/>
<path d="M25.5964 41.7148L25.664 41.7825C25.6618 41.7653 25.654 41.7493 25.6417 41.7371C25.6295 41.7248 25.6136 41.717 25.5964 41.7148Z" fill="#1B1B1B"/>
<path d="M24.7804 43.7381C25.6791 43.8161 25.9181 44.1179 26.8583 43.9982H27.3778H27.4661C27.4848 43.9736 27.5077 43.9525 27.5337 43.9358C27.6012 43.8213 27.6376 43.8161 27.6583 43.8213C27.6791 43.8265 27.6895 43.8213 27.7934 43.7537L27.6583 43.8994C27.7259 43.8473 27.7726 43.8369 27.6999 43.8994L27.6583 43.9254C27.7622 43.8733 27.6999 43.9254 27.7518 43.9254H27.7103H27.6531C27.7622 43.9254 27.7674 43.9826 27.7207 44.0242H27.8817C27.8817 44.0242 27.8454 44.0814 27.835 44.1283C27.8326 44.1716 27.8326 44.215 27.835 44.2583C27.8403 44.3325 27.8543 44.4059 27.8765 44.4768C27.9027 44.5537 27.912 44.6353 27.9039 44.716C27.8959 44.7968 27.8706 44.8749 27.8298 44.9451H27.7934C28.2194 45.4341 27.5025 45.7151 27.9077 46.2145C27.8558 46.1521 27.8246 46.2405 27.783 46.2145C27.8298 46.4486 27.8557 46.6932 28.1726 46.6984C28.1726 46.8648 28.0739 46.8336 27.9492 46.8544C28.0895 46.8544 28.1467 47.0001 28.157 47.1354L28.1051 47.0729L28.1518 47.4475L28.4168 47.3747C28.3389 47.5724 28.0947 47.4267 28.157 47.614H28.3752C28.3337 47.8897 28.0012 48.051 27.8557 48.3216C27.7622 49.4297 28.3181 50.6211 27.9337 51.6564L27.7726 51.6981C27.5285 51.6981 28.1259 51.9842 27.9025 52.0258L28.0116 52.1455C27.97 52.1767 27.9233 52.2495 27.8713 52.1923C27.8713 52.3016 27.9025 52.3016 27.9752 52.3848L27.8246 52.5045C27.7103 52.9415 27.996 53.3161 27.9389 53.7739C27.6324 54.3306 27.9389 55.3711 28.0739 55.9746C28.4324 56.8174 27.4765 57.8007 27.8869 58.6644C27.8557 58.6956 27.9337 58.7684 27.9596 58.7684L27.9233 59.5592C27.9233 59.5592 27.835 63.3935 29.8246 60.4801H29.8765C30.0012 60.0431 30.0324 59.7725 29.7674 59.476C30.0895 59.4291 29.7986 59.117 29.9025 59.0181C29.6583 58.7528 30.1103 58.4979 29.9025 58.2169C29.9025 58.2169 30.0168 58.2169 30.022 58.2898C29.9856 58.1025 29.9129 57.8527 30.0999 57.8371C30.048 57.3949 30.1363 56.7966 29.835 56.4897H29.8869C29.6843 56.3284 29.8869 56.2816 29.7571 56.0995H29.8038C29.6012 55.9226 29.7726 55.5792 29.6895 55.4439H29.8142L29.783 55.0902L29.7571 55.2254C29.4142 55.1786 29.97 54.9601 29.7571 54.7052C29.8038 54.4658 29.0454 54.2213 29.2376 53.9716C29.0765 53.8571 29.4973 54.0756 29.3726 53.8988C29.5493 53.8988 29.4869 53.982 29.6272 53.9352C29.5441 53.7635 29.809 53.6542 29.6895 53.4149H29.8298C29.5752 53.134 30.0116 52.8947 29.7674 52.7022C29.6531 52.416 30.183 52.5097 29.9077 52.2131L30.0999 52.0935C30.1311 51.9686 29.8661 52.005 29.9596 51.8593C30.0791 51.8593 30.0531 51.6825 30.1674 51.7657C30.3493 51.4431 29.9025 51.1102 30.2142 50.6888C29.9856 50.5951 30.1207 50.3818 29.9493 50.3141C30.048 50.3141 29.9493 49.8875 30.183 50.1269C30.1906 50.1303 30.1965 50.1367 30.1994 50.1445C30.2023 50.1523 30.202 50.1609 30.1986 50.1685C30.1952 50.1761 30.1889 50.182 30.1811 50.1849C30.1733 50.1878 30.1646 50.1875 30.157 50.1841L30.2973 50.2101C30.557 49.9708 30.1518 49.7731 30.1934 49.5338C30.1466 49.6066 30.1622 49.7002 30.0687 49.6378V49.4141L30.183 49.4609L30.2505 49.128L30.1103 49.1748C30.183 49.0135 30.4272 48.9563 30.2246 48.7742C30.1103 48.691 30.0324 48.9251 29.9856 48.7742C30.1165 48.5158 30.2126 48.2411 30.2713 47.9574C30.1103 47.9574 30.1155 47.9106 30.0843 47.8325H30.2246C30.0324 47.536 30.5311 47.7233 30.3752 47.4319H30.4739L30.183 47.3539C29.9077 47.0937 30.4739 47.2134 30.0947 46.9221C30.1207 47.0365 29.7882 46.9793 29.8506 46.8336L29.9804 46.87C29.9545 46.792 29.8973 46.766 29.9285 46.714C30.0012 46.7608 30.1207 46.714 30.0999 46.6255L30.2661 46.6984L30.022 46.4798C30.1623 46.3133 29.9804 46.048 30.1726 45.9596C30.1726 45.9596 30.2661 45.6006 30.0583 45.5174C30.1882 45.5902 30.235 45.3873 30.3856 45.4445C30.2402 45.3509 30.1207 45.0751 30.2765 44.9659C30.3316 44.7846 30.3224 44.5897 30.2505 44.4144C30.2222 44.3318 30.2031 44.2463 30.1934 44.1595C30.1883 44.1163 30.1883 44.0726 30.1934 44.0294C30.1934 43.9722 30.2194 43.9149 30.2402 43.8421C30.0791 43.8785 30.1674 43.53 29.9596 43.6392C29.8982 43.3502 29.9161 43.0499 30.0116 42.7704C30.0635 42.505 30.0583 42.2917 29.7415 42.401C29.7051 42.1669 29.8921 41.9744 29.9233 41.7975L29.9545 41.8339C29.9545 41.6622 29.9233 41.5374 29.9181 41.4541C29.6949 41.4671 29.4711 41.4671 29.2479 41.4541C29.0038 41.5166 28.7908 41.8131 28.5259 41.7403C28.6921 41.6206 28.5259 41.6466 28.4272 41.6466C28.5103 41.6466 28.5623 41.5842 28.4272 41.5009C28.3921 41.5361 28.3494 41.5628 28.3025 41.579C28.3005 41.5704 28.3005 41.5615 28.3025 41.553C28.0791 41.5946 28.1051 41.631 28.1934 41.6466C28.187 41.6577 28.1837 41.6703 28.1837 41.683C28.1837 41.6958 28.187 41.7084 28.1934 41.7195C28.0324 41.5686 27.622 41.7195 27.622 41.527H27.3986L27.2584 41.5634C27.17 41.5634 27.0869 41.6258 27.0038 41.657C26.8455 41.7291 26.6823 41.7899 26.5155 41.8391C26.5084 41.8145 26.5063 41.7888 26.5093 41.7633C26.5122 41.7379 26.5203 41.7133 26.5328 41.691C26.5454 41.6688 26.5623 41.6492 26.5825 41.6335C26.6027 41.6179 26.6258 41.6064 26.6505 41.5998L26.4116 41.6362C26.4116 41.4905 26.5518 41.553 26.6246 41.5218C26.3389 41.2772 26.0376 41.7663 25.7051 41.5218L25.6324 41.6414C25.6251 41.6766 25.6101 41.7098 25.5886 41.7386C25.567 41.7674 25.5394 41.791 25.5077 41.8079C25.461 41.6778 25.5077 41.5061 25.3467 41.5166C25.2116 41.3917 24.9726 41.579 24.8012 41.6518C24.8947 41.6518 24.8636 41.7455 24.8272 41.7923C24.7908 41.8391 24.6973 41.6622 24.6298 41.7195V41.5426C24.661 41.709 24.4116 41.7246 24.3804 41.7975C24.3337 41.6622 24.5103 41.683 24.5311 41.5842L24.0116 41.6102C23.835 41.7403 24.0479 41.7767 23.9596 41.9328C23.8038 41.964 23.6531 42.0888 23.4765 41.9796L23.5285 42.1409C23.4254 42.2016 23.306 42.2286 23.1869 42.2184C23.0678 42.2081 22.9548 42.1611 22.8635 42.0837C20.6817 43.3583 22.4064 43.8265 22.4064 43.8265C23.2635 44.1751 23.7103 43.7173 24.7337 43.5976" fill="#1B1B1B"/>
<path d="M31.3156 36.0012L31.2637 35.918C31.2637 35.918 31.2637 35.9752 31.3156 36.0012Z" fill="#1B1B1B"/>
<path d="M30.3652 33.3276L30.3864 33.3223L30.3652 33.3276Z" fill="#1B1B1B"/>
<path d="M32.8791 34.3997C31.8973 33.9835 31.7258 33.6037 30.6453 33.3591L30.4999 33.3019H30.4687H30.3907C30.2713 33.3435 30.2713 33.3019 30.2765 33.3019C30.2817 33.3019 30.2765 33.2707 30.2765 33.2603C30.2639 33.1825 30.2356 33.1082 30.1933 33.0418L30.3284 32.9273C30.2609 32.8285 30.2141 32.714 30.2868 32.6152H30.3284C30.2245 32.4643 30.2869 32.2978 30.2349 32.225H30.2713V32.0429L30.3284 32.0741C30.23 31.8335 30.2065 31.5688 30.2609 31.3145H30.0998C30.2817 30.7943 29.944 30.6278 30.1622 30.1752H30.1362C29.7102 29.6029 30.4271 29.2647 30.0219 28.6768C30.0739 28.7496 30.105 28.6404 30.1466 28.6768C30.0999 28.4011 30.0739 28.1097 29.757 28.1045C29.757 27.9068 29.8557 27.9432 29.9804 27.9172C29.8401 27.9172 29.783 27.7455 29.7726 27.5894L29.8245 27.6623L29.7778 27.2201L29.5128 27.3033C29.5907 27.0692 29.8349 27.2461 29.7726 27.0224H29.5544C29.596 26.6946 29.9284 26.5021 30.0739 26.1899C30.1674 24.8789 29.6115 23.469 29.9959 22.2464L30.157 22.1943C30.4011 22.1683 29.8037 21.8562 30.0271 21.8094L29.918 21.6689C29.9596 21.6273 30.0063 21.544 30.0583 21.6116C30.0583 21.4816 30.0271 21.4764 29.9544 21.3827L30.105 21.2423C30.2193 20.722 29.9336 20.285 29.9907 19.7387C30.2972 19.0832 30.0167 17.8502 29.8557 17.1374C29.4921 16.1385 30.4531 14.9783 30.0427 13.9534C30.0739 13.9222 29.9959 13.8338 29.97 13.8338L30.0063 12.8973C30.0063 12.8973 30.0947 8.3606 28.1051 11.8099L28.0531 11.7839C27.9707 11.9759 27.9376 12.1854 27.9566 12.3935C27.9757 12.6016 28.0463 12.8016 28.1622 12.9753C27.8401 13.0274 28.131 13.3967 28.0271 13.4956C28.2713 13.8077 27.8193 14.1407 28.0271 14.4425C28.0011 14.4425 27.9128 14.4425 27.9076 14.354C27.944 14.5725 28.0167 14.8743 27.8297 14.8743C27.8817 15.3945 27.7934 16.1281 28.0947 16.4663H28.0427C28.2453 16.6536 28.0427 16.7108 28.1726 16.9241C28.1726 16.9241 28.1362 16.9501 28.1258 16.9501C28.3232 17.1582 28.157 17.5588 28.2401 17.7253H28.1154L28.1466 18.1415V17.9854C28.4894 18.0427 27.9336 18.3028 28.1466 18.6045C28.0998 18.8855 28.8583 19.1716 28.6661 19.4682C28.8271 19.6034 28.4063 19.3433 28.531 19.5514C28.3544 19.5514 28.4167 19.4526 28.2765 19.5098C28.3596 19.7127 28.0946 19.8428 28.2141 20.0977H28.0739C28.3284 20.4255 27.8921 20.7168 28.1362 20.9353C28.2505 21.2787 27.7206 21.1642 27.996 21.518L27.8037 21.6585C27.7726 21.8093 28.0375 21.7677 27.944 21.9342C27.8245 21.9342 27.8505 22.1475 27.7362 22.0487C27.5492 22.4285 28.0011 22.8187 27.6894 23.3181C27.918 23.4274 27.783 23.6771 27.9544 23.7603C27.8557 23.7603 27.9544 24.2806 27.7206 23.984C27.7206 23.958 27.7206 23.9164 27.7206 23.9164L27.5856 23.8852C27.3258 24.1713 27.731 24.4055 27.6894 24.6864C27.7362 24.6032 27.7206 24.4887 27.8141 24.5667V24.8269L27.6998 24.7748L27.6323 25.165L27.7726 25.1078C27.6999 25.3003 27.4557 25.3679 27.6583 25.5812C27.7726 25.6801 27.8505 25.4044 27.8972 25.5812C27.7668 25.8923 27.671 26.2168 27.6115 26.5489C27.7726 26.5177 27.7674 26.6062 27.7985 26.6946H27.6583C27.8505 27.0432 27.3518 26.8247 27.5076 27.168L27.4089 27.1368L27.6998 27.2305C27.9752 27.5374 27.4089 27.3969 27.7881 27.7507C27.7881 27.6155 28.0947 27.6883 28.0323 27.8548L27.9024 27.8132C27.9024 27.9068 27.9856 27.9328 27.9544 27.9953C27.8817 27.9432 27.7622 27.9692 27.7829 28.1045L27.6167 28.0109L27.8609 28.271C27.7206 28.4687 27.9025 28.7913 27.7102 28.8693C27.7102 28.8693 27.6167 29.2959 27.8245 29.3896C27.6946 29.3011 27.6479 29.5404 27.4972 29.4728C27.6427 29.582 27.7622 29.9098 27.6063 30.0399C27.4505 30.5237 27.8245 30.8671 27.6063 31.3041C27.7674 31.3041 27.6791 31.5122 27.8868 31.455C28.0946 31.9076 27.4661 32.277 28.1051 32.4435C28.1414 32.6464 27.9544 32.6828 27.9232 32.7921L27.892 32.74C27.892 32.9325 27.9284 33.0574 27.9388 33.1719C27.9492 33.2863 27.9388 33.4944 27.9388 33.7181C27.9388 33.9418 28.2973 33.8742 28.2245 34.2384C28.1102 34.1708 28.131 34.3164 28.131 34.4621C28.131 34.3789 28.0687 34.3684 27.9908 34.613C28.0271 34.613 28.0479 34.6494 28.0687 34.6754H28.0375C28.0791 34.8939 28.1154 34.8211 28.131 34.7014C28.131 34.7014 28.1726 34.6702 28.2089 34.613C28.1797 34.6737 28.1604 34.7386 28.1518 34.8055C28.3336 34.9199 28.6713 34.9512 28.5778 35.0916C28.9183 35.1816 29.2659 35.2425 29.6167 35.2737C29.7309 35.2808 29.8454 35.2808 29.9596 35.2737H30.2557C30.2557 35.3882 30.1466 35.4454 30.0271 35.4454L30.3076 35.5026C30.2557 35.6431 30.1258 35.5338 30.0323 35.5338C30.2713 35.872 30.77 35.5338 31.0713 35.8616L31.1856 35.7783C31.2059 35.745 31.234 35.7172 31.2675 35.6972C31.301 35.6773 31.3388 35.6658 31.3778 35.6639C31.3778 35.8044 31.2791 35.9501 31.4661 36.0021C31.57 36.1738 31.9024 36.0853 32.1154 36.0801C32.0167 36.0281 32.0739 35.9709 32.1154 35.9397C32.157 35.9084 32.2193 36.1113 32.3076 36.0801L32.2609 36.2518C32.2609 36.0801 32.557 36.1633 32.6193 36.1061C32.6193 36.2466 32.4375 36.1634 32.3804 36.2466L32.9466 36.4131C33.1855 36.3559 32.9466 36.2414 33.1076 36.1269C33.2946 36.1582 33.5024 36.0957 33.6687 36.2674V36.0957C33.8063 36.0757 33.9468 36.0937 34.075 36.1478C34.2032 36.2019 34.3141 36.29 34.396 36.4027C37.2479 36.0177 35.4713 34.9199 35.4713 34.9199C34.6193 34.2696 33.9752 34.5297 32.7907 34.2592" fill="#1B1B1B"/>
<path d="M53.2584 32.0938L53.196 32.3123C53.2272 32.3123 53.248 32.255 53.2584 32.0938Z" fill="#1B1B1B"/>
<path d="M62.0009 10V45.5L56.5 44.5V41L52.5 41.5C52.5003 38.6667 52.3009 30.9 51.5009 22.5C50.7009 14.1 58.1676 10.6667 62.0009 10Z" fill="white"/>
<path d="M51.2426 29.4204C51.1647 32.3651 50.8582 33.1455 50.9829 36.1838C50.9829 36.8809 50.9829 37.6041 50.9829 38.3273L51.014 39.8464C51.014 40.5227 51.014 41.1887 51.0452 41.839H51.3569C52.1698 41.7351 52.9898 41.6969 53.8088 41.7246H54.5932C54.7127 41.7246 54.827 41.7246 54.9361 41.7246C55.0452 41.7246 55.1803 41.6933 55.1699 41.6673C55.1899 41.7096 55.2006 41.7558 55.201 41.8026C55.253 41.735 55.3725 41.6881 55.3621 41.761L55.3257 41.8026L55.4036 41.7558C55.44 41.7818 55.4036 41.865 55.4504 41.8754H55.414V41.9639H55.3569L55.3932 42.0003C55.4067 42.0812 55.4154 42.1629 55.4192 42.2448C55.4192 42.4269 55.4192 42.6038 55.4504 42.7651C55.4692 43.1117 55.4692 43.459 55.4504 43.8056L55.6114 43.7484C55.5802 44.0033 55.5647 44.2322 55.5595 44.4351V44.8982C55.5595 45.0646 55.5595 45.2207 55.5595 45.3716C55.5595 45.9803 55.6166 46.485 55.6166 47.0885C56.0989 47.0871 56.581 47.1114 57.0608 47.1613L57.014 47.2029C57.388 47.1509 57.7153 47.1145 58.0218 47.0885H58.3595H58.614C58.9372 47.0938 59.2599 47.1181 59.5802 47.1613C59.9879 47.2209 60.3995 47.2487 60.8114 47.2445C61.4321 47.2506 62.0522 47.2071 62.666 47.1145C62.3647 47.1665 62.8946 47.1977 62.9101 47.2341C62.8634 45.871 62.8374 44.4559 62.5205 44.5028C62.5205 43.9513 62.6192 44.0553 62.7439 43.9825C62.6036 43.9825 62.5465 43.5091 62.5361 43.0772L62.5932 43.2749L62.5465 42.0471L62.2816 42.2864C62.3543 41.6361 62.6036 42.12 62.5361 41.4957H62.3179C62.3647 40.5904 62.6919 40.0597 62.8374 39.1909C62.9309 35.5491 62.3751 31.6575 62.7595 28.2654L62.9257 28.1145C63.1647 28.0521 62.5673 27.1833 62.7906 27.074L62.6816 26.6838C62.7231 26.5746 62.7699 26.3405 62.827 26.5382C62.8395 26.3215 62.804 26.1047 62.7231 25.9034L62.8738 25.5132C62.9881 24.0773 62.6971 22.8599 62.7595 21.3511C63.0608 19.5406 62.7595 16.1485 62.6192 14.1663C62.5753 13.8211 62.5493 13.4738 62.5413 13.1258C62.5413 12.9437 62.5413 12.7668 62.5413 12.6055C62.5413 12.4443 62.5413 12.1633 62.5413 11.9448C62.4686 10.9043 63.1075 9.07819 61.4296 9.58804C60.8322 9.58804 60.24 9.65047 59.6114 9.68689C59.1958 9.74877 58.7845 9.83739 58.3802 9.95221C57.9817 10.0685 57.5954 10.2236 57.227 10.4153C57.0504 10.5141 56.8686 10.6078 56.7075 10.7118C56.5465 10.8159 56.3802 10.9511 56.2244 11.076C56.1205 11.102 55.9335 11.3049 55.9543 11.3257C55.158 11.8583 54.4349 12.4932 53.8036 13.2143L53.6997 13.3287L53.4452 13.6669C53.3413 13.8126 53.2062 13.9842 53.0712 14.1871L52.6712 14.8739C52.0977 15.9393 51.7593 17.1156 51.6789 18.3232C51.6415 18.7489 51.6748 19.1779 51.7776 19.5927C51.8504 19.884 51.9595 20.0141 52.0997 19.9308C52.3452 19.6709 52.5236 19.3547 52.6192 19.01C52.9567 18.2309 53.3635 17.484 53.8348 16.7781V16.8561C54.4374 15.7115 54.9205 15.1184 55.2945 14.2548C55.4712 14.312 55.6374 14.1195 55.814 13.9114C55.9596 13.7124 56.1348 13.5369 56.3335 13.3911V13.4328C56.5812 13.1137 56.9146 12.8719 57.2946 12.7356C57.6646 12.6144 58.0147 12.4391 58.3335 12.2154C58.3303 12.2593 58.315 12.3015 58.2893 12.3373C58.2636 12.3731 58.2286 12.4011 58.188 12.4183C58.6504 12.1425 59.3413 11.846 59.4348 12.0333L59.9127 11.8928L60.0218 11.8616H60.0686H60.1569C60.2867 11.8356 60.3958 11.8304 60.5205 11.8148C60.6452 11.7992 60.5725 11.8668 60.5932 11.9032C60.6047 11.9507 60.6186 11.9976 60.6348 12.0437C60.6348 12.0905 60.6764 12.1425 60.7023 12.1893L60.7439 12.2674C60.7439 12.2674 60.7751 12.3766 60.7958 12.4235L60.7439 12.3558C60.9465 12.8761 60.7751 13.0426 60.8789 13.6357C60.8789 13.6669 60.8374 13.7085 60.827 13.7033C61.0296 14.2808 60.8634 15.3838 60.9465 15.852L60.8218 15.8832L60.853 17.0278V16.6012C61.1958 16.7468 60.6348 17.47 60.853 18.3024C60.8114 19.0828 61.5647 19.8632 61.3984 20.6904C61.5595 21.0754 61.1387 20.3522 61.2582 20.9297C61.0815 20.9297 61.1491 20.6592 61.0036 20.8049C61.0919 21.372 60.8218 21.7361 60.9413 22.4333L60.8062 22.4645C61.0608 23.375 60.6192 24.1814 60.8634 24.7901C60.9777 25.7317 60.453 25.4196 60.7231 26.3977L60.5361 26.7775C60.5049 27.1989 60.7647 27.0792 60.6763 27.5423C60.5569 27.5423 60.5777 28.1301 60.4686 27.8596C60.2816 28.9001 60.7283 29.9927 60.4166 31.3766C60.6452 31.6783 60.5101 32.3755 60.6815 32.5992C60.5828 32.6356 60.6815 33.9935 60.4478 33.2131C60.4478 33.1454 60.4478 33.0258 60.4478 33.0362L60.3127 32.9426C60.053 33.7282 60.453 34.3733 60.4114 35.1589C60.4582 34.9248 60.4478 34.6386 60.5413 34.8207V35.5491L60.427 35.3982L60.3595 36.4803L60.5049 36.3295C60.427 36.8497 60.188 37.0474 60.3906 37.6405C60.4997 37.911 60.5829 37.1202 60.6244 37.6977C60.5309 38.4053 60.3803 39.4666 60.3387 40.3667C60.4997 40.2834 60.4945 40.528 60.5257 40.7777L60.3854 40.8089C60.5828 41.7662 60.079 41.1575 60.2348 42.1096L60.1361 42.0263L60.427 42.2761C60.7075 43.1345 60.1413 42.7391 60.5153 43.6911C60.5153 43.3166 60.827 43.5143 60.7647 43.9773L60.6296 43.8628C60.6704 44.0332 60.6896 44.208 60.6867 44.3831C60.6504 44.3103 60.6036 44.2894 60.5621 44.3363C60.5401 44.3728 60.5259 44.4136 60.5205 44.4559C60.5131 44.5077 60.5131 44.5603 60.5205 44.612C60.4634 44.612 60.4062 44.5132 60.3491 44.4299C60.3653 44.4853 60.3862 44.5393 60.4114 44.5912L60.4738 44.6328C60.5191 44.6723 60.5609 44.7159 60.5984 44.7629C60.5257 44.8253 60.5361 44.919 60.5413 45.0178C60.4961 45.0232 60.4502 45.0175 60.4077 45.0012C60.3651 44.9849 60.3272 44.9585 60.2971 44.9242C60.2507 44.9164 60.2033 44.9164 60.1569 44.9242L59.8504 44.9554C59.7292 44.9607 59.6113 44.9965 59.5075 45.0594C59.7465 44.9294 59.0919 44.8825 59.2789 44.7265C59.0323 44.8205 58.7733 44.8783 58.5101 44.8982C58.3648 44.9056 58.2191 44.9056 58.0738 44.8982C58.0598 44.8926 58.0476 44.8834 58.0385 44.8715C58.0293 44.8596 58.0236 44.8454 58.0218 44.8305C57.9699 44.7785 57.9439 44.7837 57.8712 44.8305C57.8292 44.8016 57.7981 44.7595 57.7828 44.7109V44.664V44.4767C57.7879 44.2799 57.8053 44.0835 57.8348 43.8889C57.6738 43.9461 57.7621 43.3114 57.5543 43.4674C57.5429 43.1169 57.5813 42.7666 57.6686 42.4269C57.6686 42.2864 57.6686 42.1512 57.7101 42.0263C57.7101 41.8182 57.7413 41.6153 57.7517 41.428C57.8036 40.6268 57.8036 39.9245 57.4816 39.8672C57.4816 39.7892 57.4816 39.7216 57.4816 39.6591C57.0889 39.6315 56.6995 39.5689 56.3179 39.4718L56.5569 39.4406L54.827 39.4874H53.9335C53.7984 39.5499 53.627 39.8464 53.2634 39.7736C53.4556 39.6695 53.3413 39.6747 53.227 39.6799V39.6331V39.6643C53.2634 39.6643 53.2893 39.6279 53.2893 39.6019C53.2893 39.5759 53.3257 39.5187 53.3517 39.451C53.3398 39.4579 53.3264 39.4615 53.3127 39.4615C53.299 39.4615 53.2856 39.4579 53.2737 39.451C53.2737 39.451 53.2737 39.451 53.3049 39.451C53.2634 39.2846 53.227 39.3262 53.2114 39.451C53.2114 39.451 53.1699 39.451 53.1335 39.5343C53.1942 39.3915 53.2209 39.2365 53.2114 39.0816C53.2139 39.0505 53.2139 39.0192 53.2114 38.988C53.2114 38.9412 53.2114 38.8787 53.2114 38.8371C53.2114 38.7955 53.2582 38.6863 53.3049 38.6706C53.2582 37.344 53.0504 36.3971 52.9725 35.2941C53.0764 35.1693 53.1699 35.4294 53.2114 35.7467L53.1699 34.9664C53.3205 34.9664 53.2582 35.4138 53.2893 35.6583C53.5283 34.727 53.0452 33.7334 53.2893 32.6408L53.1699 32.4171V32.3495C53.1075 32.3495 53.0192 32.1101 52.9984 31.9489C53.1335 31.7928 53.2997 31.9489 53.2945 31.4286C53.3434 30.8338 53.2978 30.235 53.1595 29.6545C53.1595 29.9563 53.066 29.8574 53.0192 29.7274C53.0192 29.4568 53.1439 29.3007 53.0867 29.0926H53.2686C53.0971 29.1967 53.0867 28.3851 53.014 28.2862C53.1439 28.1301 53.1283 28.7076 53.227 28.7753C53.227 27.6879 53.227 28.255 53.227 27.1469C53.0919 26.5694 53.0608 27.2509 52.9049 26.9752C52.8163 26.4475 52.7988 25.9103 52.853 25.378L52.6971 25.5653C52.57 24.8422 52.5894 24.1008 52.7543 23.3854C51.4763 16.237 51.0088 21.8766 51.0088 21.8766C50.666 24.6912 51.1179 26.148 51.2426 29.4984" fill="#1B1B1B"/>
<path d="M62.9572 45.3965H55.5078V69.2609H62.9572V45.3965Z" fill="#FE6F0F"/>
<path d="M62.1362 67.7577C62.1362 67.7577 62.183 67.6797 62.2038 67.6276C62.2245 67.5756 62.1466 67.7005 62.1362 67.7577Z" fill="#1B1B1B"/>
<path d="M63.3002 70.4685H64.1782C64.2041 69.6933 64.2405 69.0326 64.2768 68.3875C64.2768 68.2314 64.2768 68.0753 64.2768 67.9192V67.6955V67.5759L64.3236 67.0972C64.4183 66.3346 64.4513 65.5656 64.4223 64.7977C64.4223 63.7311 64.3756 62.597 64.3392 61.5565C64.1002 61.0362 64.3392 60.1882 64.1366 59.6055L64.2717 59.3766C64.1883 59.1735 64.1737 58.9487 64.2301 58.7366H64.2665C64.2194 58.4753 64.1899 58.2111 64.1782 57.9458H64.2145V57.5817L64.2717 57.6441C64.1678 57.1306 64.145 56.6039 64.2041 56.0833L64.0431 56.1197C64.2249 55.1052 63.8872 54.7306 64.1002 53.8098H64.1418C63.7106 52.6444 64.4327 51.968 64.0275 50.7714C64.0794 50.9223 64.1106 50.709 64.147 50.7194C64.1054 50.1679 64.0794 49.58 63.7574 49.5696C63.7574 49.169 63.8613 49.2419 63.9808 49.1898C63.8405 49.1898 63.7833 48.8465 63.7782 48.5291L63.8301 48.6748L63.7834 47.7747L63.5184 47.9516C63.5963 47.4782 63.8405 47.832 63.7782 47.3741H63.56C63.5692 47.2208 63.5953 47.069 63.6379 46.9215C63.6846 46.7342 63.7314 46.5417 63.7834 46.3388C63.9169 45.8407 64.021 45.3352 64.095 44.8248C64.095 44.6219 64.095 44.419 64.095 44.2109C63.5756 44.2109 63.0093 44.2109 62.4587 44.2109H61.6379H61.321H61.0821L59.1807 44.3306C58.5522 44.367 57.9236 44.393 57.3106 44.393H56.7392H56.0119C55.5236 44.393 55.0301 44.3462 54.5054 44.3046C54.5054 44.393 54.5054 44.4815 54.5054 44.5647C54.4504 44.5755 54.3966 44.5912 54.3444 44.6115C54.2249 44.5543 54.3132 44.9497 54.4015 45.3087C54.4899 45.6677 54.5885 45.9954 54.4742 46.0423L54.5885 46.5625C54.5418 46.6874 54.495 46.9787 54.4431 46.7342V46.9475C54.4396 46.9821 54.4396 47.017 54.4431 47.0516C54.4431 47.1088 54.4898 47.1608 54.5262 47.2545L54.3755 47.5406C54.2613 48.5811 54.547 49.4812 54.4898 50.5789C54.1833 51.9056 54.4639 54.3977 54.6301 55.8388C54.9886 57.8574 54.0327 60.2038 54.4431 62.2744C54.4348 62.3168 54.4366 62.3606 54.4484 62.4021C54.4601 62.4437 54.4814 62.4819 54.5106 62.5137L54.4794 64.4023C54.4794 64.4023 54.3859 73.5797 56.3756 66.6082L56.4275 66.655C56.5952 65.8575 56.5576 65.0304 56.3184 64.2514C56.6405 64.1421 56.3496 63.4034 56.4535 63.1588H56.4846C56.2353 62.5241 56.6872 61.8582 56.4846 61.2495C56.5202 61.2633 56.5507 61.2876 56.572 61.3192C56.5934 61.3508 56.6046 61.3882 56.6041 61.4264C56.5626 60.979 56.4899 60.3859 56.6769 60.339C56.6301 59.2985 56.7132 57.8002 56.4171 57.1238L56.4691 57.1707C56.2665 56.7805 56.4379 56.6504 56.334 56.2342C56.334 56.2342 56.3704 56.1822 56.3808 56.1874C56.1834 55.7659 56.3496 54.9543 56.2665 54.6266H56.3911L56.36 53.7838V54.1011C56.0171 53.9918 56.5729 53.4612 56.36 52.8525C56.4015 52.2854 55.6431 51.6975 55.8145 51.1096C55.6535 50.8235 56.0743 51.3541 55.9496 50.9327C56.1314 50.9327 56.0639 51.1304 56.2041 51.0212C56.121 50.6102 56.3859 50.3448 56.2665 49.835H56.4067C56.1522 49.169 56.5886 48.5759 56.3496 48.1337C56.2301 47.4469 56.76 47.6707 56.4898 46.9579C56.4976 46.937 56.5101 46.9181 56.5263 46.9028C56.5425 46.8874 56.562 46.876 56.5833 46.8695L56.6769 46.8382C56.708 46.7654 56.4431 46.703 56.5366 46.6093C56.6561 46.6718 56.6301 46.5313 56.7444 46.6614C56.7859 46.6614 56.7963 46.6301 56.7911 46.5833C56.7859 46.5365 56.8639 46.5157 56.947 46.4897C56.9924 46.4738 57.0418 46.4738 57.0872 46.4897H57.1963H57.3366C57.4301 46.4897 57.5236 46.5313 57.6223 46.5573C57.8405 46.3284 58.3496 46.4637 58.5158 46.292C58.5158 46.3908 59.5548 46.292 58.9626 46.5261C58.9158 46.5261 58.8275 46.5261 58.8327 46.5261L58.7652 46.6614C59.3418 46.9215 59.8041 46.5157 60.3807 46.5573C60.2145 46.5105 59.9859 46.5261 60.1366 46.4325H60.6561L60.547 46.5469L61.3366 46.6145L61.2275 46.4741C61.3151 46.4899 61.4006 46.5161 61.4821 46.5521C61.4983 46.5773 61.5089 46.6057 61.5132 46.6354C61.5132 46.677 61.5132 46.6874 61.6119 46.5885C61.7106 46.4897 61.6119 46.396 61.7366 46.3492C61.7892 46.3865 61.8334 46.4343 61.8665 46.4897C61.7989 46.651 61.7418 46.755 61.7158 46.8175C61.8768 46.7654 61.8716 46.8175 61.908 46.8539H61.7678C61.7678 46.8539 61.7678 46.9111 61.7937 46.9371C61.7959 46.97 61.7959 47.003 61.7937 47.036C61.7992 47.0791 61.7992 47.1228 61.7937 47.166C61.776 47.2204 61.7414 47.2678 61.695 47.3013C61.6119 47.3637 61.5288 47.4262 61.6015 47.7747L61.508 47.7123L61.7989 47.8944C62.0743 48.5239 61.508 48.2326 61.8872 48.9349C61.8872 48.6592 62.1937 48.8048 62.1314 49.143L61.9963 49.0598C62.0275 49.2471 62.0846 49.3095 62.0535 49.4343C61.9807 49.3251 61.8613 49.3771 61.882 49.6529L61.7158 49.4656L61.96 49.9859C61.8145 50.3865 61.9963 51.0263 61.8093 51.1928C61.8093 51.1928 61.7158 52.0565 61.9236 52.2334C61.7937 52.0617 61.747 52.5403 61.5911 52.3998C61.7761 52.7558 61.817 53.1694 61.7054 53.5548V53.5028C61.5496 54.4861 61.9236 55.1833 61.7314 56.0625C61.8924 56.0261 61.8041 56.4891 62.0119 56.3746C62.2145 57.2851 61.5912 58.0395 62.2301 58.3673C62.2665 58.7835 62.0794 58.8563 62.0483 59.0696L62.0119 58.9707C62.0577 59.4897 62.0733 60.0108 62.0587 60.5315C62.121 60.8177 62.4171 60.8645 62.3444 61.3796C62.2249 61.2131 62.2457 61.4264 62.2457 61.6189C62.2457 61.494 62.1885 61.4576 62.1054 61.7125C62.1434 61.7516 62.1703 61.8001 62.1833 61.853C62.2249 62.1756 62.2613 62.1235 62.2768 61.9727C62.2768 61.9727 62.3184 61.9726 62.3496 61.9206C62.1989 62.2536 62.3496 62.8519 62.1574 62.8935C62.2041 63.8612 62.4171 64.5532 62.495 65.3596C62.3911 65.4532 62.2976 65.2607 62.2561 65.0318L62.2924 65.5989C62.1418 65.5989 62.2093 65.2711 62.1781 65.0786C61.934 65.7601 62.4223 66.4833 62.1781 67.2845L62.2976 67.451V67.4978C62.3288 67.4978 62.3652 67.5395 62.3963 67.6019C62.4286 67.6354 62.4518 67.6766 62.4639 67.7215C62.334 67.7684 62.1626 67.6799 62.1729 67.8464C62.0794 67.9088 62.1729 68.0701 62.2353 68.3198C62.203 68.3484 62.1661 68.3712 62.1262 68.3875C62.2561 68.4135 62.2924 68.4863 62.2716 68.5279C62.147 68.5279 62.0015 68.4031 61.9548 68.4603L61.8561 68.2834C61.9859 68.4499 61.6639 68.4603 61.6223 68.5331C61.5444 68.4031 61.7782 68.4239 61.7678 68.3251H61.4457H60.8535C60.4327 68.4603 60.9314 68.4967 60.7288 68.6476C60.3476 68.738 59.9529 68.7557 59.5652 68.6996L59.7002 68.8557C59.1738 68.9843 58.6224 68.9663 58.1054 68.8037C52.9106 70.0783 57.0093 70.5465 57.0093 70.5465C57.8795 70.6954 58.7668 70.7164 59.6431 70.609L60.9574 70.4529L61.321 70.4113H61.5132H61.8717L63.3937 70.3541" fill="#1B1B1B"/>
</svg>
