<svg width="80" height="80" viewBox="0 0 80 80" fill="none" xmlns="http://www.w3.org/2000/svg">
<g clip-path="url(#clip0_28097_42088)">
<path d="M66.6055 65.5287V15.8594C66.6055 12.2261 63.6655 9.28076 60.0389 9.28076L19.6612 9.28076C16.0345 9.28076 13.0946 12.2261 13.0946 15.8594V65.5287C13.0946 69.162 16.0345 72.1073 19.6612 72.1073H60.0389C63.6655 72.1073 66.6055 69.162 66.6055 65.5287Z" fill="white"/>
<path d="M67.8838 42.5911C67.8838 42.5911 67.8838 42.6299 67.8838 42.659C67.9128 42.7075 67.9419 42.756 67.9613 42.8045L67.8838 42.5911Z" fill="#1B1B1B"/>
<path d="M67.6997 54.283C67.6997 54.283 67.6997 54.3315 67.6997 54.3509C67.7191 54.3509 67.7384 54.3509 67.6997 54.283Z" fill="#1B1B1B"/>
<path d="M67.6028 15.6167C67.6028 15.5003 67.5931 15.4324 67.5737 15.3936C67.5737 15.4712 67.5931 15.5391 67.6028 15.6167Z" fill="#1B1B1B"/>
<path d="M12.1839 22.1371C12.1839 22.1371 12.1839 22.108 12.1839 22.0886C12.1839 22.1274 12.1742 22.1662 12.1646 22.2148L12.1839 22.1371Z" fill="#1B1B1B"/>
<path d="M12.1357 21.8946C12.1551 21.6326 12.1745 21.9625 12.1842 22.079C12.2229 21.7976 12.2229 21.5065 12.2132 21.2251C12.1648 21.2251 12.1745 21.7685 12.1454 21.9043L12.1357 21.8946Z" fill="#1B1B1B"/>
<path d="M65.414 16.8006C65.414 16.7424 65.414 16.6842 65.4043 16.626C65.4043 16.7133 65.4043 16.7715 65.414 16.8006Z" fill="#1B1B1B"/>
<path d="M12.3486 54.8653L12.2808 54.7974C12.3098 54.8556 12.3292 54.875 12.3486 54.8653Z" fill="#1B1B1B"/>
<path d="M67.9614 42.8142L67.9905 42.9015C67.9905 42.9015 67.9711 42.8433 67.9614 42.8142Z" fill="#1B1B1B"/>
<path d="M67.6611 65.092C67.6611 65.092 67.6224 65.1212 67.603 65.1503C67.603 65.16 67.603 65.1697 67.603 65.1794L67.6611 65.092Z" fill="#1B1B1B"/>
<path d="M16.6005 71.2534C16.6005 71.2534 16.6005 71.2728 16.6102 71.2922L16.8233 71.3407C16.7167 71.2922 16.6489 71.2728 16.5908 71.2534H16.6005Z" fill="#1B1B1B"/>
<path d="M56.0001 72.8545C56.0001 72.8545 55.9517 72.874 55.9517 72.8837C56.2035 72.9031 56.8718 72.9128 57.7241 72.9128L57.7725 72.8254L56.0001 72.8643V72.8545Z" fill="#1B1B1B"/>
<path d="M39.8256 70.8071L41.4043 70.9818C36.339 71.0594 33.9854 70.8848 29.6465 71.0303L29.8886 70.9915C29.2591 70.9527 28.9007 71.3505 21.937 70.8654V70.8459C21.6949 70.8459 21.6949 70.8848 21.2106 70.8459L22.4116 70.9527C21.6949 71.0012 21.0557 71.0788 20.0968 71.0885C19.8934 71.0691 19.8256 71.0303 19.8063 71.0012C19.0992 71.0012 18.4794 70.9236 17.8402 70.7198C17.6658 70.6131 17.4915 70.5161 17.3365 70.3899C17.0557 70.2929 16.9491 70.3123 16.7457 70.2444C16.5423 70.1764 16.213 70.0212 15.6804 69.4002C15.9903 69.9727 15.0508 68.8665 15.138 69.0509C15.0896 68.9636 15.0121 68.7986 14.9443 68.6531C14.6634 68.2456 14.3341 67.6052 14.1501 66.9842C13.9467 66.3632 13.908 65.7616 13.8595 65.5287C13.8595 65.5287 13.8595 65.781 13.8402 66.1691C13.8595 66.5573 13.8886 67.1103 14.0629 67.6731C14.3438 68.818 15.167 69.9436 15.5738 70.3705C14.4988 69.2547 15.2445 70.1085 15.4479 70.3608L15.5545 70.3996C16.2615 71.0109 16.2421 71.0691 16.6392 71.3408C16.6392 71.3408 16.6392 71.3214 16.6295 71.302H16.5714C16.5423 71.2438 16.5714 71.2535 16.6198 71.2632C16.6198 71.2341 16.6683 71.2438 16.9007 71.3602H16.8523C17.2106 71.5349 17.8595 71.758 18.1501 71.8259L18.1307 71.9133C18.431 71.9521 18.7215 71.9909 19.1864 72.0491C19.6804 72.1073 20.2905 72.1267 20.9104 72.1656C22.1501 72.2529 23.4092 72.3596 23.8934 72.3596C24.862 72.4663 26.0629 72.3305 27.2639 72.3887C29.1913 72.4178 28.2227 72.5149 29.1913 72.5925C30.4019 72.6507 28.9491 72.4857 29.4334 72.4857L30.8765 72.6119C30.0339 72.6216 30.4891 72.6798 30.644 72.7089C31.8934 72.7283 33.8692 72.8836 34.2469 72.7089C35.9322 72.7962 35.9419 72.8642 36.6586 72.8739C36.4164 72.8448 35.9322 72.8157 35.9322 72.7768C36.6101 72.8545 36.2518 72.7574 35.9806 72.738C37.0072 72.6604 41.3268 73.0582 41.5399 72.8642V72.903C41.7821 72.7574 41.3946 72.6216 42.1114 72.544L42.5956 72.6119L43.322 72.5537C43.8063 72.6022 43.5641 72.641 43.5641 72.6604C44.7457 72.5925 46.3825 72.6701 47.816 72.6895L46.3051 72.3014C47.506 72.3887 49.6755 72.5731 49.9176 72.4469L50.644 72.5828C53.0557 72.8351 52.3293 72.476 53.2881 72.5537L54.4988 72.6992H53.2881C54.4988 72.7671 54.9733 72.8157 55.9419 72.9127H55.9515C55.8838 72.903 55.845 72.8933 55.8353 72.8836H56C56.1453 72.8059 56.7748 72.7574 57.6271 72.7671C58.2276 72.7768 58.7699 72.7574 59.3995 72.7477C60 72.7477 60.8135 72.7865 61.8595 72.5925C62.0145 72.4955 62.1791 72.4178 62.3244 72.3014C62.8281 72.1558 63.322 71.9715 63.7869 71.7095L63.845 71.8065C63.1767 72.2238 62.1114 72.6895 60.9201 72.8448C60.6295 72.8836 60.3196 72.8933 60.0193 72.9127C59.7482 72.9127 59.477 72.9127 59.2155 72.9127C58.6828 72.9127 58.1791 72.9127 57.7239 72.9224L57.6949 72.9709C58.2276 72.9709 58.8087 72.9515 59.3414 72.9418C59.6126 72.9418 59.8644 72.9321 60.0968 72.9224C60.3583 72.9127 60.5908 72.8933 60.7942 72.8836C60.9879 72.8642 61.3365 72.8545 61.5593 72.8545C61.7724 72.8447 61.8595 72.8836 61.5012 73C61.7433 72.9127 61.9854 72.8059 62.2179 72.7089C63.2058 72.4081 63.8741 71.9909 64.3971 71.6222C64.9201 71.2438 65.3075 70.8848 65.6561 70.4869C66.3244 69.6913 67.0992 68.818 67.5448 66.6737L67.4285 67.0327C67.5641 66.1788 67.506 65.3153 67.6029 65.1503C67.6222 62.8895 67.6997 60.5414 67.845 59.0763L67.7094 58.7561C67.7094 58.2806 67.9225 57.5626 67.7288 57.3298L67.6707 56.3109C67.6804 55.6608 67.6029 55.2533 67.6804 54.5159C67.6804 54.4674 67.69 54.4189 67.6997 54.3704C67.6997 54.3704 67.6997 54.3704 67.69 54.3704C67.7482 52.8955 67.5641 54.3898 67.6416 52.6917C67.7385 52.1484 67.4673 52.0902 67.4963 51.2654L67.69 50.4407C67.8063 48.9464 67.6029 48.6941 67.6029 46.5207C67.6707 45.4825 67.845 44.9779 67.9903 45.6668C67.8063 44.7159 67.8741 45.2399 67.7869 43.9785C67.8644 43.7845 67.8741 43.9203 67.9419 44.192C68.029 43.0761 67.8741 43.5031 67.8838 42.6589C67.7482 42.4163 67.5254 42.1349 67.5157 41.8633L67.477 42.1932C67.3995 41.3005 67.3704 40.3302 67.4382 39.292L67.506 39.3308L67.4673 38.2247L67.5545 38.1567L67.5254 36.5849L67.506 36.7983C67.4963 36.4296 67.4673 35.2167 67.506 34.5181L67.5545 34.5472C67.7094 32.5873 67.506 30.9766 67.4867 28.6867L67.5835 28.9875C67.6804 28.2112 67.4285 28.774 67.477 27.8425L67.6029 27.794C67.4382 26.979 67.6416 26.7364 67.6997 26.1736L67.5351 26.4356L67.5738 25.3683C67.6319 24.1942 67.7772 24.6502 67.8644 24.8249L67.7385 24.0293L67.8838 23.874C67.7191 23.2918 67.9128 23.2918 67.816 22.273C67.8741 22.1857 67.9031 22.4477 67.9225 22.0984L67.7191 20.4101L67.8063 21.4289L67.5932 21.3027C67.4285 20.2451 67.6126 19.8667 67.5545 19.1099L67.6126 19.6338C67.5641 18.4016 67.6513 18.3336 67.6997 17.635C67.661 17.8485 67.6029 18.1784 67.5738 17.6835C67.5641 17.3148 67.6513 17.4895 67.6707 17.1402C67.6029 17.1014 67.5448 16.8588 67.5157 16.5289C67.4867 16.199 67.4867 15.7915 67.4963 15.3063C67.5157 15.316 67.5351 15.3354 67.5545 15.3936C67.5254 15.1608 67.477 15.0443 67.4479 14.6368L67.6416 14.8503C67.5448 14.5883 67.477 14.336 67.3511 14.0934C67.293 13.5598 66.8765 12.8903 67.0121 12.9194L67.1477 13.1911C66.7021 11.9297 65.8886 10.8042 64.8716 9.94059L64.9104 9.80475C64.6973 9.74653 64.2712 9.39722 63.8547 9.15465C63.4382 8.90237 63.0508 8.73742 63.0702 8.86356C62.7506 8.6501 62.0242 8.42693 61.4334 8.3299C60.8426 8.22317 60.3971 8.20376 60.6295 8.09703C59.9128 8.04851 59.4867 8.07762 58.9927 8.09703C58.5181 8.11644 58.0629 8.13584 57.598 8.15525C56.6586 8.19406 55.6707 8.22317 54.2857 8.16495C53.3075 7.96119 50.6053 8.02911 48.8426 8C45.3753 8.08733 43.1186 8.14554 39.6029 8.23287C37.4721 7.94178 34.2954 8.3299 32 8.16495L31.3704 8.28139C29.8499 8.09703 27.5254 8.3202 25.385 8.14554C24.862 8.19406 24.5908 8.21346 24.4649 8.21346C24.5617 8.21346 24.707 8.24257 24.7554 8.31049C24.1453 8.26198 22.9152 8.3202 23.0024 8.17465L23.1574 8.15525C23.2445 8.0097 21.3075 8.22317 20.6295 8.09703L21.0072 8.25228L19.8547 8.22317L20.1646 8.19406C19.5835 8.22317 18.8184 8.29109 18.2276 8.42693C17.6077 8.57247 17.046 8.76653 16.5327 9.00911C15.506 9.49425 14.6731 10.1249 13.9758 10.8818C13.2881 11.6386 12.7457 12.5313 12.4164 13.5889C12.2712 14.1226 12.1549 14.6853 12.1356 15.2869C12.1065 15.9273 12.1549 16.4222 12.1937 17.0237C12.029 16.393 12.2808 17.9552 12.0968 18.0134C11.8644 19.2069 12.1453 20.216 12.213 21.196C12.213 21.196 12.2324 21.2057 12.2518 21.2639L12.2324 22.9716C12 21.9528 12.4261 24.2039 12.2324 23.2627C12.0581 27.7164 12.2324 33.5187 12.1549 38.671L12.213 38.4478C12.2034 39.7577 12.2712 41.3781 12.1743 42.3678C12.0775 43.3575 12.3293 44.5316 12.339 44.9197C12.4455 46.0064 12.2324 46.9961 12.2518 46.5304C12.2808 47.6947 12.4939 48.7815 12.4068 50.3921C12.213 50.9452 12.6005 54.7876 12.3777 54.8361L12.3971 54.8555C12.2421 56.9222 12.5036 58.8628 12.368 61.0945C12.368 61.0945 12.3486 61.0557 12.339 60.9781L13.0169 65.4996L13.7627 64.2091L14.3632 60.2892L14.2276 49.6644L14.46 41.1841L14.3825 20.5362L14.2179 19.0614C14.2954 18.0522 14.3244 16.9558 14.3341 15.84C14.3632 14.9279 14.5762 13.977 15.0605 13.1426C15.5254 12.2984 16.2421 11.5998 17.075 11.1341C17.9176 10.678 18.8377 10.4742 19.7578 10.5325L19.845 10.3869C21.075 10.3869 20.9879 10.4645 21.2978 10.4937C32.7361 10.4645 44.5133 10.2705 54.8087 10.4548C55.7966 10.5519 58.8184 10.4937 59.6029 10.6004C60.0581 10.5713 60.368 10.5713 60.707 10.5907C61.046 10.6198 61.385 10.678 61.7239 10.775C62.3922 10.9691 63.0314 11.3087 63.5738 11.7647C64.6683 12.6768 65.3462 14.0449 65.4431 15.4227L65.4237 15.316C65.4334 15.5392 65.4624 15.7235 65.4624 15.9855V16.7715C65.4624 16.8394 65.4431 16.8491 65.4334 16.8006C65.5593 18.5859 65.4334 21.3901 65.385 23.5732L65.3656 23.4471C65.3365 36.1773 65.6077 47.9955 65.4043 60.619C65.3462 62.0842 65.3172 63.6173 65.3172 65.1891C65.3172 65.6161 65.3075 65.878 65.2687 66.2079C65.23 66.5281 65.1622 66.8386 65.0653 67.1491C64.8813 67.7604 64.5617 68.3523 64.1549 68.8666C63.3414 69.9048 62.092 70.6422 60.7457 70.8071C60.1453 70.8848 59.2155 70.8459 58.3922 70.8459C57.5593 70.8265 56.7167 70.8071 55.8644 70.7974C54.6344 70.6519 41.0266 70.7586 39.8256 70.8265V70.8071Z" fill="#1B1B1B"/>
<path d="M19.8063 71.0011H19.8547C19.8547 70.9429 19.7773 70.9623 19.8063 71.0011Z" fill="#1B1B1B"/>
<path d="M47.8933 72.6702H47.8062L48.1451 72.7575L47.8933 72.6702Z" fill="#1B1B1B"/>
<path d="M29.8984 72.7284C30.7023 72.7478 30.7411 72.7284 30.6345 72.709C30.344 72.709 30.0825 72.709 29.8984 72.7284Z" fill="#1B1B1B"/>
<path d="M15.0122 68.624C14.8281 68.3135 14.8669 68.4493 14.9444 68.6531C15.1671 68.9539 15.3318 69.1577 15.3318 69.1577C15.2155 68.983 15.1187 68.8083 15.0122 68.624Z" fill="#1B1B1B"/>
<path d="M15.4384 70.351L15.3125 70.3025C15.5062 70.4577 15.5062 70.4383 15.4384 70.351Z" fill="#1B1B1B"/>
<path d="M29.8014 31.8402C28.8135 31.8402 27.9806 31.5006 27.3026 30.8214C26.6246 30.1422 26.2856 29.3174 26.2856 28.3374C26.2856 27.3574 26.6246 26.523 27.3026 25.8535C27.9806 25.1743 28.8135 24.8347 29.8014 24.8347C30.7893 24.8347 31.6222 25.1743 32.3002 25.8535C32.9781 26.5327 33.3171 27.3574 33.3171 28.3374C33.3171 29.3174 32.9781 30.1519 32.3002 30.8214C31.6222 31.5006 30.7893 31.8402 29.8014 31.8402ZM36.1258 26.2416C35.1379 26.2416 34.305 25.902 33.627 25.2228C32.9491 24.5436 32.6101 23.7188 32.6101 22.7388C32.6101 21.7588 32.9491 20.9244 33.627 20.2549C34.305 19.5757 35.1379 19.2361 36.1258 19.2361C37.1137 19.2361 37.9467 19.5757 38.6246 20.2549C39.3026 20.9341 39.6416 21.7588 39.6416 22.7388C39.6416 23.7188 39.3026 24.5533 38.6246 25.2228C37.9467 25.902 37.1137 26.2416 36.1258 26.2416ZM44.5714 26.2416C43.5835 26.2416 42.7505 25.902 42.0726 25.2228C41.3946 24.5436 41.0556 23.7188 41.0556 22.7388C41.0556 21.7588 41.3946 20.9244 42.0726 20.2549C42.7505 19.5757 43.5835 19.2361 44.5714 19.2361C45.5593 19.2361 46.3922 19.5757 47.0701 20.2549C47.7481 20.9341 48.0871 21.7588 48.0871 22.7388C48.0871 23.7188 47.7481 24.5533 47.0701 25.2228C46.3922 25.902 45.5593 26.2416 44.5714 26.2416ZM50.8958 31.8402C49.9079 31.8402 49.075 31.5006 48.397 30.8214C47.7191 30.1422 47.3801 29.3174 47.3801 28.3374C47.3801 27.3574 47.7191 26.523 48.397 25.8535C49.075 25.1743 49.9079 24.8347 50.8958 24.8347C51.8837 24.8347 52.7166 25.1743 53.3946 25.8535C54.0726 26.5327 54.4116 27.3574 54.4116 28.3374C54.4116 29.3174 54.0726 30.1519 53.3946 30.8214C52.7166 31.5006 51.8837 31.8402 50.8958 31.8402ZM32.8232 45.8512C31.7675 45.8512 30.8861 45.4437 30.1694 44.6384C29.4527 43.833 29.0944 42.8822 29.0944 41.7857C29.0944 40.5729 29.5108 39.5055 30.3438 38.6032C31.1767 37.6911 31.9999 36.7887 32.8232 35.9057C33.5011 35.178 34.0919 34.3921 34.5859 33.5382C35.0798 32.6844 35.6609 31.8887 36.3486 31.1416C36.8619 30.5303 37.4624 30.0355 38.1404 29.6376C38.8183 29.2398 39.5544 29.0458 40.3583 29.0458C41.1622 29.0458 41.8982 29.2301 42.5762 29.6085C43.2542 29.9869 43.8547 30.4721 44.368 31.0834C45.0266 31.8305 45.6077 32.6358 46.1113 33.4994C46.6149 34.363 47.2057 35.1683 47.8837 35.9154C48.707 36.7984 49.5302 37.7008 50.3631 38.6129C51.1961 39.5249 51.6125 40.5826 51.6125 41.7954C51.6125 42.8919 51.2542 43.8427 50.5375 44.6481C49.8208 45.4534 48.9394 45.861 47.8837 45.861C46.6149 45.861 45.3655 45.7542 44.1162 45.5505C42.8764 45.337 41.6174 45.24 40.3486 45.24C39.0798 45.24 37.8304 45.3467 36.581 45.5505C35.3316 45.7542 34.0823 45.861 32.8135 45.861L32.8232 45.8512Z" fill="#FE6F0F"/>
<path d="M27.9128 55.8841C29.0169 55.9617 29.2978 56.2528 30.4407 56.1364C30.9927 56.1364 31.5448 56.1073 32.0968 56.0588C32.3487 55.8356 32.7942 56.0588 33.0847 55.8647L33.201 55.9909C33.3075 55.9229 33.4237 55.8744 33.5303 55.952V55.9909C33.6852 55.8938 33.8596 55.952 33.937 55.9035V55.9423H34.1211L34.092 56.0006C34.3438 55.9035 34.615 55.8841 34.8765 55.9423V55.7774C35.3995 55.952 35.5835 55.6221 36.0581 55.8356V55.8744C36.6489 55.4572 36.9976 56.1655 37.6077 55.758C37.5303 55.8065 37.6368 55.8356 37.6368 55.8744C37.9177 55.8259 38.1888 55.8065 38.2179 55.496C38.4213 55.496 38.3922 55.593 38.4116 55.7095C38.4116 55.5736 38.5859 55.5154 38.7506 55.5057L38.6731 55.5639L39.1283 55.5154L39.0411 55.2631C39.2833 55.3311 39.0993 55.5736 39.3414 55.5154V55.3019C39.6804 55.3408 39.8934 55.6707 40.2034 55.8065C41.5593 55.8938 43.0024 55.3602 44.2712 55.7289L44.3293 55.8938C44.3293 56.1267 44.678 55.5445 44.7264 55.758L44.8717 55.6513C44.8717 55.6513 45.0072 55.7386 44.9298 55.7871C45.0654 55.7871 45.075 55.758 45.1622 55.6901L45.3075 55.8356C45.8595 55.952 46.2954 55.6707 46.8571 55.7289C47.5351 56.0297 48.8039 55.7289 49.5399 55.593C50.5666 55.2437 51.7385 56.1752 52.8135 55.7774C52.8426 55.8065 52.9395 55.7386 52.9395 55.7095L53.908 55.7483C53.908 55.7483 58.5859 55.8356 55.0121 53.9047V53.8562C54.8184 53.7786 54.6053 53.7398 54.3826 53.7592C54.1695 53.7786 53.9661 53.8465 53.7821 53.9532C53.724 53.6427 53.3462 53.9241 53.23 53.8271V53.798C52.9104 54.0406 52.5617 53.5942 52.2518 53.798C52.2518 53.798 52.2518 53.6816 52.339 53.6816C52.1162 53.7204 51.7869 53.7883 51.7869 53.6039C51.2349 53.6524 50.4891 53.5651 50.1307 53.8562V53.8077C49.937 54.0017 49.8789 53.8368 49.6562 53.9338C49.6562 53.9338 49.6271 53.895 49.6271 53.8853C49.414 54.0794 49.0072 53.9144 48.8329 54.0018V53.8853H48.4068L48.5617 53.9144C48.5036 54.2443 48.2421 53.7107 47.9322 53.9144C47.6416 53.8659 47.3414 54.6033 47.0411 54.419C46.8959 54.5742 47.1671 54.157 46.954 54.2831C46.954 54.1085 47.0605 54.1764 47.0024 54.0406C46.7893 54.1279 46.6537 53.8659 46.3922 53.9823V53.8465C46.0533 54.0891 45.753 53.6719 45.5206 53.9047C45.1719 54.0115 45.2784 53.4972 44.9201 53.7689L44.7845 53.5845C44.6295 53.5554 44.6683 53.8077 44.4939 53.7107C44.4939 53.6039 44.2712 53.6233 44.3777 53.5069C43.9903 53.3322 43.5835 53.7592 43.0702 53.4584C42.9637 53.6816 42.7022 53.5457 42.615 53.7204C42.615 53.6233 42.092 53.7204 42.3826 53.4875C42.4116 53.4875 42.4503 53.4875 42.4503 53.4875L42.4891 53.3517C42.1888 53.0994 41.937 53.4972 41.6658 53.4487C41.753 53.4972 41.8596 53.4875 41.7821 53.5748H41.5109L41.569 53.4681L41.1622 53.4002L41.2203 53.536C41.0266 53.4681 40.9588 53.2352 40.7264 53.4293C40.6295 53.536 40.9104 53.6136 40.7264 53.6524C40.4068 53.5263 40.0678 53.4293 39.7288 53.3711C39.7579 53.5263 39.6707 53.5263 39.5738 53.5554V53.4196C39.2155 53.6136 39.4479 53.1188 39.0896 53.274L39.1186 53.177L39.0218 53.4584C38.7022 53.7301 38.8474 53.177 38.4697 53.5457C38.615 53.5457 38.5375 53.8465 38.3632 53.7883L38.4019 53.6621C38.3051 53.6913 38.2663 53.7398 38.2082 53.7204C38.2663 53.6524 38.2373 53.5263 38.1017 53.5457L38.1985 53.3808L37.937 53.6233C37.724 53.4778 37.385 53.6621 37.3172 53.4681C37.3172 53.4681 36.8717 53.3808 36.7651 53.5748C36.8523 53.4584 36.6102 53.4002 36.678 53.2546C36.5617 53.3905 36.2227 53.5069 36.0872 53.3614H36.1162C35.6126 53.2061 35.2542 53.5748 34.8087 53.3614C34.8087 53.5263 34.5859 53.439 34.6537 53.633C34.1888 53.8368 33.8014 53.2255 33.6368 53.8465C33.4237 53.8756 33.385 53.701 33.2784 53.6621L33.3269 53.633C33.0557 53.6718 32.7845 53.6913 32.5133 53.6719C32.368 53.7301 32.3487 54.0212 32.0872 53.9532C32.1743 53.8368 32.0872 53.8562 31.9709 53.8562C32.029 53.8562 32.0581 53.798 31.9225 53.7204C31.9031 53.7495 31.8838 53.7786 31.8547 53.798V53.7689C31.6901 53.8077 31.7191 53.8465 31.7966 53.8659C31.8741 53.8853 31.7966 53.9047 31.8257 53.9338C31.6513 53.7786 31.3511 53.9338 31.322 53.7495C30.8959 53.8368 30.4794 53.9435 30.0629 54.0697C30.0242 53.9726 30.1114 53.8756 30.2373 53.8465L29.9467 53.8853C29.9467 53.7398 30.1114 53.798 30.2082 53.7786C29.8595 53.536 29.4915 54.0115 29.1041 53.7786L29.0169 53.895C29.0169 53.895 28.9879 53.9629 28.9685 53.992C28.9395 54.0212 28.9104 54.0406 28.8717 54.06C28.8135 53.9338 28.8717 53.7689 28.678 53.7689C28.5133 53.6524 28.2227 53.8271 28.0194 53.9047C28.1259 53.9047 28.0872 53.992 28.0194 54.0406C27.9516 54.0891 27.8644 53.9241 27.7869 53.9726V53.798C27.8257 53.9629 27.5254 53.9726 27.4867 54.0406C27.4286 53.9144 27.6513 53.9338 27.6707 53.8368L27.0605 53.8659C26.8474 53.992 27.0993 54.0309 27.0024 54.1764C26.8087 54.2152 26.6247 54.3317 26.4116 54.2249L26.4794 54.3802C26.3535 54.4384 26.2082 54.4675 26.0629 54.4578C25.9177 54.4578 25.7821 54.3996 25.6658 54.3219C23.0024 55.5639 25.1138 56.02 25.1138 56.02C26.1598 56.3596 26.7022 55.9132 27.9516 55.7871" fill="#1B1B1B"/>
<path d="M27.9128 62.4917C29.0169 62.5693 29.2978 62.8604 30.4407 62.7439C30.9927 62.7439 31.5448 62.7245 32.0968 62.6663C32.3487 62.4432 32.7942 62.6663 33.0847 62.4723L33.201 62.5984C33.3075 62.5305 33.4237 62.4917 33.5303 62.5596V62.5984C33.6852 62.5014 33.8596 62.5596 33.937 62.5111V62.5499H34.1211L34.092 62.6081C34.3438 62.5111 34.615 62.4917 34.8765 62.5402V62.3849C35.3995 62.5596 35.5835 62.2297 36.0581 62.4432V62.482C36.6489 62.0647 36.9976 62.7634 37.6077 62.3752C37.5303 62.4238 37.6368 62.4529 37.6368 62.4917C37.9177 62.4432 38.1888 62.4238 38.2179 62.1133C38.4213 62.1133 38.3922 62.2103 38.4116 62.3267C38.4116 62.1909 38.5859 62.1327 38.7506 62.123L38.6731 62.1715L39.1283 62.123L39.0411 61.861C39.2833 61.9386 39.0993 62.1715 39.3414 62.1133V61.8998C39.6804 61.9386 39.8934 62.2588 40.2034 62.4043C41.5593 62.4917 43.0024 61.958 44.2712 62.3267L44.3293 62.482C44.3293 62.7245 44.678 62.1424 44.7264 62.3558L44.8717 62.2491C44.8717 62.2491 45.0072 62.3364 44.9298 62.3849C45.0654 62.3849 45.075 62.3558 45.1622 62.2879L45.3075 62.4335C45.8595 62.5499 46.2954 62.2685 46.8571 62.3267C47.5351 62.6275 48.8039 62.3558 49.5399 62.1909C50.5666 61.8416 51.7385 62.7731 52.8135 62.3752C52.8426 62.4043 52.9395 62.3267 52.9395 62.3073L53.908 62.3461C53.908 62.3461 58.5859 62.4335 55.0121 60.5026V60.4541C54.8184 60.3764 54.5956 60.3473 54.3826 60.357C54.1695 60.3667 53.9661 60.4443 53.7821 60.5511C53.724 60.2406 53.3462 60.522 53.23 60.4249C52.9104 60.6578 52.5617 60.2212 52.2518 60.4249C52.2518 60.4249 52.2518 60.3182 52.339 60.3085C52.1162 60.3473 51.7869 60.4152 51.7869 60.2309C51.2349 60.2794 50.4891 60.1921 50.1307 60.4929V60.4443C49.937 60.6384 49.8789 60.4735 49.6562 60.5705C49.6562 60.5705 49.6271 60.5317 49.6271 60.522C49.414 60.716 49.0072 60.5511 48.8329 60.6384V60.522H48.4068H48.5617C48.5036 60.8519 48.2421 60.3182 47.9322 60.522C47.6416 60.4735 47.3414 61.2109 47.0411 61.0265C46.8959 61.1818 47.1671 60.7743 46.954 60.9004C46.954 60.7257 47.0605 60.784 47.0024 60.6481C46.7893 60.7257 46.6537 60.4735 46.3922 60.5899V60.4541C46.0533 60.7063 45.753 60.2794 45.5206 60.5123C45.1719 60.6287 45.2784 60.1047 44.9201 60.3764L44.7845 60.1921C44.6295 60.163 44.6683 60.4152 44.4939 60.3279C44.4939 60.2115 44.2712 60.2406 44.3777 60.1242C43.9903 59.9495 43.5835 60.3764 43.0702 60.0756C42.9637 60.2988 42.7022 60.163 42.615 60.3279C42.615 60.2309 42.092 60.3279 42.3826 60.1047C42.4116 60.1047 42.4503 60.1047 42.4503 60.1339L42.4891 59.998C42.1888 59.7457 41.937 60.1436 41.6658 60.095C41.753 60.1436 41.8596 60.1242 41.7821 60.2115H41.5109L41.569 60.095L41.1622 60.0271L41.2203 60.163C41.0266 60.095 40.9588 59.8525 40.7264 60.0465C40.6295 60.163 40.9104 60.2309 40.7264 60.2794C40.4068 60.1533 40.0678 60.0562 39.7288 59.998C39.7579 60.1533 39.6707 60.1533 39.5738 60.1824V60.0465C39.2155 60.2309 39.4479 59.7457 39.0896 59.901L39.1186 59.804L39.0218 60.0853C38.7022 60.357 38.8474 59.804 38.4697 60.1727C38.615 60.1727 38.5375 60.4735 38.3632 60.4152L38.4019 60.2794C38.3051 60.3085 38.2663 60.357 38.2082 60.3376C38.2663 60.2697 38.2373 60.1436 38.1017 60.163L38.1985 59.998L37.937 60.2406C37.724 60.095 37.385 60.2794 37.3172 60.0853C37.3172 60.0853 36.8717 59.998 36.7651 60.1921C36.8523 60.0659 36.6102 60.0174 36.678 59.8719C36.5617 60.0174 36.2227 60.1242 36.0872 59.9786H36.1162C35.6126 59.8234 35.2542 60.1824 34.8087 59.9786C34.8087 60.1339 34.5859 60.0465 34.6537 60.2503C34.1888 60.4541 33.8014 59.8428 33.6368 60.4638C33.4237 60.5026 33.385 60.3182 33.2784 60.2891L33.3269 60.26C33.0557 60.2988 32.7845 60.3182 32.5133 60.2988C32.368 60.357 32.3487 60.6481 32.0872 60.5802C32.1743 60.4735 32.0872 60.4929 31.9709 60.4929C32.029 60.4929 32.0581 60.4346 31.9225 60.357C31.9031 60.3861 31.8838 60.4152 31.8547 60.4346V60.4055C31.6901 60.4443 31.7191 60.4832 31.7966 60.4929C31.8741 60.5026 31.7966 60.5317 31.8257 60.5705C31.6513 60.4152 31.3511 60.5705 31.322 60.3861C30.8959 60.4735 30.4794 60.5802 30.0629 60.7063C30.0242 60.6093 30.1114 60.5123 30.2373 60.4735L29.9467 60.5123C29.9467 60.3667 30.1114 60.4249 30.2082 60.3958C29.8595 60.163 29.4915 60.6287 29.1041 60.3958L29.0169 60.5123C29.0169 60.5123 28.9879 60.5802 28.9685 60.6093C28.9395 60.6384 28.9104 60.6578 28.8717 60.6772C28.8135 60.5511 28.8717 60.3861 28.678 60.3861C28.5133 60.2697 28.2227 60.4443 28.0194 60.5123C28.1259 60.5123 28.0872 60.5996 28.0194 60.6481C27.9516 60.6966 27.8644 60.5317 27.7869 60.5802V60.4055C27.8257 60.5705 27.5254 60.5802 27.4867 60.6578C27.4286 60.5317 27.6513 60.5511 27.6707 60.4541H27.0605C26.8474 60.5899 27.0993 60.619 27.0024 60.7645C26.8087 60.7937 26.6247 60.9198 26.4116 60.8131L26.4794 60.9683C26.3535 61.0265 26.2082 61.0556 26.0629 61.0459C25.9177 61.0459 25.7821 60.9877 25.6658 60.9101C23.0024 62.1521 25.1138 62.6081 25.1138 62.6081C26.1598 62.938 26.7022 62.5014 27.9516 62.3849" fill="#1B1B1B"/>
<path d="M51.6128 39.2532C51.6128 39.2532 51.6128 39.2629 51.6225 39.2726C51.6515 39.2726 51.6709 39.2726 51.6903 39.292L51.6128 39.2532Z" fill="#1B1B1B"/>
<path d="M52.2715 43.0081C52.2715 43.0081 52.2715 43.0178 52.2715 43.0275C52.2812 43.0275 52.2909 43.0275 52.2715 43.0081Z" fill="#1B1B1B"/>
<path d="M46.6247 33.4604C46.6247 33.4604 46.5956 33.4216 46.5859 33.4119C46.5956 33.4216 46.615 33.441 46.6247 33.4604Z" fill="#1B1B1B"/>
<path d="M31.7288 36.614C31.7288 36.614 31.7288 36.614 31.7288 36.6042C31.7191 36.6042 31.7094 36.614 31.6997 36.6237H31.7288V36.614Z" fill="#1B1B1B"/>
<path d="M31.7485 36.5362C31.8066 36.4876 31.7485 36.5653 31.7388 36.5944C31.8163 36.5556 31.8647 36.4973 31.9131 36.4294C31.8937 36.41 31.7872 36.5265 31.7485 36.5362Z" fill="#1B1B1B"/>
<path d="M45.5305 34.4985C45.5305 34.4985 45.5112 34.4694 45.5015 34.4597C45.5112 34.4791 45.5208 34.4985 45.5305 34.4985Z" fill="#1B1B1B"/>
<path d="M29.7921 45.366L29.7437 45.3854C29.7437 45.3854 29.7824 45.3854 29.7921 45.366Z" fill="#1B1B1B"/>
<path d="M50.4987 46.0548C50.4987 46.0548 50.4793 46.0451 50.46 46.0354L50.5084 46.0548H50.4987Z" fill="#1B1B1B"/>
<path d="M34.8379 46.1227C34.8379 46.1227 34.8379 46.1324 34.8476 46.1421L34.9057 46.1033C34.9057 46.1033 34.8476 46.113 34.8379 46.1227Z" fill="#1B1B1B"/>
<path d="M45.9857 46.6855C45.9857 46.6855 45.9663 46.6855 45.9663 46.705C46.0341 46.7244 46.2278 46.7438 46.4796 46.7632L46.499 46.705H45.9857V46.6855Z" fill="#1B1B1B"/>
<path d="M35.7 45.3369H35.7097C35.7097 45.3369 35.6806 45.3078 35.7 45.3369Z" fill="#1B1B1B"/>
<path d="M43.6902 46.2585H43.6611L43.7483 46.3265L43.6902 46.2585Z" fill="#1B1B1B"/>
<path d="M38.6733 46.1033C38.8961 46.1033 38.9058 46.0936 38.8767 46.0742C38.7992 46.0742 38.7218 46.0839 38.6733 46.1033Z" fill="#1B1B1B"/>
<path d="M33.8885 45.5793C33.7723 45.5793 33.8207 45.6085 33.8885 45.6279C34.0144 45.6182 34.0919 45.6085 34.0919 45.6085C34.0435 45.6085 33.9466 45.589 33.8885 45.5793Z" fill="#1B1B1B"/>
<path d="M34.402 46.1033L34.3633 46.1421C34.4311 46.1324 34.4311 46.113 34.402 46.1033Z" fill="#1B1B1B"/>
<path d="M53.9082 25.5719C53.9082 25.5719 53.9469 25.5622 53.9566 25.5525L53.9082 25.5719Z" fill="#1B1B1B"/>
<path d="M50.8768 24.5725C50.8768 24.5725 50.8574 24.5725 50.8574 24.5822C50.8574 24.5822 50.8671 24.5822 50.8768 24.5725Z" fill="#1B1B1B"/>
<path d="M46.9932 30.1226C46.9932 30.1226 46.9932 30.1226 46.9932 30.1317H47.0022L46.9932 30.1226Z" fill="#1B1B1B"/>
<path d="M46.9541 30.113C46.9541 30.113 46.9832 30.113 46.9928 30.1227C47.0122 30.0839 46.9928 30.045 46.9735 30.0256C46.9444 30.0256 46.9735 30.0936 46.9541 30.113Z" fill="#1B1B1B"/>
<path d="M49.7147 32.5774L49.6953 32.6162C49.6953 32.6162 49.7147 32.5871 49.7147 32.5774Z" fill="#1B1B1B"/>
<path d="M55.0607 28.0269C55.0607 28.0269 55.0317 28.0269 55.022 28.0366L55.0607 28.0269Z" fill="#1B1B1B"/>
<path d="M51.5933 32.1312V32.1506L51.6126 32.1118C51.6029 32.1118 51.5933 32.1215 51.5933 32.1312Z" fill="#1B1B1B"/>
<path d="M54.7993 29.7248H54.8187C54.8187 29.7248 54.8574 29.6374 54.8768 29.5404L54.8187 29.521L54.7993 29.7248Z" fill="#1B1B1B"/>
<path d="M54.373 30.5398V30.5495L54.4408 30.5398H54.373Z" fill="#1B1B1B"/>
<path d="M53.0752 32.034C53.1527 31.9952 53.1527 31.9855 53.1333 31.9758C53.1043 31.9952 53.0849 32.0146 53.0752 32.034Z" fill="#1B1B1B"/>
<path d="M51.2255 31.5781C51.2255 31.5781 51.2061 31.5975 51.2255 31.6266C51.2642 31.6266 51.2836 31.6169 51.2836 31.6169C51.2642 31.6169 51.2352 31.5878 51.2158 31.5878L51.2255 31.5781Z" fill="#1B1B1B"/>
<path d="M51.4385 32.1118V32.1506C51.4385 32.1506 51.4482 32.1312 51.4385 32.1118Z" fill="#1B1B1B"/>
<path d="M47.5742 19.9637C47.5742 19.9637 47.613 19.954 47.6226 19.9443L47.5742 19.9637Z" fill="#1B1B1B"/>
<path d="M44.5428 18.9739C44.5428 18.9739 44.5234 18.9739 44.5234 18.9836C44.5234 18.9836 44.5331 18.9836 44.5428 18.9739Z" fill="#1B1B1B"/>
<path d="M40.6685 24.5239C40.6685 24.5239 40.6685 24.5239 40.6685 24.533H40.6775L40.6685 24.5239Z" fill="#1B1B1B"/>
<path d="M40.6299 24.5046C40.6299 24.5046 40.6589 24.5046 40.6686 24.5143C40.688 24.4755 40.6686 24.4366 40.6493 24.4172C40.6202 24.4172 40.6493 24.4852 40.6299 24.5046Z" fill="#1B1B1B"/>
<path d="M43.3807 26.9788L43.3613 27.0176C43.3613 27.0176 43.3807 26.9885 43.3807 26.9788Z" fill="#1B1B1B"/>
<path d="M48.7267 22.4185C48.7267 22.4185 48.6977 22.4185 48.688 22.4282L48.7267 22.4185Z" fill="#1B1B1B"/>
<path d="M45.269 26.5326V26.552L45.2884 26.5132C45.2787 26.5132 45.269 26.5229 45.269 26.5326Z" fill="#1B1B1B"/>
<path d="M48.4751 24.1164H48.4945C48.4945 24.1164 48.5332 24.029 48.5526 23.932L48.4945 23.9126L48.4751 24.1164Z" fill="#1B1B1B"/>
<path d="M48.0487 24.9316L48.0391 24.9413H48.1069L48.0487 24.9316Z" fill="#1B1B1B"/>
<path d="M46.7412 26.4259C46.8187 26.3871 46.8187 26.3774 46.7993 26.3677C46.7703 26.3871 46.7509 26.4065 46.7412 26.4259Z" fill="#1B1B1B"/>
<path d="M44.8915 25.9697C44.8915 25.9697 44.8721 25.9891 44.8915 26.0182C44.9303 26.0182 44.9496 26.0085 44.9496 26.0085C44.9303 26.0085 44.9012 25.9794 44.8818 25.9794L44.8915 25.9697Z" fill="#1B1B1B"/>
<path d="M45.1143 26.5034V26.5422C45.1143 26.5422 45.1239 26.5228 45.1143 26.5034Z" fill="#1B1B1B"/>
<path d="M39.1382 19.9637C39.1382 19.9637 39.1769 19.954 39.1866 19.9443L39.1382 19.9637Z" fill="#1B1B1B"/>
<path d="M36.1063 18.9739C36.1063 18.9739 36.0869 18.9739 36.0869 18.9836C36.0869 18.9836 36.0966 18.9836 36.1063 18.9739Z" fill="#1B1B1B"/>
<path d="M32.2227 24.5239C32.2227 24.5239 32.2227 24.5239 32.2227 24.533H32.2316L32.2227 24.5239Z" fill="#1B1B1B"/>
<path d="M32.1841 24.5046C32.1841 24.5046 32.2131 24.5046 32.2228 24.5143C32.2422 24.4755 32.2228 24.4366 32.2035 24.4172C32.1744 24.4172 32.2035 24.4852 32.1841 24.5046Z" fill="#1B1B1B"/>
<path d="M34.9442 26.9788L34.9248 27.0176C34.9248 27.0176 34.9442 26.9885 34.9442 26.9788Z" fill="#1B1B1B"/>
<path d="M40.2907 22.4185C40.2907 22.4185 40.2616 22.4185 40.252 22.4282L40.2907 22.4185Z" fill="#1B1B1B"/>
<path d="M36.8232 26.5326V26.552L36.8426 26.5132C36.8329 26.5132 36.8232 26.5229 36.8232 26.5326Z" fill="#1B1B1B"/>
<path d="M40.0288 24.1166H40.0482C40.0482 24.1166 40.0869 24.0293 40.1063 23.9322L40.0482 23.9128L40.0288 24.1166Z" fill="#1B1B1B"/>
<path d="M39.603 24.9316V24.9413H39.6708L39.603 24.9316Z" fill="#1B1B1B"/>
<path d="M38.3052 26.4259C38.3827 26.3871 38.3827 26.3774 38.3633 26.3677C38.3342 26.3871 38.3149 26.4065 38.3052 26.4259Z" fill="#1B1B1B"/>
<path d="M36.455 25.9697C36.455 25.9697 36.4356 25.9891 36.455 26.0182C36.4937 26.0182 36.5131 26.0085 36.5131 26.0085C36.4937 26.0085 36.4647 25.9794 36.4453 25.9794L36.455 25.9697Z" fill="#1B1B1B"/>
<path d="M36.6685 26.5034V26.5422C36.6685 26.5422 36.6781 26.5228 36.6685 26.5034Z" fill="#1B1B1B"/>
<path d="M32.8042 25.5719C32.8042 25.5719 32.8429 25.5622 32.8526 25.5525L32.8042 25.5719Z" fill="#1B1B1B"/>
<path d="M29.7728 24.5725C29.7728 24.5725 29.7534 24.5725 29.7534 24.5822C29.7534 24.5822 29.7631 24.5822 29.7728 24.5725Z" fill="#1B1B1B"/>
<path d="M25.8984 30.1226C25.8984 30.1226 25.8984 30.1226 25.8984 30.1317H25.9074L25.8984 30.1226Z" fill="#1B1B1B"/>
<path d="M25.8599 30.113C25.8599 30.113 25.8889 30.113 25.8986 30.1227C25.9083 30.0839 25.8986 30.045 25.8792 30.0256C25.8502 30.0256 25.8792 30.0936 25.8599 30.113Z" fill="#1B1B1B"/>
<path d="M28.6102 32.5774L28.5908 32.6162C28.5908 32.6162 28.6102 32.5871 28.6102 32.5774Z" fill="#1B1B1B"/>
<path d="M33.9567 28.0269C33.9567 28.0269 33.9277 28.0269 33.918 28.0366L33.9567 28.0269Z" fill="#1B1B1B"/>
<path d="M30.499 32.1312V32.1506L30.5184 32.1118C30.5087 32.1118 30.499 32.1215 30.499 32.1312Z" fill="#1B1B1B"/>
<path d="M33.7046 29.7248H33.724C33.724 29.7248 33.7627 29.6374 33.7821 29.5404L33.724 29.521L33.7046 29.7248Z" fill="#1B1B1B"/>
<path d="M33.2787 30.5398L33.269 30.5495L33.3368 30.5398H33.2787Z" fill="#1B1B1B"/>
<path d="M31.9712 32.034C32.0487 31.9952 32.0487 31.9855 32.0293 31.9758C32.0002 31.9952 31.9809 32.0146 31.9712 32.034Z" fill="#1B1B1B"/>
<path d="M30.1215 31.5781C30.1215 31.5781 30.1021 31.5975 30.1215 31.6266C30.1602 31.6266 30.1796 31.6169 30.1796 31.6169C30.1602 31.6169 30.1312 31.5878 30.1118 31.5878L30.1215 31.5781Z" fill="#1B1B1B"/>
<path d="M30.3442 32.1118V32.1506C30.3442 32.1506 30.3539 32.1312 30.3442 32.1118Z" fill="#1B1B1B"/>
</g>
<defs>
<clipPath id="clip0_28097_42088">
<rect width="56" height="65" fill="white" transform="translate(12 8)"/>
</clipPath>
</defs>
</svg>
