<svg width="80" height="80" viewBox="0 0 80 80" fill="none" xmlns="http://www.w3.org/2000/svg">
<g clip-path="url(#clip0_28097_42322)">
<rect x="10" y="45" width="61" height="26" fill="white"/>
<path d="M30.79 43.08C30.79 43.08 30.82 43.08 30.85 43.08C30.89 43.06 30.93 43.04 30.97 43.02L30.8 43.08H30.79Z" fill="#1B1B1B"/>
<path d="M40.1001 43.23C40.1001 43.23 40.1401 43.23 40.1601 43.23C40.1601 43.22 40.1601 43.2 40.1001 43.23Z" fill="#1B1B1B"/>
<path d="M8.92004 44.28C8.84004 44.36 8.81004 44.42 8.79004 44.46C8.83004 44.41 8.86004 44.35 8.92004 44.28Z" fill="#1B1B1B"/>
<path d="M36.0898 72.0901C36.0898 72.0901 36.0698 72.0901 36.0498 72.0901C36.0798 72.0901 36.1098 72.0901 36.1498 72.1001L36.0898 72.0801V72.0901Z" fill="#1B1B1B"/>
<path d="M35.9001 72.13C35.6901 72.11 35.9601 72.1 36.0501 72.09C35.8201 72.06 35.6001 72.05 35.3701 72.07C35.3701 72.11 35.8101 72.1 35.9101 72.13H35.9001Z" fill="#1B1B1B"/>
<path d="M10.6601 45.2L10.6001 45.24C10.6001 45.24 10.6501 45.21 10.6601 45.2Z" fill="#1B1B1B"/>
<path d="M62.1398 71.95L62.0898 72.01C62.0898 72.01 62.1498 71.97 62.1398 71.95Z" fill="#1B1B1B"/>
<path d="M30.96 43.02L31.03 43C31.03 43 30.99 43.01 30.96 43.02Z" fill="#1B1B1B"/>
<path d="M48.7002 43.27C48.7002 43.27 48.7202 43.3 48.7502 43.31C48.7602 43.31 48.7702 43.31 48.7702 43.31L48.7002 43.26V43.27Z" fill="#1B1B1B"/>
<path d="M71.02 65.94C71.02 65.94 71.03 65.93 71.04 65.92L71 65.75C71 65.84 71.01 65.9 71.02 65.95V65.94Z" fill="#1B1B1B"/>
<path d="M60.4901 43.52C60.4901 43.52 60.5301 43.51 60.5301 43.5C60.3301 43.48 59.8001 43.48 59.1201 43.48L59.0801 43.55L60.5001 43.52H60.4901Z" fill="#1B1B1B"/>
<path d="M70.02 47.3L70.16 46.09C70.23 50.04 70.08 51.98 70.2 55.42L70.17 55.23C70.14 55.73 70.46 56.02 70.06 61.57H70.05C70.05 61.76 70.08 61.76 70.05 62.15L70.14 61.19C70.18 61.77 70.25 62.27 70.26 63.03C70.24 63.19 70.21 63.25 70.19 63.26L70.21 65.14L70.12 65.72C70.17 66.29 70.16 65.88 70.05 67.42C70.19 66.84 69.95 68.21 70.02 68.02C70 68.11 69.91 68.54 69.88 68.68C69.89 69.13 69.71 70.12 69.73 70.73C69.73 70.88 71.08 70.64 71.09 70.77V70.87V70.92V70.94V70.95C70.9 70.95 71.35 70.95 71.31 70.95C71.32 70.95 71.32 70.95 71.32 70.95C71.31 70.94 71.32 70.97 71.32 70.94C71.32 70.96 71.32 70.94 71.32 70.95H71.31H71.21V70.93V70.89V70.81C71.23 70.71 71.23 70.6 71.24 70.49C71.26 70.26 71.28 70.02 71.3 69.76C71.39 68.74 70.81 67.52 70.88 67.04C70.84 68.33 71.16 68.19 71.2 67.93L71.24 66.6C71.27 65.83 71.16 66.31 71.18 65.92C71.18 65.92 70.96 65.79 70.95 65.89L71.03 66.12C71.03 66.12 71.11 65.95 71.01 65.93C70.99 65.93 71.23 65.99 71.23 65.78L71.2 65.55C71.19 65.23 71.33 64.19 71.34 63.95H71.41C71.27 63.37 71.28 60.76 71.28 59.99C71.37 59.22 71.26 58.26 71.3 57.3C71.32 55.77 71.41 56.53 71.47 55.76C71.52 54.8 71.39 55.95 71.38 55.57L71.48 54.42C71.48 55.09 71.53 54.73 71.56 54.6C71.57 53.6 71.71 52.03 71.56 51.73C71.63 50.39 71.69 50.38 71.69 49.81C71.66 50 71.64 50.39 71.61 50.39C71.67 49.85 71.59 50.13 71.58 50.35C71.55 49.94 71.61 48.87 71.67 47.89C71.69 47.38 71.71 46.91 71.73 46.57C71.73 46.39 71.73 46.24 71.73 46.13C71.72 45.98 71.7 45.89 71.68 45.86H71.71C71.54 45.64 71.53 46 71.3 45.36C71.27 45.21 71.22 45.07 71.16 44.92C71.03 44.73 70.87 44.56 70.7 44.41C70.38 44.08 70.56 44.21 70.58 44.19C70.35 44.02 70.07 43.88 69.75 43.79C69.44 43.69 69.06 43.69 68.79 43.69C68.21 43.68 67.59 43.66 67.02 43.65L68.22 43.97C67.26 43.9 65.53 43.74 65.34 43.85L64.76 43.74C62.84 43.53 63.42 43.83 62.65 43.77L61.68 43.65H62.64C61.68 43.59 61.29 43.55 60.53 43.48C60.58 43.48 60.62 43.49 60.62 43.5H60.49C60.37 43.56 59.87 43.6 59.19 43.6C58.23 43.58 57.48 43.67 55.94 43.55L55.56 43.67L54.41 43.6V43.5C55.54 43.5 57.67 43.48 59.12 43.46L59.15 43.42C58.3 43.43 57.31 43.45 56.74 43.45C56.46 43.43 55.75 43.33 56.27 43.27L55.74 43.36C52.87 43.37 52.85 43.38 49.85 43.27L50.11 43.32C49.52 43.35 48.92 43.38 48.76 43.3C46.96 43.28 45.09 43.22 43.92 43.1L43.66 43.21C43.28 43.21 42.71 43.03 42.52 43.19L41.71 43.24C41.19 43.24 40.87 43.3 40.28 43.24C40.24 43.24 40.21 43.24 40.17 43.23C38.99 43.19 40.18 43.34 38.83 43.28C38.4 43.2 38.35 43.42 37.7 43.4L37.04 43.24C35.85 43.15 35.65 43.31 33.92 43.31C33.09 43.25 32.69 43.11 33.24 42.99C32.49 43.14 32.9 43.09 31.9 43.16C31.75 43.1 31.85 43.09 32.07 43.03C31.18 42.96 31.52 43.09 30.85 43.08C30.66 43.2 30.43 43.38 30.21 43.39L30.47 43.43C29.76 43.49 28.99 43.52 28.16 43.46L28.19 43.4L27.31 43.43L27.25 43.36L26 43.38L26.17 43.4C25.88 43.4 24.91 43.44 24.36 43.4L24.38 43.36C22.82 43.23 21.54 43.4 19.71 43.41L19.95 43.33C19.33 43.25 19.78 43.46 19.04 43.42L19 43.32C18.35 43.46 18.16 43.29 17.71 43.24L17.92 43.38L17.07 43.35C16.14 43.31 16.5 43.18 16.63 43.11L16 43.22L15.88 43.1C15.42 43.24 15.42 43.08 14.6 43.15C14.53 43.1 14.74 43.08 14.46 43.06L13.12 43.23L13.93 43.16L13.83 43.33C12.99 43.46 12.69 43.31 12.09 43.36L12.5 43.31C11.49 43.36 11.52 43.27 10.86 43.25C11 43.25 11.12 43.28 11.15 43.3C11.17 43.32 11.19 43.33 10.92 43.35C10.51 43.4 10.69 43.3 10.3 43.36C10.23 43.48 9.3 43.85 8.77 44.58C8.77 44.56 8.77 44.54 8.79 44.48C8.67 44.68 8.63 44.79 8.45 45.14C8.43 45.05 8.43 44.96 8.43 44.87C8.35 45.13 8.31 45.39 8.3 45.65C8.18 46.24 8.33 46.66 8.22 46.64L8.19 46.43L8.16 49.19L8.06 49.23C8.2 49.5 8.01 50.73 8.18 50.64C8.08 51.16 8.25 52.69 8.05 52.38C8.03 54.19 8.23 55.17 8.13 57.37C7.96 58.15 8.02 60.3 8 61.71C8.07 64.47 8.12 66.28 8.19 69.08C8.16 69.29 8.14 69.52 8.13 69.75C8.12 69.99 8.11 70.16 8.11 70.71C8.1 71.19 8.21 71.57 8.53 71.89C8.86 72.2 9.25 72.31 9.76 72.29C10.37 72.28 10.99 72.26 11.57 72.25C12.09 72.25 12.59 72.25 13.05 72.28L13.55 72.19C14.76 72.34 16.62 72.16 18.32 72.3C18.74 72.26 18.96 72.25 19.05 72.24C18.97 72.24 18.86 72.22 18.82 72.16C19.31 72.2 20.29 72.15 20.22 72.27H20.1C20.03 72.4 21.58 72.23 22.12 72.33L21.82 72.2L22.74 72.22L22.49 72.24C26.49 71.96 28.3 72.36 32.06 72.1C31.56 72.24 32.8 72.03 32.85 72.18C33.8 72.37 34.61 72.14 35.38 72.09C35.38 72.09 35.38 72.07 35.43 72.06L36.79 72.08C35.98 72.27 37.77 71.92 37.02 72.08C40.56 72.22 45.18 72.08 49.28 72.14L49.1 72.09C50.14 72.09 51.43 72.04 52.22 72.12C53.01 72.2 53.95 71.99 54.25 71.99C55.11 71.9 55.9 72.07 55.53 72.07C56.45 72.05 57.32 71.87 58.61 71.95C59.05 72.11 62.11 71.79 62.15 71.97V71.95C63.81 72.08 65.36 71.86 67.13 71.98C67.13 71.98 67.1 71.99 67.04 72.01L71.25 71.55L71.2 70.62L66.5 70.33L58.04 70.44L51.29 70.24L34.86 70.31L33.69 70.45C30.46 70.21 26.32 70.49 22.84 70.31L22.77 70.43C21.79 70.43 21.86 70.36 21.61 70.34C19.33 70.35 17.03 70.37 14.74 70.38C13.59 70.38 12.45 70.4 11.31 70.4H10.12C10.06 70.42 10.01 70.37 10.02 70.32V69.98C9.99 65.47 9.99 61.07 10.06 56.96C10.14 56.17 10.09 53.76 10.18 53.14C10.11 51.81 10.07 50.43 10.05 49.06C10.05 48.37 10.05 47.69 10.04 47.01V46.5C10.04 46.34 10.04 46.12 10.04 46.07C10.05 45.89 10.12 45.73 10.21 45.58L10.19 45.63C10.29 45.44 10.46 45.29 10.66 45.19C10.69 45.19 10.7 45.2 10.68 45.22C10.82 45.03 11.93 45.11 12.85 45.11C13.79 45.14 14.8 45.16 15.66 45.19H15.56C25.69 45.22 35.1 45 45.15 45.17C49.82 45.36 55.26 45.1 60.62 45.26C61.11 45.32 64.07 45.33 67.02 45.31C67.74 45.31 68.46 45.31 69.14 45.3C69.45 45.3 69.71 45.48 69.85 45.7C69.92 45.81 69.96 45.92 69.98 46.03C69.99 46.1 69.99 46.11 70 46.22C70 46.33 70 46.44 70 46.53C70.01 46.91 70.02 47.18 70.02 47.31V47.3Z" fill="#1B1B1B"/>
<path d="M70.1799 63.26V63.22C70.1299 63.22 70.1499 63.28 70.1799 63.26Z" fill="#1B1B1B"/>
<path d="M66.9498 43.6701H67.0198L66.7598 43.6001L66.9498 43.6701Z" fill="#1B1B1B"/>
<path d="M71.6001 55.2099C71.6201 54.5699 71.6001 54.5399 71.5801 54.6299C71.5801 54.8599 71.5801 55.0699 71.6001 55.2099Z" fill="#1B1B1B"/>
<path d="M70.27 68.5199C70.27 68.8599 70.3 68.7299 70.33 68.5299C70.33 68.1799 70.33 67.9399 70.33 67.9399C70.31 68.1099 70.3 68.3399 70.28 68.5099L70.27 68.5199Z" fill="#1B1B1B"/>
<path d="M70.96 67.1399L71 67.2499C70.99 67.0499 70.98 67.0599 70.96 67.1399Z" fill="#1B1B1B"/>
<path d="M21.8398 21.2998H58.6298C59.7298 21.2998 60.6298 22.1998 60.6298 23.2998V71.3398H19.8398V23.2998C19.8398 22.1998 20.7398 21.2998 21.8398 21.2998Z" fill="white"/>
<path d="M41.5498 20.2399C41.5498 20.2399 41.5798 20.2399 41.6098 20.2399C41.6498 20.2199 41.6898 20.1999 41.7298 20.1799L41.5498 20.2399Z" fill="#1B1B1B"/>
<path d="M51.04 20.3899C51.04 20.3899 51.08 20.3899 51.1 20.3899C51.1 20.3799 51.1 20.3599 51.04 20.3899Z" fill="#1B1B1B"/>
<path d="M19.3302 21.98C19.2802 22.08 19.2502 22.15 19.2402 22.19C19.2702 22.12 19.3002 22.06 19.3302 21.98Z" fill="#1B1B1B"/>
<path d="M25.3901 72.0898C25.3901 72.0898 25.3701 72.0898 25.3501 72.0898C25.3801 72.0898 25.4101 72.0898 25.4501 72.0998L25.3901 72.0798V72.0898Z" fill="#1B1B1B"/>
<path d="M25.1999 72.13C24.9899 72.11 25.2599 72.1 25.3499 72.09C25.1199 72.06 24.8899 72.05 24.6499 72.07C24.6499 72.11 25.0899 72.1 25.1999 72.13Z" fill="#1B1B1B"/>
<path d="M21.2502 22.47L21.2002 22.52C21.2002 22.52 21.2402 22.48 21.2502 22.47Z" fill="#1B1B1B"/>
<path d="M51.9699 71.95L51.9199 72.01C51.9199 72.01 51.9799 71.97 51.9699 71.95Z" fill="#1B1B1B"/>
<path d="M41.7202 20.1799L41.7902 20.1599C41.7902 20.1599 41.7402 20.1699 41.7202 20.1799Z" fill="#1B1B1B"/>
<path d="M60.23 20.9199C60.23 20.9199 60.23 20.9699 60.26 20.9999C60.27 20.9999 60.28 21.0199 60.29 21.0199L60.23 20.9199Z" fill="#1B1B1B"/>
<path d="M60.56 65.5699C60.56 65.5699 60.58 65.5599 60.58 65.5499L60.54 65.3699C60.54 65.4599 60.55 65.5299 60.56 65.5699Z" fill="#1B1B1B"/>
<path d="M61.24 33.3799C61.24 33.3799 61.25 33.4199 61.26 33.4199C61.28 33.2099 61.28 32.6699 61.28 31.9799L61.21 31.9399L61.24 33.3799Z" fill="#1B1B1B"/>
<path d="M59.56 46.5399L59.71 45.2599C59.78 49.3799 59.63 51.2999 59.75 54.8199L59.72 54.6199C59.69 55.1299 60.01 55.4199 59.61 61.0899H59.6C59.6 61.2899 59.63 61.2899 59.6 61.6799L59.69 60.6999C59.73 61.2899 59.8 61.7999 59.81 62.5799C59.79 62.7499 59.76 62.7999 59.74 62.8199L59.76 64.7399L59.67 65.3299C59.72 65.9199 59.92 65.6499 59.81 67.2199C59.95 66.6299 59.82 67.9999 59.89 67.7999C59.87 67.8999 59.92 68.0599 59.89 68.2099C59.91 69.1399 59.94 70.8999 60.01 71.3399C60.01 71.3399 60.64 72.1199 60.82 70.8299C60.78 72.1399 60.72 67.4099 60.77 67.1499L60.81 66.6499C60.84 65.8599 60.75 66.2699 60.77 65.8799C60.77 65.8799 60.77 65.6899 60.77 65.7099L60.69 65.5299C60.69 65.5299 60.79 65.5999 60.78 65.5599C60.76 65.5599 60.75 65.4899 60.75 65.2799L60.67 65.1999C60.66 64.8699 60.66 64.5699 60.67 64.3199L60.69 64.1699C60.55 63.5899 60.84 60.3099 60.84 59.5299C60.93 58.7399 60.82 57.7699 60.86 56.7799C60.88 55.2099 60.97 55.9999 61.03 55.2099C61.08 54.2299 60.95 55.4099 60.94 55.0099L61.04 53.8299C61.04 54.5099 61.09 54.1399 61.12 54.0199C61.13 52.9999 61.27 51.3999 61.12 51.0899C61.19 49.7199 61.25 49.7099 61.25 49.1299C61.22 49.3299 61.2 49.7199 61.17 49.7199C61.23 49.1699 61.15 49.4599 61.14 49.6799C61.08 48.8399 61.4 45.3299 61.24 45.1499H61.27C61.15 44.9599 61.04 45.2699 60.97 44.6799L61.02 44.2899L60.97 43.6999C61.01 43.3099 61.04 43.4999 61.05 43.4999C61 42.5399 61.06 41.2099 61.08 40.0399L60.76 41.2699C60.83 40.2899 60.99 38.5199 60.88 38.3299L60.99 37.7399C61.2 35.7799 60.9 36.3699 60.96 35.5899L61.08 34.5999V35.5799C61.14 34.5999 61.18 34.2099 61.25 33.4199C61.25 33.4199 61.24 33.4999 61.23 33.5099V33.3699C61.17 33.2499 61.13 32.7399 61.13 32.0499C61.15 31.0699 61.06 30.2999 61.18 28.7299L61.06 28.3399L61.13 27.1599H61.23C61.23 28.3099 61.25 30.4899 61.27 31.9599L61.31 31.9899C61.3 31.1199 61.28 30.1099 61.28 29.5299C61.3 29.2499 61.4 28.5199 61.46 29.0499L61.37 28.5099C61.37 27.0399 61.37 26.3099 61.37 25.5499C61.37 25.1799 61.39 24.7999 61.4 24.3099C61.4 24.0699 61.42 23.8099 61.43 23.5099C61.43 23.4299 61.43 23.3599 61.43 23.2799C61.43 23.1699 61.43 23.0499 61.42 22.9299C61.4 22.6899 61.34 22.4399 61.24 22.1899C61.27 22.3099 61.3 22.4399 61.31 22.5599C61.08 21.7099 60.39 21.1699 60.24 20.9899C59.98 20.7999 59.68 20.6599 59.37 20.5699C59.21 20.5199 59.05 20.4999 58.89 20.4699C58.72 20.4599 58.56 20.4499 58.47 20.4499C58.02 20.4399 57.57 20.4199 57.14 20.4099C56.29 20.3799 55.51 20.3299 54.91 20.2699L54.65 20.3799C54.26 20.3799 53.68 20.1999 53.49 20.3599L52.66 20.4099C52.13 20.4099 51.8 20.4699 51.2 20.4099C51.16 20.4099 51.13 20.4099 51.09 20.3999C49.89 20.3599 51.1 20.5099 49.73 20.4499C49.29 20.3699 49.24 20.5899 48.57 20.5699L47.9 20.4099C46.69 20.3199 46.48 20.4799 44.72 20.4799C43.88 20.4199 43.47 20.2799 44.03 20.1599C43.26 20.3099 43.68 20.2599 42.66 20.3299C42.5 20.2699 42.61 20.2599 42.84 20.1999C41.93 20.1299 42.28 20.2599 41.6 20.2499C41.4 20.3699 41.17 20.5499 40.95 20.5599L41.21 20.5999C40.49 20.6599 39.7 20.6899 38.86 20.6299L38.89 20.5699L37.99 20.5999L37.93 20.5299L36.65 20.5499L36.83 20.5699C36.53 20.5699 35.54 20.6099 34.98 20.5699L35 20.5299C33.41 20.3999 32.1 20.5699 30.24 20.5799L30.48 20.4999C29.85 20.4199 30.31 20.6299 29.55 20.5899L29.51 20.4899C28.84 20.6299 28.65 20.4599 28.19 20.4099L28.4 20.5499L27.54 20.5199C26.59 20.4799 26.96 20.3499 27.1 20.2799L26.45 20.3899L26.32 20.2699C25.85 20.4099 25.85 20.2499 25.02 20.3199C24.95 20.2699 25.16 20.2499 24.88 20.2299L23.51 20.3999L24.33 20.3299L24.23 20.4999C23.37 20.6299 23.07 20.4799 22.45 20.5299L22.87 20.4799C22.37 20.4999 22.11 20.4899 21.9 20.4799C21.68 20.4599 21.4 20.4399 21.01 20.5299C21.27 20.4899 21.65 20.4799 21.09 20.6199C20.69 20.7599 20.85 20.6199 20.47 20.7699C20.43 20.8999 19.58 21.4699 19.22 22.3299C19.21 22.3099 19.2 22.2899 19.22 22.2299C19.16 22.4599 19.13 22.5699 19.04 22.9699C19.01 22.8899 18.98 22.7999 18.95 22.7099C18.93 22.9599 18.95 23.2999 19 23.4599C18.96 23.8299 19.06 24.3699 18.97 24.3199L18.94 24.1099L18.91 26.9199L18.81 26.9599C18.95 27.2399 18.76 28.4899 18.93 28.3999C18.83 28.9299 19 30.4899 18.8 30.1799C18.78 32.0299 18.98 33.0199 18.88 35.2699C18.71 36.0699 18.77 38.2599 18.75 39.6999C18.82 42.5199 18.87 44.3599 18.94 47.2199C18.7 48.9499 19.02 51.5399 18.89 53.3999L18.98 53.9099C18.83 55.1499 19.01 57.0399 18.87 58.7799C18.91 59.2099 18.92 59.4299 18.93 59.5299C18.93 59.4499 18.95 59.3299 19.01 59.2899C18.97 59.7899 19.02 60.7899 18.9 60.7199V60.5899C18.77 60.5199 18.94 62.0999 18.84 62.6499L18.97 62.3499L18.95 63.2899L18.93 63.0399C19.05 64.8099 19.05 66.1599 19.02 67.4399C19.01 68.0799 18.99 68.6999 18.98 69.3399C18.98 69.6899 18.98 70.0299 18.98 70.3999C18.98 70.9699 18.99 71.5599 19 72.2099C19.38 72.2099 19.77 72.1899 20.19 72.1799C20.59 72.1699 21.06 72.1499 21.24 72.1399C20.73 72.2799 22 72.0699 22.05 72.2199C23.02 72.4099 23.84 72.1799 24.63 72.1299C24.63 72.1299 24.63 72.1099 24.68 72.0999L26.07 72.1199C25.24 72.3099 27.07 71.9599 26.31 72.1199C29.92 72.2599 34.64 72.1199 38.82 72.1799L38.64 72.1299C39.7 72.1299 41.02 72.0799 41.83 72.1599C42.64 72.2399 43.59 72.0299 43.9 72.0299C44.78 71.9399 45.58 72.1099 45.21 72.1099C46.15 72.0899 47.04 71.9099 48.35 71.9899C48.8 72.1499 51.92 71.8299 51.96 72.0099V71.9899C53.65 72.1199 55.23 71.8999 57.04 72.0199C57.04 72.0199 57.01 72.0299 56.94 72.0499L60.61 71.4899L60.13 70.6599L56.38 70.3799L47.75 70.4899L40.86 70.2899L24.09 70.3599L22.89 70.4999C22.41 70.4599 21.91 70.4399 21.4 70.4199H21.01C20.92 70.4099 20.96 70.3999 20.92 70.3999H20.83C20.83 69.4099 20.81 68.3799 20.81 67.3599C20.81 65.9999 20.81 64.6599 20.87 63.3999L20.75 63.3299C20.75 62.3299 20.82 62.3999 20.84 62.1499C20.81 52.8399 20.65 43.2599 20.81 34.8899C20.89 34.0799 20.84 31.6299 20.93 30.9899C20.86 29.6299 20.82 28.2299 20.8 26.8299C20.8 26.1299 20.8 25.4299 20.79 24.7299C20.81 24.0699 20.74 23.1999 20.86 23.0099V23.0599C20.91 22.8499 21.04 22.6499 21.22 22.5199C21.25 22.5199 21.26 22.5199 21.25 22.5399C21.38 22.4099 21.59 22.3199 21.83 22.3099C22.27 22.3099 22.74 22.3099 23.23 22.3099C24.19 22.3399 25.22 22.3599 26.1 22.3899H26C36.34 22.4199 45.93 22.1999 56.19 22.3699C56.8 22.3899 57.4 22.4099 58.01 22.4199C58.77 22.4199 58.91 22.4199 59.17 22.6199C59.41 22.8099 59.56 23.0499 59.55 23.4199C59.55 24.0699 59.55 24.7299 59.56 25.3999C59.58 28.0699 59.61 30.8199 59.53 33.5499C59.41 34.5499 59.5 45.6199 59.56 46.5999V46.5399Z" fill="#1B1B1B"/>
<path d="M59.7199 62.8298V62.7898C59.6699 62.7898 59.6899 62.8598 59.7199 62.8298Z" fill="#1B1B1B"/>
<path d="M61.0998 39.97L61.0898 40.04L61.1698 39.77L61.0998 39.97Z" fill="#1B1B1B"/>
<path d="M61.1401 54.6099C61.1601 53.9499 61.1401 53.9199 61.1201 54.0099C61.1201 54.2499 61.1201 54.4599 61.1401 54.6099Z" fill="#1B1B1B"/>
<path d="M59.8198 68.1999C59.8198 68.5499 59.8498 68.4099 59.8798 68.2099C59.8798 67.8599 59.8798 67.6099 59.8798 67.6099C59.8598 67.7899 59.8498 68.0199 59.8298 68.1999H59.8198Z" fill="#1B1B1B"/>
<path d="M60.5 66.7899L60.54 66.8999C60.53 66.6999 60.52 66.6999 60.5 66.7899Z" fill="#1B1B1B"/>
<path d="M52.2901 16.8401H44.5301V9.08008H35.6101V16.8401H27.8501V25.7601H35.6101V33.5201H44.5301V25.7601H52.2901V16.8401Z" fill="#FE6F0F"/>
<path d="M36.6704 30.5C36.6704 30.5 36.6704 30.52 36.6704 30.53C36.6904 30.55 36.7104 30.57 36.7304 30.59L36.6704 30.5Z" fill="#1B1B1B"/>
<path d="M37.75 32.6101C37.75 32.6101 37.77 32.6101 37.78 32.6101C37.78 32.6001 37.78 32.5801 37.75 32.6101Z" fill="#1B1B1B"/>
<path d="M28.9201 24.9199C28.9201 24.9199 28.9001 24.9199 28.8901 24.9299C28.8901 24.9299 28.9101 24.9299 28.9201 24.9199Z" fill="#1B1B1B"/>
<path d="M40.1401 9.83007C40.1401 9.83007 40.1301 9.83007 40.1201 9.83007C40.1401 9.83007 40.1501 9.83007 40.1701 9.84007L40.1401 9.82007V9.83007Z" fill="#1B1B1B"/>
<path d="M40.0302 9.86997C39.9202 9.84997 40.0602 9.83997 40.1102 9.82997C39.9902 9.79997 39.8602 9.78997 39.7402 9.80997C39.7402 9.84997 39.9802 9.83997 40.0302 9.86997Z" fill="#1B1B1B"/>
<path d="M46.7004 17.45L46.6704 17.51C46.6704 17.51 46.7004 17.47 46.7004 17.45Z" fill="#1B1B1B"/>
<path d="M36.7305 30.5901L36.7505 30.6301C36.7505 30.6301 36.7405 30.6101 36.7305 30.5901Z" fill="#1B1B1B"/>
<path d="M42.4202 32.6501C42.4202 32.6501 42.4302 32.6801 42.4402 32.6901H42.4502L42.4102 32.6401L42.4202 32.6501Z" fill="#1B1B1B"/>
<path d="M52.3603 19.3401C52.3603 19.3401 52.3503 19.3401 52.3403 19.3501L52.3803 19.4401C52.3803 19.4401 52.3703 19.3601 52.3603 19.3301V19.3401Z" fill="#1B1B1B"/>
<path d="M43.9204 29.1201C43.9204 29.1201 43.9104 29.1001 43.9004 29.1001C43.8804 29.2101 43.8804 29.5001 43.8804 29.8701L43.9504 29.8901L43.9204 29.1201Z" fill="#1B1B1B"/>
<path d="M48.1602 26.83L47.4802 26.68C48.5702 26.65 49.3802 26.67 50.1402 26.68C50.3302 26.68 50.5202 26.68 50.7102 26.68C50.9402 26.68 51.1702 26.68 51.4102 26.68C52.1102 26.65 52.8302 26.17 53.0702 25.38L53.0302 25.56C53.0902 25.45 53.1102 25.35 53.1302 25.17C53.1402 25.08 53.1502 24.98 53.1402 24.85C53.1402 24.73 53.1202 24.6 53.1202 24.47C53.0902 24.02 53.1202 23.23 53.3102 21.72H53.3202C53.3202 21.62 53.2902 21.62 53.3202 21.41L53.2302 21.93C53.1902 21.62 53.1202 21.35 53.1102 20.93C53.1302 20.84 53.1602 20.81 53.1802 20.8L53.1602 19.78L53.2502 19.47C53.2002 19.16 53.0002 19.3 53.1102 18.47C52.9702 18.78 53.1802 18.1525 53.1102 18.2525C53.1302 18.2025 53.1302 18.0705 53.1602 18.0005C53.1602 17.9305 53.0302 17.52 52.9202 17.28C52.8202 17.02 52.6502 16.77 52.4302 16.59C52.0002 16.21 51.4602 16.19 51.2802 16.23C51.2802 16.23 48.712 15.8805 49.002 16.0005C49.282 16.1205 49.9102 16.9 50.0702 17.28C50.9036 17.28 52.0602 17.51 52.0602 17.71C52.0502 17.93 52.0902 18.02 52.0602 18.16C52.0102 18.42 52.042 18.8605 52.002 19.0005C52.042 18.3005 52.042 18.8705 52.002 19.0005L52.0602 19.1368C52.0302 19.5568 52.1217 19.1659 52.1017 19.3759C52.1017 19.3759 52.0602 19.5 52.0602 19.49L52.1017 19.7329C52.1017 19.7329 52.2602 19.77 52.2702 19.78C52.2902 19.78 52.2702 19.8805 52.2702 20.0005C52.2702 20.1705 52.2802 19.8705 52.2702 20.0005V20.08C52.2702 20.5005 52.0602 22.17 52.0602 22.58C51.9702 23 52.0802 23.52 52.0402 24.04C52.0202 24.86 51.9402 24.5 51.8702 24.79C51.7602 25.11 51.9702 24.75 51.9502 24.88C51.8902 25.02 51.7802 25.13 51.6602 25.19C51.8102 25.01 51.6802 25.08 51.6402 25.09C51.5302 25.21 51.3202 25.25 51.1602 25.22C50.9302 25.2 50.6202 25.21 50.5602 25.28C49.8302 25.21 49.8302 25.15 49.5202 25.15C49.6202 25.18 49.8302 25.2 49.8302 25.23C49.5402 25.17 49.6902 25.25 49.8102 25.26C49.3602 25.32 47.5002 25 47.4002 25.16V25.13C47.3002 25.25 47.4602 25.36 47.1502 25.43L46.9402 25.38L46.6302 25.43C46.4202 25.39 46.5202 25.36 46.5202 25.35C46.2602 25.38 45.9702 25.37 45.6402 25.36C45.2002 25.35 44.7102 25.33 44.2902 25.32C44.6902 25.43 45.0202 25.53 45.3002 25.64C45.0002 25.61 44.5802 25.56 44.2502 25.52C44.2102 25.92 44.1902 26.33 44.2502 26.42L44.1402 26.8C43.9302 27.91 44.2302 27.55 44.1702 27.98L44.0502 28.5V27.98C43.9902 28.5 43.9502 28.71 43.8802 29.13C43.8802 29.13 43.8902 29.09 43.9002 29.08V29.15C43.9602 29.21 44.0002 29.49 44.0002 29.85C43.9802 30.37 44.0702 30.78 43.9502 31.61L44.0702 31.82L44.0002 32.42H43.9002C43.9002 31.81 43.8802 30.66 43.8602 29.89H43.8202C43.8202 30.34 43.8602 30.87 43.8502 31.18C43.8302 31.33 43.7302 31.72 43.6702 31.44L43.7602 31.73C43.7602 32.05 43.7602 32.28 43.7602 32.48C43.7602 32.57 43.7602 32.63 43.7602 32.7C43.7602 32.78 43.6502 32.77 43.5602 32.75C43.5202 32.75 43.4702 32.73 43.4202 32.72C43.3802 32.72 43.4202 32.71 43.3102 32.7C43.2202 32.7 43.1202 32.69 43.0202 32.68L43.1602 32.73C42.8402 32.76 42.5202 32.79 42.4302 32.71C41.4502 32.69 40.4402 32.63 39.8102 32.51L39.6702 32.62C39.4602 32.62 39.1502 32.44 39.0502 32.6L38.6102 32.65C38.3302 32.65 38.1502 32.71 37.8302 32.65C37.8102 32.65 37.7902 32.65 37.7702 32.64C37.1302 32.6 37.7702 32.75 37.0502 32.69C36.9302 32.65 36.8702 32.69 36.7902 32.73C36.7202 32.77 36.7102 32.82 36.6402 32.81C36.6102 32.76 36.6002 32.7 36.6102 32.65C36.5702 32.61 36.5302 32.6 36.5102 32.57C36.5002 32.56 36.4802 32.54 36.4602 32.5C36.4602 32.48 36.4502 32.46 36.4402 32.44V32.39C36.4402 32.34 36.4402 32.28 36.4402 32.22C36.5002 31.77 36.6402 31.55 36.7602 31.85C36.6102 31.44 36.6602 31.66 36.5902 31.12C36.6502 31.04 36.6602 31.09 36.7202 31.21C36.7902 30.73 36.6602 30.91 36.6702 30.55C36.5502 30.44 36.3702 30.32 36.3602 30.2L36.3202 30.34C36.2602 29.96 36.2302 29.54 36.2902 29.09L36.3502 29.11L36.3202 28.63L36.3902 28.6L36.3702 27.92L36.3502 28.01C36.3502 27.85 36.3102 27.33 36.3502 27.03H36.3902C36.4102 26.96 36.4202 26.75 36.4302 26.57C36.4302 26.37 36.4302 26.19 36.4402 26.02C36.4402 25.66 36.4302 25.31 36.4102 24.96C36.0802 24.97 35.7202 24.99 35.3702 25.01C35.0202 25.02 34.6802 25.03 34.3402 25.04C34.3902 25.01 34.4102 24.98 34.4802 24.96C34.1202 24.88 34.3802 25.09 33.9702 25.05L33.9502 24.95C33.6002 25.09 33.4902 24.92 33.2502 24.87L33.3602 25.01L32.9002 24.98C32.3902 24.94 32.5902 24.81 32.6602 24.74L32.3202 24.85L32.2502 24.73C32.0002 24.87 32.0002 24.71 31.5602 24.78C31.5202 24.73 31.6402 24.71 31.4902 24.69L30.7602 24.86L31.2002 24.79L31.1502 24.96C30.6902 25.09 30.5302 24.94 30.2002 24.99L30.4202 24.94C29.8902 24.98 29.8602 24.91 29.5602 24.87C29.6502 24.9 29.8002 24.95 29.5802 24.97C29.4202 24.97 29.4902 24.91 29.3402 24.89C29.3202 24.95 29.2202 24.99 29.0702 25.02C28.9802 25.03 28.9502 25.04 28.9202 25.04C28.8902 25.04 28.8602 25.04 28.8402 25.02C28.8402 25 28.8602 24.99 28.8602 24.98C28.8302 25 28.8002 25.03 28.7702 24.98C28.8002 24.94 28.8302 24.9 28.8602 24.86C28.8202 24.9 28.7702 24.93 28.7202 24.95C28.7002 24.89 28.5802 24.87 28.6702 24.83H28.7102C28.7102 24.83 28.7102 24.71 28.7102 24.66L28.7302 23.94L28.8302 23.92C28.6902 23.77 28.8802 23.11 28.7102 23.15C28.8102 22.87 28.6402 22.04 28.8402 22.21C28.8602 21.23 28.6602 20.7 28.7602 19.5C28.8402 19.29 28.8702 18.89 28.8802 18.45V18.02C28.8802 18.02 28.8802 17.98 28.9002 17.97C28.9002 17.93 28.9402 17.91 28.9802 17.89C29.2902 17.87 29.5902 17.86 29.8802 17.84C30.5102 17.81 31.1402 17.78 31.8902 17.75C32.3502 17.87 32.9202 17.85 33.5102 17.81C33.8102 17.8 34.1102 17.78 34.3802 17.77C34.7802 17.77 35.3302 17.77 35.7702 17.8L36.1802 17.71C36.2802 17.71 36.3702 17.73 36.4502 17.74C36.5002 17.22 36.4902 16.49 36.4802 15.75C36.4802 15.32 36.4702 14.88 36.5402 14.45C36.5002 14.22 36.4902 14.1 36.4802 14.05C36.4802 14.09 36.4602 14.16 36.4002 14.18C36.4402 13.92 36.3902 13.38 36.5102 13.42V13.49C36.6402 13.53 36.4702 12.69 36.5702 12.39L36.4402 12.55L36.4602 12.05L36.4802 12.18C36.4102 11.64 36.3802 11.17 36.3802 10.74C36.3802 10.63 36.3802 10.53 36.3802 10.42V10.27V10.22L36.4002 10.05C36.4302 9.92004 36.6002 9.96004 36.6902 9.96004C36.8502 9.96004 37.0102 9.95004 37.2002 9.94004C37.4302 9.93004 37.6602 9.90004 37.9202 9.87004C37.6502 10.01 38.3202 9.80004 38.3502 9.95004C38.8602 10.14 39.3002 9.91004 39.7202 9.86004C39.7202 9.86004 39.7202 9.84004 39.7502 9.83004L40.4902 9.85004C40.0502 10.04 41.0202 9.69004 40.6202 9.85004C41.1002 9.89004 41.6202 9.90004 42.1602 9.91004C42.6002 9.91004 43.0502 9.91004 43.5102 9.91004C43.6002 9.89004 43.7202 9.91004 43.7302 10.02V10.36C43.7402 10.94 43.7302 11.51 43.7302 12.07L43.7802 11.97C43.7802 12.53 43.8302 13.24 43.7502 13.66C43.6702 14.09 43.8802 14.6 43.8802 14.76C43.9702 15.23 43.8002 15.66 43.8002 15.45C43.8202 15.66 43.8502 16 43.8802 16.33C43.9202 16.68 43.9502 17.02 43.9402 17.45C44.0402 17.45 44.1502 17.46 44.3002 17.47C44.3602 17.51 44.5802 17.52 44.8802 17.52C45.0202 17.52 45.1802 17.52 45.3602 17.5C45.5002 17.5 45.6502 17.48 45.8002 17.47C46.2502 17.43 46.6702 17.4 46.6802 17.49V17.47C47.5802 17.6 48.4202 17.38 49.3802 17.5C49.3802 17.5 49.3602 17.51 49.3302 17.53L51.2802 16.97L50.7202 16.35L49.0302 15.85L46.7702 15.9L45.6602 15.93L45.4302 15.96C45.4502 15.87 45.4602 15.81 45.4802 15.75C45.4802 15.78 45.5002 15.58 45.5002 15.43L45.5202 14.97L45.6202 13.14L45.6002 10.91V10.35V9.89004C45.6002 9.71004 45.6002 9.53004 45.5802 9.35004C45.5202 8.72004 44.9802 8.16004 44.3802 8.05004C44.0602 7.99004 43.6502 8.03004 43.3402 8.02004H42.7802L41.6702 8.03004L39.4402 8.05004L38.8002 8.19004C38.3602 8.13004 37.8902 8.10004 37.4102 8.09004C37.1402 8.09004 36.8702 8.09004 36.6002 8.09004C36.1302 8.09004 35.6302 8.09004 35.3102 8.30004C34.9402 8.52004 34.7002 8.90004 34.6402 9.31004C34.5902 9.73004 34.6402 10.35 34.6202 10.5C34.6202 11 34.6002 11.5 34.5602 11.97L34.6802 12.01C34.6802 12.54 34.6102 12.51 34.5902 12.64C34.5902 13.34 34.6002 14.05 34.6102 14.75V15.73L34.6402 15.9H34.5402L34.4802 15.91H34.2702C33.8302 15.91 33.3802 15.93 32.9402 15.93C32.0602 15.93 31.1802 15.94 30.3202 15.95C29.8902 15.95 29.4602 15.95 29.0402 15.95C28.7402 15.95 28.2902 15.92 27.9802 16.06C27.6502 16.18 27.3602 16.42 27.1702 16.72C26.9802 17.02 26.9002 17.36 26.9102 17.74V18.48L26.8602 19.69C26.7802 20.12 26.8302 21.43 26.7402 21.76C26.8102 22.48 26.8502 23.23 26.8702 23.97V24.53L26.8802 24.96C26.8802 25.13 26.8902 25.3 26.9302 25.45C27.0802 26.07 27.6102 26.58 28.2202 26.7H28.1202C28.4602 26.79 29.0502 26.72 29.1802 26.73C29.2102 26.73 29.2102 26.75 29.1902 26.76C29.9602 26.65 31.1702 26.76 32.1102 26.8H32.0602C33.1302 26.82 34.9002 26.81 34.5602 26.8V26.88L34.5702 26.95V27.34L34.6002 28.9C34.6102 29.94 34.6202 30.97 34.6402 32.01V33.12C34.6402 33.36 34.6802 33.58 34.7602 33.75C34.8202 33.91 34.9302 34.09 35.1102 34.22C35.2702 34.34 35.4202 34.4 35.6402 34.45C35.8502 34.5 36.1002 34.48 36.3302 34.48H37.3002C38.3502 34.49 39.4002 34.51 40.4702 34.54C41.1002 34.59 41.7602 34.61 42.4402 34.61C42.8102 34.61 43.1902 34.61 43.5702 34.61C43.9002 34.6 44.2602 34.64 44.5602 34.56C44.8502 34.48 45.0502 34.37 45.2602 34.13C45.4302 33.91 45.5302 33.68 45.5602 33.33V32.34L45.5502 31.26C45.5502 30.53 45.5602 29.81 45.6002 29.08C45.6302 28.95 45.6502 28.51 45.6502 27.91C45.6502 27.61 45.6502 27.28 45.6502 26.92H45.7202C46.1202 26.92 46.4902 26.9 46.8302 26.9C47.5002 26.89 47.9902 26.87 48.1302 26.85L48.1602 26.83Z" fill="#1B1B1B"/>
<path d="M53.2002 20.8001V20.8201C53.2502 20.8201 53.2302 20.7901 53.2002 20.8001Z" fill="#1B1B1B"/>
<path d="M44.26 25.29H44.31L44.04 25.22L44.26 25.29Z" fill="#1B1B1B"/>
<path d="M51.7404 24.9102C51.6404 25.0702 51.6204 25.0702 51.6604 25.0702C51.7104 25.0202 51.7404 24.9602 51.7404 24.9102Z" fill="#1B1B1B"/>
<path d="M53.1 17.9401C53.1 17.7601 53.07 17.8301 53.04 17.9401C53.04 18.1301 53.04 18.2601 53.04 18.2601C53.05 18.1701 53.08 18.0301 53.09 17.9501L53.1 17.9401Z" fill="#1B1B1B"/>
<path d="M52.4204 18.6901L52.3804 18.6301C52.3904 18.7401 52.4004 18.7301 52.4204 18.6901Z" fill="#1B1B1B"/>
<path d="M39.5503 52.1801C39.5503 52.1801 39.5603 52.1801 39.5703 52.1801C39.5903 52.1601 39.6003 52.1401 39.6203 52.1201L39.5503 52.1801Z" fill="#1B1B1B"/>
<path d="M43.2402 52.3302H43.2602C43.2602 52.3302 43.2602 52.3102 43.2402 52.3302Z" fill="#1B1B1B"/>
<path d="M30.7002 53.79C30.7002 53.79 30.6702 53.85 30.6602 53.87C30.6602 53.85 30.6802 53.82 30.7002 53.79Z" fill="#1B1B1B"/>
<path d="M35.3403 71.8801C35.3403 71.8801 35.3403 71.8801 35.3203 71.8801C35.3303 71.8801 35.3403 71.8801 35.3603 71.8901L35.3403 71.8701V71.8801Z" fill="#1B1B1B"/>
<path d="M35.2603 71.92C35.1803 71.9 35.2803 71.89 35.3203 71.88C35.2303 71.85 35.1403 71.84 35.0503 71.86C35.0503 71.9 35.2203 71.89 35.2603 71.92Z" fill="#1B1B1B"/>
<path d="M45.6499 71.74L45.6299 71.8C45.6299 71.8 45.6499 71.76 45.6499 71.74Z" fill="#1B1B1B"/>
<path d="M39.6201 52.1201L39.6501 52.1001C39.6501 52.1001 39.6301 52.1101 39.6201 52.1201Z" fill="#1B1B1B"/>
<path d="M46.6399 52.3701C46.6399 52.3701 46.6399 52.4001 46.6599 52.4101L46.6299 52.3701H46.6399Z" fill="#1B1B1B"/>
<path d="M48.9502 68.8901C48.9502 68.8901 48.9602 68.8901 48.9702 68.8901L48.9302 68.8201C48.9302 68.8201 48.9402 68.8801 48.9502 68.9001V68.8901Z" fill="#1B1B1B"/>
<path d="M49.6301 56.3901C49.6301 56.3901 49.6401 56.4101 49.6501 56.4101C49.6701 56.3301 49.6701 56.1201 49.6701 55.8501L49.6001 55.8301L49.6301 56.3901Z" fill="#1B1B1B"/>
<path d="M47.9401 61.5001L48.0901 61.0001C48.1601 62.6001 48.0101 63.3401 48.1301 64.7101L48.1001 64.6301C48.0701 64.8301 48.3901 64.9401 47.9901 67.1401H47.9801C47.9801 67.2201 48.0101 67.2201 47.9801 67.3701L48.0701 66.9901C48.1101 67.2201 48.1801 67.4201 48.1901 67.7201C48.1701 67.7801 48.1401 67.8101 48.1201 67.8101L48.1401 68.5501L48.0501 68.7801C48.1001 69.0101 48.0501 69.0601 47.9401 69.6601C48.0801 69.4301 47.6001 70.2701 47.6701 70.1901C47.6501 70.2301 47.7301 70.5401 47.7101 70.5901C47.7301 70.9501 48.3301 70.9301 48.4001 71.1001C48.4001 71.1001 48.9201 71.0801 49.0701 70.7001C49.0301 71.2101 49.0901 69.9101 49.1301 69.8101L49.2101 69.3401C49.2401 69.0301 48.9801 68.9901 49.0001 68.8401C49.0001 68.8401 49.0001 68.8101 48.9901 68.8201V68.8501C48.9901 68.8501 49.0101 68.8501 48.9901 68.8301C48.9701 68.8301 48.9901 68.8401 48.9901 68.7601V68.7001C48.9701 68.5701 48.9801 68.4901 48.9901 68.3901L49.0101 68.3401C48.8701 68.1101 49.2201 66.8201 49.2301 66.5101C49.3201 66.2001 49.2101 65.8301 49.2501 65.4401C49.2701 64.8301 49.3601 65.1401 49.4201 64.8301C49.4701 64.4501 49.3401 64.9101 49.3301 64.7501L49.4301 64.2901C49.4301 64.5601 49.4801 64.4101 49.5101 64.3601C49.5201 63.9701 49.6601 63.3401 49.5101 63.2201C49.5801 62.6901 49.6401 62.6901 49.6401 62.4601C49.6101 62.5401 49.5901 62.6901 49.5601 62.6901C49.6201 62.4801 49.5401 62.5901 49.5301 62.6801C49.4701 62.3501 49.7901 60.9901 49.6301 60.9201H49.6601C49.5401 60.8401 49.4301 60.9701 49.3601 60.7401L49.4101 60.5901L49.3601 60.3601C49.4001 60.2101 49.4301 60.2801 49.4401 60.2801C49.3901 59.9101 49.4501 59.3901 49.4701 58.9401L49.1501 59.4201C49.2201 59.0401 49.3801 58.3501 49.2701 58.2801L49.3801 58.0501C49.5901 57.2901 49.2901 57.5201 49.3501 57.2101L49.4701 56.8301V57.2101C49.5301 56.8301 49.5701 56.6801 49.6401 56.3701C49.6401 56.3701 49.6301 56.4001 49.6201 56.4001V56.3501C49.5601 56.3001 49.5201 56.1101 49.5201 55.8401C49.5201 55.6501 49.5201 55.4801 49.5101 55.2801C49.5101 55.0801 49.5101 54.7601 49.4501 54.3801L49.2701 54.2401C49.2201 54.0601 49.1501 53.8801 49.0501 53.7101L49.1301 53.6501C49.3001 53.8901 49.5101 54.2601 49.6001 54.7001C49.6801 55.1901 49.6501 55.5001 49.6701 55.7901H49.7101C49.7101 55.6301 49.7001 55.4501 49.6901 55.2801C49.6901 55.1301 49.6601 54.8701 49.6401 54.7401C49.6401 54.6001 49.6301 54.1901 49.7701 54.4501C49.7201 54.3601 49.6501 54.2801 49.5901 54.2001C49.2801 53.4701 48.9501 53.2101 48.6501 52.9601C48.3301 52.7301 47.9801 52.4501 47.1301 52.3401L47.2701 52.4001C46.9001 52.4001 46.7501 52.4501 46.6601 52.3701C45.9501 52.3501 45.2101 52.2901 44.7401 52.1701L44.6401 52.2801C44.4901 52.2801 44.2601 52.1001 44.1901 52.2601L43.8701 52.3101C43.6601 52.3101 43.5401 52.3701 43.3001 52.3101C43.2901 52.3101 43.2701 52.3101 43.2601 52.3001C42.7901 52.2601 43.2601 52.4101 42.7301 52.3501C42.5601 52.2701 42.5401 52.4901 42.2801 52.4701L42.0201 52.3101C41.5501 52.2201 41.4701 52.3801 40.7901 52.3801C40.4601 52.3201 40.3001 52.1801 40.5201 52.0601C40.2201 52.2101 40.3801 52.1601 39.9901 52.2301C39.9301 52.1701 39.9701 52.1601 40.0601 52.1001C39.7101 52.0301 39.8401 52.1601 39.5801 52.1501C39.5001 52.2701 39.4101 52.4501 39.3301 52.4601L39.4301 52.5001C39.1501 52.5601 38.8401 52.5901 38.5201 52.5301V52.4701L38.1801 52.5001L38.1601 52.4301L37.6601 52.4501L37.7301 52.4701C37.6101 52.4701 37.2301 52.5101 37.0101 52.4701V52.4301C36.4001 52.3001 35.8901 52.4701 35.1701 52.4801L35.2601 52.4001C35.0101 52.3201 35.1901 52.5301 34.9001 52.4901V52.3901C34.6301 52.5301 34.5501 52.3601 34.3701 52.3101L34.4501 52.4501L34.1101 52.4201C33.7401 52.3801 33.8801 52.2501 33.9401 52.1801L33.6901 52.2901L33.6401 52.1701C33.4601 52.3101 33.4601 52.1501 33.1301 52.2201C33.0901 52.1801 33.2001 52.1501 33.0601 52.1301C32.7901 52.1901 32.5301 52.2901 32.3001 52.4101C32.4401 52.3401 32.5901 52.2901 32.7501 52.2401L32.7201 52.4201C32.2901 52.6301 32.0901 52.5501 31.8101 52.7501L32.0001 52.6001C31.5201 52.8801 31.4801 52.8601 31.2001 53.0301C31.3001 52.9901 31.4401 52.9401 31.2801 53.0901C31.1701 53.2101 31.1701 53.1001 31.0501 53.2001C31.1001 53.3101 30.8901 53.6201 30.6801 53.9101C30.6701 53.9001 30.6601 53.8801 30.6601 53.8601C30.6301 53.9501 30.6401 54.0001 30.5501 54.1301L30.4701 53.9901C30.4601 54.1001 30.4701 54.2201 30.4701 54.3201C30.3701 54.5001 30.4101 54.8101 30.3301 54.7701V54.6501C30.2201 55.2301 30.2601 55.5401 30.2401 55.9101L30.1401 55.9301C30.2801 56.0401 30.0901 56.5201 30.2601 56.4901C30.1601 56.7001 30.3301 57.3001 30.1301 57.1801C30.1101 57.9001 30.3101 58.2801 30.2101 59.1601C30.0401 59.4701 30.1001 60.3201 30.0801 60.8801C30.1501 61.9701 30.2201 62.6801 30.2701 63.8001C30.0301 64.4701 30.3501 65.4801 30.2201 66.2001L30.3101 66.4001C30.1601 66.8801 30.3401 67.6101 30.2001 68.2901C30.2401 68.4601 30.2501 68.5401 30.2601 68.5801C30.2601 68.5501 30.2801 68.5001 30.3401 68.4901C30.3001 68.6801 30.3501 69.0701 30.2301 69.0401V68.9901C30.1001 68.9601 30.2701 69.5701 30.1701 69.7901L30.3001 69.6701L30.2801 70.0801C30.2801 70.0301 30.2601 69.9501 30.2601 69.9301C30.3401 70.6801 30.3701 71.3201 30.3701 71.8901C30.7201 71.8901 31.0601 71.9001 31.4101 71.9101C31.7401 71.9201 32.0701 71.9301 32.3801 71.9401C32.7901 71.9601 33.2201 71.9401 33.7501 71.8501C33.5501 71.9901 34.0401 71.7801 34.0601 71.9301C34.4401 72.1201 34.7601 71.8901 35.0601 71.8401C35.0601 71.8401 35.0601 71.8201 35.0801 71.8101L35.6201 71.8301C35.3001 72.0201 36.0101 71.6701 35.7101 71.8301C37.1101 71.9701 38.9401 71.8301 40.5701 71.8901L40.5001 71.8401C40.9101 71.8401 41.4201 71.7901 41.7401 71.8701C42.0501 71.9501 42.4201 71.7401 42.5401 71.7401C42.8801 71.6501 43.1901 71.8201 43.0501 71.8201C43.4201 71.8001 43.7601 71.6201 44.2701 71.7001C44.4401 71.8601 45.6601 71.5401 45.6701 71.7201V71.7001C46.3301 71.8301 46.9401 71.6101 47.6401 71.7301C47.6401 71.7301 47.6301 71.7401 47.6001 71.7601L49.0301 71.2001L48.6201 70.5801L47.3801 70.0801L44.0301 70.1901L41.3601 69.9901L34.8501 70.0601L34.3901 70.2001C33.9101 70.1101 33.3701 70.0901 32.8201 70.1001C32.6801 70.1001 32.5401 70.1001 32.4001 70.1001H32.3001H32.2801H32.2501C32.2501 70.1001 32.1601 70.1201 32.1301 70.1201C32.1301 70.0701 32.1501 70.0001 32.1901 69.9601H32.0701C32.0701 69.6901 32.1401 69.6401 32.1601 69.5701C32.1301 65.9601 31.9701 62.2401 32.1201 58.9901C32.2001 58.6801 32.1501 57.7201 32.2401 57.4801C32.1701 56.9501 32.1301 56.4101 32.1101 55.8601C32.1101 55.7201 32.1101 55.5901 32.1101 55.4501C32.1101 55.3101 32.1101 55.1701 32.1101 55.1201C32.1201 54.9801 32.1601 54.8401 32.2301 54.7301V54.7501C32.2601 54.6701 32.3101 54.5901 32.3601 54.5201C32.3701 54.5201 32.3901 54.5201 32.3901 54.5401C32.4401 54.4001 32.6101 54.2601 32.8001 54.2201C32.9001 54.1901 33.0001 54.1901 33.0901 54.2001C33.2601 54.2101 33.4301 54.2201 33.5801 54.2401H33.5401C37.5501 54.2701 41.2801 54.0501 45.2601 54.2201C45.7201 54.2701 46.2001 54.2901 46.7001 54.2901H47.0601C47.1201 54.2901 47.1801 54.2901 47.2301 54.3101C47.3401 54.3301 47.4601 54.3701 47.5601 54.4301C47.7701 54.5501 47.9301 54.7701 47.9801 55.0201C47.9901 55.0801 47.9901 55.1401 48.0001 55.2201C48.0001 55.3501 48.0001 55.4801 48.0001 55.6201C47.9901 55.8701 47.9701 56.1301 47.9601 56.4201C47.8401 56.8101 47.9301 61.1001 47.9901 61.4801L47.9401 61.5001Z" fill="#1B1B1B"/>
<path d="M48.1003 67.82V67.8C48.0503 67.8 48.0703 67.83 48.1003 67.82Z" fill="#1B1B1B"/>
<path d="M49.48 58.9501V58.9801L49.55 58.8701L49.48 58.9501Z" fill="#1B1B1B"/>
<path d="M49.52 64.6301C49.54 64.3701 49.52 64.3601 49.5 64.4001C49.5 64.4901 49.5 64.5701 49.52 64.6301Z" fill="#1B1B1B"/>
<path d="M48.2002 69.9102C48.2002 70.0402 48.2302 69.9902 48.2602 69.9102C48.2602 69.7702 48.2602 69.6802 48.2602 69.6802C48.2502 69.7402 48.2202 69.8502 48.2102 69.9102H48.2002Z" fill="#1B1B1B"/>
<path d="M48.8799 69.36L48.9199 69.4C48.9199 69.32 48.8999 69.32 48.8799 69.36Z" fill="#1B1B1B"/>
<path d="M42.5701 38.9301C42.5701 38.9101 42.5701 38.8901 42.5801 38.8701L42.5601 38.9301H42.5701Z" fill="#333333"/>
<path d="M40.0503 39.1501C40.0503 39.1501 40.0403 39.1501 40.0303 39.1601C40.0303 39.1601 40.0403 39.1601 40.0503 39.1501Z" fill="#333333"/>
<path d="M33.76 39.2302C33.76 39.2302 33.76 39.2302 33.75 39.2202V39.2402L33.76 39.2302Z" fill="#333333"/>
<path d="M33.7803 39.1902C33.7803 39.1902 33.7803 39.2202 33.7603 39.2302C33.7903 39.2602 33.8103 39.2702 33.8403 39.2502C33.8403 39.2102 33.7903 39.2202 33.7803 39.1902Z" fill="#333333"/>
<path d="M49.7803 40.05C49.7803 40.05 49.7803 40.04 49.7803 40.03L49.7603 40.07C49.7603 40.07 49.7803 40.06 49.7803 40.05Z" fill="#333333"/>
<path d="M46.0704 39.3701C46.0704 39.3701 46.0704 39.3601 46.0704 39.3501C46.0504 39.3301 45.9804 39.3301 45.9004 39.3301V39.4001L46.0604 39.3701H46.0704Z" fill="#333333"/>
<path d="M47.5902 41.0601L47.4402 40.9101C47.9102 40.8401 48.1402 40.9901 48.5402 40.8701L48.5202 40.9001C48.5802 40.9301 48.6102 40.6101 49.2702 41.0101C49.2702 41.0101 49.2902 40.9901 49.3402 41.0301L49.2302 40.9401C49.3002 40.9001 49.3602 40.8301 49.4502 40.8201C49.4702 40.8401 49.4802 40.8701 49.4802 40.8901L49.7002 40.8701L49.7702 40.9601C49.8402 40.9101 49.8102 40.7101 49.9902 40.8201C49.9202 40.6801 50.0802 40.7401 50.0602 40.6701C50.0602 40.6901 50.0902 40.7101 50.1102 40.7401C50.2202 40.7201 50.4202 40.6901 50.4702 40.6201C50.4702 40.6201 50.0502 40.3301 49.9402 40.1801C50.0902 40.2201 49.9802 40.1601 49.9502 40.1201V40.1501C49.8502 40.1201 49.8502 40.0301 49.8002 40.0101V40.0301C49.8002 40.0301 49.8002 40.0401 49.8002 40.0501C49.8002 40.0701 49.8002 40.0801 49.7702 40.0801C49.7702 40.0801 49.6702 40.0701 49.6402 40.0601V39.9901C49.5702 40.1301 49.1902 39.7801 49.1002 39.7801C49.0102 39.6901 48.9002 39.8001 48.7802 39.7601C48.6002 39.7401 48.6902 39.6501 48.6002 39.5901C48.4902 39.5401 48.6202 39.6701 48.5802 39.6801L48.4402 39.5801C48.5202 39.5801 48.4802 39.5301 48.4602 39.5001C48.3402 39.4901 48.1602 39.3501 48.1202 39.5001C47.9602 39.4301 47.9602 39.3701 47.8902 39.3701C47.9102 39.4001 47.9602 39.4201 47.9602 39.4501C47.9002 39.3901 47.9302 39.4701 47.9602 39.4801C47.8602 39.5401 47.4602 39.2201 47.4402 39.3801V39.3501C47.4202 39.4701 47.4502 39.5801 47.3902 39.6501L47.3502 39.6001L47.2802 39.6501C47.2802 39.6501 47.2602 39.5801 47.2602 39.5701C47.1502 39.6201 47.0002 39.5601 46.8602 39.5401L47.0002 39.8601C46.8902 39.7901 46.6802 39.6301 46.6602 39.7401L46.5902 39.6301C46.3602 39.4201 46.4302 39.7201 46.3402 39.6601L46.2302 39.5401H46.3402C46.2302 39.4801 46.1802 39.4401 46.0902 39.3701C46.0902 39.3701 46.1002 39.3801 46.1002 39.3901H46.0802C46.0702 39.4501 46.0102 39.4901 45.9302 39.4901C45.8202 39.4701 45.7302 39.5601 45.5502 39.4401L45.5002 39.5601L45.3602 39.4901V39.3901C45.4902 39.3901 45.7402 39.3601 45.9102 39.3501V39.3101C45.8102 39.3101 45.7002 39.3501 45.6302 39.3401C45.6002 39.3201 45.5102 39.2201 45.5702 39.1601L45.5102 39.2501C45.1702 39.2601 45.1702 39.2701 44.8202 39.1601L44.8502 39.2101C44.7802 39.2401 44.7102 39.2701 44.6902 39.1901C44.4802 39.1701 44.2602 39.1101 44.1202 38.9901L44.0902 39.1001C44.0902 39.1001 43.9802 38.9201 43.9602 39.0801L43.8602 39.1301C43.8002 39.1301 43.7602 39.1901 43.6902 39.1301C43.6902 39.1301 43.6902 39.1301 43.6802 39.1201C43.5402 39.0701 43.6802 39.2201 43.5202 39.1601C43.4702 39.0801 43.4602 39.3001 43.3902 39.2801L43.3102 39.1201C43.1702 39.0301 43.1502 39.1901 42.9402 39.1901C42.8402 39.1301 42.8002 38.9901 42.8602 38.8701C42.7702 39.0201 42.8202 38.9701 42.7002 39.0401C42.6802 38.9801 42.7002 38.9701 42.7202 38.9101C42.6202 38.8401 42.6602 38.9701 42.5802 38.9601C42.5602 39.0801 42.5302 39.2601 42.5102 39.2701L42.5402 39.3101C42.4602 39.3701 42.3702 39.4001 42.2702 39.3401V39.2801L42.1702 39.3101V39.2401L42.0202 39.2601L42.0402 39.2801C42.0402 39.2801 41.8902 39.3201 41.8302 39.2801V39.2401C41.6502 39.1101 41.5002 39.2801 41.2802 39.2901L41.3102 39.2101C41.2402 39.1301 41.2902 39.3401 41.2002 39.3001V39.2001C41.1202 39.3401 41.1002 39.1701 41.0402 39.1201L41.0602 39.2601L40.9602 39.2301C40.8502 39.1901 40.8902 39.0601 40.9102 38.9901L40.8402 39.1001V38.9801C40.7702 39.1201 40.7702 38.9601 40.6802 39.0301C40.6802 38.9801 40.7002 38.9601 40.6602 38.9401L40.5002 39.1101L40.6002 39.0401V39.2101C40.4902 39.3401 40.4502 39.1901 40.3802 39.2401L40.4302 39.1901C40.3102 39.2301 40.3102 39.1601 40.2402 39.1201C40.2602 39.1501 40.2902 39.2001 40.2402 39.2201C40.2102 39.2201 40.2202 39.1601 40.1902 39.1401C40.1902 39.2601 40.1002 39.3201 40.0202 39.2601C40.0202 39.2401 40.0202 39.2301 40.0202 39.2201C40.0002 39.2401 39.9902 39.2701 39.9602 39.2401L39.9802 39.1101L39.9202 39.2301C39.9202 39.2301 39.8102 39.2901 39.8202 39.2001L39.8402 39.1701L39.5202 39.1401V39.0401C39.4802 39.1801 39.3402 38.9901 39.3502 39.1601C39.2902 39.0601 39.1102 39.2301 39.1502 39.0301C38.9402 39.0101 38.8202 39.2101 38.5602 39.1101C38.4702 38.9401 38.2202 39.0001 38.0502 38.9801C37.7302 39.0501 37.5202 39.1101 37.1802 39.1701C36.9802 38.9301 36.6802 39.2501 36.4702 39.1201L36.4102 39.2101C36.2702 39.0601 36.0502 39.2401 35.8502 39.1001C35.8002 39.1401 35.7802 39.1501 35.7602 39.1601C35.7602 39.1601 35.7802 39.1801 35.7902 39.2401C35.7302 39.2001 35.6202 39.2501 35.6302 39.1301H35.6402C35.6402 39.0001 35.4702 39.1701 35.4002 39.0701L35.4302 39.2001L35.3202 39.1801L35.3502 39.1601C34.8802 39.4401 34.6702 39.0401 34.2202 39.3001C34.2802 39.1601 34.1302 39.3701 34.1302 39.2201C34.0202 39.0301 33.9202 39.2601 33.8302 39.3101C33.8302 39.3101 33.8302 39.3301 33.8302 39.3401L33.6702 39.3201C33.7702 39.1301 33.5602 39.4801 33.6402 39.3201C33.2202 39.1801 32.6802 39.3201 32.2002 39.2601L32.2202 39.3101C32.1002 39.3101 31.9502 39.3601 31.8502 39.2801C31.7602 39.2001 31.6502 39.4101 31.6102 39.4101C31.5102 39.5001 31.4202 39.3301 31.4602 39.3301C31.3502 39.3501 31.2502 39.5301 31.1002 39.4501C31.0502 39.2901 30.6902 39.6101 30.6802 39.4301V39.4501C30.4902 39.3201 30.3002 39.5401 30.0902 39.4201C30.0902 39.4201 30.0902 39.4101 30.1002 39.3901L29.6802 39.9501L29.8002 40.5701L30.1702 41.0701L31.1702 40.9601L31.9602 41.1601L33.8902 41.0901L34.0302 40.9501C34.4102 41.1901 34.9002 40.9101 35.3102 41.0901V40.9701C35.4302 40.9701 35.4302 41.0401 35.4502 41.0601C36.5202 41.0301 37.6302 40.8701 38.5902 41.0201C38.6802 41.1001 38.9702 41.0501 39.0402 41.1401C39.3502 40.9901 39.6902 41.0001 40.0002 41.0101H39.9902H40.1402C40.1402 41.0101 40.1402 41.0301 40.1402 41.0401C40.3102 40.9301 40.5702 41.0401 40.7702 41.0801H40.7602C41.9502 41.1101 43.0602 40.8901 44.2402 41.0601C44.7902 41.2501 45.4302 40.9901 46.0602 41.1501C46.1802 41.2701 47.4502 41.1801 47.5602 41.1201L47.5902 41.0601Z" fill="#333333"/>
<path d="M46.8301 39.5202H46.8401L46.8101 39.4502L46.8301 39.5202Z" fill="#333333"/>
<path d="M48.5203 39.4802C48.4403 39.4602 48.4403 39.4802 48.4503 39.5002C48.4803 39.5002 48.5003 39.5002 48.5203 39.4802Z" fill="#333333"/>
<path d="M50.0803 40.8C50.0803 40.8 50.1003 40.77 50.0803 40.74C50.0403 40.74 50.0103 40.74 50.0103 40.74C50.0303 40.75 50.0503 40.78 50.0803 40.79V40.8Z" fill="#333333"/>
<path d="M49.92 40.1201V40.0801C49.92 40.0801 49.91 40.1001 49.92 40.1201Z" fill="#333333"/>
<path d="M42.5701 44.82C42.5701 44.8 42.5701 44.78 42.5801 44.76L42.5601 44.82H42.5701Z" fill="#333333"/>
<path d="M40.0503 45.04C40.0503 45.04 40.0403 45.04 40.0303 45.05C40.0303 45.05 40.0403 45.05 40.0503 45.04Z" fill="#333333"/>
<path d="M33.76 45.1201C33.76 45.1201 33.76 45.1201 33.75 45.1101V45.1301L33.76 45.1201Z" fill="#333333"/>
<path d="M33.7803 45.0801C33.7803 45.0801 33.7803 45.1101 33.7603 45.1201C33.7903 45.1501 33.8103 45.1601 33.8403 45.1401C33.8403 45.1001 33.7903 45.1101 33.7803 45.0801Z" fill="#333333"/>
<path d="M49.7803 45.9399C49.7803 45.9399 49.7803 45.9299 49.7803 45.9199L49.7603 45.9599C49.7603 45.9599 49.7803 45.9499 49.7803 45.9399Z" fill="#333333"/>
<path d="M46.0704 45.26C46.0704 45.26 46.0704 45.25 46.0704 45.24C46.0504 45.22 45.9804 45.22 45.9004 45.22V45.29L46.0604 45.26H46.0704Z" fill="#333333"/>
<path d="M47.5902 46.94L47.4402 46.79C47.9102 46.72 48.1402 46.87 48.5402 46.75L48.5202 46.78C48.5802 46.81 48.6102 46.49 49.2702 46.89C49.2702 46.89 49.2902 46.87 49.3402 46.91L49.2302 46.82C49.3002 46.78 49.3602 46.71 49.4502 46.7C49.4702 46.72 49.4802 46.75 49.4802 46.77L49.7002 46.75L49.7702 46.84C49.8402 46.79 49.8102 46.59 49.9902 46.7C49.9202 46.56 50.0802 46.62 50.0602 46.55C50.0602 46.57 50.0902 46.59 50.1102 46.62C50.2202 46.6 50.4202 46.57 50.4702 46.5C50.4702 46.5 50.0502 46.21 49.9402 46.06C50.0902 46.1 49.9802 46.04 49.9502 46V46.03C49.8502 46 49.8502 45.91 49.8002 45.89V45.91C49.8002 45.91 49.8002 45.92 49.8002 45.93C49.8002 45.95 49.8002 45.96 49.7702 45.96C49.7702 45.96 49.6702 45.95 49.6402 45.94V45.87C49.5702 46.01 49.1902 45.66 49.1002 45.66C49.0102 45.57 48.9002 45.68 48.7802 45.64C48.6002 45.62 48.6902 45.53 48.6002 45.47C48.4902 45.42 48.6202 45.55 48.5802 45.56L48.4402 45.46C48.5202 45.46 48.4802 45.41 48.4602 45.38C48.3402 45.37 48.1602 45.23 48.1202 45.38C47.9602 45.31 47.9602 45.25 47.8902 45.25C47.9102 45.28 47.9602 45.3 47.9602 45.33C47.9002 45.27 47.9302 45.35 47.9602 45.36C47.8602 45.42 47.4602 45.1 47.4402 45.26V45.23C47.4202 45.35 47.4502 45.46 47.3902 45.53L47.3502 45.48L47.2802 45.53C47.2802 45.53 47.2602 45.46 47.2602 45.45C47.1502 45.5 47.0002 45.44 46.8602 45.42L47.0002 45.74C46.8902 45.67 46.6802 45.51 46.6602 45.62L46.5902 45.51C46.3602 45.3 46.4302 45.6 46.3402 45.54L46.2302 45.42H46.3402C46.2302 45.36 46.1802 45.32 46.0902 45.25C46.0902 45.25 46.1002 45.26 46.1002 45.27H46.0802C46.0702 45.33 46.0102 45.37 45.9302 45.37C45.8202 45.35 45.7302 45.44 45.5502 45.32L45.5002 45.44L45.3602 45.37V45.27C45.4902 45.27 45.7402 45.24 45.9102 45.23V45.19C45.8102 45.19 45.7002 45.23 45.6302 45.22C45.6002 45.2 45.5102 45.1 45.5702 45.04L45.5102 45.13C45.1702 45.14 45.1702 45.15 44.8202 45.04L44.8502 45.09C44.7802 45.12 44.7102 45.15 44.6902 45.07C44.4802 45.05 44.2602 44.99 44.1202 44.87L44.0902 44.98C44.0902 44.98 43.9802 44.8 43.9602 44.96L43.8602 45.01C43.8002 45.01 43.7602 45.07 43.6902 45.01C43.6902 45.01 43.6902 45.01 43.6802 45C43.5402 44.95 43.6802 45.1 43.5202 45.04C43.4702 44.96 43.4602 45.18 43.3902 45.16L43.3102 45C43.1702 44.91 43.1502 45.07 42.9402 45.07C42.8402 45.01 42.8002 44.87 42.8602 44.75C42.7702 44.9 42.8202 44.85 42.7002 44.92C42.6802 44.86 42.7002 44.85 42.7202 44.79C42.6202 44.72 42.6602 44.85 42.5802 44.84C42.5602 44.96 42.5302 45.14 42.5102 45.15L42.5402 45.19C42.4602 45.25 42.3702 45.28 42.2702 45.22V45.16L42.1702 45.19V45.12L42.0202 45.14L42.0402 45.16C42.0402 45.16 41.8902 45.2 41.8302 45.16V45.12C41.6502 44.99 41.5002 45.16 41.2802 45.17L41.3102 45.09C41.2402 45.01 41.2902 45.22 41.2002 45.18V45.08C41.1202 45.22 41.1002 45.05 41.0402 45L41.0602 45.14L40.9602 45.11C40.8502 45.07 40.8902 44.94 40.9102 44.87L40.8402 44.98V44.86C40.7702 45 40.7702 44.84 40.6802 44.91C40.6802 44.86 40.7002 44.84 40.6602 44.82L40.5002 44.99L40.6002 44.92V45.09C40.4902 45.22 40.4502 45.07 40.3802 45.12L40.4302 45.07C40.3102 45.11 40.3102 45.04 40.2402 45C40.2602 45.03 40.2902 45.08 40.2402 45.1C40.2102 45.1 40.2202 45.04 40.1902 45.02C40.1902 45.14 40.1002 45.2 40.0202 45.14C40.0202 45.12 40.0202 45.11 40.0202 45.1C40.0002 45.12 39.9902 45.15 39.9602 45.12L39.9802 44.99L39.9202 45.11C39.9202 45.11 39.8102 45.17 39.8202 45.08L39.8402 45.05L39.5202 45.02V44.92C39.4802 45.06 39.3402 44.87 39.3502 45.04C39.2902 44.94 39.1102 45.11 39.1502 44.91C38.9402 44.89 38.8202 45.09 38.5602 44.99C38.4702 44.82 38.2202 44.88 38.0502 44.86C37.7302 44.93 37.5202 44.99 37.1802 45.05C36.9802 44.81 36.6802 45.13 36.4702 45L36.4102 45.09C36.2702 44.94 36.0502 45.12 35.8502 44.98C35.8002 45.02 35.7802 45.03 35.7602 45.04C35.7602 45.04 35.7802 45.06 35.7902 45.12C35.7302 45.08 35.6202 45.13 35.6302 45.01H35.6402C35.6402 44.88 35.4702 45.05 35.4002 44.95L35.4302 45.08L35.3202 45.06L35.3502 45.04C34.8802 45.32 34.6702 44.92 34.2202 45.18C34.2802 45.04 34.1302 45.25 34.1302 45.1C34.0202 44.91 33.9202 45.14 33.8302 45.19C33.8302 45.19 33.8302 45.21 33.8302 45.22L33.6702 45.2C33.7702 45.01 33.5602 45.36 33.6402 45.2C33.2202 45.06 32.6802 45.2 32.2002 45.14L32.2202 45.19C32.1002 45.19 31.9502 45.24 31.8502 45.16C31.7602 45.08 31.6502 45.29 31.6102 45.29C31.5102 45.38 31.4202 45.21 31.4602 45.21C31.3502 45.23 31.2502 45.41 31.1002 45.33C31.0502 45.17 30.6902 45.49 30.6802 45.31V45.33C30.4902 45.2 30.3002 45.42 30.0902 45.3C30.0902 45.3 30.0902 45.29 30.1002 45.27L29.6802 45.83L29.8002 46.45L30.1702 46.95L31.1702 46.84L31.9602 47.04L33.8902 46.97L34.0302 46.83C34.4102 47.07 34.9002 46.79 35.3102 46.97V46.85C35.4302 46.85 35.4302 46.92 35.4502 46.94C36.5202 46.91 37.6302 46.75 38.5902 46.9C38.6802 46.98 38.9702 46.93 39.0402 47.02C39.3502 46.87 39.6902 46.88 40.0002 46.89H39.9902H40.1402C40.1402 46.89 40.1402 46.91 40.1402 46.92C40.3102 46.81 40.5702 46.92 40.7702 46.96H40.7602C41.9502 46.99 43.0602 46.77 44.2402 46.94C44.7902 47.13 45.4302 46.87 46.0602 47.03C46.1802 47.15 47.4502 47.06 47.5602 47L47.5902 46.94Z" fill="#333333"/>
<path d="M46.8301 45.4101H46.8401L46.8101 45.3401L46.8301 45.4101Z" fill="#333333"/>
<path d="M48.5203 45.3701C48.4403 45.3501 48.4403 45.3701 48.4503 45.3901C48.4803 45.3901 48.5003 45.3901 48.5203 45.3701Z" fill="#333333"/>
<path d="M50.0803 46.6899C50.0803 46.6899 50.1003 46.6599 50.0803 46.6299C50.0403 46.6299 50.0103 46.6299 50.0103 46.6299C50.0303 46.6399 50.0503 46.6699 50.0803 46.6799V46.6899Z" fill="#333333"/>
<path d="M49.92 46V45.96C49.92 45.96 49.91 45.98 49.92 46Z" fill="#333333"/>
</g>
<defs>
<clipPath id="clip0_28097_42322">
<rect width="63.75" height="64.3" fill="white" transform="translate(8 8)"/>
</clipPath>
</defs>
</svg>
