<svg width="80" height="80" viewBox="0 0 80 80" fill="none" xmlns="http://www.w3.org/2000/svg">
<g clip-path="url(#clip0_28097_42288)">
<path d="M27.5376 66.3546H11.6353V51.8422C11.6353 50.6342 12.6209 49.6558 13.8378 49.6558H25.335C26.5519 49.6558 27.5376 50.6342 27.5376 51.8422V66.3546Z" fill="#FE6F0F"/>
<path d="M47.5141 66.3548H31.6118V39.079C31.6118 37.871 32.5975 36.8926 33.8144 36.8926H45.3116C46.5285 36.8926 47.5141 37.871 47.5141 39.079V66.3548Z" fill="#FE6F0F"/>
<path d="M67.4912 66.3548H51.5889V22.1178C51.5889 20.9098 52.5745 19.9314 53.7914 19.9314H65.2887C66.5056 19.9314 67.4912 20.9098 67.4912 22.1178V66.3548Z" fill="#FE6F0F"/>
<path d="M18.4738 67.2128L18.3086 67.1472C18.3086 67.18 18.3526 67.2073 18.4738 67.2128Z" fill="#1A1A1A"/>
<path d="M28.4238 53.269C28.4238 53.269 28.4348 53.2964 28.4403 53.3073C28.4348 53.28 28.4293 53.269 28.4238 53.269Z" fill="#1A1A1A"/>
<path d="M13.144 64.9068H13.1498L13.1612 64.8843L13.144 64.9068Z" fill="#1A1A1A"/>
<path d="M20.4565 65.0922C18.2705 65.0102 17.6923 64.6877 15.4292 64.8189C14.8896 64.8079 14.3335 64.8189 13.7773 64.8407L13.3644 64.8571H13.2597C13.2597 64.8571 13.2542 64.8626 13.2487 64.8681L13.2322 64.879C13.2322 64.879 13.1771 64.9009 13.1496 64.9118C13.089 64.9828 13.0285 65.0102 12.9844 65.0266C12.9514 64.9555 13.034 64.8517 12.8853 64.7915C12.9349 64.7697 12.9789 64.7751 13.0285 64.6767C12.9569 64.4745 12.9073 64.234 12.9844 64.0317L13.0285 64.0427C12.9183 63.742 12.9844 63.3977 12.9294 63.2501L12.9734 63.261L12.9569 62.8948L13.0175 62.9604C12.9018 62.4302 12.8963 61.889 12.9459 61.408L12.7752 61.4463C12.9679 60.4187 12.61 60.047 12.8413 59.1177L12.8853 59.1287C12.4283 57.9589 13.1937 57.2757 12.7642 56.0731C12.8192 56.2262 12.8523 56.0075 12.8963 56.0185C12.8468 55.4609 12.8192 54.8706 12.4833 54.8597C12.4833 54.4552 12.588 54.5317 12.7201 54.477C12.5714 54.477 12.5109 54.1272 12.4999 53.8102L12.5549 53.9578L12.5054 53.0504L12.2245 53.2308C12.3071 52.7498 12.5659 53.1105 12.4999 52.6459H12.2686C12.2906 52.3289 12.3897 52.0337 12.5054 51.815C12.6265 51.6565 12.7807 51.5472 12.9183 51.4488C13.067 51.181 13.3038 50.9514 13.6121 50.8421C13.6892 50.8148 13.7663 50.7984 13.8599 50.782L14.3775 50.7492C14.7244 50.7273 15.0658 50.7054 15.4127 50.6836C16.7838 50.6016 18.1328 50.5524 19.3883 50.7546L19.4984 50.9295C19.548 51.181 20.1922 50.5579 20.2858 50.7874L20.5777 50.6726C20.6603 50.7164 20.831 50.7656 20.6878 50.8257C20.9576 50.8366 20.9631 50.7929 21.1558 50.7164L21.4477 50.8749C22.5104 50.9951 23.4134 50.6945 24.5312 50.7546C24.6964 50.7929 24.8836 50.8257 25.0874 50.8476C25.1755 50.8585 25.3186 50.864 25.3737 50.8749C25.4232 50.8858 25.4728 50.8913 25.5169 50.9077C25.7041 50.9514 25.9023 51.0389 26.073 51.181C26.2492 51.3231 26.3813 51.5199 26.4529 51.744L26.475 51.8315C26.475 51.8315 26.486 51.9353 26.497 51.9845C26.508 52.0938 26.519 52.2031 26.5355 52.307C26.5576 52.5147 26.5851 52.7115 26.6016 52.8973C26.9815 54.9307 25.9684 57.2975 26.4034 59.3801C26.3648 59.4457 26.4474 59.6261 26.475 59.6206L26.4364 61.5283C26.4364 61.5283 26.3373 70.766 28.4462 63.7475L28.5013 63.7967C28.6334 62.7527 28.6665 62.0968 28.3857 61.3752C28.7271 61.2604 28.4187 60.5171 28.5343 60.2765L28.5619 60.2984C28.2976 59.6643 28.7821 58.9865 28.5453 58.3743C28.5729 58.3962 28.6665 58.4126 28.672 58.5547C28.6279 58.1065 28.5508 57.4998 28.7546 57.4615C28.6995 56.3956 28.7931 54.9034 28.4793 54.2201L28.5343 54.2693C28.3196 53.8812 28.5013 53.7664 28.3912 53.3292C28.4187 53.3073 28.4297 53.2745 28.4407 53.28C28.3361 53.0668 28.3251 52.7552 28.3306 52.46C28.3306 52.3125 28.3361 52.1649 28.3416 52.0337C28.3416 51.9681 28.3416 51.908 28.3361 51.8478C28.3306 51.7713 28.3196 51.7057 28.3031 51.6456L28.4352 51.6073C28.3912 51.2138 28.2755 50.8257 28.0828 50.4813C28.1434 50.618 28.1874 50.7546 28.226 50.8968C28.0277 50.8804 28.0222 50.6726 27.9286 50.372C27.846 50.0768 27.6478 49.6778 27.2348 49.5029C26.932 49.2351 26.4639 49.2077 26.073 49.2788C25.6765 49.3389 25.3407 49.4974 25.0543 49.4154C24.768 49.5849 25.3076 49.1421 24.8781 49.2733C24.8616 49.0875 25.0763 49.1531 24.9662 49.0055C24.5477 49.0929 24.2779 48.8142 23.7603 48.9399L23.7383 48.7923C23.061 49.0601 22.4608 48.601 22.0148 48.8524C21.3155 48.9727 21.5468 48.4151 20.8199 48.7049L20.5391 48.5081C20.2308 48.4753 20.3189 48.7486 19.972 48.6557C19.994 48.5299 19.537 48.5573 19.7407 48.437C18.9643 48.2402 18.1604 48.7158 17.1307 48.3824C16.9049 48.6283 16.3928 48.4807 16.2221 48.6611C16.1946 48.5573 15.187 48.6447 15.7651 48.4152C15.8147 48.3988 15.9028 48.3987 15.8973 48.4425L15.9689 48.3004C15.3852 48.0271 14.9061 48.4479 14.3225 48.4097C14.4932 48.4589 14.7244 48.4425 14.5702 48.5409L14.0306 48.519L14.1407 48.3987L13.9425 48.3824L13.8434 48.3714H13.6837C13.469 48.3605 13.2542 48.3824 13.045 48.4206C13.1166 48.4534 13.1826 48.4917 13.2487 48.5299C12.9459 48.5463 12.7201 48.5354 12.4888 48.5737C12.2686 48.6174 12.0318 48.7158 11.8006 49.0055C11.6188 49.2733 12.3787 48.8524 11.8942 49.246C11.5528 49.4318 11.1508 49.7489 10.8369 50.1916C10.5176 50.6289 10.3138 51.2028 10.2753 51.7385C10.3634 51.6893 10.4019 51.7385 10.424 51.8315C10.446 51.9025 10.457 51.9845 10.4735 52.0829L10.3249 52.1048C10.5286 52.8099 9.99998 52.3617 10.1652 53.0613L10.0605 53.0012L10.3689 53.187C10.6607 53.8211 10.0605 53.5259 10.4625 54.2311C10.4405 53.9523 10.7874 54.0999 10.7213 54.4442L10.5781 54.3568C10.6057 54.5481 10.6662 54.6082 10.6387 54.7339C10.5616 54.6192 10.4295 54.6738 10.457 54.9526L10.2808 54.7667L10.5451 55.2915C10.3909 55.696 10.5836 56.341 10.3854 56.5049C10.3854 56.5049 10.2863 57.3795 10.5066 57.5763C10.3689 57.4014 10.3193 57.8824 10.1542 57.7457C10.3083 57.9699 10.435 58.6422 10.2698 58.9046L10.2533 58.8554C10.0826 59.8447 10.4845 60.5444 10.2808 61.4354C10.4515 61.3971 10.3579 61.8617 10.5781 61.7469C10.7929 62.6652 10.1321 63.4195 10.8094 63.753C10.848 64.1684 10.6497 64.2449 10.6167 64.4636L10.5836 64.3652C10.5892 64.4636 10.5947 64.551 10.6002 64.633C10.6002 64.7423 10.6112 64.8353 10.6167 64.9282C10.6222 65.1578 10.6277 65.3491 10.6332 65.5349C10.6387 65.9011 10.6332 66.2291 10.6332 66.7101C10.6718 66.9616 10.7984 66.9889 10.881 67.131C11.0902 67.0763 11.305 67.0436 11.5913 67.0709C11.2499 67.1966 11.5858 67.1693 11.8776 67.1693C11.6794 67.1911 11.5803 67.2349 11.9437 67.3169C12.0208 67.2786 12.1199 67.2567 12.208 67.2349C12.208 67.2458 12.219 67.2513 12.208 67.2677C12.7366 67.2239 12.6485 67.1857 12.4283 67.1693C12.4448 67.1474 12.4338 67.1255 12.3787 67.0927C12.599 67.1747 12.9624 67.1693 13.2597 67.1747C13.469 67.1747 13.6232 67.1911 13.6452 67.295C14.6308 67.2458 15.3301 67.0272 16.1506 66.9452C16.2442 67.0545 16.0514 67.1529 15.8147 67.1966L16.3928 67.1583C16.3928 67.3169 16.0625 67.2513 15.8808 67.2786C16.5746 67.5355 17.3069 67.0217 18.1163 67.2567L18.287 67.131L18.3366 67.1529C18.3366 67.0873 18.5183 66.9944 18.6339 66.978C18.7496 67.1146 18.6229 67.295 19.0249 67.2895C19.3442 67.4207 19.9279 67.2239 20.3409 67.1474C20.1151 67.1255 20.1867 67.049 20.2858 66.9998C20.4841 66.9998 20.5997 67.131 20.7594 67.0709L20.7814 67.2567C20.7043 67.0818 21.3045 67.0654 21.3816 66.9944C21.4972 67.131 21.0677 67.1146 21.0182 67.2185C21.8221 67.2021 21.4201 67.2075 22.2241 67.1911C22.6536 67.049 22.147 67.0162 22.3507 66.8522C22.7306 66.814 23.0996 66.6883 23.5346 66.7976L23.3969 66.6336C24.1072 66.5079 24.5367 66.5243 25.0158 66.6937C30.3184 65.3545 26.1336 64.8626 26.1336 64.8626C24.0467 64.4964 22.9674 64.9774 20.4841 65.1086" fill="#1A1A1A"/>
<path d="M34.784 67.2128L34.5527 67.1472C34.5527 67.18 34.6133 67.2073 34.784 67.2128Z" fill="#1A1A1A"/>
<path d="M48.4067 47.9778C48.4067 47.9778 48.4178 48.016 48.4233 48.0324C48.4178 47.9942 48.4122 47.9832 48.4067 47.9778Z" fill="#1A1A1A"/>
<path d="M33.0767 60.6592V60.6701L33.0932 60.7302L33.0767 60.6592Z" fill="#1A1A1A"/>
<path d="M37.5697 65.0921C36.2316 65.0538 35.3231 64.9773 34.4586 64.9062C34.0511 64.8789 33.6601 64.8516 33.2307 64.8188C33.2141 64.7969 33.2141 64.786 33.1921 64.7914C33.1921 64.786 33.1811 64.786 33.1646 64.775V64.7641V64.7586V64.6931C33.1646 64.5017 33.1646 64.3104 33.1646 64.1191C33.1591 63.7365 33.1481 63.3484 33.1426 62.9603C33.1205 62.1896 33.0985 61.4189 33.0765 60.681C32.8232 59.9813 33.0765 58.746 32.8617 57.9206L33.0049 57.5981C32.9333 57.3138 32.8838 56.9804 32.9608 56.6907L32.9994 56.7071C32.8893 56.2808 32.9553 55.7997 32.9003 55.592L32.9388 55.6084L32.9223 55.0946L32.9829 55.1821C32.8672 54.4387 32.8617 53.6734 32.9113 53.0011L32.7406 53.0558C32.9333 51.6127 32.5754 51.088 32.8067 49.787L32.8507 49.8035C32.3937 48.1582 33.1591 47.2071 32.7296 45.5126C32.7846 45.7258 32.8177 45.4197 32.8617 45.436C32.8122 44.6544 32.7846 43.8236 32.4488 43.8126C32.4488 43.2442 32.5534 43.348 32.6855 43.2769C32.5369 43.2769 32.4763 42.785 32.4653 42.3422L32.5203 42.5445L32.4708 41.2709L32.19 41.5223C32.2726 40.85 32.5313 41.3529 32.4653 40.7079L32.234 40.7188C32.256 40.2542 32.3551 39.8825 32.4708 39.5163L32.5589 39.243L32.6029 39.1009C32.6195 39.0681 32.636 39.0462 32.6525 39.0189C32.7131 38.9205 32.7846 38.833 32.8617 38.751C32.9443 38.5543 33.0875 38.3793 33.2692 38.2536C33.3573 38.188 33.4619 38.1443 33.5665 38.1115C33.6161 38.0896 33.6767 38.0842 33.7317 38.0732L33.8198 38.0623H34.0015C34.9707 38.0131 35.9398 37.9694 36.9034 37.9257C38.8306 37.8437 40.7303 37.7945 42.4868 37.9967L42.641 38.1716C42.7071 38.4231 43.6101 37.7999 43.7478 38.0295L44.1552 37.9147C44.2709 37.9585 44.5132 38.0076 44.3094 38.0623C44.6894 38.0732 44.6949 38.0295 44.9702 37.953L45.1739 38.0295C45.2345 38.0568 45.3281 38.0787 45.3446 38.1115C45.6695 38.1826 45.9448 38.2919 46.1761 38.5379C46.2807 38.6581 46.3743 38.8112 46.4073 38.9861C46.4239 39.0353 46.4294 39.2594 46.4294 39.4398C46.4294 39.6256 46.4294 39.8169 46.4239 40.0137C46.099 41.8886 46.3963 45.4142 46.5725 47.4476C46.9525 50.3063 45.9393 53.6242 46.3743 56.5541C46.3358 56.647 46.4183 56.893 46.4514 56.893L46.4128 59.5713C46.4128 59.5713 46.3137 72.5478 48.4227 62.6925L48.4777 62.7581C48.6154 61.2932 48.6429 60.3694 48.3621 59.3582C48.7035 59.1996 48.3951 58.1556 48.5053 57.8113L48.5328 57.8441C48.2685 56.9531 48.753 56.002 48.5163 55.1438C48.5438 55.1766 48.6374 55.1985 48.6429 55.3953C48.5989 54.7667 48.5218 53.9085 48.7255 53.8647C48.676 52.367 48.7641 50.2735 48.4502 49.3115L48.5053 49.3771C48.2905 48.8305 48.4722 48.6665 48.3621 48.0543C48.3896 48.0215 48.4006 47.9778 48.4116 47.9832C48.1969 47.3874 48.3786 46.245 48.2905 45.7585L48.4227 45.7258L48.3896 44.5396L48.3621 44.9824C47.9987 44.8293 48.5878 44.0859 48.3566 43.2223C48.4006 42.4188 47.6022 41.5879 47.7784 40.7516C47.6077 40.3526 48.0537 41.1014 47.9216 40.5056C48.1088 40.4838 48.0427 40.7844 48.1914 40.6314C48.1473 40.3362 48.1914 40.0957 48.2409 39.8388C48.263 39.7076 48.285 39.5764 48.2905 39.4288C48.2905 39.3578 48.2905 39.2812 48.2905 39.1993C48.2905 39.161 48.285 39.1173 48.2795 39.0735C48.2685 39.0189 48.263 38.9587 48.252 38.8986L48.3951 38.8494C48.2134 38.2099 48.0042 37.6524 47.6903 37.1768C47.3765 36.7122 46.9359 36.3569 46.4844 36.3077C45.8402 36.1328 45.6309 36.0508 45.3887 35.9415C45.1794 35.8485 45.0363 35.783 44.5132 35.9251L44.1167 35.7283C43.6817 35.6955 43.8028 35.9743 43.3183 35.8759C43.3458 35.7502 42.7071 35.7775 42.9879 35.6572C41.8921 35.4605 40.7633 35.936 39.3207 35.6026C39.0068 35.8431 38.28 35.701 38.0487 35.8813C38.0102 35.7775 36.595 35.8649 37.41 35.6354C37.4816 35.619 37.6027 35.619 37.5972 35.6627L37.6963 35.5206C36.8759 35.2473 36.2041 35.6682 35.3891 35.6299C35.6314 35.6791 35.9508 35.6627 35.736 35.7666L34.9817 35.7447L35.1414 35.6244L34.0126 35.5534L34.1667 35.701C34.0236 35.6791 33.9245 35.6518 33.7978 35.619C33.6326 35.5971 33.4784 35.5643 33.3188 35.5698C33.0049 35.5698 32.647 35.6408 32.245 35.9579C31.9146 36.2476 33.0489 35.7993 32.2781 36.2202C31.777 36.4279 31.1823 36.8488 30.7748 37.4993C30.5711 37.8163 30.4224 38.1935 30.3453 38.5761C30.3013 38.7565 30.2903 38.9915 30.2793 39.1282C30.2737 39.2484 30.2627 39.3687 30.2572 39.4835C30.4279 39.396 30.4224 39.6475 30.4555 39.9044L30.3068 39.9317C30.5105 40.9211 29.9819 40.2925 30.1471 41.2764L30.0425 41.1889L30.3508 41.4513C30.6427 42.3368 30.0425 41.9323 30.4444 42.9162C30.4169 42.5281 30.7693 42.7303 30.7087 43.2114L30.5656 43.0911C30.5931 43.3589 30.6537 43.4464 30.6262 43.6213C30.5491 43.4628 30.4169 43.5393 30.4444 43.9274L30.2682 43.665L30.5325 44.403C30.3784 44.9714 30.5711 45.8788 30.3729 46.1084C30.3729 46.1084 30.2737 47.3328 30.494 47.617C30.3563 47.371 30.3068 48.0488 30.1416 47.8521C30.2958 48.1691 30.4224 49.1093 30.2572 49.481L30.2407 49.4099C30.07 50.7983 30.472 51.7876 30.2682 53.0284C30.4389 52.9738 30.3453 53.6297 30.5656 53.4657C30.7803 54.7557 30.1196 55.8161 30.7968 56.2808C30.8354 56.8656 30.6372 56.9749 30.6041 57.281L30.5656 57.1389C30.6206 58.2376 30.6262 58.5546 30.6096 59.3746C30.6757 59.779 30.9896 59.8446 30.9125 60.5771C30.7858 60.3421 30.8134 60.6372 30.8134 60.9105C30.7913 60.7356 30.7473 60.681 30.6647 61.0417C30.7032 61.0909 30.7253 61.1729 30.7473 61.244C30.7363 61.244 30.7308 61.2604 30.7143 61.2549C30.7583 61.7086 30.7969 61.6321 30.8134 61.4189C30.8299 61.4298 30.8574 61.4134 30.8905 61.3478C30.7308 61.8234 30.9015 62.6651 30.6867 62.7253C30.7143 63.4085 30.7803 63.9989 30.8519 64.5564L30.8794 64.7805L30.907 65.0757L30.962 65.6496C30.9951 66.0213 31.0226 66.3821 31.0446 66.7538C30.9345 67.038 30.8354 66.7538 30.7913 66.2728L30.8189 67.1419L31.1548 67.1309C31.0887 67.202 30.929 67.2239 30.7253 67.2348C30.7143 67.0107 30.7253 66.6772 30.7087 66.4695C30.6647 66.7592 30.6427 67.0435 30.6372 67.3222C31.2924 67.3386 32.0303 67.2676 32.7131 67.2129L33.2251 67.1801C33.3518 67.1692 33.4509 67.1637 33.572 67.1637C33.7978 67.1637 34.0291 67.1801 34.2658 67.2293L34.5026 67.1036L34.5687 67.1255C34.5687 67.0599 34.822 66.9669 34.9872 66.9505C35.1469 67.0872 34.9762 67.2676 35.5378 67.2621C35.9838 67.3933 36.8043 67.1965 37.3879 67.12C37.0741 67.0981 37.1732 67.0216 37.3109 66.9724C37.5917 66.9724 37.7569 67.1036 37.9716 67.0435L37.9991 67.2293C37.889 67.0544 38.737 67.038 38.8416 66.9669C39.0013 67.1036 38.4066 67.0872 38.335 67.1911C39.4638 67.1747 38.9022 67.1801 40.031 67.1637C40.6312 67.0216 39.9209 66.9888 40.2127 66.8248C40.7468 66.7866 41.2644 66.6608 41.8756 66.7702L41.6829 66.6062C42.685 66.4805 43.2797 66.4969 43.957 66.6663C51.4071 65.3271 45.5263 64.8352 45.5263 64.8352C42.5914 64.4689 41.0772 64.95 37.5917 65.0811" fill="#1A1A1A"/>
<path d="M50.73 64.6657L50.7961 64.3486C50.763 64.3486 50.7355 64.4306 50.73 64.6657Z" fill="#1A1A1A"/>
<path d="M68.3833 40.9429C68.3833 40.9429 68.3943 40.9921 68.3998 41.0194C68.3943 40.9647 68.3888 40.9483 68.3833 40.9429Z" fill="#1A1A1A"/>
<path d="M53.0542 52.438V52.4544C53.0542 52.4544 53.0652 52.509 53.0707 52.5364L53.0542 52.438Z" fill="#1A1A1A"/>
<path d="M53.742 65.092C53.5547 65.092 53.373 65.081 53.1968 65.081C53.1583 65.0756 53.1252 65.0701 53.0922 65.0646C53.0261 65.0537 52.9766 65.0373 52.938 65.0264C52.9545 64.9553 52.9711 64.8952 52.9876 64.846L53.0151 64.7804L53.0261 64.7531L53.0371 64.5563C53.0702 63.9987 53.0977 63.4631 53.1252 62.9055C53.1748 61.785 53.1968 60.5551 53.1418 58.795C53.1693 56.7125 53.0922 54.4932 53.0537 52.4544C52.8004 51.4869 53.0537 49.7815 52.8389 48.639L52.9821 48.1963C52.9105 47.8027 52.8609 47.3381 52.938 46.9446L52.9821 46.9719C52.872 46.3816 52.938 45.7202 52.883 45.425L52.927 45.4469L52.9105 44.7308L52.9711 44.8565C52.8554 43.8289 52.8499 42.7739 52.8995 41.8392L52.7288 41.9158C52.9215 39.9206 52.5636 39.1937 52.7949 37.3953L52.8389 37.4172C52.3819 35.1433 53.1473 33.826 52.7178 31.481C52.7728 31.7707 52.8059 31.3553 52.8499 31.3772C52.8004 30.3003 52.7728 29.147 52.437 29.1306C52.437 28.3435 52.5416 28.4911 52.6737 28.3872C52.5251 28.3872 52.4645 27.7094 52.4535 27.0972L52.5085 27.3815L52.459 25.6214L52.1782 25.9657C52.2607 25.031 52.5195 25.7307 52.4535 24.8343L52.2222 24.8452C52.2442 24.2002 52.3433 23.6864 52.459 23.1835C52.514 22.9321 52.5746 22.6752 52.6352 22.4128C52.6627 22.298 52.6902 22.0958 52.7233 22.0575C52.7508 21.9864 52.7839 21.9208 52.8279 21.8607C52.9105 21.5765 53.1308 21.3305 53.4061 21.2048C53.4721 21.172 53.5437 21.1501 53.6208 21.1337C53.6594 21.1337 53.6979 21.1119 53.7365 21.1173C53.7805 21.1173 53.797 21.1064 53.9016 21.1064L54.9038 21.0845C56.2418 21.0408 57.5854 20.9971 58.9234 20.9588C60.256 20.9151 61.5775 20.8823 62.8715 20.8878C63.5157 20.8878 64.16 20.8987 64.7877 20.926L65.2557 20.9424C65.3879 20.9533 65.4374 20.9643 65.5255 20.9861C65.6852 21.0353 65.8229 21.1173 65.933 21.2212C65.9275 21.2922 65.922 21.3524 65.9055 21.418C65.8394 21.5328 65.9936 21.5328 66.1588 21.6202C66.324 21.6967 66.4726 21.8717 66.357 21.9372C66.4121 22.0302 66.4506 22.0739 66.4891 22.3035C66.4451 22.462 66.3955 22.7954 66.335 22.5166C66.324 23.0359 66.368 23.0469 66.4451 23.424L66.2854 23.9816C66.1643 26.0313 66.4671 27.775 66.4065 29.9341C66.0817 32.525 66.379 37.4008 66.5552 40.2104C66.9352 44.1623 65.922 48.7538 66.357 52.7987C66.3184 52.9299 66.401 53.2688 66.4341 53.2688L66.3955 56.9694C66.3955 56.9694 66.2964 74.9145 68.4054 61.2821L68.4604 61.375C68.5981 59.3471 68.6256 58.0735 68.3448 56.6797C68.6862 56.461 68.3778 55.0125 68.4879 54.5424L68.5155 54.5861C68.2512 53.3508 68.7357 52.039 68.499 50.8473C68.5265 50.8911 68.6201 50.9184 68.6256 51.1917C68.5816 50.3226 68.5045 49.1365 68.7082 49.0709C68.6586 46.9992 68.7467 44.1022 68.4274 42.7739L68.4824 42.8669C68.2677 42.1071 68.4494 41.8884 68.3393 41.0412C68.3668 40.9975 68.3778 40.9373 68.3888 40.9428C68.1741 40.1174 68.3558 38.5377 68.2677 37.8709L68.3998 37.8271L68.3668 36.1873L68.3393 36.7995C67.9759 36.5863 68.565 35.5587 68.3338 34.3671C68.3778 33.252 67.5794 32.1042 67.7556 30.9508C67.5849 30.3987 68.0309 31.4373 67.9043 30.6119C68.0915 30.5846 68.0254 30.9945 68.1741 30.7868C68.086 29.9778 68.3668 29.4586 68.2402 28.4583L68.3888 28.4145C68.119 27.1136 68.5816 25.9548 68.3283 25.0857C68.2071 23.7411 68.7688 24.1838 68.4769 22.7845L68.6752 22.2379C68.6862 22.1176 68.6641 21.899 68.6366 21.8006C68.6036 21.6858 68.5595 21.6038 68.521 21.5273C68.4274 21.3688 68.3668 21.2048 68.2126 20.7456C68.2842 20.7456 68.1686 20.4505 68.0419 20.2318C67.9153 20.0132 67.8052 19.8492 68.0419 20.0514C67.7281 19.5486 67.227 19.1605 66.6543 18.9309C66.3625 18.8216 66.0596 18.7451 65.7458 18.7177C65.5971 18.7013 65.4209 18.7068 65.2888 18.7068L64.9804 18.7287C64.1489 18.7833 63.2624 18.8161 62.2658 18.6521C61.8308 18.8926 60.8286 18.7505 60.5037 18.9309C60.4487 18.827 58.4939 18.9145 59.6172 18.6849C59.7163 18.6631 59.887 18.6685 59.8705 18.7123L60.0082 18.5701C58.8684 18.2968 57.9433 18.7177 56.8145 18.6795C57.1449 18.7287 57.5909 18.7123 57.2935 18.8106L56.2473 18.7888L56.4621 18.6685L54.9038 18.5975L55.1185 18.7451C54.7386 18.7068 54.4798 18.6248 54.21 18.5756C54.0668 18.5537 53.9512 18.5373 53.764 18.5428C53.5052 18.5537 53.2133 18.6029 52.894 18.7451C52.6132 18.8817 52.905 18.8544 53.1032 18.8489C53.307 18.8653 53.4116 18.8489 52.8389 19.0184C52.1011 19.1823 51.2035 19.7125 50.6969 20.6472C50.4437 21.0955 50.2895 21.6694 50.2785 22.1614C50.2564 22.5003 50.2399 22.8391 50.2289 23.1616C50.3996 23.0414 50.3941 23.3912 50.4271 23.7465L50.2785 23.7902C50.4822 25.1622 49.9536 24.2931 50.1188 25.6542L50.0142 25.5339L50.3225 25.8947C50.6144 27.1246 50.0142 26.5561 50.4161 27.9226C50.3886 27.3815 50.741 27.6712 50.6804 28.3326L50.5373 28.1631C50.5648 28.5293 50.6254 28.6551 50.5978 28.8956C50.5207 28.6769 50.3886 28.7808 50.4161 29.3219L50.2399 28.9612L50.5042 29.9833C50.35 30.7704 50.5428 32.0222 50.3445 32.3447C50.3445 32.3447 50.2454 34.0391 50.4657 34.4272C50.328 34.0883 50.2785 35.023 50.1133 34.7552C50.2675 35.1925 50.3941 36.4934 50.2289 37.0127L50.2124 36.9143C50.0417 38.8329 50.4437 40.1994 50.2399 41.9212C50.4106 41.8447 50.317 42.7521 50.5373 42.528C50.752 44.3099 50.0913 45.7803 50.7685 46.4253C50.8071 47.2343 50.6088 47.3873 50.5758 47.8027L50.5373 47.6114C50.5923 49.131 50.5978 49.5737 50.5813 50.6998C50.6474 51.2628 50.9613 51.3502 50.8842 52.3614C50.7575 52.0335 50.785 52.4489 50.785 52.8261C50.763 52.5856 50.719 52.509 50.6364 53.0064C50.6749 53.0775 50.6969 53.1814 50.719 53.2852C50.708 53.2852 50.7025 53.3071 50.6859 53.2962C50.73 53.9248 50.7685 53.8154 50.785 53.5257C50.8016 53.5421 50.8291 53.5148 50.8621 53.4273C50.7025 54.0833 50.8731 55.253 50.6584 55.3295C50.708 57.2263 50.9282 58.5819 51.0163 60.1561C50.9062 60.331 50.8071 59.9648 50.763 59.5056L50.8016 60.6262C50.6419 60.6152 50.708 59.9812 50.6804 59.6368C50.4216 60.9705 50.9392 62.3808 50.7025 63.9441L50.8291 64.2666L50.8071 64.3595C50.8401 64.3595 50.8787 64.4415 50.9117 64.5617C50.9282 64.6219 50.9447 64.6875 50.9557 64.7531C50.9668 64.8405 50.9778 64.9334 50.9833 65.01C50.8456 65.3434 50.6639 65.0209 50.6694 66.2344C50.6309 66.5459 50.6199 66.9286 50.6254 67.3276C51.1099 67.3167 51.6606 67.2839 52.1837 67.2511C52.437 67.2292 52.6902 67.2128 52.938 67.1964C53.0482 67.1855 53.1583 67.18 53.2629 67.1691C53.34 67.1636 53.4116 67.1527 53.4832 67.1472C53.2684 67.1363 53.1913 67.1089 53.1858 67.0816C53.2023 67.0543 53.2794 67.0215 53.373 66.9996C53.764 66.9996 53.9842 67.1308 54.2871 67.0707L54.3256 67.2565C54.1715 67.0816 55.3443 67.0652 55.4875 66.9942C55.7077 67.1308 54.8818 67.1144 54.7882 67.2183C56.352 67.2019 55.5701 67.2073 57.1284 67.1909C57.9598 67.0488 56.9797 67.016 57.3761 66.852C58.114 66.8138 58.8298 66.688 59.6723 66.7974L59.4025 66.6334C60.7846 66.5077 61.6105 66.5241 62.5466 66.6935C72.849 65.3543 64.7161 64.8624 64.7161 64.8624C60.6634 64.4962 58.5655 64.9772 53.742 65.1084" fill="#1A1A1A"/>
<path d="M14.9663 65.4966L15.1425 65.5622C15.1425 65.5294 15.093 65.502 14.9663 65.4966Z" fill="#1A1A1A"/>
<path d="M59.7056 65.4746C59.7056 65.4746 59.7331 65.4637 59.7496 65.4583C59.7221 65.4637 59.7111 65.4692 59.7056 65.4746Z" fill="#1A1A1A"/>
<path d="M21.8324 67.8086H21.8214C21.8214 67.8086 21.7884 67.8195 21.7773 67.825L21.8324 67.8086Z" fill="#1A1A1A"/>
<path d="M12.8189 67.6229C15.1867 67.7049 15.8144 68.0274 18.2647 67.8962C19.432 67.9235 20.682 67.847 21.8273 67.8087C22.3724 67.5573 23.3305 67.8087 23.9693 67.5956L24.2171 67.7377C24.4373 67.6666 24.6961 67.6174 24.9219 67.694L24.9054 67.7377C25.2357 67.6284 25.6102 67.694 25.7754 67.6393L25.7588 67.683L26.1608 67.6666L26.0947 67.7267C26.6729 67.612 27.2621 67.6065 27.7907 67.6557L27.7466 67.4862C28.8644 67.6776 29.2774 67.3223 30.285 67.5518L30.274 67.5956C31.5515 67.1419 32.2949 67.9017 33.6109 67.4753C33.4457 67.53 33.6825 67.5628 33.6659 67.6065C34.2716 67.5573 34.9214 67.53 34.9269 67.1965C35.3674 67.1965 35.2848 67.3004 35.3454 67.4316C35.3454 67.284 35.7253 67.2239 36.0722 67.2129L35.9125 67.2676L36.9037 67.2184L36.711 66.9396C37.2341 67.0216 36.8431 67.2785 37.3442 67.2129V66.9834C38.06 67.0271 38.4895 67.3769 39.1888 67.5464C42.1072 67.6448 45.2403 67.0599 47.9494 67.4644L48.0705 67.6393C48.1201 67.8907 48.8194 67.2676 48.924 67.4972L49.2379 67.3824C49.326 67.4261 49.5132 67.4753 49.359 67.5354C49.6509 67.5464 49.6564 67.5026 49.8656 67.4261L50.1795 67.5846C51.3303 67.7049 52.3104 67.4043 53.5218 67.4644C54.9755 67.7869 57.7177 67.4917 59.298 67.3168C61.517 66.9396 64.0995 67.9454 66.3681 67.5136C66.4397 67.5518 66.6324 67.4698 66.6324 67.437L68.7138 67.4753C68.7138 67.4753 78.7959 67.5737 71.1366 65.4802L71.1862 65.4255C70.0464 65.2889 69.3305 65.2615 68.5486 65.5403C68.422 65.2014 67.6126 65.5075 67.3483 65.3982L67.3758 65.3709C66.682 65.6332 65.9441 65.1522 65.2779 65.3873C65.3054 65.3599 65.3164 65.267 65.4706 65.2615C64.9805 65.3053 64.3143 65.3818 64.2812 65.185C63.1194 65.2397 61.4895 65.1468 60.7461 65.4583L60.7957 65.4037C60.3717 65.6168 60.2451 65.4365 59.7715 65.5458C59.744 65.5185 59.711 65.5075 59.7165 65.4966C59.2539 65.7043 58.3674 65.5294 57.993 65.6223L57.9709 65.4911L57.0459 65.5239L57.3928 65.5512C57.2716 65.912 56.6935 65.3271 56.0272 65.5567C55.3995 65.513 54.7552 66.3056 54.1055 66.1307C53.7971 66.3001 54.3753 65.8573 53.9128 65.9885C53.8963 65.8027 54.1275 65.8683 54.0119 65.7207C53.5549 65.8082 53.2685 65.5294 52.7014 65.6551L52.6793 65.5075C51.947 65.7754 51.2973 65.3162 50.8127 65.5676C50.0583 65.6879 50.3061 65.1304 49.5187 65.4201L49.2159 65.2233C48.88 65.1905 48.9736 65.4638 48.6047 65.3709C48.6267 65.2451 48.1311 65.2725 48.3514 65.1522C47.5089 64.9554 46.6389 65.431 45.5266 65.0976C45.2843 65.3381 44.7227 65.196 44.5465 65.3763C44.5189 65.2725 43.4232 65.3599 44.0509 65.1304C44.106 65.1085 44.1996 65.114 44.1941 65.1577L44.2712 65.0156C43.6379 64.7423 43.1203 65.1632 42.4926 65.1249C42.6798 65.1741 42.9276 65.1577 42.7624 65.2561L42.1788 65.2342L42.2999 65.114L41.4299 65.0429L41.551 65.1905C41.127 65.114 40.9784 64.8571 40.4993 65.0702C40.2846 65.1905 40.9013 65.2725 40.4553 65.3217C39.8881 65.2178 39.0346 65.0648 38.3078 65.021C38.3739 65.1905 38.1811 65.185 37.9774 65.2178L37.9554 65.0702C37.1845 65.2725 37.6746 64.7477 36.9092 64.9117L36.9753 64.8079L36.7715 65.114C36.0832 65.4037 36.4026 64.8079 35.6317 65.2069C35.9346 65.1796 35.7749 65.5294 35.4004 65.4693L35.4941 65.3271C35.2848 65.3545 35.2187 65.4146 35.0811 65.3873C35.2022 65.3107 35.1472 65.1796 34.8443 65.2069L35.048 65.032L34.4754 65.2943C34.0349 65.1413 33.3301 65.3326 33.1483 65.1358C33.1483 65.1358 32.1958 65.0374 31.981 65.2561C32.1737 65.1194 31.6451 65.0702 31.7938 64.9063C31.546 65.0593 30.8192 65.185 30.5273 65.021L30.5824 65.0046C29.5031 64.8352 28.7378 65.2342 27.7687 65.032C27.8127 65.2014 27.3006 65.1085 27.4273 65.3271C26.4251 65.5403 25.5992 64.8844 25.2412 65.5567C24.7842 65.595 24.7016 65.3982 24.4648 65.3654L24.575 65.3271C23.7215 65.3818 23.4737 65.3873 22.8405 65.3709C22.5211 65.4365 22.4771 65.748 21.9044 65.6715C22.0861 65.5458 21.8548 65.5731 21.6456 65.5731C21.7833 65.5512 21.8218 65.5075 21.5465 65.4255C21.5079 65.4638 21.4474 65.4857 21.3923 65.5075C21.3923 65.4966 21.3813 65.4911 21.3868 65.4747C21.0344 65.5185 21.095 65.5567 21.2602 65.5731C21.2491 65.595 21.2657 65.6168 21.3152 65.6496C20.9463 65.4911 20.291 65.6606 20.247 65.4474C19.1843 65.4966 18.4189 65.7152 17.5379 65.7972C17.4388 65.6879 17.648 65.5895 17.9013 65.5458L17.2736 65.584C17.2791 65.4255 17.637 65.4911 17.8297 65.4638C17.0808 65.2069 16.2879 65.7207 15.4069 65.4857L15.2252 65.6114L15.1701 65.5895C15.1701 65.6551 14.9774 65.748 14.8453 65.7644C14.7186 65.6278 14.8563 65.4474 14.4213 65.4529C14.0799 65.3217 13.4467 65.5185 12.9951 65.595C13.2374 65.6168 13.1603 65.6934 13.0557 65.7426C12.841 65.7426 12.7143 65.6114 12.5436 65.6715L12.5216 65.4857C12.6042 65.6606 11.9544 65.677 11.8718 65.748C11.7507 65.6114 12.2077 65.6278 12.2628 65.5239C11.3928 65.5403 11.8278 65.5349 10.9578 65.5512C10.4952 65.6934 11.0404 65.7262 10.8201 65.8901C10.4127 65.9284 10.0107 66.0541 9.53715 65.9448L9.68582 66.1088C8.91493 66.2345 8.4524 66.2181 7.9348 66.0487C2.19168 67.3878 6.7234 67.8798 6.7234 67.8798C8.98651 68.246 10.1539 67.765 12.841 67.6338" fill="#1A1A1A"/>
<path d="M40.6699 20.9973L40.747 20.9645C40.714 20.959 40.6864 20.9645 40.6699 20.9973Z" fill="#1A1A1A"/>
<path d="M37.5157 14.4871C37.5157 14.4871 37.5039 14.4929 37.498 14.4987C37.5098 14.4987 37.5098 14.4929 37.5157 14.4871Z" fill="#1A1A1A"/>
<path d="M43.3843 19.729C43.3843 19.729 43.39 19.7403 43.3957 19.7459L43.3843 19.729Z" fill="#1A1A1A"/>
<path d="M42.6031 22.0794C42.8398 21.4727 43.1977 21.3798 43.2308 20.6965C43.3354 20.3904 43.3464 20.0406 43.385 19.729C43.1757 19.5268 43.4786 19.33 43.3189 19.1059L43.4731 19.0731C43.418 18.9966 43.3905 18.9146 43.4731 18.8763L43.5116 18.8872C43.429 18.7725 43.5116 18.6905 43.4731 18.6358L43.5116 18.6467L43.5226 18.5374L43.5777 18.5702C43.5061 18.3898 43.5391 18.2313 43.6217 18.1001L43.451 18.0728C43.7098 17.8214 43.3905 17.6246 43.6823 17.4114L43.7208 17.4278C43.5446 17.2037 43.6493 17.0889 43.7649 16.9687C43.82 16.9085 43.8805 16.8539 43.897 16.7773C43.9081 16.7391 43.9081 16.7008 43.897 16.6571C43.8915 16.6352 43.8805 16.6134 43.8695 16.586C43.8585 16.5532 43.8475 16.504 43.831 16.4658C43.864 16.5532 43.9246 16.4494 43.9631 16.4658C43.9851 16.1706 44.0347 15.87 43.6823 15.8754C43.7319 15.6951 43.831 15.7224 43.9741 15.6896C43.82 15.7005 43.7924 15.5475 43.82 15.4108L43.864 15.4655L43.9136 15.0719L43.5832 15.2359C43.7208 15.0173 43.9741 15.0719 43.9521 14.897L43.6878 14.9954C43.8034 14.7166 44.255 14.3613 44.5468 13.9076L44.6019 13.7273C43.9576 13.5851 43.1537 13.5524 42.4984 13.5032C42.1791 13.4813 41.8267 13.443 41.5899 13.3884C41.4027 13.3446 41.232 13.2736 41.0723 13.1424V12.9675C41.1053 12.716 40.797 13.2954 40.8135 13.0604L40.7034 13.1588C40.6868 13.1096 40.6483 13.0549 40.7034 13.0057C40.6263 12.9784 40.6153 13.0221 40.5437 13.0877L40.4886 12.9183C40.2023 12.7379 39.8774 12.9839 39.558 12.8636C39.2222 12.4755 38.4237 12.6231 37.9667 12.7051C37.2949 12.962 36.7828 11.8415 36.089 12.1476C36.078 12.1093 36.0065 12.1749 36.0009 12.2077L35.4448 12.0656C35.4448 12.0656 32.7302 11.4479 34.4096 13.9022L34.3876 13.9514C34.6684 14.1427 34.8611 14.2083 35.1254 13.9732C35.0924 14.3121 35.3732 14.0552 35.4228 14.1755L35.4118 14.2028C35.6485 13.9842 35.7587 14.4925 35.9844 14.2957C35.9734 14.3231 35.9514 14.4105 35.9073 14.4105C36.0505 14.3941 36.2432 14.3559 36.2157 14.5526C36.5406 14.5636 36.9646 14.733 37.2289 14.4652L37.2068 14.5144C37.361 14.3285 37.361 14.5144 37.5097 14.4324C37.5097 14.4597 37.5207 14.4761 37.5097 14.4871C37.6749 14.3067 37.8841 14.5253 37.9997 14.4543L37.9832 14.5854L38.2365 14.6018L38.1484 14.5581C38.2475 14.2083 38.2971 14.815 38.5173 14.6237C38.677 14.7002 39.0019 13.9514 39.1451 14.1591C39.2607 14.0115 39.0184 14.416 39.1671 14.3121C39.1341 14.498 39.0845 14.416 39.09 14.569C39.2332 14.5035 39.2552 14.7986 39.4314 14.7002L39.4094 14.8423C39.6572 14.6182 39.7453 15.1047 39.927 14.8806C40.1527 14.7986 39.982 15.3343 40.2518 15.0938L40.2959 15.307C40.3785 15.3562 40.406 15.0829 40.4886 15.1922C40.4611 15.3124 40.5987 15.3124 40.5161 15.4218C40.6098 15.5365 40.7419 15.4928 40.8741 15.4655C40.9401 15.4545 41.0117 15.4436 41.0778 15.4655C41.1329 15.4819 41.243 15.5365 41.2155 15.6131C41.2925 15.378 41.298 15.5311 41.3806 15.3616C41.3421 15.46 41.4742 15.3944 41.3146 15.6021C41.3036 15.6185 41.298 15.6131 41.3146 15.5748L41.2485 15.706C41.1274 15.9574 41.3696 15.5748 41.4027 15.624C41.4247 15.5803 41.4027 15.5857 41.4798 15.5037L41.5128 15.5311L41.4082 15.6349C41.4082 15.6349 41.4027 15.6841 41.3917 15.706L41.5238 15.5803C41.4908 15.6513 41.2265 15.8645 41.4687 15.6896C41.6119 15.5967 41.656 15.5201 41.7441 15.4873C41.7165 15.5256 41.6835 15.5748 41.6394 15.6185C41.5624 15.6841 41.4908 15.7443 41.4357 15.7934C41.6339 15.6951 41.6284 15.706 41.6615 15.706L41.4908 15.7825C41.7165 15.7333 41.1163 15.941 41.298 15.8864L41.1824 15.9192C41.298 15.8809 41.4137 15.8536 41.5238 15.8208C41.8322 15.7934 41.1879 15.9028 41.6064 15.8754C41.5844 15.859 41.9588 15.8098 41.8762 15.87H41.7275C41.7551 15.8918 41.8156 15.8918 41.7826 15.9082C41.7055 15.9028 41.5679 15.9082 41.5899 15.9301L41.4082 15.9192C41.4963 15.9246 41.5844 15.9356 41.667 15.9574C41.5018 15.9902 41.689 16.023 41.4687 16.0777C41.4687 16.0777 41.3091 16.3073 41.5073 16.4166C41.3862 16.3346 41.3036 16.4603 41.1549 16.3838C41.287 16.4876 41.3641 16.7117 41.1824 16.75L41.1659 16.7336C40.9291 16.9796 41.265 17.2802 41.0062 17.4879C41.1769 17.5153 41.0503 17.63 41.2705 17.6519C41.4137 17.9689 40.7144 18.0291 41.3531 18.2914C41.3531 18.4226 41.1604 18.3953 41.1163 18.45L41.0888 18.4117C41.0888 18.6522 41.0778 18.7178 41.0172 18.8872C41.0613 18.9856 41.3641 19.0786 41.254 19.2097C41.1439 19.1332 41.1494 19.1988 41.1384 19.2535C41.1274 19.2152 41.0888 19.1933 40.9842 19.2425C41.0172 19.2644 41.0393 19.2863 41.0558 19.3027C41.0448 19.3027 41.0393 19.3027 41.0282 19.3027C41.0448 19.4065 41.0888 19.4011 41.1163 19.3628C41.1329 19.3683 41.1604 19.3737 41.1934 19.3628C41.0117 19.4229 41.1384 19.6361 40.9236 19.5978C40.9016 19.893 41.0668 20.1499 41.0888 20.4068C40.9732 20.4068 40.8961 20.3303 40.8686 20.2483V20.4232C40.7144 20.385 40.8025 20.303 40.786 20.2483C40.4886 20.385 40.9346 20.7184 40.6428 20.8988L40.7529 20.9753L40.7309 20.9862C40.797 21.0026 40.8686 21.0737 40.8851 21.1174C40.7419 21.1174 40.5767 21.0409 40.5547 21.1557C40.4005 21.2158 40.5547 21.429 40.5987 21.5711C40.6373 21.511 40.7089 21.5492 40.7474 21.593C40.7364 21.6531 40.5932 21.6531 40.6428 21.7132L40.4611 21.6749C40.6373 21.6968 40.6098 21.8717 40.6758 21.91C40.5327 21.91 40.5822 21.7897 40.4831 21.7515C40.4446 21.9865 40.4611 21.8717 40.4225 22.1068C40.5272 22.2653 40.5987 22.1286 40.7474 22.227C40.7584 22.3473 40.8575 22.4839 40.7144 22.5823H40.8851C40.9567 22.8174 40.9071 22.9376 40.7144 23.036C41.6449 24.889 42.4268 23.8013 42.4268 23.8013C42.9334 23.2874 42.5425 22.8611 42.5975 22.1177" fill="#1A1A1A"/>
<path d="M39.1949 18.532H39.0737C39.0737 18.532 39.1288 18.5648 39.1949 18.532Z" fill="#1A1A1A"/>
<path d="M18.9206 33.0007C18.9206 33.0007 18.9092 33.0176 18.9092 33.0289C18.9206 33.0176 18.9206 33.0064 18.9206 33.0007Z" fill="#1A1A1A"/>
<path d="M34.7228 18.8708C34.7228 18.8599 34.7338 18.8544 34.7338 18.8435L34.7173 18.8763L34.7228 18.8708Z" fill="#1A1A1A"/>
<path d="M38.9192 16.1105C37.7959 16.8047 37.3223 16.75 36.2871 17.6465C35.742 18.0018 35.2189 18.4664 34.7233 18.8654C34.6242 19.2426 34.046 19.3519 33.8753 19.7291L33.6826 19.6963C33.6221 19.8274 33.534 19.9477 33.3908 19.9586L33.3743 19.9204C33.2862 20.1117 33.0824 20.1827 33.0384 20.2811L33.0219 20.2429L32.8512 20.385V20.3139C32.6529 20.5927 32.3886 20.7895 32.1188 20.9152L32.24 21.0409C31.6232 21.2486 31.6453 21.6695 31.0506 21.8116L31.0341 21.7734C30.7202 22.5496 29.9383 22.1779 29.5914 22.9486C29.6355 22.8502 29.5088 22.8994 29.4868 22.8611C29.239 23.0962 28.9637 23.3257 29.1564 23.6045C28.9527 23.7412 28.9306 23.6373 28.8315 23.5499C28.9196 23.6701 28.782 23.8396 28.6278 23.9598L28.6663 23.8614L28.2479 24.2222L28.5012 24.3862C28.2148 24.49 28.2424 24.1566 28.0551 24.3698L28.1928 24.5556C27.8349 24.7524 27.4384 24.6048 27.0199 24.6977C25.6379 25.5614 24.5641 27.0481 23.0939 27.5948L22.9397 27.4909C22.769 27.305 22.8186 28.0375 22.6369 27.879L22.5598 28.0758C22.4937 28.0703 22.3781 28.0867 22.4166 27.9938C22.279 28.0812 22.301 28.114 22.2515 28.2452L22.0147 28.2179C21.42 28.4912 21.1557 29.0542 20.572 29.3931C19.724 29.6008 18.6558 30.7268 18.0391 31.3773C17.2572 32.3994 15.4952 32.4158 14.7188 33.5036C14.6637 33.4981 14.6252 33.6238 14.6417 33.6457L13.6781 34.2907C13.6781 34.2907 9.04724 37.4665 13.7552 36.6958L13.7662 36.7559C14.3609 36.499 14.7023 36.2913 14.895 35.8103C15.1538 36.0453 15.341 35.537 15.5227 35.5424V35.5752C15.6879 35.1379 16.3046 35.291 16.4698 34.881C16.4698 34.9138 16.5249 34.9904 16.4533 35.045C16.6515 34.8537 16.9048 34.5749 17.0425 34.7225C17.538 34.3071 18.3309 33.8534 18.4851 33.356L18.4961 33.4161C18.5622 33.1046 18.7274 33.2139 18.8816 32.9734C18.9091 32.9843 18.9311 32.9843 18.9366 32.9952C19.0247 32.6727 19.5313 32.5306 19.647 32.3393L19.7351 32.4377L20.137 32.1152L19.9663 32.2027C19.8066 31.8692 20.4178 32.1589 20.583 31.7544C20.8914 31.5905 20.7152 30.7377 21.1171 30.6667C21.1612 30.4316 21.1557 30.9783 21.2878 30.7213C21.4035 30.8689 21.2603 30.8853 21.4035 30.9728C21.5577 30.7541 21.855 30.8908 22.0367 30.6011L22.1303 30.7104C22.3065 30.2567 22.8682 30.4207 22.9397 30.0545C23.2096 29.7101 23.4243 30.2458 23.6115 29.7593L23.8648 29.8194C24.0355 29.7375 23.8318 29.5461 24.0575 29.5024C24.1181 29.6117 24.3273 29.4314 24.2998 29.6008C24.7954 29.486 24.9165 28.8192 25.6103 28.7317C25.5773 28.4584 25.9132 28.3928 25.8911 28.1851C25.9682 28.2616 26.4087 27.8353 26.2601 28.2288C26.2491 28.2616 26.1995 28.2889 26.1775 28.2507L26.227 28.3928C26.673 28.4092 26.662 27.9009 26.9704 27.7314C26.8603 27.7533 26.7556 27.8407 26.7722 27.7095L27.0475 27.5346L27.064 27.6713L27.499 27.4472L27.3558 27.3652C27.5926 27.2887 27.8129 27.4472 27.901 27.1192C27.9285 26.9552 27.5981 27.0864 27.7743 26.9006C28.0937 26.8022 28.5672 26.6491 28.9251 26.4523C28.793 26.3376 28.8866 26.2774 28.9582 26.1845L29.0518 26.2938C29.2831 25.8784 29.3712 26.4633 29.6189 26.0861L29.6465 26.19L29.5584 25.8729C29.7015 25.4138 29.9053 25.9987 30.0209 25.4302C29.8998 25.5504 29.7676 25.2115 29.9713 25.1459L30.0099 25.2935C30.087 25.2006 30.0815 25.1295 30.1641 25.1131C30.1531 25.217 30.2577 25.3045 30.3788 25.1842L30.3898 25.3919L30.4944 24.9929C30.7863 24.971 30.99 24.5939 31.1882 24.6923C31.1882 24.6923 31.6783 24.4627 31.6508 24.2167C31.6453 24.3916 31.9096 24.2604 31.9371 24.4408C31.9591 24.2386 32.2179 23.8997 32.4437 23.9379L32.4272 23.9707C33.0164 23.7576 33.1265 23.1891 33.6881 23.0415C33.567 22.9158 33.8533 22.8283 33.6716 22.6917C33.9965 22.1943 34.7564 22.4621 34.5306 21.8007C34.7178 21.6258 34.8665 21.7515 34.9931 21.7078L34.9656 21.7734C35.318 21.4509 35.4281 21.3689 35.7255 21.1776C35.8301 21.0191 35.6704 20.7512 35.9733 20.631C35.9622 20.7895 36.0559 20.6966 36.1495 20.631C36.0999 20.6911 36.1054 20.7403 36.2816 20.7184C36.2816 20.6747 36.2926 20.6364 36.3036 20.6036C36.3091 20.6091 36.3202 20.6146 36.3257 20.6255C36.4578 20.4779 36.4083 20.467 36.3257 20.5052C36.3202 20.4888 36.2981 20.4724 36.2541 20.4615C36.5129 20.4724 36.7111 20.1226 36.8598 20.2811C37.3113 19.8985 37.5316 19.4722 37.884 19.1169C37.9941 19.1715 37.9555 19.3191 37.8619 19.4394L38.1262 19.2043C38.2143 19.3355 38.0161 19.3956 37.9445 19.4831C38.4346 19.4503 38.4952 18.778 39.0293 18.685L39.0403 18.5265H39.0788C39.0403 18.4719 39.0788 18.3352 39.1229 18.2751C39.2605 18.3461 39.3046 18.5375 39.4973 18.3899C39.7286 18.3899 39.8993 18.0182 40.059 17.8159C39.9378 17.8761 39.9268 17.7886 39.9433 17.7175C40.0369 17.6465 40.1746 17.7175 40.2187 17.6137L40.3398 17.7558C40.1966 17.641 40.4885 17.4169 40.4774 17.3295C40.6151 17.4005 40.3949 17.5372 40.4334 17.6356C40.8188 17.3404 40.6261 17.488 41.0116 17.1928C41.1382 16.9304 40.8684 17.078 40.8739 16.8758C41.0391 16.7118 41.1437 16.4767 41.4245 16.4166L41.2593 16.3292C41.5347 15.9739 41.7549 15.8427 42.0908 15.8099C43.9079 12.8637 41.5622 13.9295 41.5622 13.9295C40.3233 14.3668 40.0755 15.1321 38.9302 16.105" fill="#1A1A1A"/>
</g>
<defs>
<clipPath id="clip0_28097_42288">
<rect width="69" height="56" fill="white" transform="translate(5 12)"/>
</clipPath>
</defs>
</svg>
