<svg width="80" height="80" viewBox="0 0 80 80" fill="none" xmlns="http://www.w3.org/2000/svg">
<g clip-path="url(#clip0_28097_41884)">
<path d="M26.2175 50.9345C26.2175 50.9345 22.4928 42.7008 22.2314 38.8504C21.9607 34.9999 23.2022 33.813 23.8557 31.57C24.5091 29.327 24.4625 27.6822 23.753 25.2429C23.0342 22.8037 23.6783 18.0466 24.0797 15.5233C24.4905 12.9999 25.8161 13.1962 27.8698 15.5233C27.8698 15.5233 27.291 15.8504 27.0203 16.2336C27.0203 16.2336 29.7741 20.6167 30.6703 22.2803C30.6703 22.2803 41.275 19.3644 47.4082 21.813C47.4082 21.813 50.134 17.3083 50.8155 16.1868C50.8155 16.1868 50.6661 15.542 50.1434 15.4859C50.1434 15.4859 52.8785 12.9065 53.9054 14.084C54.9416 15.2709 54.4375 25.2336 54.5589 25.3924C54.6709 25.5513 54.7922 30.7102 55.1936 33.0186C55.5951 35.327 56.5379 39.9251 55.1936 42.2709C53.8587 44.6167 51.8984 46.1775 51.8984 47.1588C51.8984 48.1401 52.0104 48.6728 53.9054 49.8784C55.8004 51.0934 59.6278 56.57 60.1413 61.7102C60.6547 66.841 56.8273 70.4952 55.3617 70.7102C55.3617 70.7102 54.4282 73.4766 54.4282 75.0186H22.4461C22.4461 75.0186 21.9326 59.9999 26.2175 50.9532V50.9345Z" fill="black"/>
<path d="M27.0107 15.1683L31.2302 24.3832C31.2302 24.3832 40.36 21.0561 47.0066 23.673L50.8059 15.4393C50.8059 15.4393 40.0519 7.03745 27.0107 15.1683Z" fill="white"/>
<path d="M36.4112 59.5139C36.4112 59.5139 46.1104 51.299 47.2119 50.5794C48.3135 49.8597 50.5352 50.3831 50.1618 53.1308L47.3986 55.5794C47.3986 55.5794 42.4697 56.9252 41.7135 59.1121C40.9574 61.299 39.9212 62.2149 39.9212 62.2149L35.5337 62.9345L36.4112 59.4952V59.5139Z" fill="white"/>
<path d="M39.632 14.9534H38.4277V19.7571H39.632V14.9534Z" fill="#FE6F0F"/>
<path d="M38.1665 18.0473L38.1856 18.0188C38.1856 18.0188 38.1665 18.0188 38.1665 18.0473Z" fill="#FE6F0F"/>
<path d="M38.8292 18.4205C38.8572 18.0093 38.9599 17.8972 38.9132 17.4672C38.9132 17.2616 38.8945 17.0467 38.8852 16.8411C38.8012 16.7476 38.8852 16.5794 38.8199 16.4672L38.8665 16.4205C38.8665 16.4205 38.8292 16.3364 38.8572 16.299H38.8665C38.8385 16.2429 38.8572 16.1775 38.8385 16.1495H38.8479V16.0841L38.8665 16.0934C38.8292 15.9906 38.8292 15.8878 38.8479 15.7943H38.7918C38.8199 15.7102 38.8105 15.6355 38.7918 15.5794C38.7825 15.5233 38.7732 15.4299 38.8105 15.4299H38.8199C38.7172 15.3551 38.8199 15.3458 38.8199 15.3364C38.8292 15.3364 38.8292 15.3364 38.8199 15.2897C38.8199 15.3084 38.8385 15.3177 38.8479 15.3271C38.8665 15.3084 38.8852 15.3084 38.8665 15.1962C38.9039 15.1962 38.9039 15.2243 38.9039 15.271C38.9039 15.2429 38.9039 15.2336 38.9225 15.2149C38.9505 15.2056 38.9785 15.1962 39.0066 15.1962L38.9785 15.2149C39.0252 15.2149 39.1186 15.2056 39.1279 15.1962C39.1279 15.1682 39.1279 15.1401 39.1092 15.1121C39.1653 15.1401 39.1092 15.2149 39.1653 15.1962L39.1839 15.1215C39.2586 15.1401 39.2493 15.2429 39.2306 15.299H39.2493C39.2493 15.299 39.3986 15.9813 39.2773 16.3925L39.2213 16.4112C39.1372 16.4112 39.3426 16.542 39.2679 16.5607L39.3053 16.6168C39.3053 16.6168 39.2773 16.6635 39.2586 16.6355C39.2586 16.6915 39.2679 16.6915 39.2866 16.7196L39.2399 16.7757C39.2026 16.9719 39.2959 17.1495 39.2773 17.3551C39.1746 17.6074 39.2773 18.0841 39.3239 18.3644C39.38 18.5607 39.3239 18.7663 39.2866 18.9813C39.2773 19.0373 39.2679 19.0841 39.2586 19.1401C39.2586 19.1682 39.2586 19.1869 39.2493 19.2243C39.2493 19.2429 39.2493 19.2429 39.2493 19.2523C39.2493 19.2803 39.2493 19.2897 39.2773 19.3458C39.2679 19.3458 39.2959 19.3738 39.3053 19.3738V19.4018H39.2026C39.2026 19.4018 39.1933 19.4018 39.0999 19.4018C38.9599 19.4018 38.7732 19.4205 38.6425 19.4579C38.3718 19.5327 38.2597 19.6915 38.9319 20.0186V20.0373C38.9319 20.0373 39.0159 20.056 39.0626 20.0654C39.0999 20.0654 39.1372 20.0654 39.2119 20.0654C39.3333 20.0654 39.436 20.0467 39.52 20C39.6133 20.1028 39.7814 20.0093 39.8841 20.0467C39.8841 20.0467 39.9214 20.0467 39.9401 20.0373C39.9121 19.8598 40.0241 19.7383 39.9587 19.542C39.9587 19.5514 39.9961 19.5607 39.9961 19.6168C39.9867 19.4672 39.9587 19.2803 40.0241 19.2616C40.0054 19.0373 40.0334 18.7663 39.9401 18.6355H39.9587C39.8934 18.57 39.9494 18.5514 39.9121 18.4672C39.9121 18.4672 39.9214 18.4579 39.9307 18.4672C39.8654 18.3925 39.9214 18.2336 39.8934 18.1682H39.9307V18.0093L39.9121 18.0654C39.8 18.0467 39.9867 17.9439 39.9121 17.8224C39.9214 17.7196 39.6787 17.6074 39.7347 17.4859C39.6787 17.4299 39.8187 17.5327 39.7814 17.4579C39.8374 17.4579 39.8187 17.4953 39.8654 17.4766C39.8374 17.3925 39.9214 17.3458 39.8841 17.2523H39.9307C39.8467 17.1215 39.9867 17.0093 39.9121 16.9158C39.8747 16.785 40.0428 16.8317 39.9587 16.6915L40.0241 16.6448C40.0334 16.5887 39.9494 16.5981 39.9774 16.5327C40.0147 16.5327 40.0054 16.4486 40.0428 16.4859C40.0988 16.3364 39.9587 16.1869 40.0614 15.9906C39.9867 15.9439 40.0334 15.8504 39.9774 15.8224C40.0054 15.8224 39.9774 15.6261 40.0521 15.7383C40.0521 15.7383 40.0521 15.7663 40.0521 15.757H40.0988C40.1828 15.6542 40.0521 15.5701 40.0708 15.4579C40.0521 15.4859 40.0614 15.5327 40.0241 15.5046V15.3644L40.0708 15.3925L40.0988 15.1121L40.0521 15.1682C40.0801 15.0373 40.1548 14.9345 40.0894 14.8224C40.0521 14.785 40.0241 14.9813 40.0054 14.8598C40.0147 14.7757 40.0334 14.6729 40.0521 14.5607C39.9494 14.542 39.8187 14.5233 39.688 14.514C39.688 14.5607 39.6227 14.5607 39.5573 14.57V14.5233C39.3053 14.5887 39.5107 14.4205 39.2399 14.4672L39.2679 14.4392C39.2679 14.4392 39.2119 14.5046 39.1933 14.5327C39.0532 14.6261 39.1186 14.4392 38.9785 14.5607C39.0252 14.5607 39.0252 14.6635 38.9225 14.6448L38.9505 14.5981C38.8945 14.5981 38.8759 14.6261 38.8385 14.6168C38.8665 14.5981 38.8385 14.5514 38.7545 14.5607L38.8105 14.5046C38.7545 14.5327 38.7078 14.5607 38.6612 14.5887C38.5025 14.542 38.3344 14.5981 38.2317 14.5327C38.2317 14.5327 38.1571 14.5327 38.0824 14.5327C38.0824 14.6168 38.0824 14.7289 38.1291 14.7943C38.0824 14.7009 38.073 14.8504 38.0264 14.7757C38.073 14.8972 38.1104 15.1308 38.0637 15.2149V15.1962C38.045 15.2803 38.045 15.3644 38.045 15.4392C38.045 15.4859 38.0544 15.5233 38.0637 15.5607C38.0824 15.6448 38.0917 15.7196 38.0637 15.8037C38.1197 15.8037 38.0917 15.8878 38.1571 15.8691C38.2224 16.0467 38.017 16.1869 38.2317 16.2523C38.2411 16.3271 38.1851 16.3458 38.1757 16.3831V16.3644C38.1757 16.514 38.1757 16.5607 38.1757 16.6635C38.1944 16.7196 38.2971 16.7289 38.2691 16.8317C38.2317 16.8037 38.2411 16.8317 38.2411 16.8785C38.2411 16.8504 38.2224 16.8504 38.1944 16.8972C38.2037 16.8972 38.2131 16.9158 38.2224 16.9252C38.2317 16.9813 38.2504 16.9813 38.2504 16.9439C38.2504 16.9439 38.2597 16.9439 38.2784 16.9439C38.2224 17.0093 38.2784 17.1215 38.2131 17.1308C38.2317 17.3177 38.2971 17.4486 38.3251 17.5981C38.2878 17.6168 38.2597 17.5794 38.2411 17.5327V17.6355C38.2411 17.6355 38.2224 17.57 38.2131 17.542C38.1291 17.6729 38.2971 17.813 38.2131 17.9626L38.2504 17.9906C38.2504 17.9906 38.2971 18.028 38.3064 18.056C38.2597 18.0747 38.2037 18.056 38.2131 18.1308C38.1757 18.1869 38.2317 18.299 38.2597 18.3831C38.2597 18.3364 38.2878 18.3551 38.3064 18.3738C38.3064 18.4112 38.2691 18.4299 38.2784 18.4579H38.2224C38.2784 18.4486 38.2784 18.5607 38.3064 18.57C38.2597 18.5887 38.2691 18.514 38.2317 18.5046C38.2317 18.6542 38.2317 18.5794 38.2317 18.7289C38.2784 18.813 38.2878 18.7102 38.3344 18.757C38.3438 18.8317 38.3904 18.8972 38.3531 18.9813L38.4091 18.9532C38.4464 19.0841 38.4464 19.1682 38.3904 19.2616C38.8105 20.2616 38.9692 19.4766 38.9692 19.4766C39.0812 19.0841 38.9319 18.8785 38.8945 18.4112" fill="#FE6F0F"/>
<path d="M23.2207 24.8792L23.2588 24.8318C23.2588 24.8318 23.2302 24.8508 23.2207 24.8792Z" fill="#1B1B1B"/>
<path d="M24.4248 23.0935L24.4348 23.1035H24.4248V23.0935Z" fill="#1B1B1B"/>
<path d="M24.4719 25.3083C24.4719 24.7289 24.6306 24.5607 24.5185 23.9625C24.5185 23.6728 24.4625 23.3738 24.4252 23.0934C24.2758 22.9625 24.4065 22.7289 24.2852 22.57L24.3692 22.5046C24.3225 22.4485 24.2945 22.3925 24.3412 22.3364H24.3692C24.3038 22.2616 24.3412 22.1682 24.3132 22.1308H24.3412V22.0373L24.3598 22.056C24.2945 21.9158 24.2852 21.7663 24.3132 21.6448H24.2198C24.3225 21.3831 24.1265 21.2803 24.2571 21.0373H24.2852C24.0331 20.7196 24.4625 20.5513 24.2291 20.2149C24.2571 20.2523 24.2852 20.1962 24.3038 20.2055C24.2758 20.056 24.2758 19.8971 24.0798 19.8878C24.0798 19.7756 24.1451 19.8037 24.2198 19.7943C24.1358 19.7943 24.1078 19.6915 24.1078 19.6074L24.1358 19.6448L24.1171 19.4018L23.9584 19.4392C24.0144 19.3083 24.1545 19.4111 24.1265 19.2896H23.9958C24.0238 19.1027 24.2385 19.0093 24.3412 18.8504C24.4439 18.1495 24.2011 17.3364 24.5185 16.7196L24.6212 16.7009C24.7612 16.7009 24.4345 16.4859 24.5745 16.4859L24.5279 16.4018C24.5279 16.4018 24.5932 16.3457 24.6119 16.3831C24.6306 16.3177 24.6119 16.3083 24.5745 16.2523L24.6772 16.1962C24.7986 15.9345 24.6679 15.6728 24.7706 15.3925C24.8359 15.3177 24.8826 15.2242 24.9106 15.1121C24.9479 15.0186 24.9666 14.8971 24.9946 14.7943C25.032 14.5794 25.0693 14.3738 25.0973 14.271C25.0973 14.0747 25.3214 14.084 25.4147 14.1962C25.5454 14.2897 25.7694 14.4579 26.0308 14.4392C26.0308 14.4672 26.0868 14.4392 26.0962 14.4205C26.2175 14.4859 26.3575 14.57 26.4789 14.6635C26.4789 14.6635 26.6003 14.7382 26.7683 14.8411C26.9363 14.9345 27.151 15.056 27.3377 15.1121C27.7111 15.2336 28.0472 15.1121 27.5991 14.0467L27.6271 14.028C27.4311 13.7943 27.2724 13.6728 27.011 13.7009C27.0857 13.5139 26.8056 13.5513 26.7683 13.4672H26.7776C26.5536 13.4953 26.4509 13.1588 26.2269 13.2149C26.2362 13.2055 26.2642 13.1588 26.3015 13.1682C26.1615 13.1401 25.9655 13.1214 25.9841 13.0093C25.7974 12.9719 25.5734 12.9065 25.284 12.9252C25.004 12.9439 24.7706 13.0747 24.6866 13.2242V13.1868C24.6119 13.3831 24.5092 13.3177 24.4158 13.4859C24.3972 13.4859 24.3878 13.4859 24.3785 13.4859C24.3505 13.5887 24.2945 13.6822 24.2198 13.7663C24.1638 13.8504 24.0985 13.9252 24.0985 13.9906L24.0331 13.9625L23.9304 14.2242L23.9864 14.1401C24.1545 14.2523 23.7904 14.2803 23.8464 14.5046C23.7717 14.6728 24.1638 14.9532 24.0331 15.084C24.1078 15.1868 23.8931 14.9812 23.9398 15.1121C23.8371 15.0934 23.8837 15.0467 23.7997 15.056C23.8277 15.1775 23.6504 15.2242 23.6877 15.3738H23.6037C23.7064 15.5794 23.4263 15.6915 23.5477 15.8411C23.5757 16.0467 23.277 15.9252 23.4077 16.1495L23.2863 16.2055C23.249 16.2897 23.417 16.2896 23.3423 16.3738C23.277 16.3551 23.2676 16.4859 23.2116 16.4205C23.0716 16.6168 23.2956 16.8784 23.0809 17.1401C23.2116 17.2149 23.1089 17.3551 23.2116 17.4111C23.1463 17.4111 23.1743 17.6915 23.0529 17.5233C23.0529 17.5046 23.0529 17.4859 23.0716 17.4859L22.9876 17.4579C22.8195 17.5981 23.0436 17.7663 23.0062 17.9158C23.0342 17.8691 23.0342 17.8037 23.0903 17.8597L23.0623 18.0093L22.9969 17.9719L22.9316 18.1868L23.0156 18.1588C22.9596 18.2616 22.8195 18.2896 22.9316 18.4205C22.9969 18.4766 23.0529 18.327 23.0716 18.4485C23.0062 18.5887 22.9036 18.8037 22.8569 18.9812C22.9502 18.9719 22.9502 19.0186 22.9689 19.0747H22.8849C22.9969 19.2803 22.6982 19.1401 22.7822 19.3364L22.7262 19.3177L22.8942 19.3831C23.0529 19.57 22.7169 19.4672 22.9316 19.6728C22.9222 19.5887 23.1183 19.6448 23.0716 19.7382L22.9876 19.7102C23.0062 19.7663 23.0342 19.785 23.0156 19.8224C22.9689 19.7943 22.9036 19.8037 22.9129 19.8784L22.8102 19.8224L22.9502 19.9719C22.8662 20.0747 22.9596 20.2616 22.8475 20.3083C22.8475 20.3083 22.7822 20.5513 22.9036 20.6074C22.8289 20.5607 22.7915 20.6915 22.7075 20.6541C22.7915 20.7196 22.8662 20.9065 22.7729 20.9812V20.9625C22.6702 21.2429 22.8849 21.4298 22.7729 21.6822C22.8662 21.6728 22.8195 21.8037 22.9409 21.7663C23.0623 22.0186 22.6888 22.2336 23.0809 22.3177C23.1089 22.4298 22.9969 22.4579 22.9782 22.5139L22.9596 22.4859C22.9969 22.7009 23.0062 22.7663 22.9969 22.9252C23.0342 22.9999 23.2116 23.0093 23.1743 23.1495C23.0996 23.1027 23.1183 23.1682 23.1183 23.2149C23.1089 23.1868 23.0809 23.1682 23.0342 23.2429C23.0623 23.2429 23.0716 23.2616 23.0809 23.2803H23.0623C23.0903 23.3644 23.1183 23.3551 23.1183 23.3083C23.1276 23.3083 23.1463 23.3083 23.1649 23.2896C23.0809 23.3831 23.1836 23.5513 23.0623 23.57C23.0996 23.8411 23.2396 24.0186 23.305 24.2429C23.249 24.271 23.1836 24.2242 23.1556 24.1588L23.1929 24.3177C23.1089 24.3177 23.1369 24.2336 23.1183 24.1868C22.9876 24.3831 23.2863 24.57 23.1743 24.7943L23.249 24.8317V24.8504C23.249 24.8504 23.333 24.8878 23.3423 24.9252C23.2676 24.9625 23.1649 24.9345 23.1836 25.0467C23.1183 25.1401 23.2396 25.2896 23.2956 25.4018C23.2956 25.3364 23.3423 25.3551 23.3796 25.3738C23.3796 25.4298 23.3143 25.4672 23.3516 25.5046L23.249 25.5233C23.3423 25.4953 23.3703 25.6541 23.417 25.6728C23.3423 25.7102 23.3423 25.5981 23.277 25.5887C23.305 25.8037 23.2956 25.6915 23.3236 25.9158C23.417 26.0186 23.417 25.8878 23.5197 25.9345C23.5477 26.0373 23.6317 26.1214 23.585 26.2523L23.669 26.2055C23.7624 26.3925 23.7624 26.5046 23.6877 26.6448C24.1638 27.3083 24.4252 27.3364 24.5745 27.2149C24.7239 27.0934 24.7612 26.8037 24.7612 26.8037C24.8919 26.2242 24.5932 25.9812 24.4532 25.327" fill="#1B1B1B"/>
<path d="M24.6864 30.5327L24.6304 30.5794C24.6304 30.5794 24.6677 30.5794 24.6864 30.5327Z" fill="#1B1B1B"/>
<path d="M23.7063 29.5514C23.4729 30.2524 23.2395 30.3832 23.0715 31.1402C22.9408 31.486 22.8475 31.8785 22.7541 32.2337C22.8288 32.4486 22.5954 32.6916 22.6421 32.9252L22.5394 32.972C22.5581 33.0561 22.5487 33.1402 22.4834 33.1963H22.4647C22.4834 33.3084 22.4087 33.4112 22.4274 33.4673H22.4087L22.3807 33.5795L22.3527 33.5514C22.3527 33.7477 22.2967 33.9346 22.2127 34.0841L22.306 34.1028C22.0913 34.4206 22.2313 34.6075 22.0166 34.8972H21.998C22.1193 35.3645 21.6339 35.4953 21.7833 36.0187C21.7646 35.9533 21.7272 36.0374 21.7086 36.0187C21.6899 36.243 21.6806 36.458 21.8673 36.486C21.8393 36.6355 21.7926 36.5981 21.7179 36.6075C21.8019 36.6168 21.8206 36.7477 21.8113 36.8692L21.7833 36.8131V37.1495L21.942 37.0935C21.8859 37.2617 21.7459 37.1215 21.7739 37.2897H21.9046C21.8673 37.5421 21.6526 37.6729 21.5592 37.9066C21.5219 38.4019 21.6152 38.9159 21.7086 39.4112C21.8113 39.9066 21.9046 40.3832 21.8953 40.8598L21.8113 40.9159C21.6712 40.9626 22.0726 41.1215 21.9513 41.1869L22.0446 41.271C22.0446 41.271 22.0166 41.3738 21.97 41.3271C21.9886 41.4206 22.0166 41.4206 22.0726 41.4767L22.0166 41.6075C22.0633 42.0094 22.3247 42.271 22.446 42.6729C22.446 43.215 23.0528 44.0187 23.4542 44.3925C24.061 44.8879 24.1824 45.8598 24.7612 46.2617C24.7612 46.2897 24.8265 46.3084 24.8452 46.2991C24.9572 46.4673 25.0599 46.6449 25.1532 46.8224C25.1532 46.8224 25.2372 46.9813 25.3493 47.1869C25.452 47.3925 25.564 47.6542 25.6853 47.8505C25.7974 48.0561 25.928 48.2056 26.0774 48.1402C26.2174 48.0748 26.4415 47.8038 26.5068 47.0561H26.5442C26.4788 46.6542 26.3668 46.4019 26.0961 46.2337C26.2454 46.0935 25.9467 45.9439 25.9467 45.8318H25.9654C25.7133 45.7103 25.788 45.3552 25.5453 45.2524C25.564 45.2524 25.6107 45.2243 25.6387 45.2524C25.5173 45.1402 25.3493 44.9813 25.4239 44.9066C25.1532 44.6168 24.8732 44.1869 24.5931 44.1215H24.6211C24.4438 44.0841 24.4998 43.9907 24.3691 43.9066C24.3691 43.8879 24.3691 43.8785 24.3784 43.8785C24.1917 43.8318 24.1264 43.5514 24.033 43.486L24.089 43.4393C24.033 43.3645 23.9863 43.2897 23.9303 43.2056L23.9677 43.3084C23.7716 43.3738 23.9677 43.0654 23.7623 42.9533C23.7063 42.7757 23.2022 42.7851 23.2209 42.5421C23.0902 42.486 23.3982 42.5608 23.2769 42.458C23.3702 42.4112 23.3609 42.4953 23.4262 42.4299C23.3235 42.3178 23.4262 42.1776 23.3142 42.0374L23.3889 42C23.1649 41.8411 23.3516 41.5608 23.1742 41.4673C23.0342 41.2617 23.3702 41.2524 23.1462 41.0561L23.2302 40.9346C23.2302 40.8318 23.0808 40.8972 23.0995 40.7757C23.1742 40.7757 23.1275 40.6168 23.2022 40.6729C23.2582 40.4019 22.9408 40.1869 23.0715 39.8224C22.9221 39.7664 22.9875 39.5888 22.8755 39.5421C22.9315 39.5234 22.8475 39.1963 22.9968 39.3738C23.0062 39.3925 23.0155 39.4206 22.9968 39.4206H23.0808C23.2115 39.2243 22.9688 39.0935 22.9688 38.8972C22.9408 38.9533 22.9688 39.0281 22.9035 38.9813V38.8038L22.9688 38.8318C22.9688 38.7477 22.9875 38.6542 22.9968 38.5608L22.9128 38.5981C22.9501 38.4673 23.0995 38.4206 22.9688 38.271C22.9035 38.2056 22.8568 38.3925 22.8288 38.2617C22.8941 38.0841 22.9688 37.8224 23.0155 37.6075C22.9221 37.6262 22.9221 37.5608 22.9035 37.5047H22.9875C22.8848 37.2617 23.1742 37.4299 23.0995 37.1963L23.1555 37.2243L22.9875 37.1495C22.8475 36.9252 23.1742 37.0561 22.9688 36.8038C22.9688 36.8972 22.7728 36.8318 22.8288 36.7196L22.9035 36.757C22.9035 36.6916 22.8661 36.6729 22.8848 36.6262C22.9221 36.6729 22.9968 36.6636 22.9968 36.5701L23.0902 36.6449L22.9688 36.458C23.0715 36.3365 23.0062 36.1215 23.1275 36.0935C23.1275 36.0935 23.1555 36.0281 23.1649 35.9533C23.1835 35.8785 23.1835 35.7851 23.1368 35.7383C23.1929 35.8131 23.2675 35.6636 23.3422 35.7383C23.2769 35.6449 23.2675 35.4112 23.3796 35.3458V35.3645C23.5756 35.0748 23.4356 34.7757 23.6409 34.5234C23.5476 34.5047 23.6409 34.3645 23.5196 34.3645C23.5103 34.0187 23.949 33.8972 23.6223 33.6636C23.6503 33.5234 23.7623 33.5234 23.809 33.4673V33.5047C23.8743 33.2337 23.9023 33.1589 23.977 32.972C23.977 32.8598 23.8183 32.7851 23.9117 32.6262C23.9583 32.7103 23.9677 32.6262 23.9957 32.5701C23.9957 32.6168 24.0143 32.6355 24.089 32.5701C24.0704 32.5514 24.061 32.5234 24.061 32.5047H24.0797C24.0984 32.3925 24.0704 32.4019 24.0424 32.4486C24.0424 32.4486 24.0143 32.4486 23.9957 32.4486C24.117 32.3645 24.0984 32.1309 24.2197 32.1589C24.3037 31.8224 24.2664 31.5421 24.3131 31.2617C24.3784 31.2524 24.4158 31.3271 24.4064 31.4206L24.4531 31.215C24.5371 31.243 24.4624 31.3458 24.4531 31.4112C24.6678 31.2243 24.4624 30.8879 24.6771 30.6449L24.6305 30.5701H24.6491C24.6491 30.5701 24.5838 30.4673 24.5838 30.4299C24.6678 30.4112 24.7518 30.486 24.7892 30.3458C24.8918 30.2524 24.8452 30.0281 24.8358 29.8692C24.8078 29.9439 24.7705 29.9066 24.7518 29.8692C24.7705 29.7944 24.8545 29.7757 24.8265 29.7103L24.9292 29.729C24.8265 29.729 24.8732 29.5234 24.8358 29.486C24.9199 29.458 24.8732 29.6075 24.9292 29.6449C24.9852 29.3552 24.9665 29.5047 25.0132 29.215C24.9665 29.0467 24.9105 29.215 24.8358 29.1309C24.8358 28.9907 24.7985 28.8505 24.8825 28.7103L24.7798 28.7477C24.7425 28.486 24.7705 28.3365 24.8825 28.1776C24.7238 27.6729 24.5184 27.458 24.3784 27.3738C24.2384 27.2897 24.1264 27.3084 24.061 27.3925C23.9023 27.5327 23.8743 27.7757 23.8556 27.7851C23.6409 28.3458 23.8556 28.7196 23.725 29.5514" fill="#1B1B1B"/>
<path d="M53.9146 24.7762L53.9622 24.7383C53.9622 24.7383 53.9241 24.7383 53.9146 24.7762Z" fill="#1B1B1B"/>
<path d="M55.0724 25.43C55.1751 24.8319 55.3711 24.6823 55.3431 24.0468C55.3711 23.7478 55.3431 23.4207 55.3431 23.1309C55.2031 22.9908 55.3524 22.7478 55.2404 22.5795L55.3244 22.5235C55.2871 22.4674 55.2591 22.402 55.3058 22.3459H55.3338C55.2777 22.2618 55.3151 22.1683 55.2777 22.1309H55.3058V22.0281L55.3338 22.0468C55.2684 21.8973 55.2684 21.7478 55.3058 21.6076H55.2124C55.3244 21.3366 55.1191 21.2244 55.2497 20.9721H55.2777C55.0257 20.6543 55.4458 20.4487 55.1937 20.1216C55.2217 20.159 55.2404 20.1029 55.2684 20.1029C55.2404 19.944 55.2124 19.7852 55.0257 19.7852C55.0257 19.673 55.0817 19.6917 55.1564 19.673C55.0724 19.673 55.035 19.5795 55.0257 19.4954L55.063 19.5328L55.0257 19.2805L54.867 19.3366C54.9043 19.1964 55.0537 19.2898 55.007 19.1683H54.8763C54.895 18.9908 55.0817 18.8693 55.1657 18.6824C55.1657 17.9253 54.755 17.1683 54.867 16.4394L54.9604 16.3926C55.1004 16.3552 54.7176 16.2338 54.8483 16.187L54.7736 16.1216C54.7736 16.1216 54.811 16.0375 54.8577 16.0749C54.8577 16.0001 54.8297 16.0001 54.7736 15.9534L54.8483 15.8599C54.867 15.5515 54.643 15.3366 54.6056 15.0188C54.7083 14.6263 54.3442 13.8319 53.8028 13.4581C53.6068 13.3366 53.4201 13.2338 53.2054 13.1496C53 13.0655 52.7293 13.0188 52.5146 13.0188C52.2998 13.0188 52.0945 13.0281 51.9264 13.0749C51.8424 13.1029 51.7677 13.1309 51.6931 13.1683C51.6184 13.2151 51.5344 13.2618 51.4784 13.3366C51.4504 13.3366 51.4223 13.3926 51.4317 13.4113C51.2543 13.4954 51.0863 13.5889 50.9276 13.6823C50.9276 13.6823 50.7782 13.7665 50.6102 13.9066C50.4328 14.0375 50.2368 14.2244 50.1154 14.402C49.8634 14.7665 49.9474 15.0468 51.0489 14.9721V15.0001C51.3197 14.9066 51.469 14.8319 51.5437 14.5889C51.6744 14.7384 51.7397 14.4954 51.8238 14.5141V14.5328C51.8984 14.3179 52.1598 14.4954 52.2345 14.3179C52.2345 14.3366 52.2532 14.3833 52.2252 14.402C52.3185 14.3366 52.4399 14.2431 52.4865 14.3459C52.5892 14.2992 52.7199 14.2711 52.7853 14.2524C52.8319 14.2338 52.8786 14.2057 52.944 14.1403L52.9253 14.1683C53.0093 14.0749 52.9813 14.1683 53.0653 14.1496C53.0653 14.159 53.0653 14.1777 53.056 14.1777C53.168 14.1216 53.196 14.2898 53.2707 14.3366L53.2147 14.3833C53.2147 14.3833 53.28 14.4767 53.308 14.5328L53.2894 14.4581C53.4854 14.402 53.2334 14.6356 53.4014 14.7197C53.4201 14.8506 53.8961 14.8786 53.8401 15.0655C53.9522 15.1216 53.6721 15.0375 53.7748 15.1309C53.6721 15.159 53.7001 15.0936 53.6254 15.1403C53.7001 15.2338 53.5601 15.3459 53.6628 15.4581L53.5881 15.4861C53.7748 15.6263 53.5507 15.8412 53.7188 15.9253C53.8215 16.0936 53.5041 16.0936 53.6908 16.2524L53.5881 16.3459C53.5881 16.43 53.7281 16.3833 53.6908 16.4767C53.6161 16.4767 53.6534 16.5982 53.5788 16.5609C53.4947 16.7758 53.8028 16.9534 53.6441 17.2431C53.7841 17.2805 53.7281 17.43 53.8308 17.4581C53.7748 17.4767 53.8588 17.7384 53.7094 17.5982C53.7001 17.5889 53.7001 17.5609 53.7188 17.5609H53.6348C53.5041 17.7197 53.7468 17.8225 53.7375 17.9814C53.7655 17.9347 53.7375 17.8693 53.8028 17.9066V18.0468L53.7375 18.0281L53.7188 18.2431L53.8028 18.2057C53.7655 18.3085 53.6254 18.3646 53.7561 18.4674C53.8308 18.5141 53.8588 18.3552 53.8962 18.4674C53.8495 18.6076 53.7748 18.8225 53.7655 19.0095C53.8588 18.9814 53.8588 19.0281 53.8868 19.0842H53.8028C53.9242 19.2805 53.6254 19.1777 53.7188 19.3646H53.6628L53.8401 19.3926C54.0082 19.5609 53.6721 19.4954 53.9055 19.673C53.8868 19.5982 54.0922 19.6263 54.0548 19.7197L53.9802 19.701C53.9988 19.7571 54.0362 19.7665 54.0175 19.8038C53.9708 19.7758 53.8962 19.7945 53.9148 19.8693L53.8121 19.8225L53.9615 19.9534C53.8775 20.0655 53.9895 20.2338 53.8775 20.2898C53.8775 20.2898 53.8308 20.5235 53.9522 20.5795C53.8681 20.5328 53.8495 20.6637 53.7561 20.6263C53.8401 20.6824 53.9148 20.8693 53.8215 20.9347H53.8121C53.7188 21.187 53.9522 21.3833 53.8308 21.6169C53.9242 21.6076 53.8775 21.7291 53.9988 21.701C54.1202 21.9534 53.7468 22.1496 54.1202 22.2431C54.1389 22.3552 54.0268 22.3739 54.0082 22.43L53.9895 22.402C54.0175 22.6169 54.0175 22.6823 53.9988 22.8319C54.0362 22.9066 54.2135 22.9347 54.1575 23.0749C54.0922 23.0281 54.1015 23.0749 54.1015 23.1403C54.1015 23.1029 54.0642 23.0936 54.0175 23.159C54.0362 23.1683 54.0455 23.187 54.0642 23.1964H54.0455C54.0642 23.2805 54.0922 23.2711 54.1015 23.2338C54.1109 23.2338 54.1295 23.2338 54.1482 23.2244C54.0548 23.3085 54.1482 23.4767 54.0175 23.4861C54.0362 23.7571 54.1482 23.9534 54.1762 24.1683C54.1109 24.187 54.0642 24.1309 54.0362 24.0655V24.2244C53.9615 24.2244 54.0082 24.1309 53.9895 24.0842C53.8308 24.2618 54.1015 24.4767 53.9522 24.6917L54.0175 24.7384H54.0082C54.0082 24.7384 54.0922 24.8038 54.1015 24.8412C54.0175 24.8693 53.9242 24.8225 53.9148 24.9347C53.8308 25.0188 53.9335 25.1777 53.9615 25.2898C53.9802 25.2338 54.0175 25.2524 54.0455 25.2898C54.0455 25.3459 53.9615 25.3739 53.9895 25.4113H53.8868C53.9895 25.3926 53.9802 25.5609 54.0268 25.5795C53.9428 25.5982 53.9708 25.4861 53.9148 25.4674C53.9055 25.6823 53.9148 25.5795 53.8962 25.7945C53.9615 25.916 53.9988 25.7945 54.0829 25.8506C54.0829 25.9534 54.1575 26.0655 54.0829 26.1777L54.1762 26.1496C54.2322 26.3459 54.2042 26.4674 54.0922 26.5795C54.3722 27.3459 54.6243 27.4581 54.8017 27.3833C54.979 27.2992 55.091 27.0188 55.091 27.0188C55.3711 26.4674 55.1377 26.1309 55.1284 25.4394" fill="#1B1B1B"/>
<path d="M55.3062 30.3457L55.2681 30.4027C55.2681 30.4027 55.3062 30.3837 55.3062 30.3457Z" fill="#1B1B1B"/>
<path d="M54.2976 32.7011C54.2976 32.7011 54.2976 32.6916 54.2881 32.6821V32.7011H54.2976Z" fill="#1B1B1B"/>
<path d="M54.0453 29.7756C54.064 30.5513 53.9053 30.7849 54.0826 31.5606C54.12 31.9438 54.2227 32.3363 54.2973 32.6915C54.4654 32.841 54.3814 33.1681 54.5307 33.355L54.4654 33.4485C54.5214 33.5139 54.5587 33.5887 54.5307 33.6635H54.5121C54.5867 33.7569 54.5774 33.8878 54.6147 33.9251H54.5867L54.6147 34.0466L54.5774 34.0279C54.6708 34.1962 54.7081 34.3924 54.7081 34.5513L54.8014 34.5233C54.7548 34.8971 54.9788 34.9906 54.9041 35.327H54.8855C55.2122 35.6821 54.8294 35.9906 55.1282 36.355C55.0908 36.3083 55.0815 36.3831 55.0535 36.3831C55.1002 36.5606 55.1468 36.7476 55.3335 36.7289C55.3522 36.8597 55.2869 36.841 55.2215 36.8691C55.3055 36.8597 55.3522 36.9719 55.3615 37.0747L55.3242 37.0279L55.3802 37.327L55.5296 37.2522C55.4922 37.4205 55.3429 37.3083 55.3896 37.4578H55.5202C55.5016 37.6728 55.3149 37.813 55.2215 38.0279C55.1842 38.8878 55.3989 39.8971 54.9975 40.6635H54.8948C54.7548 40.6635 55.0535 40.9438 54.9135 40.9438L54.9508 41.0466C54.9508 41.0466 54.8761 41.112 54.8575 41.056C54.8294 41.1401 54.8575 41.1494 54.8761 41.2242L54.7641 41.2896C54.6054 41.598 54.6707 41.9251 54.5027 42.2522C54.1853 42.5887 53.9706 43.355 53.7652 43.7943C53.5505 44.4672 52.5517 44.7195 52.2903 45.5139C52.2623 45.5139 52.2623 45.6074 52.2716 45.6167C52.1316 45.813 52.0009 46.0092 51.8702 46.2242C51.8702 46.2242 51.7582 46.4205 51.6462 46.6915C51.5342 46.9625 51.4595 47.3363 51.4595 47.6167C51.4595 47.9064 51.5435 48.1027 51.7115 48.084C51.8889 48.0747 52.1223 47.813 52.5797 47.3924L52.6077 47.4205C52.7944 47.1401 52.8877 46.9812 52.8597 46.7102C53.0464 46.7756 53.0091 46.4859 53.1118 46.4485V46.4672C53.1118 46.2149 53.4572 46.1962 53.4759 45.9532C53.4759 45.9719 53.5225 46.0092 53.5039 46.0466C53.5692 45.9158 53.6626 45.7289 53.7559 45.7849C53.9519 45.4859 54.3347 45.112 54.344 44.8036L54.3627 44.8317C54.3627 44.6448 54.456 44.6728 54.5027 44.5139H54.5307C54.5307 44.3177 54.7828 44.1307 54.8014 43.9906L54.8668 44.0186C54.9228 43.9251 54.9695 43.8317 55.0162 43.7382L54.9415 43.8317C54.7828 43.6915 55.1655 43.6915 55.1562 43.4205C55.2682 43.2335 54.9601 42.8597 55.1282 42.7102C55.0815 42.5793 55.2309 42.8504 55.2309 42.6821C55.3335 42.7195 55.2682 42.7756 55.3615 42.7663C55.3615 42.6074 55.5576 42.5793 55.5576 42.3831L55.6416 42.4018C55.5856 42.1214 55.903 41.9999 55.8096 41.8036C55.8096 41.542 56.099 41.7102 56.015 41.4111L56.155 41.3363C56.2017 41.2335 56.043 41.2242 56.127 41.1214C56.1924 41.1494 56.2204 40.9812 56.2671 41.0653C56.4351 40.8036 56.2391 40.4672 56.4818 40.1307C56.3604 40.0279 56.4631 39.8597 56.3697 39.7849C56.4258 39.7849 56.4258 39.4111 56.5284 39.6354C56.5284 39.6541 56.5284 39.6915 56.5098 39.6821L56.5938 39.7195C56.7805 39.5233 56.5564 39.327 56.5938 39.112C56.5658 39.1681 56.5658 39.2522 56.5098 39.1962L56.5378 38.9999L56.6031 39.0466C56.6218 38.9532 56.6498 38.8504 56.6685 38.7569L56.5844 38.7943C56.6311 38.6541 56.7805 38.6074 56.6685 38.4392C56.6031 38.3644 56.5471 38.57 56.5284 38.4205C56.5938 38.2335 56.6778 37.9438 56.6965 37.7008C56.6031 37.7289 56.6031 37.6635 56.5844 37.598H56.6685C56.5378 37.327 56.8458 37.4859 56.7431 37.2242L56.7992 37.2429L56.6218 37.1868C56.4351 36.9719 56.7805 37.0466 56.5378 36.8036C56.5658 36.9064 56.3604 36.8691 56.3791 36.7476L56.4631 36.7756C56.4351 36.7102 56.4071 36.6915 56.4164 36.6448C56.4631 36.6821 56.5378 36.6448 56.5098 36.5513L56.6218 36.6074L56.4444 36.4392C56.5098 36.2803 56.3697 36.056 56.4724 35.9906C56.4724 35.9906 56.4724 35.6821 56.3417 35.6354C56.4258 35.6821 56.4258 35.5139 56.5284 35.542C56.4258 35.4765 56.3137 35.2616 56.3884 35.1588V35.1775C56.4351 34.8223 56.1737 34.6261 56.2297 34.299C56.1364 34.327 56.1644 34.1588 56.043 34.2242C55.8656 33.9345 56.1924 33.6074 55.8003 33.5606C55.7536 33.4205 55.8563 33.3737 55.8656 33.299L55.8843 33.327C55.8096 33.0653 55.791 32.9906 55.7723 32.7849C55.7256 32.6915 55.5389 32.7008 55.5576 32.5233C55.6416 32.57 55.6136 32.4952 55.6043 32.4298C55.6229 32.4672 55.6509 32.4765 55.6883 32.3831C55.6603 32.3831 55.6509 32.355 55.6323 32.3457C55.6323 32.3457 55.6323 32.3457 55.6509 32.3457C55.6136 32.2335 55.5949 32.2616 55.5856 32.3177C55.5763 32.3177 55.5576 32.3177 55.5483 32.3457C55.6229 32.2149 55.4922 32.0279 55.6136 31.9906C55.5296 31.6635 55.3802 31.4485 55.2962 31.1681C55.3522 31.1307 55.4176 31.1868 55.4549 31.2616L55.4082 31.0747C55.4922 31.0747 55.4736 31.1775 55.5016 31.2335C55.6136 30.9812 55.2962 30.7663 55.3989 30.4765L55.3242 30.4298V30.4111C55.3242 30.4111 55.2402 30.355 55.2215 30.3177C55.2962 30.2709 55.3989 30.299 55.3896 30.1681C55.4549 30.056 55.3149 29.8691 55.2682 29.7289C55.2682 29.8036 55.2122 29.7849 55.1842 29.7569C55.1842 29.6915 55.2495 29.6448 55.2122 29.598L55.3149 29.5793C55.2215 29.6074 55.1935 29.4111 55.1562 29.3831C55.2309 29.3363 55.2309 29.4859 55.2962 29.4952C55.2682 29.2242 55.2775 29.355 55.2589 29.0934C55.1748 28.9532 55.1562 29.1214 55.0628 29.056C55.0348 28.9251 54.9601 28.8036 55.0162 28.6541L54.9228 28.7008C54.8481 28.4578 54.8575 28.3083 54.9601 28.1494C54.7828 27.7008 54.6708 27.4111 54.5587 27.2616C54.4467 27.112 54.344 27.1027 54.2507 27.1494C54.1573 27.2055 54.0826 27.3363 54.0266 27.4578C53.9706 27.5793 53.9426 27.6821 53.9426 27.6821C53.6812 28.4859 53.98 28.8878 54.1106 29.7569" fill="#1B1B1B"/>
<path d="M32.8638 22.7197L32.9198 22.7478C32.9198 22.7478 32.9011 22.7197 32.8638 22.7197Z" fill="#1B1B1B"/>
<path d="M32.6586 24.0186C33.228 23.9345 33.396 24.0466 33.9561 23.8784C34.2362 23.841 34.5163 23.7382 34.787 23.6728C34.899 23.5139 35.151 23.6167 35.2817 23.4766L35.3564 23.5513C35.4031 23.5046 35.4684 23.4672 35.5244 23.5046V23.5326C35.5991 23.4579 35.6925 23.4859 35.7205 23.4485V23.4766L35.8138 23.4579V23.4952C35.9352 23.4111 36.0752 23.4018 36.2059 23.4111L36.1872 23.3177C36.4673 23.4018 36.5513 23.1868 36.8034 23.2896V23.3177C37.0927 23.0373 37.2981 23.4579 37.6062 23.1962C37.5688 23.2242 37.6248 23.2429 37.6248 23.2709C37.7649 23.2336 37.9329 23.2055 37.9236 23.0186C38.0263 23.0186 38.0169 23.0747 38.0263 23.1494C38.0263 23.0653 38.1103 23.028 38.1943 23.0186L38.1569 23.0466L38.3997 23.0093L38.3436 22.8504C38.4743 22.8971 38.381 23.0466 38.5023 22.9999V22.8691C38.6797 22.8878 38.7824 23.084 38.9598 23.1775C39.6692 23.2242 40.444 22.9065 41.0882 23.1775L41.1162 23.2803C41.1162 23.4205 41.3122 23.0747 41.3309 23.2149L41.4149 23.1588C41.4149 23.1588 41.4802 23.2149 41.4336 23.2429C41.5083 23.2429 41.5083 23.2336 41.5643 23.1868L41.6296 23.2803C41.9003 23.3737 42.1524 23.2242 42.4418 23.2803C42.7685 23.5046 43.4406 23.4205 43.842 23.3924C44.1221 23.3457 44.3928 23.4859 44.6635 23.6261C44.9249 23.785 45.1769 23.9345 45.4663 23.8878C45.4757 23.9158 45.5317 23.8878 45.541 23.8597C45.6997 23.9158 45.8491 23.9812 45.9984 24.0373C45.9984 24.0373 46.1385 24.0934 46.3252 24.1401C46.5119 24.1962 46.7266 24.2709 46.9226 24.2803C47.1187 24.299 47.2867 24.2616 47.3334 24.1027C47.38 23.9438 47.3054 23.6728 46.9693 23.1868L46.9973 23.1681C46.7546 22.9719 46.5679 22.9158 46.3252 22.9906C46.3625 22.7943 46.1011 22.8878 46.0545 22.813H46.0638C45.8491 22.8784 45.7371 22.5794 45.541 22.6635C45.5504 22.6541 45.569 22.598 45.6064 22.6074C45.4757 22.6074 45.2983 22.598 45.317 22.4859C45.0183 22.4298 44.6168 22.299 44.3928 22.4392L44.4115 22.4111C44.2808 22.5046 44.2714 22.4111 44.1408 22.4392C44.1408 22.4205 44.1314 22.4111 44.1408 22.4111C44.0007 22.5046 43.7954 22.3644 43.702 22.4111V22.3364L43.478 22.3177L43.562 22.3457C43.4966 22.542 43.4033 22.1962 43.2166 22.299C43.0579 22.2523 42.8432 22.6728 42.6938 22.5513C42.6098 22.6354 42.7778 22.4018 42.6565 22.4672C42.6565 22.3644 42.7218 22.4111 42.6938 22.3177C42.5725 22.3551 42.5164 22.1868 42.3671 22.2523V22.1681C42.171 22.299 42.031 22.028 41.9003 22.1681C41.7043 22.2242 41.7976 21.9065 41.5829 22.056L41.5176 21.9438C41.4336 21.9251 41.4429 22.084 41.3589 22.0186C41.3682 21.9438 41.2469 21.9532 41.3029 21.8878C41.0882 21.7663 40.8641 22.0186 40.5841 21.8223C40.5187 21.9625 40.3787 21.8691 40.332 21.9719C40.332 21.9158 40.052 21.9625 40.2107 21.8317C40.2293 21.8223 40.248 21.8317 40.248 21.8504L40.2667 21.7663C40.108 21.6074 39.968 21.841 39.8093 21.8223C39.8559 21.8504 39.9213 21.841 39.8746 21.8971H39.7252L39.7533 21.813L39.5292 21.7663L39.5666 21.8504C39.4545 21.8037 39.4172 21.6635 39.2958 21.7756C39.2398 21.841 39.3985 21.8878 39.2865 21.9158C39.1465 21.8504 38.9224 21.7756 38.7357 21.7569C38.7544 21.8504 38.7077 21.8504 38.6517 21.8691V21.785C38.4557 21.9065 38.5677 21.6074 38.381 21.7008L38.3997 21.6448L38.353 21.8223C38.185 21.9906 38.2503 21.6541 38.0636 21.8784C38.1383 21.8597 38.1103 22.0653 38.0169 22.028L38.0356 21.9438C37.9796 21.9625 37.9702 21.9999 37.9329 21.9812C37.9609 21.9345 37.9422 21.8597 37.8676 21.8784L37.9142 21.7756L37.7742 21.9345C37.6622 21.8597 37.4848 21.9719 37.4288 21.8691C37.4288 21.8691 37.1768 21.8317 37.1394 21.9532C37.1861 21.8691 37.0461 21.8504 37.0834 21.7663C37.0274 21.8597 36.85 21.9438 36.766 21.8504H36.7754C36.4953 21.7663 36.3179 22.0093 36.0565 21.9251C36.0752 22.0186 35.9445 21.9812 35.9912 22.1027C35.7485 22.2523 35.4964 21.8971 35.4591 22.299C35.3471 22.3364 35.3097 22.2336 35.2537 22.2242L35.2817 22.1962C35.067 22.2616 35.011 22.2709 34.843 22.2803C34.7683 22.327 34.787 22.5046 34.6376 22.4859C34.675 22.4111 34.6189 22.4298 34.5629 22.4392C34.5909 22.4205 34.6003 22.3924 34.5256 22.3551C34.5256 22.3831 34.5069 22.3924 34.4976 22.4111C34.4976 22.4111 34.4976 22.4111 34.4976 22.3924C34.4136 22.4298 34.4322 22.4485 34.4696 22.4485C34.4696 22.4579 34.4696 22.4672 34.4882 22.4859C34.3856 22.4111 34.2362 22.542 34.1989 22.4205C33.9375 22.5046 33.7694 22.6635 33.5641 22.7476C33.5267 22.6915 33.5641 22.6261 33.6294 22.5887L33.4801 22.6354C33.4614 22.5513 33.5547 22.57 33.6014 22.542C33.3867 22.4298 33.2467 22.7663 33.004 22.6915L32.976 22.7663H32.9573C32.9573 22.7663 32.9293 22.8597 32.9013 22.8784C32.8546 22.813 32.8639 22.7009 32.7519 22.7382C32.6492 22.6915 32.5185 22.8317 32.4252 22.8971C32.4905 22.8971 32.4812 22.9438 32.4625 22.9812C32.4159 22.9999 32.3598 22.9251 32.3318 22.9812L32.3038 22.8784C32.3505 22.9625 32.1918 23.028 32.1918 23.0747C32.1358 23.0093 32.2572 22.9812 32.2478 22.9251C32.0331 22.9999 32.1358 22.9625 31.9304 23.0373C31.8371 23.1494 31.9864 23.1214 31.9584 23.2336C31.8651 23.2803 31.7904 23.3831 31.6597 23.3644L31.7251 23.4392C31.5664 23.5607 31.4543 23.598 31.2956 23.5513C30.7635 24.1775 30.8195 24.4298 30.9782 24.542C31.1369 24.6541 31.4077 24.6261 31.4077 24.6261C31.9491 24.6261 32.1265 24.299 32.7146 24.0373" fill="#1B1B1B"/>
<path d="M32.0516 39.6917C32.3877 39.9534 35.0295 41.0935 36.2711 39.1029C36.6818 38.4487 36.8872 37.5328 36.9619 36.7945C37.1299 35.0375 37.1486 33.0935 36.4391 31.4393C36.2151 30.916 35.935 30.3833 35.4403 30.0188C34.4881 29.3272 32.9758 29.4954 32.033 30.1963C31.0901 30.8973 30.6514 32.0001 30.53 33.0749C30.4086 34.1496 29.7272 37.8879 32.0516 39.6917Z" fill="white"/>
<path d="M31.8466 39.8411C32.9295 40.6262 34.8151 40.8505 35.9354 40.0561C36.8689 39.3925 37.1956 38.1402 37.3263 37.0654C37.485 35.7477 37.5037 34.3738 37.2703 33.0654C37.0649 31.9159 36.6168 30.5888 35.646 29.8692C34.7965 29.243 33.6203 29.1402 32.6401 29.4766C30.5957 30.1589 30.1663 32.2617 30.0076 34.1495C29.8302 36.2243 30.1289 38.4579 31.8559 39.8411C32.1826 40.1028 32.7054 39.8879 32.2667 39.5421C30.9691 38.5047 30.6984 36.729 30.7357 35.1589C30.773 33.7757 30.8851 32.1308 31.7719 31.0187C32.416 30.2056 33.4989 29.7196 34.5258 29.8972C35.6646 30.0935 36.1221 31.3084 36.3834 32.2991C36.6822 33.4019 36.7102 34.5514 36.6542 35.6822C36.5982 36.729 36.5141 37.8505 35.982 38.7757C35.5153 39.6075 34.6845 40.0187 33.7416 39.9626C33.4055 39.9439 33.0788 39.8692 32.7614 39.7664C32.6027 39.7103 32.2853 39.5701 32.2573 39.5421C31.9213 39.2991 31.3892 39.514 31.8466 39.8411Z" fill="black"/>
<path d="M31.9396 33.7476C31.9396 32.4673 33.0505 31.9719 33.6946 31.9719C35.8043 31.9719 35.627 34.4299 35.4216 36.7476C35.2629 38.5046 32.9571 38.2616 32.341 37.5794C31.5942 36.757 31.9489 34.8972 31.9489 33.7383" fill="black"/>
<path d="M46.1946 39.6917C45.8586 39.9534 43.2167 41.0935 41.9751 39.1029C41.5644 38.4487 41.359 37.5328 41.2843 36.7945C41.1163 35.0375 41.0976 33.0935 41.8071 31.4393C42.0312 30.916 42.3112 30.3833 42.806 30.0188C43.7582 29.3272 45.2704 29.4954 46.2133 30.1963C47.1561 30.8973 47.5949 32.0001 47.7162 33.0749C47.8376 34.1496 48.5191 37.8879 46.1946 39.6917Z" fill="white"/>
<path d="M45.868 39.4486C45.0185 40.0654 43.3942 40.2524 42.6101 39.4673C41.8539 38.7196 41.7139 37.4486 41.6299 36.4393C41.5459 35.3365 41.5365 34.2243 41.7326 33.1402C41.9099 32.1589 42.2833 30.8879 43.1328 30.2617C43.9543 29.6636 45.1959 29.757 45.9987 30.3365C47.2776 31.2711 47.4083 33.0748 47.4923 34.5234C47.595 36.2991 47.3336 38.2524 45.8587 39.4299C45.588 39.6449 46.2694 40.1122 46.5121 39.9159C48.0524 38.6823 48.3698 36.6542 48.2671 34.7851C48.1551 32.9439 47.8751 30.9439 46.1854 29.8785C45.2799 29.3084 44.0383 29.0654 43.0115 29.4673C41.9099 29.9066 41.4058 31.0748 41.1164 32.1496C40.7617 33.4486 40.7524 34.8225 40.8551 36.1589C40.9391 37.3084 41.1351 38.5701 41.9099 39.4767C42.5727 40.2524 43.5902 40.5888 44.5984 40.5047C45.2332 40.4486 45.9894 40.2897 46.5121 39.9159C46.7922 39.7103 46.1107 39.243 45.8587 39.4299" fill="black"/>
<path d="M46.3065 33.7476C46.3065 32.4673 45.1956 31.9719 44.5515 31.9719C42.4418 31.9719 42.6191 34.4299 42.8245 36.7476C42.9832 38.5046 45.289 38.2616 45.9051 37.5794C46.6519 36.757 46.2972 34.8972 46.2972 33.7383" fill="black"/>
<path d="M48.8271 18.0841L48.9112 18C48.9112 18 48.8645 18.0093 48.8271 18.0841Z" fill="#1B1B1B"/>
<path d="M49.2282 19.888C49.9937 18.5609 50.3484 18.2898 51.0392 16.8506C51.1699 16.6076 51.3099 16.3553 51.4499 16.0936L51.7207 15.5889L51.8514 15.3366L51.9167 15.2151L51.9447 15.1496C51.9447 15.1496 51.9167 15.1216 51.9074 15.1029C51.5806 14.9067 51.2632 14.7011 50.9459 14.5048C50.7125 14.3646 50.4884 14.2244 50.2644 14.0842C49.891 14.0095 49.3869 13.5889 48.9668 13.4768L48.8641 13.3272C48.7148 13.2992 48.5467 13.2431 48.4254 13.1403L48.444 13.1216C48.22 13.0749 48.0146 12.9347 47.9026 12.916L47.9213 12.8973L47.6692 12.7852H47.7252C47.3425 12.673 46.9784 12.5328 46.661 12.3646V12.4674C46.3343 12.2711 46.0729 12.2244 45.8395 12.159C45.5968 12.0936 45.3728 12.0188 45.0647 11.8786L45.0834 11.8599C44.1966 11.8599 43.8232 11.3272 42.899 11.3926C43.011 11.3833 42.8616 11.3366 42.871 11.3085C42.4602 11.2711 42.0308 11.2057 42.0028 11.3926C41.7134 11.3459 41.7788 11.3085 41.7508 11.2244C41.7508 11.3085 41.48 11.3085 41.256 11.2898L41.368 11.2711C41.144 11.2618 40.9293 11.2338 40.7052 11.2338L40.8173 11.402C40.4812 11.3366 40.7426 11.2057 40.4065 11.2244V11.3553C39.9304 11.2992 39.6504 11.0936 39.1836 11.0001C38.2034 10.9721 37.1952 11.1029 36.2244 11.2992C35.2535 11.4861 34.3107 11.7104 33.4145 11.8412L33.3118 11.7665C33.2371 11.6356 32.8917 12.1123 32.7891 12.0095L32.6117 12.131C32.5463 12.131 32.4157 12.131 32.509 12.0655C32.3223 12.1216 32.3223 12.1496 32.2009 12.2338L31.9769 12.2151C31.2301 12.402 30.6793 12.7945 29.9325 13.1029C29.4564 13.2151 28.8123 13.5235 28.2149 13.8973C28.0655 13.9908 27.9068 14.0842 27.7668 14.187C27.6081 14.2992 27.4494 14.4113 27.3 14.5141C27.076 14.673 26.8799 14.8225 26.7026 14.9721C26.6186 15.0468 26.5345 15.1123 26.4505 15.1777L26.3945 15.2244C26.3945 15.2244 26.3292 15.2525 26.3665 15.2805C26.3945 15.3272 26.4225 15.3739 26.4505 15.4207C26.6092 15.673 26.7492 15.9253 26.8893 16.1683C26.9453 16.2711 27.0106 16.3833 27.0666 16.4954C27.104 16.5796 27.1507 16.6637 27.1973 16.7478C27.356 17.0936 27.5054 17.4581 27.6548 17.8225C27.9535 18.5515 28.2522 19.2805 28.7003 19.8786C28.7003 19.9347 28.803 20.0188 28.8123 20.0095L29.4284 21.2057C29.4284 21.2057 32.4717 26.9908 31.1648 22.0468L31.2114 22.0655C30.9314 21.3833 30.726 20.9627 30.3433 20.5889C30.474 20.4207 30.0725 20.0468 30.0445 19.8599H30.0632C29.7178 19.5422 29.7365 18.9908 29.4098 18.673C29.4284 18.673 29.4844 18.673 29.5311 18.7478C29.3631 18.4768 29.1204 18.1216 29.2044 18.0468C28.8216 17.3926 28.3736 16.4394 27.9815 16.1029L28.0282 16.1216C27.9721 16.0749 27.9255 16.0375 27.8975 15.9908C27.8788 15.9721 27.8695 15.944 27.8601 15.9347C27.8601 15.9347 27.8508 15.916 27.8415 15.9067C27.8228 15.8693 27.8134 15.8319 27.7481 15.7758C27.7574 15.7758 27.7668 15.7571 27.7761 15.7571C27.7014 15.7011 27.5427 15.5702 27.7014 15.5235C27.7948 15.4674 27.8975 15.4113 27.9255 15.3646L27.9815 15.4207C27.9815 15.4207 28.1028 15.3366 28.1775 15.2898L28.4202 15.131L28.2242 15.2244C28.1869 15.0095 28.6629 15.1123 28.971 14.7945C29.3257 14.6263 29.4938 14.0375 29.9138 13.944C30.0539 13.7758 29.8205 14.159 30.0539 13.9627C30.1099 14.0562 29.9605 14.0842 30.0539 14.1216C30.2966 13.9534 30.53 14.0282 30.8287 13.8132L30.8754 13.888C31.2488 13.5609 31.7249 13.6637 31.9676 13.4207C32.397 13.1964 32.3503 13.5515 32.7704 13.2338C32.8451 13.2525 32.9104 13.2618 32.9851 13.2805C33.1905 13.2338 33.0878 13.1029 33.3305 13.0842C33.3305 13.159 33.6292 13.0562 33.5172 13.159C34.0493 13.1216 34.5254 12.7291 35.2442 12.7665C35.3656 12.5982 35.7296 12.6263 35.823 12.5048C35.851 12.5515 36.5231 12.4113 36.1497 12.5889C36.1217 12.6076 36.0563 12.6076 36.0563 12.5889L36.0283 12.673C36.4484 12.7665 36.7285 12.4861 37.1206 12.4674C36.9992 12.4487 36.8498 12.4674 36.9432 12.4113L37.3073 12.3833L37.2419 12.4581H37.7833L37.6993 12.3739C37.97 12.3926 38.0727 12.5422 38.3621 12.402C38.4928 12.3272 38.1101 12.2992 38.3901 12.2618C38.7542 12.2898 39.277 12.402 39.7344 12.43C39.697 12.3272 39.8184 12.3366 39.9398 12.3272V12.4113C40.4345 12.3272 40.1171 12.6076 40.5932 12.5422L40.5465 12.5982L40.6866 12.43C41.1253 12.3085 40.9013 12.6263 41.396 12.4581C41.2 12.4581 41.3307 12.2618 41.5641 12.3272L41.4987 12.402C41.6294 12.402 41.6761 12.3739 41.7601 12.402C41.6761 12.4394 41.7041 12.5048 41.8908 12.5328L41.7508 12.6169L42.1242 12.5328C42.3856 12.6637 42.843 12.6263 42.927 12.7665C42.927 12.7665 43.4964 12.9534 43.6551 12.8599C43.5151 12.9067 43.8325 13.0095 43.7205 13.0749C43.8885 13.0282 44.3459 13.0842 44.4953 13.2244H44.458C44.766 13.3553 45.0461 13.4207 45.3168 13.4861C45.5875 13.5515 45.8582 13.6076 46.1196 13.7852C46.1289 13.6824 46.409 13.8599 46.381 13.7104C46.6984 13.7758 46.9318 13.944 47.1371 14.0655C47.3332 14.1964 47.5012 14.2805 47.6879 14.159C47.9586 14.2711 47.9586 14.3926 48.08 14.4768H48.0053C48.5001 14.673 48.6307 14.7758 48.9761 14.9627C49.1722 15.0282 49.2935 14.888 49.5736 15.1123C49.4336 15.1123 49.5736 15.1777 49.6763 15.2525C49.5923 15.2151 49.5643 15.2244 49.6763 15.3553C49.7043 15.3553 49.751 15.3553 49.779 15.3739C49.779 15.3739 49.779 15.3833 49.779 15.3926C49.9003 15.4394 49.891 15.4113 49.8536 15.3739C49.8536 15.3739 49.863 15.3553 49.8536 15.3272C49.8816 15.402 49.947 15.4394 50.003 15.4768C50.059 15.5141 50.0964 15.5515 50.031 15.5796L50.0777 15.6076C50.0777 15.6076 50.0777 15.6356 50.0683 15.6543C50.0683 15.6824 50.0497 15.7104 50.0403 15.7478C50.0217 15.8132 50.0123 15.888 49.9937 15.944C49.9937 15.9627 49.9563 16.0655 49.9377 16.1216L49.863 16.3179C49.8163 16.4487 49.7603 16.5796 49.7043 16.7104C49.6203 16.7384 49.6296 16.5982 49.6949 16.43L49.5269 16.8039C49.4522 16.7571 49.5923 16.5702 49.6296 16.4487C49.2655 16.8039 49.2842 17.402 48.9015 17.8412V17.9814L48.8828 18.0095C48.9108 18.0282 48.9015 18.1683 48.8735 18.2431C48.7614 18.2711 48.7148 18.1496 48.5934 18.402C48.4254 18.5609 48.3227 18.9721 48.2293 19.2525C48.3134 19.1216 48.332 19.187 48.3227 19.2525C48.2573 19.3739 48.1547 19.4113 48.1266 19.5235L48.024 19.4861C48.136 19.4861 47.9399 19.8599 47.9586 19.9253C47.8466 19.9534 48.0053 19.701 47.9586 19.645C47.6972 20.1496 47.8279 19.8973 47.5759 20.402C47.5012 20.7104 47.6879 20.402 47.7066 20.5702C47.5945 20.8132 47.5385 21.0749 47.3425 21.3179L47.4732 21.2805C47.3052 21.7571 47.1465 22.0188 46.9037 22.2711C45.8115 25.9253 47.4452 23.4674 47.4452 23.4674C48.3134 22.2711 48.4347 21.4768 49.2002 19.9067" fill="#1B1B1B"/>
<path d="M41.4335 16.7571H36.6353V17.9627H41.4335V16.7571Z" fill="#FE6F0F"/>
<path d="M39.7166 18.2338L39.688 18.2148C39.688 18.2148 39.688 18.2338 39.7166 18.2338Z" fill="#FE6F0F"/>
<path d="M40.0892 17.5607C39.6785 17.5327 39.5665 17.4299 39.1371 17.4766C38.9317 17.4766 38.717 17.4953 38.5116 17.5047C38.4183 17.5794 38.2502 17.5047 38.1382 17.5701L38.0915 17.5234C38.0915 17.5234 38.0075 17.5607 37.9702 17.5327C37.9142 17.5514 37.8488 17.5327 37.8208 17.5514H37.7555V17.5327C37.6714 17.5701 37.5594 17.5701 37.4754 17.5514V17.6075C37.3914 17.5701 37.3167 17.5888 37.2607 17.6075C37.2047 17.6168 37.1113 17.6262 37.1113 17.5888C37.0367 17.6822 37.0273 17.5794 37.018 17.5701C37.018 17.5514 37.018 17.5607 36.9713 17.5701C36.99 17.5701 36.9993 17.542 37.0087 17.5327C36.99 17.514 36.9806 17.4953 36.878 17.514C36.878 17.4766 36.906 17.4766 36.9526 17.4766C36.934 17.4766 36.9153 17.4766 36.906 17.4579C36.8966 17.4299 36.8873 17.4019 36.8873 17.3738L36.906 17.4019C36.906 17.3551 36.8966 17.2617 36.8873 17.2523C36.8593 17.2523 36.8219 17.2523 36.7939 17.271C36.8219 17.2149 36.906 17.271 36.878 17.2243L36.8033 17.2056C36.8219 17.1215 36.9246 17.1402 36.9806 17.1589V17.1402C36.9806 17.1402 37.6621 16.9906 38.0729 17.1121L38.0915 17.1682C38.0915 17.2523 38.2222 17.0561 38.2409 17.1215L38.2969 17.0841C38.2969 17.0841 38.3436 17.1121 38.3156 17.1308C38.3622 17.1308 38.3622 17.1308 38.3996 17.0934L38.4556 17.1402C38.6516 17.1776 38.829 17.0841 39.0344 17.1028C39.2864 17.2056 39.7625 17.1028 40.0426 17.0561C40.2386 17 40.444 17.0561 40.6587 17.0934C40.7147 17.1028 40.7614 17.1121 40.8174 17.1215C40.8454 17.1215 40.8734 17.1215 40.9014 17.1308C40.9201 17.1308 40.9201 17.1308 40.9201 17.1308C40.9481 17.1308 40.9574 17.1308 41.0134 17.1028C41.0134 17.1121 41.0321 17.0934 41.0414 17.0748H41.0601V17.1776C41.0601 17.1776 41.0601 17.1869 41.0601 17.2804C41.0601 17.4205 41.0881 17.6075 41.1161 17.7383C41.1908 18.0093 41.3495 18.1215 41.6762 17.4486H41.6949C41.6949 17.4486 41.7135 17.3645 41.7229 17.3177C41.7229 17.2804 41.7229 17.243 41.7229 17.1682C41.7229 17.0467 41.6949 16.9439 41.6575 16.8598C41.7696 16.7663 41.6669 16.5981 41.7042 16.5047C41.7042 16.5047 41.6855 16.4673 41.6855 16.4486C41.5082 16.4766 41.3868 16.3738 41.1814 16.4299C41.1908 16.4299 41.2094 16.3925 41.2561 16.3925C41.1068 16.4112 40.9201 16.4299 40.9014 16.3738C40.6773 16.3925 40.4066 16.3645 40.2759 16.4579V16.4392C40.2106 16.5047 40.1919 16.4392 40.1079 16.486C40.1079 16.486 40.0986 16.4766 40.1079 16.4673C40.0332 16.5327 39.8745 16.4766 39.7998 16.5047V16.4673H39.6412L39.6972 16.486C39.6785 16.5981 39.5758 16.4112 39.4544 16.486C39.3424 16.4673 39.2304 16.7196 39.1184 16.6635C39.0624 16.7196 39.1651 16.5794 39.0904 16.6168C39.0904 16.5607 39.1277 16.5794 39.1091 16.5327C39.025 16.5607 38.9784 16.4766 38.885 16.514V16.4673C38.7543 16.5514 38.6423 16.4019 38.5583 16.486C38.4276 16.5234 38.4743 16.3458 38.3342 16.4392L38.2782 16.3738C38.2222 16.3645 38.2409 16.4486 38.1755 16.4205C38.1755 16.3832 38.0915 16.3832 38.1289 16.3551C37.9795 16.2991 37.8301 16.4392 37.6341 16.3364C37.5874 16.4112 37.4941 16.3645 37.4661 16.4205C37.4661 16.3925 37.27 16.4205 37.3821 16.3364C37.3821 16.3364 37.4101 16.3364 37.4007 16.3364V16.2897C37.298 16.2056 37.214 16.3364 37.102 16.3177C37.13 16.3364 37.1767 16.3271 37.1487 16.3645H37.0087L37.0367 16.3177L36.7566 16.2897L36.8033 16.3364C36.6726 16.3084 36.5699 16.2336 36.4579 16.2991C36.4205 16.3364 36.6259 16.3645 36.4952 16.3832C36.4112 16.3738 36.2992 16.3551 36.1965 16.3364C36.1778 16.4392 36.1592 16.5701 36.1498 16.7009C36.1965 16.7009 36.1965 16.7663 36.2152 16.8318H36.1685C36.2338 17.0841 36.0658 16.8785 36.1125 17.1495L36.0845 17.1215C36.0845 17.1215 36.1498 17.1776 36.1778 17.1963C36.2712 17.3364 36.0845 17.271 36.2058 17.4019C36.2058 17.3551 36.3085 17.3551 36.2898 17.4673L36.2432 17.4392C36.2432 17.4953 36.2712 17.514 36.2618 17.5514C36.2338 17.5234 36.1965 17.5514 36.2058 17.6355L36.1498 17.5794C36.1778 17.6355 36.2058 17.6822 36.2338 17.729C36.1872 17.8878 36.2432 18.0561 36.1872 18.1589C36.1872 18.1589 36.1872 18.2336 36.1872 18.3084C36.2712 18.3084 36.3832 18.3084 36.4485 18.2617C36.3552 18.3084 36.5046 18.3177 36.4299 18.3738C36.5512 18.3271 36.7846 18.2897 36.8686 18.3364H36.85C36.934 18.3551 37.018 18.3551 37.0927 18.3551C37.1393 18.3551 37.1767 18.3458 37.214 18.3364C37.298 18.3177 37.3727 18.3084 37.4567 18.3364C37.4567 18.2804 37.5314 18.3084 37.5127 18.243C37.6901 18.1776 37.8301 18.3832 37.8955 18.1682C37.9795 18.1589 37.9888 18.2149 38.0355 18.2336H38.0168C38.1662 18.2336 38.2129 18.2336 38.3249 18.2336C38.3809 18.2149 38.3902 18.1121 38.4836 18.1402C38.4556 18.1776 38.4836 18.1682 38.5303 18.1682C38.5023 18.1682 38.5023 18.1869 38.5489 18.2149C38.5489 18.2056 38.5676 18.1962 38.5769 18.1962C38.6423 18.1962 38.633 18.1776 38.605 18.1682C38.605 18.1682 38.605 18.1589 38.5956 18.1402C38.661 18.1962 38.773 18.1402 38.7823 18.2056C38.969 18.1869 39.0997 18.1215 39.2584 18.0934C39.2771 18.1308 39.2397 18.1589 39.1931 18.1682H39.2958C39.2958 18.1682 39.2304 18.1869 39.2024 18.1962C39.3331 18.2804 39.4731 18.1215 39.6225 18.1962L39.6505 18.1589C39.6505 18.1589 39.6785 18.1215 39.7065 18.1121C39.7345 18.1589 39.7065 18.2149 39.7812 18.2056C39.8465 18.2523 39.9492 18.1869 40.0332 18.1589C39.9866 18.1589 40.0052 18.1308 40.0239 18.1121C40.0612 18.1121 40.0799 18.1495 40.1079 18.1402V18.1962C40.0986 18.1402 40.2106 18.1402 40.2199 18.1121C40.2386 18.1589 40.1639 18.1495 40.1546 18.1869C40.3039 18.1869 40.2293 18.1869 40.3786 18.1869C40.4626 18.1402 40.36 18.1308 40.4066 18.0841C40.4813 18.0748 40.5467 18.0374 40.6307 18.0654L40.6027 18.0093C40.7427 17.972 40.8174 17.972 40.9107 18.028C41.9096 17.6075 41.1254 17.4486 41.1254 17.4486C40.7334 17.3364 40.528 17.486 40.0519 17.5234" fill="#FE6F0F"/>
<path d="M38.7266 68.8597C38.0918 61.1588 37.3637 53.0654 36.3461 45.6915C36.2621 45.1214 35.7207 44.7383 35.1606 44.813L15.4542 47.3083C14.8941 47.3831 14.4833 47.8784 14.53 48.4485C15.1741 55.9252 16.229 63.8317 17.4425 70.7663C17.5172 71.2055 17.9466 71.4953 18.3947 71.4392L38.7359 68.8691L38.7266 68.8597Z" fill="white"/>
<path d="M37.0742 56.0188L37.0928 55.7852C37.0928 55.7852 37.0648 55.8506 37.0742 56.0188Z" fill="#1B1B1B"/>
<path d="M20 70.7196C20 70.7196 20.0373 70.7103 20.056 70.7009C20.0187 70.7009 20 70.7103 20 70.7196Z" fill="#1B1B1B"/>
<path d="M37.3262 46.8599C37.3262 46.8599 37.3355 46.9066 37.3448 46.9346L37.3262 46.8599Z" fill="#1B1B1B"/>
<path d="M38.5489 58.7103C38.2875 55.5981 38.3902 54.757 37.9515 51.5421C37.7834 50.0094 37.5407 48.3738 37.326 46.8785C37.27 46.7103 37.214 46.4953 37.1766 46.2617C37.1393 46.0187 37.102 45.757 37.0646 45.486C36.9806 45.0467 36.7006 44.6355 36.3552 44.4019C36.0098 44.1495 35.599 44.0654 35.2443 44.1028C35.0296 44.0841 34.9456 44.0748 34.8335 44.0654C34.5535 44.1402 34.2174 44.215 33.9187 44.2056L33.9374 44.1869C33.5173 44.2991 33.0225 44.3271 32.8078 44.3832L32.8265 44.3551L32.3037 44.4299L32.3877 44.3832C31.6409 44.5421 30.8661 44.6449 30.1753 44.7009L30.2407 44.7851C28.7657 44.8598 28.2523 45.1309 26.9174 45.1682L26.936 45.1402C25.3024 45.6075 24.2755 45.2991 22.5859 45.757C22.8006 45.7009 22.4832 45.7196 22.5019 45.6916C21.7084 45.8224 20.8682 45.9439 20.8775 46.1308C20.2988 46.2056 20.4014 46.1308 20.3174 46.0654C20.3268 46.1495 19.832 46.243 19.3839 46.3084L19.5893 46.2523L18.301 46.4393L18.5718 46.5608C17.881 46.5981 18.3757 46.3925 17.7223 46.514L17.7503 46.6449C17.2742 46.6916 16.8914 46.6823 16.518 46.6636C16.322 46.6636 16.1353 46.6449 15.9393 46.6355C15.8366 46.6355 15.7339 46.6355 15.6312 46.6355H15.4632C15.4072 46.6355 15.3698 46.6355 15.2578 46.6449C14.4737 46.757 13.8389 47.5047 13.8389 48.3178V48.4673L13.8575 48.5701L13.8762 48.757L13.9135 49.1215L13.9882 49.8598C14.1003 50.8411 14.2216 51.8224 14.3523 52.8037C14.6043 54.7477 14.8471 56.6729 14.9591 58.4579L14.8844 58.6262C14.7537 58.7103 15.2205 59.5794 15.1084 59.729L15.2298 60.1308C15.2298 60.2523 15.2298 60.4953 15.1645 60.2991C15.2111 60.6822 15.2298 60.6916 15.3138 60.9533L15.2858 61.3738C15.4258 62.8879 15.7806 64.1495 15.9859 65.7383C16.0233 66.3832 16.126 67.2056 16.2753 68.0935C16.35 68.5421 16.434 69 16.518 69.4579C16.6114 69.9252 16.7047 70.3925 16.7981 70.8505C16.8728 71.2337 17.1062 71.5701 17.4049 71.7757C17.7129 71.9813 18.077 72.0654 18.4224 72.0187C18.8425 71.9439 19.2439 71.8785 19.5986 71.8224C22.4738 71.243 25.9185 71.3832 28.8497 70.7664C28.9524 70.7664 29.1951 70.7009 29.1858 70.6822L31.9116 70.3551C31.9116 70.3551 45.0928 68.7477 34.9362 68.8318L35.0016 68.7944C33.5079 68.9065 32.5651 69.0094 31.5662 69.2897C31.3795 69.1215 30.3433 69.4299 29.9886 69.4019L30.0259 69.3832C29.1391 69.6449 28.1403 69.4953 27.2814 69.7383C27.3094 69.7196 27.3281 69.6636 27.5241 69.6355C26.8894 69.7383 26.0212 69.8879 25.9652 69.7851C24.4436 70.0094 22.3151 70.2243 21.363 70.5234L21.4283 70.486C20.8869 70.6729 20.7095 70.5981 20.1027 70.729C20.0654 70.7196 20.0187 70.7196 20.028 70.7103C19.7293 70.8037 19.2906 70.8692 18.8612 70.9159C18.7585 70.9252 18.6464 70.9439 18.5438 70.9533C18.4971 70.9533 18.4411 70.9626 18.3944 70.972C18.3664 70.972 18.3477 70.972 18.3197 70.972C18.2264 70.972 18.1424 70.9439 18.077 70.9252L18.105 70.8505C18.0117 70.7944 17.9463 70.7009 17.9276 70.5888L17.8436 70.1215L17.8996 70.5701C17.6756 70.4486 17.8716 69.6449 17.5916 68.7944C17.4796 67.9813 16.9008 67.215 16.8634 66.3551C16.7047 65.972 17.0782 66.6916 16.9101 66.0935C17.0128 66.0561 17.0221 66.3645 17.0782 66.1963C16.9381 65.6168 17.0315 65.2056 16.8541 64.486L16.9381 64.4393C16.6487 63.5047 16.7794 62.6262 16.5554 62.0094C16.35 61.0374 16.7047 61.3178 16.406 60.3084L16.462 59.8972C16.4247 59.458 16.2847 59.5981 16.2753 59.1028C16.35 59.1215 16.2567 58.4766 16.3593 58.757C16.3313 57.6449 15.9206 56.5421 15.9486 55.0654C15.7806 54.7664 15.7712 54.0187 15.6405 53.8037C15.6966 53.757 15.4912 52.3365 15.7152 53.1402C15.7339 53.2056 15.7432 53.3365 15.7152 53.3271L15.8086 53.4206C15.8739 52.5701 15.5659 51.9252 15.5099 51.1028C15.5099 51.3551 15.5472 51.6729 15.4725 51.4673L15.4072 50.7009L15.4912 50.8505L15.4258 49.7103L15.3512 49.8692C15.3512 49.3084 15.4725 49.1028 15.2951 48.486C15.2018 48.2056 15.2298 49.028 15.1458 48.4393V48.3271C15.1458 48.3271 15.1551 48.2897 15.1645 48.2617C15.1738 48.2243 15.2018 48.1776 15.2205 48.1495C15.2671 48.0748 15.3512 48.0187 15.4352 48C15.4818 47.9907 15.5099 47.9907 15.5659 47.9813L15.9393 47.9533C16.1913 47.9346 16.434 47.9066 16.6767 47.8879C16.5741 47.8037 16.8354 47.7757 17.0875 47.7196L17.1248 47.8037C18.1143 47.5608 17.5169 47.9346 18.5064 47.7196L18.4224 47.7851L18.6651 47.5794C19.5426 47.3084 19.1692 47.6916 20.1494 47.3365C19.7573 47.4019 19.9347 47.1776 20.4295 47.1495L20.3174 47.243C20.5882 47.1963 20.6722 47.1495 20.8495 47.1402C20.6908 47.2056 20.7842 47.271 21.1763 47.2056L20.9242 47.3365L21.6524 47.0935C22.2405 47.1028 23.146 46.8785 23.398 46.9626C23.398 46.9626 24.6489 46.8598 24.9196 46.7009C24.6769 46.8131 25.3677 46.757 25.1904 46.8692C25.4984 46.7383 26.4506 46.5514 26.8427 46.5888L26.768 46.6075C28.1869 46.5234 29.1578 46.1682 30.4367 46.1308C30.362 46.0467 31.0435 46.0094 30.8568 45.9065C32.1544 45.6168 33.2746 45.8598 33.704 45.4112C34.3014 45.3178 34.4228 45.4112 34.7308 45.3925L34.5908 45.4299C34.8522 45.3925 35.0762 45.3551 35.2629 45.3271C35.3563 45.3178 35.4403 45.3271 35.515 45.3645C35.655 45.4299 35.7577 45.5327 35.7857 45.7103C35.8791 46.1122 36.0658 46.1589 36.1218 46.8972C36.0191 46.6636 36.0751 46.972 36.1124 47.243C36.0844 47.0654 36.0471 47.0187 36.0471 47.3832C36.0751 47.4299 36.1031 47.5047 36.1218 47.5794C36.1218 47.5794 36.1218 47.5981 36.1031 47.5888C36.1871 48.0467 36.1965 47.9626 36.1778 47.7477C36.1871 47.7477 36.2058 47.7383 36.2151 47.6636C36.1871 48.1589 36.3925 49 36.2805 49.0748C36.4858 50.458 36.7192 51.4393 36.8966 52.5981C36.8499 52.7383 36.7659 52.4673 36.7006 52.1402L36.8126 52.9626C36.7286 52.9626 36.7099 52.4953 36.6632 52.243C36.6352 53.2337 37.0273 54.243 37.0179 55.4112L37.1113 55.6449V55.7196C37.1113 55.7196 37.2233 55.9626 37.2513 56.1308C37.1953 56.2991 37.074 56.1308 37.13 56.7009C37.102 57.1589 37.298 57.972 37.3914 58.5608C37.3727 58.243 37.4287 58.3458 37.466 58.4766C37.494 58.757 37.438 58.9346 37.494 59.1495L37.3914 59.1869C37.4754 59.0654 37.5687 59.9252 37.6247 60.0187C37.5594 60.1869 37.522 59.5794 37.4474 59.514C37.5594 60.6542 37.5034 60.0841 37.6247 61.2243C37.7648 61.8224 37.7087 61.1028 37.8301 61.3832C37.8954 61.9159 38.0168 62.4393 38.0168 63.0654L38.0915 62.8598C38.2502 63.8692 38.2969 64.4766 38.2595 65.1682C39.6504 72.6542 39.4357 66.6729 39.4357 66.6729C39.3891 63.6822 38.9877 62.1682 38.5769 58.6355" fill="#1B1B1B"/>
<path d="M29.6714 47.1964C29.6714 46.0281 29.6247 44.8038 29.4473 43.701C29.438 43.6169 29.2233 43.5702 28.9993 43.5982L21.0084 44.6076C20.7844 44.6356 20.5977 44.7291 20.5977 44.8132C20.6257 45.944 20.7937 47.1309 21.0644 48.1683C21.0831 48.2338 21.2418 48.2618 21.4191 48.2431L29.6714 47.2057V47.1964Z" fill="#FE6F0F"/>
<path d="M29.0181 44.1597C29.0181 44.1597 29.0276 44.1123 29.0371 44.1028C29.0181 44.1218 29.0181 44.1408 29.0181 44.1597Z" fill="#1B1B1B"/>
<path d="M24.5371 47.3365C24.5371 47.3365 24.5464 47.3365 24.5558 47.3271C24.5464 47.3271 24.5464 47.3272 24.5371 47.3365Z" fill="#1B1B1B"/>
<path d="M26.9268 43.0281C26.9268 43.0281 26.9268 43.0281 26.9454 43.0188H26.9268V43.0281Z" fill="#1B1B1B"/>
<path d="M30.2594 44.3645C30.2314 44.0935 30.2221 43.8505 30.1941 43.6355C30.1661 43.5327 30.1567 43.3925 30.1101 43.3178C30.0727 43.2337 30.026 43.1495 29.9887 43.0748C29.8674 42.9252 29.718 42.8318 29.5406 42.7664C29.3633 42.7103 29.1485 42.6729 28.8872 42.7009C28.7565 42.7196 28.6071 42.7383 28.4577 42.757C28.4111 42.757 28.3644 42.7757 28.3177 42.7757C28.2804 42.7757 28.2337 42.7944 28.187 42.8037C27.767 42.8411 27.3375 42.9439 26.9268 43.0094C26.7494 43.1682 26.3947 43.0748 26.18 43.2243L26.0773 43.1589C26.0026 43.2056 25.9093 43.243 25.8252 43.215V43.1869C25.7226 43.2617 25.5825 43.243 25.5265 43.2804V43.2523L25.3865 43.2804L25.4052 43.243C25.2091 43.3365 25.0038 43.3645 24.8077 43.3551L24.8357 43.4486C24.425 43.3925 24.3036 43.6075 23.9302 43.5234V43.5047C23.5101 43.8131 23.1927 43.4206 22.754 43.7196C22.81 43.6822 22.726 43.6729 22.726 43.6449C22.5113 43.7009 22.2872 43.7477 22.3059 43.9346C22.1472 43.9533 22.1659 43.8879 22.1379 43.8224C22.1472 43.9065 22.0165 43.9626 21.8952 43.9813L21.9418 43.9439L21.5964 44.0187L21.6805 44.1682C21.4844 44.1495 21.6058 43.9813 21.4377 44.0467L21.4564 44.1776C21.2044 44.1963 20.8216 43.9907 20.4109 44.0654C20.2522 44.1402 20.1028 44.2337 20.0095 44.3925C19.9535 44.5514 19.8975 44.7009 19.9068 44.9065C19.9161 45.0841 19.9348 45.2617 19.9535 45.4486L19.9721 45.5794V45.6542L20.0095 45.8131C20.0468 46.028 20.0935 46.243 20.1308 46.4486C20.1682 46.6636 20.2148 46.8692 20.2335 47.0748C20.2429 47.1776 20.2615 47.2804 20.2615 47.3832C20.2615 47.4299 20.2615 47.486 20.2615 47.5327C20.2615 47.6075 20.2709 47.6823 20.2802 47.757L20.2055 47.8598C20.1215 47.9252 20.2989 48.0935 20.3829 48.1963C20.4202 48.243 20.4389 48.2804 20.4109 48.3271C20.4482 48.3738 20.4949 48.4019 20.5322 48.4299C20.5322 48.486 20.5696 48.5794 20.5042 48.5421C20.5882 48.6636 20.5883 48.6542 20.7189 48.6822C20.7469 48.729 20.7843 48.7851 20.8216 48.8318C21.0923 48.9813 21.4471 48.9159 21.7738 48.8318C21.9698 48.7944 22.0259 48.7664 22.1285 48.7477C22.2312 48.729 22.3246 48.7103 22.4366 48.7009C22.978 48.8131 23.9302 48.5327 24.4717 48.3645C25.2371 48.0561 26.2173 48.5047 27.0015 48.1589C27.0295 48.1776 27.0948 48.1215 27.0855 48.1028L27.823 48.028C27.823 48.028 31.4076 47.6262 28.5418 46.7944L28.5604 46.7664C28.1497 46.7383 27.8883 46.7664 27.6363 46.9533C27.5709 46.7664 27.3002 46.972 27.1975 46.9252V46.9065C26.9828 47.0841 26.6841 46.8411 26.46 47.0094C26.46 46.9907 26.46 46.9439 26.5254 46.9252C26.3573 46.972 26.124 47.0467 26.096 46.9252C25.6852 47 25.1064 47.028 24.8637 47.243L24.8824 47.215C24.7424 47.3551 24.6957 47.2617 24.5277 47.3365C24.5183 47.3271 24.4997 47.3178 24.4997 47.3084C24.3503 47.4486 24.0236 47.3832 23.9022 47.4579L23.8835 47.3832L23.5568 47.4393H23.6782C23.6595 47.6449 23.4168 47.3458 23.1927 47.5047C22.9687 47.5047 22.7913 47.9813 22.5486 47.9159C22.4553 48.028 22.6233 47.7477 22.4646 47.8411C22.4459 47.7383 22.53 47.7664 22.4833 47.6823C22.3246 47.757 22.2032 47.6075 22.0165 47.7009L21.9979 47.6168C21.9418 47.6636 21.8765 47.6822 21.8111 47.6916C21.7645 47.6916 21.7458 47.6916 21.7178 47.6729C21.6618 47.6542 21.6338 47.6262 21.5684 47.7103C21.4844 47.757 21.4938 47.6916 21.5031 47.6355C21.5218 47.5701 21.5218 47.5514 21.4377 47.5794C21.4657 47.5327 21.4938 47.486 21.5218 47.4486C21.5218 47.4112 21.4284 47.4953 21.4284 47.4486C21.4284 47.4486 21.4284 47.4393 21.4284 47.4299C21.4938 47.3925 21.4658 47.3551 21.5311 47.3365C21.5498 47.3084 21.5591 47.2897 21.5404 47.2804C21.5124 47.2243 21.4938 47.1495 21.4658 47.0841C21.4097 46.9346 21.3537 46.7664 21.4191 46.5701C21.2697 46.514 21.3257 46.3084 21.2137 46.2617C21.2697 46.243 21.1764 45.8785 21.3351 46.0748C21.3444 46.0935 21.3537 46.1215 21.3351 46.1308L21.4191 46.1495C21.5498 45.9159 21.2884 45.7664 21.2977 45.5514C21.2697 45.6168 21.2977 45.7009 21.2324 45.6449V45.458C21.2324 45.458 21.279 45.4766 21.2977 45.486C21.2977 45.4299 21.3071 45.4486 21.3164 45.4299C21.3164 45.4299 21.3257 45.4112 21.3351 45.4019C21.3071 45.4019 21.279 45.4019 21.251 45.4019C21.2697 45.3925 21.3071 45.3925 21.3351 45.3925C21.3724 45.3925 21.4004 45.4112 21.3257 45.3458C21.251 45.2804 21.2137 45.3178 21.1764 45.2523C21.195 45.2337 21.2697 45.2337 21.3257 45.2523C21.3817 45.271 21.4191 45.2991 21.4471 45.3084C21.4097 45.215 21.4191 45.215 21.4471 45.1963L21.4658 45.2804C21.4658 45.2804 21.4751 45.2523 21.5124 45.2523C21.5404 45.2523 21.5591 45.2804 21.5684 45.3084C21.5964 45.3551 21.6244 45.4019 21.7551 45.3365L21.7365 45.3925L21.7831 45.2056C22.0072 45.0094 21.9418 45.3645 22.1752 45.1028C22.0632 45.1309 22.1005 44.9252 22.2406 44.9439L22.2126 45.028C22.2872 45 22.3059 44.9626 22.3526 44.9813C22.3152 45.028 22.3526 45.1028 22.4459 45.0748L22.3899 45.1869L22.5766 45.0187C22.7447 45.0841 22.978 44.9439 23.0621 45.0467C23.0621 45.0467 23.4075 45.0561 23.4728 44.9252C23.4168 45.0094 23.6035 45.0187 23.5662 45.1122C23.6408 45.0094 23.8929 44.9065 24.0049 44.9907H23.9862C24.3783 45.0467 24.621 44.7944 24.9851 44.8598C24.9571 44.7664 25.1438 44.7944 25.0878 44.6729C25.4238 44.5047 25.7692 44.8411 25.8533 44.4486C26.0119 44.4112 26.0586 44.514 26.1426 44.5234L26.1053 44.5514C26.404 44.486 26.488 44.4673 26.7214 44.4486C26.8334 44.3925 26.8241 44.2243 27.0295 44.2337C26.9735 44.3178 27.0575 44.2897 27.1322 44.2804C27.0855 44.2991 27.0762 44.3271 27.1788 44.3645C27.1882 44.3365 27.2068 44.3271 27.2255 44.3084C27.2255 44.3084 27.2255 44.3084 27.2255 44.3271C27.3469 44.2897 27.3282 44.271 27.2629 44.2617C27.2629 44.2523 27.2629 44.2337 27.2348 44.2243C27.3749 44.2991 27.5989 44.1776 27.6269 44.2897C27.991 44.215 28.271 44.0561 28.5511 43.972C28.5698 44.028 28.5511 44.0935 28.4577 44.1308C28.5418 44.1122 28.5698 44.1028 28.6071 44.0841C28.6071 44.1308 28.5884 44.1402 28.5698 44.1495C28.5698 44.1495 28.5511 44.1495 28.5418 44.1495C28.5231 44.1495 28.5044 44.1495 28.4858 44.1589C28.5791 44.1869 28.5698 44.1963 28.5978 44.1869C28.6258 44.1869 28.6538 44.1589 28.6911 44.1402C28.7565 44.0935 28.8685 44.0374 28.8872 44.1308C28.9152 44.1028 28.9432 44.0841 28.9712 44.0748V44.0935C28.9712 44.0935 29.0739 44.028 29.0832 44.0561C29.0179 44.1495 28.9245 44.215 28.9338 44.2804C28.9152 44.3178 28.9152 44.3458 28.9245 44.3645C28.9432 44.3925 29.0085 44.4393 29.0365 44.486C29.0365 44.4393 29.0925 44.4393 29.1205 44.458C29.1205 44.486 29.1112 44.4953 29.0925 44.5234C29.0832 44.5514 29.0739 44.5794 29.0925 44.6075L28.9899 44.6262C29.0832 44.5888 29.1112 44.8131 29.1579 44.8411C29.0832 44.8879 29.0832 44.729 29.0179 44.7196C29.0459 45.028 29.0365 44.8692 29.0739 45.1682C29.1672 45.3271 29.1672 45.1308 29.2699 45.2056C29.2979 45.3458 29.3819 45.486 29.3259 45.6542L29.4193 45.5981C29.5033 45.8692 29.5033 46.0374 29.4193 46.2243C29.8207 47.243 30.0727 47.3551 30.2408 47.2056C30.3995 47.0561 30.4648 46.6449 30.4648 46.6449C30.6515 45.8037 30.3714 45.4019 30.2034 44.3832" fill="#1B1B1B"/>
<path d="M56.1831 51.3083L56.2111 51.4112C56.2111 51.4112 56.2204 51.3738 56.1831 51.3083Z" fill="#1B1B1B"/>
<path d="M57.0142 55.1125L56.9951 55.0935L57.0237 55.1125H57.0142Z" fill="#1B1B1B"/>
<path d="M54.5307 51.1589C55.2681 52.1308 55.3148 52.4953 56.0616 53.5234C56.3697 54.0467 56.7244 54.5888 57.0231 55.1028C57.2939 55.2804 57.3779 55.8037 57.6299 56.0561L57.6112 56.2056C57.6953 56.2897 57.7699 56.4019 57.7793 56.5327H57.7606C57.882 56.6635 57.9286 56.8598 57.994 56.9252H57.966L58.0593 57.1121L58.0127 57.0934C58.19 57.3458 58.302 57.6355 58.3767 57.9065L58.4607 57.8505C58.5634 58.4299 58.8155 58.5794 58.8622 59.1121H58.8435C59.0582 59.3925 59.0955 59.6635 59.1235 59.9346C59.1422 60.2056 59.1515 60.4579 59.3476 60.757C59.3009 60.6822 59.3009 60.8037 59.2822 60.8037C59.3569 61.1028 59.4223 61.4205 59.609 61.4019C59.637 61.6262 59.5623 61.5981 59.4969 61.6262C59.581 61.6262 59.6276 61.8131 59.6463 61.9813L59.609 61.8972C59.637 62.0654 59.6556 62.2336 59.665 62.4019L59.8237 62.2991C59.777 62.5794 59.637 62.3738 59.665 62.6355H59.7957C59.777 63.0093 59.5436 63.2149 59.4316 63.5607C59.3196 64.2897 59.2356 65.0467 59.0302 65.7757C58.8341 66.5047 58.5168 67.1962 58.05 67.7009H57.938C57.8166 67.6448 57.9006 68.1215 57.7606 68.0841L57.7233 68.2523C57.6766 68.271 57.6019 68.3271 57.6206 68.2523C57.5272 68.3645 57.5366 68.3738 57.5086 68.486L57.3405 68.5514C56.9204 68.9159 56.6777 69.3832 56.183 69.6542C55.8469 69.7476 55.4175 69.9533 54.9507 70.0934C54.484 70.2336 53.9612 70.3177 53.5691 70.3458C53.0184 70.4205 52.4116 70.2056 51.8702 69.9346C51.3194 69.6635 50.8059 69.3458 50.2365 69.1776C50.2085 69.1402 50.1058 69.1308 50.0965 69.1495C49.7978 68.9719 49.4897 68.785 49.2003 68.5701C49.2003 68.5701 48.9389 68.3925 48.6029 68.1402C48.2668 67.8878 47.8654 67.5701 47.576 67.3364C47.436 67.2243 47.324 67.1308 47.2493 67.0934C47.2119 67.0748 47.1839 67.0748 47.1466 67.0748C47.1092 67.0748 47.0719 67.0654 47.0346 67.0934C46.8572 67.1402 46.8572 67.7477 47.492 68.6822H47.4453C47.8841 69.1776 48.2108 69.4299 48.6682 69.542C48.6215 69.7476 49.0976 69.8411 49.191 69.9719H49.1723C49.5831 70.0561 49.8164 70.486 50.2178 70.5327C50.1992 70.5327 50.1712 70.5794 50.0871 70.5514C50.3485 70.6542 50.7126 70.7663 50.6846 70.8691C51.3007 71.1028 52.2062 71.4205 52.673 71.3084L52.6356 71.3364C52.897 71.2617 52.953 71.3645 53.2331 71.3364C53.2424 71.3551 53.2611 71.3645 53.2611 71.3738C53.5318 71.2804 54.0452 71.4019 54.2599 71.3271L54.2786 71.4019C54.456 71.3925 54.6427 71.3645 54.82 71.3271H54.6147C54.652 71.1308 55.0441 71.4112 55.4082 71.1869C55.7909 71.1028 55.9589 70.5607 56.3137 70.4766C56.4164 70.3084 56.2577 70.6916 56.4444 70.4953C56.5004 70.5794 56.3697 70.6168 56.463 70.6542C56.6684 70.4953 56.8924 70.5233 57.1258 70.271L57.1818 70.3271C57.2939 70.1308 57.4712 70.028 57.6206 69.9346C57.7699 69.8318 57.91 69.7383 57.9566 69.5794C58.1994 69.2149 58.3394 69.5234 58.5074 69.0841L58.7035 69.0093C58.8341 68.8598 58.6754 68.8131 58.8435 68.6729C58.8995 68.7196 59.0489 68.486 59.0302 68.6262C59.2076 68.4486 59.3102 68.2149 59.4223 67.9719C59.5156 67.7196 59.6463 67.4673 59.861 67.2149C59.7957 67.028 60.001 66.7757 59.945 66.6355C60.0104 66.6355 60.1784 66.0374 60.1691 66.4205C60.1691 66.4486 60.1411 66.5047 60.1224 66.4953L60.1784 66.5701C60.3184 66.4299 60.3558 66.2617 60.3744 66.0934C60.3838 65.9252 60.3744 65.7477 60.4398 65.5794C60.3838 65.6729 60.3558 65.8131 60.3278 65.7103L60.4304 65.3925L60.4771 65.4766C60.5425 65.3177 60.5798 65.1589 60.6358 65L60.5331 65.0467C60.6265 64.8224 60.7945 64.757 60.7198 64.4673C60.6732 64.3271 60.5705 64.6729 60.5891 64.4205C60.6452 64.2617 60.7105 64.0654 60.7665 63.8598C60.8225 63.6448 60.8599 63.4205 60.8879 63.2149C60.7852 63.243 60.8039 63.1308 60.7852 63.0187H60.8692C60.7572 62.5607 61.0559 62.8505 60.9626 62.4019L61.0186 62.4392L60.8412 62.3271C60.6732 61.9346 60.9999 62.1028 60.7478 61.6729C60.7758 61.8411 60.5705 61.7663 60.5891 61.5514L60.6732 61.5981C60.6452 61.486 60.6078 61.4486 60.6172 61.3645C60.6638 61.4299 60.7385 61.3925 60.7012 61.2149L60.8132 61.3177L60.6172 61.0093C60.6638 60.7476 60.4958 60.3645 60.5798 60.243C60.5798 60.243 60.5145 59.6916 60.3558 59.6075C60.4585 59.6916 60.4118 59.4019 60.5145 59.4579C60.3931 59.3551 60.2064 58.9813 60.2531 58.8037L60.2718 58.8318C60.1784 58.2243 59.833 57.8972 59.749 57.3551C59.665 57.4112 59.609 57.1308 59.5249 57.243C59.2169 56.7757 59.3756 56.2149 58.9462 56.1776C58.8248 55.9533 58.9088 55.8691 58.8715 55.7383L58.9182 55.785C58.6941 55.3738 58.6288 55.2523 58.4794 54.9346C58.3674 54.7944 58.1994 54.8505 58.0967 54.5514C58.2087 54.6075 58.134 54.5047 58.078 54.4019C58.1247 54.4579 58.162 54.4673 58.1247 54.3177C58.0967 54.3177 58.0687 54.2804 58.0407 54.2617C58.0407 54.2617 58.0407 54.2523 58.05 54.2523C57.938 54.0934 57.938 54.1308 57.966 54.2149C57.9566 54.2149 57.9473 54.2336 57.938 54.2617C57.9286 54.0374 57.6673 53.7663 57.7606 53.6916C57.6019 53.4392 57.4432 53.2523 57.2845 53.0654C57.1258 52.8878 56.9671 52.7196 56.8084 52.5234C56.8364 52.4486 56.9391 52.5047 57.0325 52.6168L56.8271 52.3364C56.9018 52.2897 56.9765 52.4766 57.0511 52.5514C56.9578 52.1215 56.463 51.9252 56.295 51.4579L56.183 51.4205V51.3925C56.183 51.3925 56.0429 51.3645 55.9869 51.3084C56.0056 51.2056 56.1363 51.2056 55.9869 51.0187C55.9309 50.8224 55.6229 50.6075 55.4268 50.4579C55.5015 50.5701 55.4455 50.5607 55.3802 50.542C55.2961 50.4579 55.3148 50.3458 55.2308 50.2991L55.3055 50.2243C55.2588 50.3271 55.0254 50.0561 54.9601 50.0561C54.9694 49.9533 55.1281 50.1495 55.1935 50.1402C54.8667 49.785 55.0254 49.9626 54.6894 49.6168C54.456 49.486 54.652 49.7196 54.5027 49.7009C54.3346 49.5514 54.1199 49.4579 53.9706 49.2336V49.3551C53.6158 49.1215 53.4198 48.972 53.2517 48.7196C52.8783 48.5607 52.5703 48.486 52.3369 48.4392C52.0942 48.4112 51.9262 48.4112 51.8235 48.4392C51.5994 48.4766 51.5621 48.5888 51.6368 48.7103C51.7488 48.9533 52.1689 49.2336 52.1689 49.2523C52.2716 49.3458 52.3649 49.4299 52.4489 49.4953C52.5423 49.5794 52.6263 49.6542 52.7196 49.7196C52.8037 49.785 52.897 49.8505 52.9904 49.9159C53.0744 49.9813 53.1677 50.0561 53.2611 50.1215C53.4478 50.2523 53.6345 50.3832 53.8399 50.5514C53.9425 50.6355 54.0546 50.729 54.1666 50.8224C54.2693 50.9252 54.3906 51.0467 54.512 51.1682" fill="#1B1B1B"/>
<path d="M43.6459 67.8318L43.5806 67.7664C43.5806 67.7664 43.5899 67.8037 43.6459 67.8318Z" fill="#1B1B1B"/>
<path d="M50.2646 59.6543C50.2646 59.6543 50.2646 59.6638 50.2837 59.6733C50.2837 59.6638 50.2742 59.6543 50.2646 59.6543Z" fill="#1B1B1B"/>
<path d="M42.0962 65.1216C42.0962 65.1216 42.1055 65.1216 42.1149 65.1309H42.0962V65.1216Z" fill="#1B1B1B"/>
<path d="M44.8316 66.8691C44.3742 66.7756 44.1035 66.6355 43.8514 66.5046C43.7207 66.4298 43.59 66.3644 43.4407 66.2897C43.366 66.2523 43.2913 66.2055 43.198 66.1682C43.1233 66.1214 43.0673 66.1027 42.9739 66.0373C42.6752 65.8037 42.3298 65.4766 42.0964 65.1308C41.9937 65.084 41.9097 64.9532 41.8537 64.8224C41.807 64.6822 41.7323 64.5513 41.639 64.4485L41.6857 64.3364C41.6203 64.271 41.5643 64.1869 41.583 64.0841H41.611C41.527 63.9812 41.527 63.8224 41.4896 63.7663H41.5176C41.499 63.7196 41.4896 63.6728 41.4803 63.6168L41.5176 63.6355C41.4336 63.4205 41.3869 63.1869 41.4243 62.9812L41.3309 62.9999C41.3776 62.7756 41.3589 62.6261 41.3496 62.4766C41.3496 62.327 41.3216 62.1775 41.4243 61.9812H41.4523C41.2843 61.4205 41.779 61.2242 41.723 60.6448C41.723 60.7196 41.779 60.6355 41.807 60.6448C41.8724 60.3925 41.947 60.1401 41.779 60.0654C41.8537 59.8971 41.891 59.9532 41.9657 59.9626C41.891 59.9345 41.919 59.7756 41.9844 59.6541V59.7289C42.0311 59.6074 42.0964 59.4859 42.1618 59.3644L41.9844 59.3457C42.1431 59.1775 42.1711 59.4018 42.2551 59.2055L42.1431 59.1308C42.3391 58.8971 42.6192 58.8878 42.8712 58.7476C43.282 58.3364 43.7207 57.9252 44.2248 57.6355C44.7196 57.3457 45.317 57.2242 45.8118 57.3831L45.8491 57.4859C45.8491 57.6261 46.1572 57.3177 46.1759 57.4579L46.3065 57.4112C46.3065 57.4112 46.3999 57.4953 46.3345 57.5046C46.4466 57.542 46.4559 57.5233 46.5493 57.5046L46.6426 57.6261C47.0534 57.8224 47.4828 57.813 47.8468 58.1121C48.0335 58.3364 48.3229 58.5794 48.5843 58.8784C48.855 59.1682 49.0884 59.514 49.2378 59.7943C49.3311 59.9439 49.3778 60.0467 49.4431 60.3551C49.4992 60.6261 49.5272 60.9532 49.5738 61.2803C49.8352 61.299 50.1059 61.3177 50.3767 61.3364L50.5914 61.3551C50.6567 61.3551 50.7501 61.3738 50.7781 61.3738C50.8621 61.3831 50.9461 61.4018 51.0208 61.4112C51.3568 61.4579 51.6742 61.4766 51.9916 61.4112C52.0196 61.4392 52.1036 61.3925 52.1036 61.3831C52.4024 61.4112 52.7011 61.4485 52.9998 61.4953C52.9998 61.4953 53.2612 61.5326 53.6159 61.5794C53.9427 61.6355 54.3534 61.6915 54.6988 61.7476C55.0162 61.785 55.2589 61.7943 55.2869 61.6261C55.3056 61.4672 55.0909 61.0747 54.2694 60.57L54.2974 60.542C53.784 60.3457 53.4479 60.2803 53.0652 60.3925C53.0278 60.1869 52.6357 60.327 52.5237 60.2523V60.2336C52.2063 60.3551 51.8889 60.056 51.5715 60.1775C51.5809 60.1588 51.5902 60.1121 51.6649 60.1121C51.4409 60.1214 51.1328 60.1588 51.1141 60.0467C50.9648 60.0467 50.6754 60.0467 50.694 60.0467C50.6474 60.0467 50.5914 60.0467 50.526 60.0747C50.498 60.0373 50.4607 60.0093 50.386 59.9906H50.4233C50.358 59.9812 50.3393 59.9345 50.3393 59.8971C50.3393 59.8784 50.3206 59.785 50.2646 59.6822C50.274 59.6635 50.274 59.6448 50.2833 59.6541C50.1059 59.4672 50.0406 59.028 49.9006 58.8878L49.9566 58.8411C49.8819 58.7009 49.7979 58.57 49.7139 58.4485L49.7885 58.6074C49.5832 58.6728 49.7139 58.2336 49.3871 58.0467C49.3031 57.9158 49.0977 57.8784 48.9297 57.8317C48.7523 57.7943 48.575 57.7756 48.491 57.6355C48.3229 57.6168 48.687 57.5887 48.4723 57.514C48.5283 57.4205 48.5936 57.5233 48.603 57.4205C48.3883 57.3364 48.3603 57.1214 48.0896 57.0467L48.1176 56.9626C47.9215 56.9532 47.7908 56.8411 47.6508 56.7569C47.5108 56.6728 47.3988 56.5981 47.2681 56.6261C46.904 56.57 47.1 56.3177 46.6893 56.3644C46.6519 56.3177 46.6146 56.2616 46.5679 56.2149C46.3999 56.1682 46.4186 56.327 46.2319 56.2429C46.2599 56.1775 45.9985 56.1495 46.1198 56.1027C45.9051 56.0093 45.6624 56.056 45.4197 56.0747C45.177 56.1308 44.9249 56.1588 44.6169 56.1401C44.5235 56.2897 44.2155 56.299 44.1688 56.4298C44.1501 56.4018 44.0101 56.4485 43.9168 56.4766C43.8234 56.5046 43.7581 56.514 43.8794 56.3925C43.8981 56.3644 43.9541 56.3551 43.9541 56.3831V56.2897C43.5807 56.271 43.4313 56.6168 43.1513 56.7569C43.2446 56.7289 43.3567 56.6635 43.31 56.7569L43.0486 56.8971L43.0673 56.8037C42.9272 56.8691 42.8059 56.9532 42.6752 57.028L42.7779 57.056C42.5725 57.1401 42.4325 57.0934 42.3111 57.3364C42.2738 57.4579 42.5445 57.2897 42.3858 57.4579C42.1337 57.5981 41.7697 57.8411 41.5176 58.1121C41.611 58.1495 41.5456 58.2149 41.499 58.3083L41.4243 58.2616C41.2843 58.6448 41.1909 58.2616 41.0415 58.6448L41.0135 58.5887L41.1069 58.7756C41.0602 59.1588 40.8548 58.8504 40.8548 59.3083C40.9202 59.1682 41.0509 59.327 40.9389 59.4859L40.8828 59.4112C40.8548 59.514 40.8642 59.5607 40.8268 59.6261C40.8175 59.5513 40.7241 59.5513 40.6961 59.6915L40.6401 59.5607L40.6775 59.8691C40.5281 60.0373 40.5094 60.3925 40.3787 60.4392C40.3787 60.4392 40.2014 60.8784 40.2947 61.0093C40.2387 60.9065 40.1454 61.1401 40.08 61.0467C40.1267 61.1869 40.1454 61.5513 40.024 61.6822V61.6541C39.912 61.9065 39.94 62.1495 39.9493 62.3738C39.9493 62.5981 39.9867 62.813 39.9307 63.0654C40.024 63.0467 39.9773 63.299 40.0987 63.2336C40.1734 63.4766 40.1454 63.7009 40.136 63.8971C40.136 64.0841 40.1827 64.2429 40.3881 64.2803C40.4534 64.4953 40.3694 64.5607 40.3881 64.6822L40.3507 64.6355C40.5094 65.0373 40.5748 65.1401 40.6868 65.4392C40.7895 65.57 40.9669 65.4953 41.0602 65.7663C40.9575 65.7196 41.0229 65.8224 41.0789 65.9065C41.0322 65.8598 41.0042 65.8504 41.0322 65.9906C41.0602 65.9906 41.0882 66.0093 41.1162 66.028C41.1162 66.028 41.1162 66.0373 41.1069 66.0373C41.2282 66.1682 41.2282 66.1308 41.1909 66.056C41.2002 66.056 41.2096 66.0373 41.2096 66.0093C41.2282 66.2149 41.5176 66.4018 41.443 66.5046C41.8257 66.8878 42.1991 67.0467 42.6098 67.2336C42.6285 67.3083 42.5072 67.3083 42.3765 67.2523C42.4792 67.3083 42.5725 67.3644 42.6658 67.3925C42.6285 67.4766 42.4791 67.3551 42.3858 67.3177C42.6659 67.6541 43.1233 67.542 43.478 67.813L43.5807 67.7756L43.5994 67.7943C43.5994 67.7943 43.7114 67.7383 43.7767 67.7476C43.8141 67.8411 43.7207 67.9158 43.9261 67.9719C44.0661 68.0934 44.4022 68.0467 44.6169 68.0373C44.5049 68.0093 44.5515 67.9719 44.5982 67.9532C44.7009 67.9626 44.7476 68.056 44.8316 68.028V68.1308C44.8036 68.028 45.1117 68.0467 45.1583 68.0093C45.2143 68.0934 44.9903 68.0654 44.9623 68.1214C45.3824 68.1495 45.177 68.1401 45.5971 68.1401C45.8211 68.056 45.5597 68.0373 45.6624 67.9439C45.8585 67.9252 46.0358 67.8317 46.2599 67.8784L46.1852 67.7943C46.5306 67.6915 46.7266 67.6541 46.988 67.6915C47.5855 67.3551 47.8375 67.0467 47.9402 66.8598C48.0429 66.6728 47.9869 66.5794 47.8655 66.542C47.7535 66.4953 47.5855 66.5046 47.4454 66.514C47.3054 66.514 47.1934 66.542 47.1934 66.542C46.7453 66.5794 46.4372 66.6541 46.1012 66.7383C45.7651 66.8224 45.3824 66.9252 44.8503 66.8878" fill="#1B1B1B"/>
<path d="M40.22 61C40.108 61.0374 39.9679 60.9252 39.9306 61.0467C39.8839 61.0747 39.8653 61.1402 39.8466 61.1869C39.9213 61.3084 39.7999 61.2336 39.8466 61.3458L39.7906 61.2897C39.7906 61.2897 39.8186 61.3551 39.7906 61.3271L39.7719 61.3084C39.7999 61.3645 39.7719 61.3458 39.7719 61.3738L39.7532 61.3551V61.3738L39.7252 61.3458C39.7532 61.4112 39.7252 61.4299 39.6972 61.4205L39.7626 61.4953C39.6505 61.4486 39.7626 61.6168 39.6785 61.5233L39.6599 61.5046C39.7999 61.7289 39.5479 61.3738 39.6599 61.5888C39.6505 61.5607 39.6412 61.542 39.6225 61.5233C39.6225 61.5514 39.6319 61.5701 39.7159 61.7476C39.7159 61.7476 39.6879 61.6916 39.6505 61.6261C39.6879 61.7103 39.6972 61.7383 39.6879 61.7476V61.7103L39.6692 61.7383L39.7346 61.8878C39.7346 61.8878 39.6599 61.7009 39.6599 61.7383L39.7066 61.8691C39.7066 61.8691 39.6039 61.6542 39.5759 61.5607C39.5759 61.5514 39.5759 61.5607 39.5759 61.5794C39.5759 61.5981 39.5199 61.6355 39.4918 61.6635C39.4265 61.7196 39.3612 61.7476 39.2865 61.6448L39.2678 61.5514C39.2491 61.4112 39.2491 61.7663 39.2398 61.6355V61.7009C39.2398 61.7009 39.2118 61.6448 39.2211 61.6168C39.2025 61.6168 39.2118 61.6355 39.2025 61.6822L39.1745 61.5981C39.1184 61.5327 39.0904 61.7103 39.0251 61.6822C38.9411 61.514 38.8291 61.6822 38.7637 61.7944C38.689 62.0187 38.493 61.4673 38.4183 61.7196C38.4183 61.7009 38.4183 61.7476 38.4183 61.7663H38.3156C38.3156 61.7663 38.1943 61.7663 38.1476 61.8972C38.0916 62.0374 38.1196 62.3177 38.381 62.8878V62.9159C38.4463 62.9813 38.4743 63 38.4837 62.8411C38.5117 63.0374 38.5303 62.8598 38.549 62.9159V62.9346C38.5583 62.785 38.633 63.0467 38.6424 62.9159C38.6424 62.9346 38.6424 62.9813 38.6424 62.9906C38.661 62.9626 38.6797 62.9159 38.6984 63.028C38.745 62.9906 38.8197 63.028 38.8291 62.8598V62.8878C38.8291 62.7663 38.8571 62.8691 38.8664 62.8037C38.8664 62.8224 38.8664 62.8224 38.8664 62.8317C38.8664 62.7103 38.9224 62.8037 38.9317 62.757V62.8317L38.9877 62.8131L38.9691 62.7944C38.9504 62.5888 39.0158 62.9159 39.0251 62.785C39.0531 62.8131 39.0251 62.3551 39.0718 62.4486C39.0718 62.3551 39.0718 62.6074 39.0904 62.5327C39.0998 62.6355 39.0904 62.5981 39.0998 62.6822C39.1184 62.6355 39.1464 62.785 39.1651 62.7103V62.7944C39.1931 62.6355 39.2491 62.8972 39.2585 62.7476C39.2865 62.6729 39.3051 62.9906 39.3238 62.8224L39.3518 62.9346C39.3518 62.9346 39.3518 62.7944 39.3705 62.8504C39.3705 62.9252 39.3985 62.9065 39.3985 62.9719C39.4452 63.0747 39.4545 62.8037 39.5292 62.9906C39.5292 62.8504 39.5572 62.9346 39.5572 62.8224C39.5572 62.8785 39.6039 62.8224 39.5852 62.9626C39.5852 62.9719 39.5852 62.9626 39.5852 62.9532V63.0374C39.6319 63.1869 39.6319 62.9439 39.6599 62.9626C39.6505 62.9439 39.6412 62.9439 39.6412 62.8878H39.6692V62.9626C39.6692 62.9626 39.6972 62.9906 39.7346 62.9906L39.7159 62.9065C39.7159 62.9065 39.7999 63.0841 39.8186 62.9626C39.8186 62.8972 39.7719 62.8504 39.7999 62.8224C39.8559 62.8785 39.9586 62.9532 40.0239 62.9719C39.9959 62.8785 40.0053 62.8785 40.0239 62.8598L40.052 62.9439C40.08 62.8224 40.136 63.1215 40.1733 63.0187L40.192 63.0747L40.1453 62.9065C40.1453 62.7383 40.248 63.0747 40.22 62.8504C40.2013 62.8691 40.136 62.6822 40.1733 62.7009L40.2013 62.785V62.7289C40.2106 62.7757 40.248 62.8411 40.2573 62.8131L40.2853 62.9159L40.2573 62.7476C40.3227 62.8037 40.3133 62.6635 40.3787 62.757C40.3787 62.757 40.4627 62.757 40.4067 62.6355C40.4347 62.7103 40.4907 62.7103 40.528 62.7944C40.5 62.7103 40.5 62.6074 40.5747 62.6729C40.6401 62.6916 40.6587 62.6355 40.6587 62.5981C40.6587 62.5607 40.6587 62.5233 40.7054 62.5607C40.6401 62.486 40.6961 62.514 40.6027 62.4299C40.556 62.3084 40.8361 62.5607 40.5934 62.2617C40.5934 62.2336 40.6681 62.3084 40.6961 62.3177V62.3364C40.7147 62.2897 40.7241 62.2803 40.7428 62.2617C40.7334 62.2243 40.6121 62.0934 40.6587 62.1028C40.6961 62.1589 40.6961 62.1402 40.7054 62.1402C40.7054 62.1495 40.7241 62.1682 40.7614 62.1962C40.7521 62.1775 40.7428 62.1682 40.7334 62.1589C40.7334 62.1589 40.7334 62.1589 40.7428 62.1682C40.7428 62.1402 40.7241 62.1215 40.7147 62.1215C40.7147 62.1215 40.6961 62.1028 40.6867 62.0934C40.7614 62.1495 40.7147 62.056 40.7988 62.1495C40.8174 62.1028 40.7614 61.9813 40.7614 61.9159C40.8081 61.9626 40.8361 62.0093 40.8454 62.028V61.9906C40.9108 62.056 40.8734 62.0374 40.8828 62.056C41.0041 62.1402 40.8361 61.8972 40.9575 61.9719L40.9201 61.9159C40.9201 61.9159 40.8641 61.8504 40.8641 61.8411C40.9201 61.8972 40.9855 61.9813 40.9948 61.9626C41.0601 62.0093 40.9948 61.9065 40.9948 61.8598C40.9761 61.8598 40.9481 61.8224 40.9388 61.8037C40.9388 61.8037 41.0041 61.8504 40.9855 61.8224L41.0601 61.9065C40.9948 61.8317 41.0135 61.8131 40.9855 61.7757C41.0415 61.8317 41.0135 61.8317 41.0601 61.8785C41.0881 61.8504 41.0695 61.8598 41.0975 61.8317C41.0601 61.757 41.0321 61.757 40.9761 61.6822C40.9761 61.6542 40.9388 61.5888 41.0041 61.6168L40.9388 61.5514C40.9108 61.4673 40.9388 61.4673 41.0228 61.5233C40.7147 60.7757 40.3693 60.7009 40.3693 60.7009C40.1546 60.6168 40.2947 60.8504 40.2573 60.9906" fill="#1B1B1B"/>
<path d="M39.8281 56.0093H39.9028C39.9028 56.0093 39.8655 55.9906 39.8281 56.0093Z" fill="#1B1B1B"/>
<path d="M40.1082 57.4018C40.743 56.8878 41.0137 56.8691 41.5738 56.2523C41.8725 56 42.1526 55.6822 42.4233 55.4112C42.47 55.1869 42.7967 55.0841 42.89 54.8504H43.0021C43.0301 54.7757 43.0861 54.7009 43.1608 54.6916V54.7102C43.2168 54.5887 43.3381 54.542 43.3568 54.4859V54.5046L43.4595 54.4112V54.4486C43.5715 54.271 43.7302 54.1401 43.8796 54.056L43.8049 53.9906C44.169 53.8317 44.1503 53.5887 44.4957 53.4766V53.4953C44.6824 53.028 45.1491 53.2056 45.3452 52.7383C45.3172 52.7944 45.3918 52.7663 45.4012 52.785C45.5412 52.6355 45.7092 52.4859 45.5972 52.3364C45.7186 52.2523 45.7279 52.3084 45.7933 52.3551C45.7373 52.2897 45.8213 52.1869 45.9146 52.1028L45.8866 52.1588L46.1387 51.9345L45.9893 51.8504C46.1573 51.7757 46.1387 51.9813 46.2507 51.8504L46.176 51.7476C46.3907 51.6168 46.6147 51.6916 46.8668 51.6355C47.2775 51.3738 47.6509 51.028 48.043 50.7196L48.183 50.6074L48.2391 50.5514L48.2951 50.5046C48.2951 50.5046 48.3324 50.4673 48.3604 50.4859C48.4071 50.5046 48.4538 50.5327 48.4911 50.5607C48.5191 50.5794 48.5191 50.5887 48.5565 50.6261C48.5938 50.6635 48.6311 50.7009 48.6591 50.7289L48.6311 50.8317C48.5565 50.9626 48.9205 50.7757 48.8552 50.9065H48.9672C48.9672 50.9065 48.9859 51 48.9392 51C48.9952 51.056 49.0045 51.0373 49.0792 51.0467V51.1682C49.2006 51.4205 49.4713 51.542 49.5273 51.8598C49.4993 52.056 49.5086 52.3084 49.5273 52.5981C49.5273 52.8785 49.6393 52.785 49.4059 53.0747C48.9859 53.7383 47.9497 53.8972 47.5296 54.5887C47.5016 54.5887 47.4736 54.6635 47.4923 54.6822L46.9508 55.1401C46.9508 55.1401 44.3463 57.3831 47.0815 56.542V56.5794C47.4269 56.3831 47.6229 56.2243 47.7163 55.9345C47.875 56.0467 47.9683 55.7383 48.0804 55.7196V55.7383C48.1644 55.4673 48.5284 55.5046 48.6125 55.2523C48.6125 55.271 48.6498 55.3084 48.6125 55.3458C48.7152 55.2149 48.8645 55.0373 48.9392 55.1121C49.2192 54.8317 49.6673 54.4953 49.7327 54.1962V54.2336C49.77 54.0467 49.8727 54.0934 49.9474 53.9439C49.9661 53.9439 49.9754 53.9439 49.9754 53.9439C49.9941 53.8504 50.0781 53.7663 50.1621 53.7009C50.2835 53.5981 50.4141 53.4953 50.4701 53.4205L50.5448 53.4486C50.6288 53.4018 50.6008 53.3084 50.6195 53.2336L50.6475 52.9813L50.6008 53.1588C50.5075 53.0934 50.5542 53.0187 50.6102 52.8972C50.6662 52.7944 50.7315 52.6916 50.6662 52.542C50.6755 52.4205 50.5822 52.299 50.4701 52.1775C50.3581 52.0654 50.2554 51.9626 50.2928 51.8411C50.1714 51.7476 50.4702 51.9065 50.3581 51.757C50.4608 51.7289 50.4421 51.8224 50.5168 51.757C50.4141 51.5981 50.5635 51.4299 50.3955 51.2523L50.4701 51.2149C50.3488 51.1028 50.3115 50.9719 50.2648 50.8504C50.2274 50.7196 50.1808 50.6074 50.0594 50.5794C49.826 50.3925 50.1154 50.2523 49.77 50.1308L49.7513 49.9626C49.658 49.8598 49.5926 50 49.4993 49.8691C49.5553 49.813 49.3779 49.7102 49.49 49.7102C49.434 49.6355 49.3593 49.5794 49.2846 49.542C49.2473 49.5233 49.2006 49.5046 49.1539 49.4859C49.0979 49.4579 49.0325 49.4392 48.9672 49.4205C48.8458 49.3644 48.7151 49.3364 48.5845 49.2803C48.5191 49.2523 48.4538 49.2243 48.3791 49.1962C48.3044 49.1682 48.2297 49.0841 48.155 49.1308C48.0524 49.3458 47.763 49.4205 47.7163 49.5607C47.707 49.5514 47.6696 49.5607 47.6229 49.5794C47.6043 49.5887 47.5763 49.6074 47.5483 49.6168C47.5296 49.6168 47.5109 49.6355 47.5016 49.6448C47.4362 49.6729 47.3896 49.6729 47.4456 49.5607C47.4549 49.542 47.4829 49.5233 47.4923 49.542C47.4923 49.514 47.4923 49.4859 47.4923 49.4486C47.1935 49.4579 47.1842 49.7476 46.9882 49.8504C47.0535 49.8411 47.1282 49.785 47.1095 49.8598L46.9321 49.9626V49.8785L46.6521 50.0187L46.7361 50.0654C46.5867 50.1121 46.4654 50.0187 46.4 50.2243C46.372 50.3271 46.5774 50.2336 46.4654 50.3458C46.2693 50.4112 45.98 50.514 45.7559 50.6448C45.8306 50.7102 45.7746 50.7476 45.7279 50.8037L45.6719 50.7383C45.5319 50.9906 45.4852 50.6542 45.3265 50.8785L45.3078 50.8224L45.3545 51.0093C45.2705 51.2803 45.1491 50.9532 45.0745 51.2897C45.1491 51.2149 45.2238 51.4018 45.1025 51.4579L45.0745 51.3738C45.0278 51.4299 45.0278 51.4766 44.9811 51.4859C44.9811 51.4299 44.9251 51.3831 44.8504 51.4579V51.3364L44.7757 51.5794C44.6077 51.6074 44.477 51.8411 44.3557 51.7944C44.3557 51.7944 44.0663 51.9532 44.0849 52.0934C44.0849 51.9906 43.9262 52.0841 43.9169 51.9813C43.9076 52.1028 43.7582 52.3177 43.6182 52.3084V52.2897C43.2821 52.4486 43.2168 52.785 42.89 52.9158C42.9647 52.9813 42.7967 53.0467 42.9087 53.1215C42.722 53.4299 42.2646 53.3271 42.414 53.7009C42.3113 53.813 42.2179 53.7476 42.1432 53.785L42.1619 53.7476C41.9565 53.9626 41.8912 54.0187 41.7232 54.1588C41.6671 54.2616 41.7698 54.4018 41.5925 54.4953C41.5925 54.4018 41.5364 54.4673 41.4898 54.514C41.5178 54.4766 41.5084 54.4486 41.4058 54.4766C41.4058 54.5046 41.4058 54.5233 41.4058 54.5514C41.4058 54.5514 41.3964 54.5514 41.3964 54.542C41.3217 54.6448 41.3497 54.6448 41.3964 54.6168C41.3964 54.6168 41.4151 54.6355 41.4431 54.6355C41.2844 54.6542 41.1817 54.8785 41.0884 54.7944C40.8363 55.0654 40.7243 55.3271 40.5376 55.5701C40.4722 55.5514 40.4816 55.4579 40.5376 55.3831L40.3976 55.5514C40.3416 55.4859 40.4536 55.4299 40.4909 55.3738C40.2015 55.4392 40.2015 55.8317 39.8935 55.9439V56.0373H39.8748C39.8748 56.0373 39.8841 56.1495 39.8655 56.1869C39.7814 56.1588 39.7441 56.056 39.6414 56.1588C39.5014 56.1869 39.4267 56.4112 39.3334 56.5514C39.3987 56.5046 39.4174 56.5514 39.408 56.5981C39.352 56.6448 39.268 56.6261 39.2493 56.6822L39.1747 56.6074C39.2587 56.6542 39.1093 56.813 39.1187 56.8691C39.0346 56.8411 39.156 56.7383 39.128 56.6822C38.9133 56.8878 39.016 56.785 38.8106 56.9906C38.7453 57.1495 38.8946 57.0467 38.9039 57.1682C38.8199 57.271 38.7639 57.4205 38.6052 57.4766L38.7079 57.514C38.5585 57.7383 38.4279 57.8411 38.2412 57.8785C37.7464 58.8037 37.8211 59.0654 38.0358 59.1028C38.2505 59.1402 38.5959 58.9439 38.5959 58.9439C39.3334 58.5887 39.4547 58.1121 40.0895 57.4392" fill="#1B1B1B"/>
<path d="M13.5217 64.2991C14.2779 65.243 15.0527 66.3084 16.2383 66.5047C17.6199 66.7477 18.3387 66.3084 19.5055 64.9907C20.4204 63.9626 20.4017 61.9813 20.1683 60.972C19.9256 59.9252 19.5336 58.8879 18.8241 58.0841C18.1146 57.2804 17.0598 56.729 15.9955 56.8411C15.2487 56.9159 14.5673 57.3271 13.9978 57.8038C11.6641 59.7851 13.1017 63.7664 13.5217 64.2991Z" fill="black"/>
<path d="M16.6021 66.0654L16.6581 66.1122C16.6581 66.1122 16.6487 66.0748 16.6021 66.0654Z" fill="#1B1B1B"/>
<path d="M15.4538 67.0188C15.7245 67.1496 15.9765 67.2244 16.1819 67.2805C16.378 67.3272 16.546 67.3739 16.7327 67.4113C17.0968 67.458 17.5542 67.4861 18.1796 67.1964C18.7864 66.9627 19.2252 66.5141 19.5612 66.159C19.6359 65.8879 20 65.7104 20.1027 65.402L20.2427 65.3552C20.2894 65.2431 20.336 65.1122 20.4294 65.0375L20.4481 65.0562C20.4947 64.8786 20.5881 64.7291 20.6068 64.645L20.6254 64.6636C20.6534 64.5982 20.6721 64.5422 20.6908 64.4767L20.7095 64.5235C20.7561 64.2431 20.8215 63.9814 20.9055 63.7478H20.8028C21.0175 63.2711 20.8215 63.0655 20.9895 62.6356H21.0175C20.9055 62.3552 20.9428 62.1496 20.9802 61.916C21.0175 61.6917 21.0362 61.458 20.8775 61.187C20.9148 61.2524 20.9242 61.1496 20.9428 61.1496C20.8681 60.8693 20.7841 60.6076 20.5974 60.6543C20.5508 60.4767 20.6161 60.4954 20.6814 60.4487C20.5974 60.4767 20.5227 60.3272 20.4761 60.187L20.5227 60.2431C20.4761 60.1122 20.4201 59.9814 20.3734 59.8599L20.252 59.9908C20.224 59.7758 20.4107 59.8786 20.308 59.6917L20.1867 59.7384C20.1027 59.4487 20.2147 59.2057 20.168 58.8879C19.9066 58.2992 19.4585 57.7571 18.9264 57.3365C18.3943 56.916 17.8156 56.6169 17.2275 56.3272L17.1994 56.2151C17.1994 56.0655 16.798 56.3459 16.7794 56.2151C16.7234 56.2337 16.6767 56.2431 16.6207 56.2618C16.5833 56.2337 16.49 56.1964 16.574 56.1683C16.434 56.1496 16.4246 56.1683 16.3219 56.2151C16.2659 56.187 16.2193 56.159 16.1633 56.1309C15.8739 56.1029 15.6031 56.1777 15.3604 56.2805C15.1177 56.3833 14.8937 56.5048 14.6323 56.6263C14.2869 56.701 13.8855 56.9627 13.5494 57.2898C13.3814 57.4861 13.204 57.6637 13.0827 57.8693C12.9706 58.0749 12.8493 58.2618 12.7933 58.43C12.6346 58.9253 12.3732 59.3739 12.1958 59.8973C12.0278 60.4113 11.9158 60.9627 12.0745 61.458C12.0558 61.4954 12.1025 61.5702 12.1211 61.5702C12.1398 61.8693 12.1678 62.1683 12.2238 62.458C12.2238 62.458 12.2705 62.7291 12.3732 63.0655C12.4759 63.402 12.6439 63.8038 12.84 64.0936C13.0267 64.3833 13.316 64.5795 13.3907 64.4113C13.4747 64.2431 13.4841 63.8879 13.5494 63.1122H13.5868C13.5308 62.701 13.4934 62.4394 13.288 62.187C13.4654 62.1122 13.2507 61.8412 13.3067 61.7384H13.3254C13.1387 61.5048 13.4001 61.2244 13.26 60.9814C13.2787 60.9814 13.3254 61.0001 13.3254 61.0468C13.3067 60.8786 13.2694 60.6356 13.3814 60.6263C13.3814 60.2151 13.5494 59.701 13.4841 59.402L13.5121 59.43C13.4467 59.2431 13.5588 59.2524 13.5868 59.0749C13.6054 59.0749 13.6148 59.0749 13.6148 59.0749C13.5681 58.8599 13.8388 58.673 13.8761 58.5422L13.9415 58.5795C13.9882 58.4861 14.0815 58.4207 14.1375 58.3365L14.0442 58.4113C13.9882 58.3272 14.0442 58.3085 14.1375 58.2805C14.2309 58.2524 14.3242 58.2151 14.3802 58.0842C14.5669 57.9627 14.5016 57.458 14.7817 57.402C14.8283 57.2618 14.7817 57.5889 14.8843 57.4393C14.9404 57.5328 14.847 57.5422 14.931 57.5889C15.0524 57.458 15.2111 57.5608 15.3604 57.4207L15.3978 57.4954C15.5845 57.2524 15.8645 57.458 15.9859 57.2992C16.2286 57.2057 16.1539 57.5235 16.406 57.3739L16.49 57.4954C16.5927 57.5235 16.5833 57.3646 16.6954 57.4393C16.6767 57.5048 16.826 57.5235 16.742 57.5795C16.854 57.6636 16.9847 57.6636 17.1341 57.6917C17.2835 57.7197 17.4422 57.7758 17.5448 57.944C17.6849 57.8693 17.7969 58.0375 17.9089 58.0001C17.8809 58.0562 18.189 58.2431 17.9463 58.2151C17.9276 58.2151 17.8996 58.187 17.9183 58.1777L17.8436 58.2244C17.8902 58.4674 18.1703 58.402 18.301 58.5795C18.2823 58.5141 18.217 58.458 18.301 58.4674C18.3383 58.5141 18.3757 58.5702 18.4223 58.6263H18.3383C18.385 58.7197 18.441 58.8038 18.4877 58.8973L18.5344 58.8132C18.581 58.9627 18.4877 59.0749 18.6744 59.1496C18.7677 59.1777 18.7024 58.9721 18.8051 59.0936C18.8611 59.2898 18.9171 59.5982 19.0011 59.8412C19.0851 59.7851 19.1038 59.8412 19.1505 59.9066L19.0758 59.944C19.2812 60.159 18.9451 60.1029 19.1225 60.3272H19.0571H19.2438C19.4772 60.5235 19.1225 60.5141 19.4119 60.7197C19.3652 60.6169 19.5706 60.6169 19.5706 60.7665H19.4866C19.5239 60.8225 19.5612 60.8412 19.5612 60.8973C19.5052 60.8693 19.4399 60.8973 19.4772 61.0094L19.3652 60.9627L19.5612 61.1309C19.5052 61.2898 19.6546 61.5141 19.5519 61.5982C19.5519 61.5982 19.5332 61.9347 19.6546 62.0001C19.5706 61.9347 19.5519 62.1216 19.4585 62.0749C19.5519 62.1496 19.6266 62.4207 19.5239 62.5141V62.4954C19.4119 62.8599 19.5986 63.159 19.4212 63.458C19.5146 63.458 19.4212 63.6169 19.5519 63.6076C19.5706 63.7945 19.4585 63.916 19.3839 64.0188C19.3185 64.1216 19.2718 64.187 19.4119 64.3459C19.3559 64.4861 19.2438 64.4487 19.1972 64.4954V64.458C19.0851 64.6636 18.9918 64.7665 18.8238 64.9347C18.7677 65.0468 18.8798 65.187 18.7024 65.3085C18.7024 65.2057 18.6464 65.2805 18.5904 65.3365C18.6184 65.2898 18.6091 65.2618 18.5064 65.2992C18.5064 65.3179 18.5064 65.3459 18.497 65.3739C18.497 65.3739 18.4877 65.3739 18.4877 65.3646C18.413 65.4674 18.441 65.4674 18.4877 65.4394C18.4877 65.4487 18.5064 65.458 18.5344 65.458C18.3757 65.4861 18.2543 65.701 18.1703 65.6169C17.8996 65.8599 17.7409 66.0842 17.4608 66.2151C17.4142 66.159 17.4608 66.0936 17.5355 66.0468C17.4795 66.0749 17.4142 66.1029 17.3488 66.1216C17.3301 66.0281 17.4422 66.0468 17.4982 66.0094C17.3675 65.9814 17.2741 66.0281 17.1528 66.0842C17.0314 66.1309 16.8914 66.1777 16.742 66.1029L16.6767 66.1683H16.658C16.658 66.1683 16.5833 66.2431 16.5367 66.2524C16.4993 66.1683 16.5647 66.0749 16.406 66.0562C16.3033 65.9721 16.1072 66.0281 15.9392 66.0188C16.0046 66.0655 15.9672 66.0936 15.9299 66.1029C15.8552 66.0749 15.8552 65.9908 15.7898 66.0001L15.8272 65.8973C15.8085 66.0001 15.6125 65.9066 15.5658 65.9253C15.5658 65.8412 15.6965 65.9253 15.7432 65.8786C15.4911 65.7384 15.6125 65.8225 15.3604 65.6543C15.1831 65.6169 15.3231 65.7571 15.2017 65.7758C15.071 65.701 14.903 65.6543 14.819 65.4861L14.791 65.5889C14.5203 65.4394 14.4083 65.2898 14.3522 65.0749C13.3347 64.4487 13.064 64.4954 13.036 64.7384C13.008 64.9627 13.2414 65.3739 13.2414 65.3739C13.4561 65.8038 13.7175 66.0842 14.0535 66.3365C14.3989 66.5795 14.8003 66.8319 15.4444 67.0749" fill="#1B1B1B"/>
</g>
<defs>
<clipPath id="clip0_28097_41884">
<rect width="49" height="64" fill="white" transform="translate(12 11)"/>
</clipPath>
</defs>
</svg>
