<svg width="80" height="80" viewBox="0 0 80 80" fill="none" xmlns="http://www.w3.org/2000/svg">
<path d="M64.0424 69.2348H15.4502V10.4661H52.8216L64.0424 21.7037V69.2348Z" fill="white"/>
<path d="M34.385 70.0518L33.8655 69.9841C33.8655 70.0153 34.0057 70.0414 34.385 70.0518Z" fill="#1B1B1B"/>
<path d="M40.873 68.0279C33.7249 67.9498 31.8288 67.6481 24.4158 67.7677C22.9457 67.7677 21.434 67.7677 19.9223 67.7677H17.6678H16.9457H16.847V67.6949V67.3775C16.608 65.7335 16.847 62.8356 16.6444 60.8899L16.7743 60.1355C16.692 59.4291 16.6798 58.7164 16.7379 58.0076L16.7743 58.0492C16.6704 57.0503 16.7327 55.9214 16.6808 55.4479L16.7223 55.4896V54.2722L16.7743 54.4802C16.6704 52.7374 16.66 50.9373 16.7119 49.3557L16.5457 49.4857C16.7275 46.0989 16.3898 44.8606 16.608 41.8015L16.6496 41.8431C16.2184 37.9828 16.9405 35.7352 16.5301 31.7552C16.5821 32.2495 16.6184 31.5419 16.6548 31.5836C16.608 29.747 16.5872 27.7857 16.2652 27.7596C16.2652 26.4226 16.3639 26.6723 16.4886 26.4954C16.3483 26.4954 16.2911 25.3404 16.2808 24.2999L16.3379 24.7785L16.286 21.787L16.0262 22.3749C16.0989 20.8142 16.3483 21.9743 16.2808 20.4552H16.0626C16.1093 18.2597 16.4366 16.9746 16.5821 14.852C16.5821 14.1184 16.5821 13.3796 16.5821 12.6409V11.824V11.5275L26.7275 11.3402C30.447 11.2882 34.0834 11.283 37.5015 11.4443L37.8652 11.6107C38.021 11.8501 40.1249 11.257 40.4626 11.4755L41.4132 11.3662C41.6834 11.4078 42.2444 11.4547 41.7717 11.5119C42.2933 11.5265 42.8151 11.4917 43.3301 11.4078L44.2756 11.5587C45.7717 11.6055 47.1743 11.5587 48.5769 11.5587L52.4522 11.4547L53.2054 12.2142C54.3743 13.5617 56.0678 15.2942 57.8808 17.0891C58.8002 17.9787 59.7457 18.8996 60.6756 19.7945L62.0574 21.1107L62.7275 21.7454L62.8937 21.9015L62.9717 21.9691L63.0911 22.068V22.2137V22.2865V22.4894C63.0911 22.7599 63.0911 23.0097 63.1171 23.2802C63.1171 23.8005 63.1483 24.2791 63.1639 24.7369C63.5223 31.4483 62.5665 39.2574 62.9769 46.1353C62.9578 46.4028 62.9824 46.6716 63.0496 46.9313L63.0132 53.2264C63.0132 53.2264 62.9197 83.7345 64.9093 60.5569L64.9613 60.7078C65.1304 58.047 65.0956 55.3772 64.8574 52.7218C65.1795 52.3472 64.8886 49.8967 64.9924 49.0799L65.0184 49.1528C64.7691 47.0717 65.2262 44.8294 65.0184 42.8056C65.1183 42.9824 65.1602 43.1863 65.1379 43.3883C65.0963 41.9159 65.0236 39.8973 65.2158 39.7881C65.1639 36.2659 65.2522 31.3442 64.9509 29.0863L65.0028 29.2424C64.8002 27.9573 64.9717 27.5775 64.873 26.1208C64.873 26.0428 64.9093 25.9439 64.9197 25.9595C64.8383 25.269 64.8036 24.5737 64.8158 23.8785C64.8158 22.9889 64.8158 22.0732 64.8158 21.3292C64.447 20.9598 64.0834 20.6061 63.9483 20.4968L63.9847 20.3563L61.995 18.4053L62.7119 19.1597C62.1924 19.1597 61.3717 17.5157 59.7872 16.2411C58.4782 14.8728 56.5717 14.03 55.2989 12.516C54.5249 11.9697 56.0678 12.9166 54.9925 11.9957C55.086 11.8397 55.5119 12.3807 55.3769 12.027C55.0082 11.7032 54.6611 11.3556 54.3379 10.9864C54.1821 10.8148 54.0262 10.6379 53.8704 10.4662L53.5379 10.1124L53.1275 9.69098C52.6963 9.69098 52.1249 9.69097 51.8236 9.72219L51.7509 9.58173C49.5379 9.83665 47.595 9.39442 46.1041 9.63895C43.8236 9.7534 44.5769 9.22795 42.1976 9.49848L41.2782 9.3112C40.2392 9.27998 40.5457 9.5401 39.4184 9.45166C39.4911 9.332 37.995 9.35281 38.6548 9.24356C36.1041 9.05626 33.46 9.50369 30.1145 9.19153C29.3872 9.42565 27.6938 9.28518 27.1535 9.45687C27.06 9.35802 23.7613 9.45686 25.6626 9.22274C25.8236 9.22274 26.1145 9.22274 26.0937 9.22274L26.3223 9.08747C24.4054 8.82734 22.8366 9.22794 20.9405 9.18632C21.5015 9.23315 22.2496 9.22274 21.7509 9.31639H19.9899L20.3587 9.20193L17.7301 9.13431L18.0938 9.27998C17.8184 9.27998 17.5743 9.23836 17.3613 9.21234L17.0496 9.17592H16.9613H16.8262H16.5561C15.7556 9.12034 14.9527 9.10817 14.1509 9.1395C14.1509 9.45686 14.1821 9.81064 14.2132 10.18C14.2704 10.8043 14.3171 10.2789 14.3535 9.94071C14.3899 9.60254 14.4262 9.42045 14.447 10.565C14.447 10.9188 14.421 11.2986 14.4106 11.694C14.4106 11.8501 14.4106 12.0061 14.4106 12.1726C14.4106 12.3391 14.4106 12.4223 14.4106 12.5524C14.3847 13.0727 14.3535 13.6242 14.3275 14.186C14.2704 15.3202 14.2236 16.5168 14.2028 17.6146C14.3639 17.4065 14.3587 17.9995 14.3899 18.603L14.2496 18.6759C14.447 21.0067 13.9431 19.5291 14.0989 21.8391L14.0002 21.6362L14.2912 22.2501C14.5717 24.3311 14.0054 23.3739 14.3795 25.689C14.3795 24.7734 14.6911 25.2572 14.6288 26.3861L14.4937 26.1C14.5343 26.515 14.5534 26.9317 14.5509 27.3486C14.4782 26.9793 14.3535 27.1561 14.3795 28.0718L14.208 27.4579L14.4574 29.1904C14.3119 30.5326 14.4937 32.6553 14.3015 33.2068C14.3015 33.2068 14.2132 36.0838 14.421 36.7446C14.2912 36.1671 14.2392 37.7851 14.0885 37.3064C14.2773 38.5739 14.3139 39.8594 14.1976 41.1356V40.9691C14.0366 44.2363 14.4158 46.5515 14.2236 49.4805C14.3847 49.3505 14.2963 50.8957 14.5041 50.5211C14.7067 53.549 14.0834 56.0462 14.7223 57.1388C14.721 57.9244 14.6603 58.7088 14.5405 59.4851L14.5041 59.1574C14.5561 61.7587 14.5613 62.4923 14.5457 64.412C14.608 65.3693 14.9093 65.5202 14.8366 67.2371C14.7743 66.9561 14.7535 66.9925 14.7431 67.1798C14.7431 67.2735 14.7431 67.4035 14.7431 67.5492V68.1995C14.7431 67.596 14.6808 67.3515 14.6028 68.7198C14.6408 68.9507 14.6668 69.1834 14.6808 69.4169C14.6808 69.4169 14.6808 69.495 14.6496 69.4742C14.6496 69.7135 14.6496 69.906 14.6496 70.0569C15.6574 70.0204 15.3561 69.9944 14.7379 69.9788C14.7379 69.9788 14.7743 69.8852 14.8002 69.6771C14.8002 69.7551 14.8002 69.8384 14.8002 69.932C15.1847 69.9632 15.6626 69.9788 16.1561 69.984H17.4236C17.8135 69.939 18.2085 69.9781 18.5821 70.0985C21.8028 70.0517 24.0989 69.8383 26.7795 69.7603C27.0808 69.8644 26.4522 69.958 25.673 69.9996L27.5743 69.9632C27.5743 70.1089 26.4834 70.0465 25.8963 70.0777C28.1613 70.3222 30.5717 69.8332 33.2106 70.0777L33.7613 69.958H33.9223C34.2353 69.8446 34.5661 69.7882 34.8989 69.7915C35.273 69.9216 34.873 70.0933 36.1873 70.0829C37.6242 70.1319 39.0627 70.0867 40.4937 69.9476C39.7613 69.9476 40.0002 69.854 40.3171 69.8071C40.9717 69.8071 41.3561 69.9372 41.8756 69.88L41.9431 70.0569C41.6834 69.8904 43.6574 69.8748 43.8963 69.8019C44.2704 69.9372 42.8574 69.9164 42.7171 70.0152L46.6652 69.9892C48.0678 69.8592 46.4106 69.8227 47.0808 69.6667C48.369 69.5797 49.661 69.564 50.9509 69.6199L50.5041 69.4586C52.2673 69.3341 54.0376 69.3532 55.7976 69.5158C73.1483 68.2412 59.434 67.7729 59.434 67.7729C52.6028 67.4243 49.0756 67.8822 40.9457 68.0018" fill="#1B1B1B"/>
<path d="M36.2334 41.5881C36.2334 41.5881 36.2022 41.6246 36.197 41.7234L36.2334 41.5881Z" fill="#FE6F0F"/>
<path d="M35.8917 25.2061L35.8389 25.1531L35.8917 25.2061Z" fill="#FE6F0F"/>
<path d="M31.1953 29.5234C31.1953 29.5234 31.1641 29.4974 31.0654 29.4922L31.1953 29.5234Z" fill="#FE6F0F"/>
<path d="M50.2651 33.4514C50.4002 32.9727 50.1872 32.5825 50.208 32.1091C50.208 32.2496 50.208 32.4369 50.1405 32.312V31.8698L50.2028 31.9634L50.2392 31.3079L50.1612 31.3963C50.1612 31.2402 50.2236 31.131 50.2443 31.0165C50.2526 30.9561 50.2526 30.8949 50.2443 30.8344C50.2443 30.8344 50.2443 30.7824 50.2443 30.7304C50.2443 30.6784 50.2443 30.6003 50.2184 30.5015C50.156 30.2362 50.1145 31.0218 50.0937 30.4651L50.1664 29.3153L48.608 29.2373C48.6547 29.3257 48.5093 29.3205 48.3586 29.3361V29.2633C47.7768 29.3673 48.1456 29.102 47.569 29.1852L47.4703 29.2841C46.9508 29.4297 47.1898 29.1332 46.6132 29.3309C46.8418 29.3309 46.7171 29.4922 46.4366 29.461L46.5093 29.3933C46.4057 29.4042 46.3012 29.4042 46.1976 29.3933C46.2911 29.3569 46.2495 29.2945 46.021 29.3049L46.1716 29.2164L45.7405 29.3465C45.408 29.2685 44.8781 29.3465 44.743 29.2633C44.4473 29.2343 44.1487 29.2554 43.8599 29.3257C44.0054 29.2581 43.6106 29.232 43.7249 29.154C43.575 29.2024 43.4197 29.2321 43.2625 29.2424C43.2625 28.795 42.9041 28.3372 42.9872 27.8741C42.9041 27.64 43.1223 28.0771 43.0599 27.7285C43.1534 27.7285 43.1171 27.8898 43.195 27.8013C43.1482 27.458 43.2885 27.2394 43.2262 26.818H43.2989C43.1638 26.2666 43.3976 25.7775 43.2677 25.4133C43.2054 24.841 43.4859 25.0283 43.3404 24.4352L43.4391 24.2063C43.4391 23.9566 43.3197 24.0606 43.3664 23.5924C43.4288 23.5924 43.4184 22.9733 43.4755 23.223C43.4755 22.9941 43.4755 22.76 43.4755 22.5363L42.0158 22.5831C41.7032 22.6087 41.3886 22.5912 41.0807 22.5311C40.8989 22.656 40.4781 22.5831 40.343 22.6768C40.343 22.6195 39.5015 22.6768 39.9742 22.5519C40.0158 22.5519 40.0833 22.5519 40.0781 22.5519L40.1353 22.4791C39.6573 22.3438 39.2677 22.5571 38.795 22.5363C38.9352 22.5363 39.1223 22.5363 38.9976 22.6039H38.5612L38.6495 22.5415L37.995 22.5051L38.0885 22.5831C37.9587 22.5613 37.8304 22.5318 37.7041 22.4947C37.6453 22.4891 37.5862 22.4891 37.5275 22.4947H37.4184L37.195 22.5259C36.9249 22.5883 37.7145 22.6299 37.1534 22.6507L36.0054 22.5779C36.0054 23.1554 35.9534 23.7225 35.9327 24.1387C36.0158 24.0919 36.0106 24.2375 36.0314 24.3884H35.9534C36.0573 24.9711 35.7924 24.6017 35.8755 25.1792L35.9794 25.2781C36.1249 25.7983 35.8236 25.559 36.0262 26.1365C36.0262 25.9076 36.1872 26.0324 36.156 26.3134L36.0833 26.2406C36.1068 26.3429 36.1172 26.4477 36.1145 26.5527C36.0729 26.4591 36.0106 26.5007 36.021 26.7296L35.9327 26.5787L36.0625 27.0105C35.9898 27.3435 36.0625 27.8742 35.9846 28.0094C35.9536 28.3036 35.9729 28.601 36.0417 28.8887C35.9742 28.7482 35.9482 29.1436 35.8703 29.0291C35.9114 29.1575 35.9375 29.2902 35.9482 29.4245L35.8651 29.4558C35.6002 29.4558 35.6469 29.4974 35.7716 29.5026C35.7716 29.5026 35.7716 29.5026 35.8132 29.5442C35.5327 29.461 35.0392 29.5442 35.008 29.4401C34.208 29.4401 33.6314 29.5754 32.9664 29.617C32.8885 29.565 33.0444 29.513 33.2418 29.4922H32.769C32.769 29.4141 33.0391 29.4454 33.1846 29.4298C32.6236 29.2997 32.021 29.5598 31.3612 29.4298L31.2262 29.4922H31.1846C31.1846 29.5286 31.0391 29.5702 30.9456 29.5806C30.8521 29.591 30.9924 29.4246 30.582 29.4298C30.2074 29.3888 29.8294 29.3888 29.4547 29.4298C29.4547 29.6327 29.4859 29.8356 29.4963 29.9812C29.4963 29.7211 29.5482 29.8408 29.5742 29.9812C29.5481 30.1534 29.5359 30.3274 29.5379 30.5015H29.4443C29.5326 30.5015 29.5378 31.0218 29.5742 31.053C29.5067 31.1466 29.5171 30.798 29.4651 30.7564C29.4651 31.4171 29.4651 31.0842 29.4651 31.7449C29.5378 32.0935 29.5534 31.6773 29.6366 31.849C29.6824 32.1677 29.6911 32.4907 29.6625 32.8115L29.7456 32.7022C29.8137 33.1393 29.8032 33.585 29.7145 34.0184C29.7768 34.393 29.8288 34.6896 29.8807 34.9497V35.9486V36.0995H30.156H30.2132C30.2755 36.1983 30.3275 36.2088 30.3794 36.1567C30.921 36.3108 31.4707 36.4341 32.0262 36.5261L31.9846 36.6354C32.6465 36.7252 33.3186 36.7059 33.9742 36.5781C34.0677 36.7498 34.6755 36.5781 34.8781 36.651C35.308 36.6041 35.7417 36.6041 36.1716 36.651C36.1716 36.651 36.1716 36.7082 36.1456 36.7602C36.1665 36.7973 36.1805 36.8378 36.1872 36.8799C36.1872 37.1452 36.2288 37.0984 36.2392 36.9735C36.2392 36.9735 36.2392 36.9735 36.2755 36.9319C36.1976 37.2077 36.2755 37.7071 36.1768 37.7383C36.1768 38.5395 36.3119 39.117 36.3534 39.7829C36.2963 39.8558 36.2495 39.6997 36.2236 39.5072V39.9806C36.1456 39.9806 36.182 39.7101 36.1664 39.5644C36.0365 40.1263 36.2911 40.7246 36.1664 41.3853L36.2288 41.5258V41.5622C36.2599 41.5622 36.3067 41.7131 36.3171 41.8068C36.2443 41.9212 36.156 41.7599 36.1612 42.1709C36.129 42.5471 36.1377 42.9256 36.1872 43.2999L36.7378 43.2531C36.4729 43.2531 36.5924 43.2063 36.7378 43.1803C36.9098 43.2063 37.0835 43.2185 37.2573 43.2167V43.3103C37.2573 43.2219 37.7768 43.2167 37.7768 43.1803C37.8703 43.2479 37.5275 43.2375 37.4859 43.2895H38.4677C38.8158 43.2166 38.4054 43.2011 38.5716 43.1178C38.8925 43.0781 39.217 43.0781 39.5379 43.1178L39.4236 43.0346C39.8616 42.9676 40.3079 42.9764 40.743 43.0606C41.1119 43.0033 41.408 42.9513 41.6729 42.8993H42.8158V42.6236C42.8187 42.6046 42.8187 42.5853 42.8158 42.5663C42.9145 42.5039 42.9249 42.4467 42.8729 42.3999C43.0291 41.8578 43.154 41.3071 43.2469 40.7506L43.2729 40.787C43.3626 40.1259 43.3433 39.4545 43.2158 38.7996C43.3872 38.706 43.2158 38.0973 43.2885 37.8944C43.2417 37.4499 43.2417 37.0018 43.2885 36.5573H43.4132C43.8859 36.5573 44.369 36.1775 44.8573 36.266C45.0911 36.1827 44.6547 36.4064 45.0028 36.3388C45.0028 36.4377 44.8366 36.4012 44.9301 36.4741C45.2729 36.4325 45.4911 36.5729 45.9119 36.5105V36.5833C46.4677 36.4481 46.9508 36.677 47.3197 36.5521C47.8911 36.4897 47.6989 36.7706 48.2911 36.6249L48.5249 36.7238C48.7742 36.7238 48.6703 36.6042 49.1378 36.651C49.1378 36.7134 49.756 36.703 49.5067 36.7602C49.7353 36.7602 49.969 36.7602 50.1924 36.7602C50.1924 36.3648 50.1612 35.7925 50.1405 35.2931C50.1202 34.9817 50.1377 34.669 50.1924 34.3618C50.0729 34.1797 50.1456 33.7583 50.0521 33.6231C50.1093 33.6231 50.0521 32.775 50.1768 33.2485C50.1768 33.2901 50.1768 33.3629 50.1768 33.3577L50.2651 33.4514ZM36.2132 36.6666V36.703C36.2157 36.691 36.2157 36.6786 36.2132 36.6666Z" fill="#FE6F0F"/>
<path d="M47.5576 29.1864L47.6105 29.1333L47.5576 29.1864Z" fill="#FE6F0F"/>
<path d="M28.9814 50.5054L29.0594 50.5678C29.0594 50.5366 29.0594 50.5158 28.9814 50.5054Z" fill="#1B1B1B"/>
<path d="M28.0416 52.524C29.0805 52.6021 29.3507 52.909 30.426 52.7842C30.9467 52.7878 31.4671 52.7601 31.9844 52.7009C32.2234 52.4668 32.639 52.7009 32.9195 52.5032L33.0286 52.6333C33.1273 52.5657 33.2416 52.5188 33.3403 52.5917V52.6333C33.4857 52.5292 33.652 52.5917 33.7247 52.5396V52.5813H33.9013L33.8701 52.6385C34.1049 52.5392 34.365 52.5174 34.613 52.5761V52.4096C35.1065 52.5917 35.2831 52.2535 35.7247 52.472V52.5084C36.2857 52.0818 36.6078 52.805 37.1844 52.394C37.1117 52.446 37.2156 52.4772 37.2104 52.5188C37.4753 52.472 37.7299 52.446 37.761 52.1287C37.9532 52.1287 37.9221 52.2275 37.9429 52.3524C37.9429 52.2119 38.1091 52.1547 38.2649 52.1442L38.1922 52.2015L38.6234 52.1495L38.5403 51.8893C38.7688 51.9622 38.5974 52.2119 38.8208 52.1442V51.9257C39.1377 51.9674 39.3403 52.3003 39.6312 52.446C40.9091 52.5397 42.2753 51.983 43.4649 52.368L43.5169 52.5344C43.5169 52.7738 43.8442 52.1755 43.8909 52.3992L44.026 52.2899C44.0675 52.3316 44.1507 52.3784 44.0779 52.4304C44.2078 52.4304 44.213 52.4044 44.3013 52.3315L44.4416 52.4772C44.9611 52.5969 45.3714 52.3055 45.9013 52.3627C46.5403 52.6697 47.7403 52.3627 48.4312 52.2275C49.3974 51.8685 50.5091 52.8258 51.5221 52.4148C51.5532 52.446 51.6416 52.3732 51.6364 52.3419L52.5507 52.3784C52.5507 52.3784 56.961 52.472 53.5896 50.4794V50.4274C53.4047 50.3439 53.2014 50.3096 52.9994 50.3279C52.7973 50.3461 52.6034 50.4162 52.4364 50.5314C52.3792 50.2089 52.026 50.5002 51.9169 50.3962V50.3702C51.6104 50.6199 51.2883 50.1621 50.9974 50.3702C50.9974 50.3702 50.9974 50.2557 51.0805 50.2505C50.8675 50.2921 50.561 50.365 50.561 50.1725C50.0416 50.2245 49.3403 50.1361 49.0026 50.4378V50.3858C48.8208 50.5887 48.7636 50.417 48.5558 50.5158C48.5558 50.5158 48.5299 50.4794 48.5299 50.469C48.3273 50.6719 47.9429 50.5002 47.7766 50.5887V50.4638H47.3714L47.5221 50.4898C47.4701 50.8332 47.2208 50.2765 46.9247 50.4898C46.6494 50.443 46.3688 51.2026 46.0831 51.0101C45.9481 51.1714 46.2026 50.7447 46 50.8696C46 50.6927 46.0987 50.7603 46.0468 50.6147C45.8442 50.7031 45.7195 50.4326 45.4701 50.5522V50.4118C45.1481 50.6667 44.8623 50.2297 44.6494 50.4742C44.3221 50.5887 44.426 50.058 44.0831 50.3337L43.9533 50.1464C43.8026 50.1152 43.8442 50.3753 43.6831 50.2817C43.6831 50.1672 43.4753 50.1881 43.5688 50.0736C43.2 49.8915 42.8208 50.3389 42.3325 50.0268C42.2286 50.2557 41.9844 50.1204 41.9065 50.2921C41.9065 50.1933 41.413 50.2921 41.6883 50.058C41.7143 50.058 41.7558 50.058 41.7506 50.058L41.787 49.9175C41.5065 49.6626 41.2675 50.0632 41.0078 50.0216C41.0857 50.0684 41.1948 50.058 41.1221 50.1516H40.8675L40.9195 50.0372L40.5403 49.9696L40.5922 50.11C40.4052 50.0372 40.3429 49.7979 40.1299 50.0008C40.0364 50.11 40.3065 50.1933 40.1299 50.2349C39.8283 50.1042 39.5128 50.0082 39.1896 49.9488C39.2208 50.11 39.1325 50.1048 39.0442 50.136V49.9956C38.7065 50.1933 38.9247 49.6886 38.587 49.8447L38.6182 49.7458L38.5299 50.0372C38.2286 50.3129 38.3688 49.751 38.0104 50.1256C38.1455 50.1256 38.0727 50.4326 37.9117 50.3753L37.9532 50.2401C37.8597 50.2661 37.8286 50.3233 37.7714 50.2973C37.8234 50.2245 37.7974 50.0996 37.6675 50.1204L37.7558 49.9539L37.5065 50.2037C37.3091 50.058 36.987 50.2401 36.9247 50.0476C36.9247 50.0476 36.5091 49.9539 36.4052 50.1621C36.4883 50.0372 36.2597 49.9852 36.3273 49.8343C36.2182 49.98 35.9013 50.0996 35.7714 49.9436H35.7974C35.3247 49.7823 34.987 50.1621 34.5662 49.9436C34.5662 50.11 34.3584 50.0216 34.4156 50.2245C33.9792 50.4326 33.6156 49.8083 33.4597 50.4482C33.2571 50.4794 33.2208 50.2973 33.1221 50.2609L33.1688 50.2297C32.917 50.2749 32.6605 50.2889 32.4052 50.2713C32.2701 50.3337 32.2494 50.6303 32 50.5627C32.0779 50.443 32 50.4638 31.8857 50.4638C31.9429 50.4638 31.9636 50.4014 31.839 50.3233C31.8238 50.3549 31.8004 50.3818 31.7714 50.4014C31.7714 50.4014 31.7714 50.4014 31.7714 50.3702C31.6156 50.4118 31.6416 50.4482 31.7143 50.469C31.787 50.4898 31.7143 50.5054 31.7403 50.5418C31.5792 50.3858 31.2883 50.5418 31.2675 50.3493C30.8664 50.4362 30.4708 50.5474 30.0831 50.6823C30.0416 50.5783 30.1299 50.4846 30.2442 50.4482L29.9688 50.4846C29.9688 50.3337 30.1247 50.3962 30.213 50.3702C29.8857 50.1256 29.5377 50.6095 29.174 50.3702L29.0909 50.4898C29.0827 50.5275 29.0657 50.5627 29.0413 50.5925C29.017 50.6223 28.9859 50.646 28.9507 50.6615C28.8935 50.5314 28.9506 50.3598 28.7636 50.365C28.613 50.2401 28.3325 50.4274 28.1403 50.5002C28.2442 50.5002 28.2078 50.5939 28.1403 50.6407C28.0727 50.6875 27.9896 50.5158 27.9169 50.573V50.3962C27.9533 50.5627 27.6675 50.5731 27.6312 50.6459C27.5792 50.5158 27.7818 50.5314 27.8026 50.4326L27.2312 50.4586C27.0286 50.5939 27.2675 50.6251 27.174 50.7812C26.9922 50.8176 26.8156 50.9372 26.613 50.8332L26.6753 50.9893C26.5553 51.0518 26.4203 51.0796 26.2854 51.0695C26.1505 51.0594 26.0211 51.0118 25.9117 50.932C23.3974 52.2119 25.3922 52.6801 25.3922 52.6801C26.3792 53.0287 26.8935 52.5709 28.0675 52.446" fill="#1B1B1B"/>
<path d="M28.9814 57.3159L29.0594 57.3783C29.0594 57.3471 29.0594 57.3211 28.9814 57.3159Z" fill="#1B1B1B"/>
<path d="M28.0416 59.334C29.0805 59.412 29.3507 59.7189 30.426 59.5941C30.9467 59.5978 31.4671 59.57 31.9844 59.5108C32.2234 59.2767 32.639 59.5109 32.9195 59.3079L33.0286 59.4432C33.1273 59.3756 33.2416 59.3288 33.3403 59.4016V59.4432C33.4857 59.3392 33.652 59.4016 33.7247 59.3495V59.3912H33.9013L33.8701 59.4484C34.105 59.3501 34.3643 59.3265 34.613 59.3808V59.2195C35.1065 59.4016 35.2831 59.0634 35.7247 59.2819V59.3183C36.2857 58.8917 36.6078 59.6097 37.1844 59.2039C37.1117 59.2559 37.2156 59.2871 37.2104 59.3287C37.4753 59.2819 37.7299 59.2559 37.761 58.9386C37.9532 58.9386 37.9221 59.0374 37.9429 59.1623C37.9429 59.0218 38.1091 58.9646 38.2649 58.9542L38.1922 59.0062L38.6234 58.9594L38.5403 58.694C38.7688 58.7721 38.5974 59.0166 38.8208 58.9542V58.7356C39.1377 58.7773 39.3403 59.1102 39.6312 59.2559C40.9091 59.3496 42.2753 58.7929 43.4649 59.1779L43.5169 59.3392C43.5169 59.5837 43.8442 58.9854 43.8909 59.2091L44.026 59.0998C44.0675 59.1415 44.1507 59.1883 44.0779 59.2403C44.2078 59.2403 44.213 59.2091 44.3013 59.1363L44.4416 59.2871C44.9611 59.4068 45.3714 59.1154 45.9013 59.1727C46.5403 59.4796 47.7403 59.1987 48.4312 59.0374C49.3974 58.6784 50.5091 59.6357 51.5221 59.2247C51.5532 59.2559 51.6416 59.1779 51.6364 59.1519L52.5507 59.1883C52.5507 59.1883 56.961 59.2767 53.5896 57.2841V57.2321C53.4039 57.1509 53.2006 57.1183 52.9989 57.1374C52.7971 57.1565 52.6036 57.2267 52.4364 57.3413C52.3792 57.0188 52.026 57.3101 51.9169 57.2061C51.6104 57.4506 51.2883 56.998 50.9974 57.2061C50.9974 57.2061 50.9974 57.0916 51.0805 57.0864C50.8675 57.128 50.561 57.1957 50.561 57.0084C50.0416 57.0604 49.3403 56.972 49.0026 57.2737V57.2217C48.8208 57.4246 48.7636 57.2477 48.5558 57.3518C48.5558 57.3518 48.5299 57.3153 48.5299 57.3049C48.3273 57.5078 47.9429 57.3362 47.7766 57.4246V57.2997H47.3714H47.5221C47.4701 57.6431 47.2208 57.0864 46.9247 57.2997C46.6494 57.2529 46.3688 58.0125 46.0831 57.82C45.9481 57.9813 46.2026 57.5599 46 57.6847C46 57.5078 46.0987 57.5703 46.0468 57.4298C45.8442 57.513 45.7195 57.2477 45.4701 57.3674V57.2269C45.1481 57.4818 44.8623 57.0448 44.6494 57.2893C44.3221 57.4038 44.426 56.8731 44.0831 57.1489L43.9533 56.9564C43.8026 56.9251 43.8442 57.1905 43.6831 57.0968C43.6831 56.9772 43.4753 57.0032 43.5688 56.8887C43.2 56.7066 42.8208 57.1541 42.3325 56.8419C42.2286 57.0708 41.9844 56.9355 41.9065 57.1072C41.9065 57.0084 41.413 57.1072 41.6883 56.8731C41.7143 56.8731 41.7558 56.8731 41.7506 56.8991L41.787 56.7587C41.5065 56.4985 41.2675 56.9043 41.0078 56.8627C41.0857 56.9095 41.1948 56.8939 41.1221 56.9876H40.8675L40.9195 56.8731L40.5403 56.8055L40.5922 56.9459C40.4052 56.8731 40.3429 56.6286 40.1299 56.8315C40.0364 56.946 40.3065 57.024 40.1299 57.0708C39.8283 56.9401 39.5128 56.8441 39.1896 56.7847C39.2208 56.9459 39.1325 56.9408 39.0442 56.972V56.8315C38.7065 57.024 38.9247 56.5246 38.587 56.6806L38.6182 56.5818L38.5299 56.8731C38.2286 57.1489 38.3688 56.5818 38.0104 56.9616C38.1455 56.9616 38.0727 57.2685 37.9117 57.2113L37.9532 57.076C37.8597 57.102 37.8286 57.1593 37.7714 57.1333C37.8234 57.0604 37.7974 56.9355 37.6675 56.9564L37.7558 56.7899L37.5065 57.0396C37.3091 56.8939 36.987 57.076 36.9247 56.8835C36.9247 56.8835 36.5091 56.7899 36.4052 56.998C36.4883 56.8679 36.2597 56.8211 36.3273 56.6702C36.2182 56.8159 35.9013 56.9355 35.7714 56.7795H35.7974C35.3247 56.6182 34.987 56.9928 34.5662 56.7795C34.5662 56.9407 34.3584 56.8523 34.4156 57.0604C33.9792 57.2685 33.6156 56.639 33.4597 57.2789C33.2571 57.3153 33.2208 57.1333 33.1221 57.0968L33.1688 57.0656C32.917 57.1108 32.6605 57.1248 32.4052 57.1072C32.2701 57.1697 32.2494 57.4662 32 57.3934C32.0779 57.2789 32 57.2997 31.8857 57.2997C31.9429 57.2997 31.9636 57.2373 31.839 57.1593C31.8238 57.1908 31.8004 57.2177 31.7714 57.2373C31.7714 57.2373 31.7714 57.2373 31.7714 57.2061C31.6156 57.2477 31.6416 57.2841 31.7143 57.2997C31.787 57.3153 31.7143 57.3414 31.7403 57.3778C31.5792 57.2217 31.2883 57.3778 31.2675 57.1853C30.8664 57.2722 30.4708 57.3834 30.0831 57.5183C30.0416 57.4142 30.1299 57.3205 30.2442 57.2789L29.9688 57.3205C29.9688 57.1697 30.1247 57.2321 30.213 57.2009C29.8857 56.9616 29.5377 57.4454 29.174 57.2009L29.0909 57.3205C29.0827 57.3582 29.0657 57.3934 29.0413 57.4232C29.017 57.4531 28.9859 57.4767 28.9507 57.4922C28.8935 57.357 28.9506 57.1905 28.7636 57.1957C28.613 57.0708 28.3325 57.2581 28.1403 57.331C28.2442 57.331 28.2078 57.4246 28.1403 57.4714C28.0727 57.5182 27.9896 57.3465 27.9169 57.3986V57.2217C27.9533 57.3882 27.6675 57.4038 27.6312 57.4766C27.5792 57.3466 27.7818 57.3622 27.8026 57.2633H27.2312C27.0286 57.3986 27.2675 57.4298 27.174 57.5859C26.9922 57.6171 26.8156 57.742 26.613 57.6379L26.6753 57.794C26.5553 57.8565 26.4203 57.8843 26.2854 57.8742C26.1505 57.8641 26.0211 57.8165 25.9117 57.7368C23.3974 59.0166 25.3922 59.4848 25.3922 59.4848C26.3792 59.8282 26.8935 59.3756 28.0675 59.2507" fill="#1B1B1B"/>
</svg>
